M48
INCH,LZ
;FILE_FORMAT=2:4
;TYPE=PLATED
;Layer: PTH_Through
;EasyEDA v6.5.5, 2022-06-25 23:47:44
;621e16e28f884fd4bf2062cce9099d3c,e579ade59e434e5c9d4a708449f7d829,10
;Gerber Generator version 0.2
;Holesize 1 = 0.0120 inch
T01C0.0120
;Holesize 2 = 0.0280 inch
T02C0.0280
;Holesize 3 = 0.0350 inch
T03C0.0350
;Holesize 4 = 0.0430 inch
T04C0.0430
;Holesize 5 = 0.0510 inch
T05C0.0510
%
G05
G90
T01
X008850Y001659
X008700Y001909
X009050Y001909
X006160Y003124
X005659Y003126
X-015903Y002977
X-014876Y002293
X-013970Y001389
X006152Y003688
X005663Y003687
X-008833Y-001221
X-013926Y002279
X-012183Y002479
X-011076Y002179
X-006400Y-003371
X-007700Y-002571
X-002000Y-002671
X004155Y-003614
X005655Y-003614
X003650Y003676
X015633Y001126
X015967Y000726
X004655Y003666
X014000Y000526
X014350Y000526
X015150Y-001974
X012050Y-000874
X011233Y-001524
X015967Y-001274
X015967Y-002074
X015965Y-001676
X015967Y-000074
X015100Y-000424
X015967Y-000874
X-012570Y001389
X-014356Y001627
X-011830Y001389
X-007700Y-001621
X-007700Y-001271
X-013860Y-003021
X-013860Y-002521
X-008408Y-000695
X-005750Y000796
X-005750Y000462
X-009292Y000655
X-008950Y-001771
X-009600Y-001771
X014700Y-002907
X014300Y-003241
X013100Y-002904
X012700Y-003241
X013500Y-003241
X013100Y-003514
X013900Y-003514
X-008308Y001029
X-008300Y002529
X-008300Y001679
X-008800Y002279
X-008800Y001662
X-009300Y-000321
X-005950Y001979
X014100Y001826
X009650Y-003874
X014550Y-003744
X014700Y-003244
X011300Y001859
X011450Y001059
X011650Y001359
X011300Y001359
X009139Y-000724
X005155Y-003614
X004650Y-003591
X006200Y-002641
X-006680Y-001908
X-003400Y-002188
X013500Y-000674
X012600Y000009
X011050Y000009
X010950Y-000891
X012900Y001843
X016600Y001059
X-008703Y-003984
X-008708Y-002997
X-011697Y-004018
X-008650Y-001588
X-016949Y-003149
X-016942Y-001858
X-016200Y-002488
X-017085Y-000071
X-017085Y000929
X011635Y003926
X-006200Y-001421
X-005720Y-001908
X-005720Y-000948
X-006680Y-000948
X005200Y-001091
X005200Y-000591
X005190Y-000091
X005190Y000409
X005190Y000909
X005690Y000909
X005690Y000409
X005690Y-000091
X005700Y-000591
X005700Y-001091
X006220Y-000581
X006220Y-000081
X006220Y000419
X006220Y000919
X006690Y-000091
X006690Y000409
X006690Y000909
X007190Y000909
X007190Y000409
X004750Y-001091
X004750Y-000591
X004750Y-000091
X004750Y000409
X004750Y000909
X006700Y001459
X006250Y001459
X005700Y001459
X005200Y001459
X004750Y001459
X-013860Y-002021
X-003476Y-003671
X-001994Y-003110
X-001716Y000411
X-002985Y001013
X-008050Y003212
X-008200Y002912
X-006990Y003632
X-011070Y-002261
X005155Y003666
X003155Y003666
X008650Y-002071
X008650Y-001721
X008250Y-002771
X008250Y-002421
X008250Y-001721
X008650Y-002421
X008250Y-002071
X008650Y-002771
T02
X-016781Y-003946G85X-016466Y-003946
X-016781Y-001096G85X-016466Y-001096
T03
X-015560Y-001572
X-015560Y-003478
T04
X-013540Y003732
X017200Y-000824
X017200Y000776
X017200Y-000024
X-016850Y003729
X-014650Y003729
X-015750Y003729
X017200Y-001624
X017200Y-003224
X017200Y-002424
X017200Y-000824
X017200Y-000024
X017200Y000776
X017200Y001576
X017200Y002376
X017200Y003176
X017200Y003976
X016100Y003959
X015300Y003959
X-000550Y-003271
X-000550Y-002471
X-000550Y-001671
X-000550Y-000871
X-000550Y-000071
X-000550Y000729
X-000550Y002329
X-000550Y003129
X-000550Y003929
X-001650Y003912
X-002450Y003912
X-000550Y001529
X-001337Y-003942
X016413Y-003895
T05
X013100Y003809
X014100Y003809
X-012850Y-003821
X-013850Y-003821
M30
