G04 Layer: TopSilkscreenLayer*
G04 EasyEDA v6.5.5, 2022-06-25 23:47:44*
G04 621e16e28f884fd4bf2062cce9099d3c,e579ade59e434e5c9d4a708449f7d829,10*
G04 Gerber Generator version 0.2*
G04 Scale: 100 percent, Rotated: No, Reflected: No *
G04 Dimensions in inches *
G04 leading zeros omitted , absolute positions ,3 integer and 6 decimal *
%FSLAX36Y36*%
%MOIN*%

%ADD10C,0.0100*%
%ADD46C,0.0060*%
%ADD47C,0.0080*%
%ADD48C,0.0080*%
%ADD49C,0.0079*%
%ADD50C,0.0059*%
%ADD51C,0.0039*%
%ADD52C,0.0063*%
%ADD53C,0.0118*%
%ADD54C,0.0040*%

%LPD*%
G36*
X284400Y352800D02*
G01*
X284400Y317200D01*
X291200Y317200D01*
X291200Y347900D01*
X342200Y324600D01*
X343000Y325400D01*
X343000Y332100D01*
X288700Y352800D01*
G37*
G36*
X340300Y307800D02*
G01*
X338500Y295400D01*
X324500Y295300D01*
X297000Y295300D01*
X284400Y295600D01*
X283500Y294400D01*
X288200Y276400D01*
X291200Y276400D01*
X290100Y288100D01*
X328020Y288080D01*
X338500Y287900D01*
X340300Y275400D01*
X343000Y275400D01*
X343000Y307800D01*
G37*
G36*
X327200Y265200D02*
G01*
X327200Y260400D01*
X338300Y258200D01*
X339300Y255700D01*
X339940Y253160D01*
X340300Y250660D01*
X340400Y248200D01*
X340300Y245900D01*
X339980Y243660D01*
X339440Y241560D01*
X338680Y239540D01*
X337720Y237659D01*
X336560Y235900D01*
X335180Y234280D01*
X333600Y232780D01*
X331800Y231439D01*
X329820Y230260D01*
X327620Y229240D01*
X325220Y228380D01*
X322600Y227700D01*
X319800Y227200D01*
X316800Y226900D01*
X313600Y226800D01*
X310440Y226920D01*
X307460Y227240D01*
X304660Y227780D01*
X302080Y228500D01*
X299680Y229400D01*
X297480Y230479D01*
X295480Y231720D01*
X293680Y233120D01*
X292080Y234660D01*
X290700Y236320D01*
X289520Y238120D01*
X288540Y240020D01*
X287780Y242020D01*
X287240Y244100D01*
X286900Y246260D01*
X286800Y248500D01*
X286940Y250700D01*
X287340Y252920D01*
X288020Y255159D01*
X289000Y257399D01*
X300200Y259600D01*
X300200Y264400D01*
X287300Y264200D01*
X286160Y262060D01*
X285240Y259920D01*
X284480Y257760D01*
X283920Y255640D01*
X283500Y253520D01*
X283200Y251460D01*
X283040Y249460D01*
X283000Y247500D01*
X283100Y244980D01*
X283380Y242520D01*
X283840Y240140D01*
X284460Y237860D01*
X285260Y235660D01*
X286220Y233560D01*
X287340Y231560D01*
X288620Y229660D01*
X290040Y227900D01*
X291580Y226240D01*
X293280Y224720D01*
X295100Y223340D01*
X297040Y222100D01*
X299100Y221000D01*
X301260Y220040D01*
X303540Y219259D01*
X305920Y218640D01*
X308400Y218180D01*
X310960Y217900D01*
X313600Y217800D01*
X316300Y217900D01*
X318900Y218160D01*
X321420Y218600D01*
X323820Y219200D01*
X326120Y219960D01*
X328300Y220880D01*
X330360Y221940D01*
X332320Y223160D01*
X334120Y224520D01*
X335820Y226020D01*
X337360Y227640D01*
X338760Y229400D01*
X340020Y231280D01*
X341120Y233280D01*
X342080Y235400D01*
X342860Y237620D01*
X343480Y239940D01*
X343940Y242380D01*
X344200Y244899D01*
X344300Y247500D01*
X344240Y249840D01*
X344060Y252140D01*
X343740Y254380D01*
X343280Y256600D01*
X342680Y258760D01*
X341940Y260880D01*
X341040Y262960D01*
X340000Y265000D01*
G37*
G36*
X327400Y210200D02*
G01*
X327400Y205900D01*
X339200Y203600D01*
X339200Y181100D01*
X314900Y181000D01*
X314900Y194200D01*
X323400Y195400D01*
X323400Y199000D01*
X302800Y199000D01*
X302800Y195400D01*
X311400Y194200D01*
X311400Y181000D01*
X288200Y181100D01*
X288200Y201900D01*
X299800Y204200D01*
X299800Y208600D01*
X284400Y208100D01*
X284400Y164600D01*
X287400Y164600D01*
X288300Y172800D01*
X296980Y172960D01*
X324640Y173000D01*
X339099Y172800D01*
X340000Y164600D01*
X343000Y164600D01*
X343000Y209800D01*
G37*
G36*
X301500Y140300D02*
G01*
X301500Y123400D01*
X304200Y123400D01*
X305100Y131300D01*
X336200Y120200D01*
X305000Y108699D01*
X304200Y116300D01*
X301500Y116300D01*
X301500Y95500D01*
X304200Y95500D01*
X304800Y100500D01*
X345600Y116800D01*
X348459Y115620D01*
X352160Y113859D01*
X353880Y112860D01*
X355500Y111780D01*
X357000Y110600D01*
X358360Y109300D01*
X359600Y107899D01*
X358900Y107300D01*
X357520Y105680D01*
X356520Y104179D01*
X355900Y102640D01*
X355700Y100900D01*
X355920Y99000D01*
X356560Y97320D01*
X357680Y96020D01*
X359300Y95300D01*
X361560Y95940D01*
X363280Y97660D01*
X364400Y100160D01*
X364799Y103100D01*
X364680Y104680D01*
X364300Y106240D01*
X363640Y107760D01*
X362720Y109240D01*
X361500Y110719D01*
X359980Y112160D01*
X358140Y113600D01*
X355980Y115040D01*
X353500Y116460D01*
X350660Y117860D01*
X347460Y119280D01*
X343900Y120700D01*
X305000Y135400D01*
X304200Y140300D01*
G37*
G36*
X327000Y92400D02*
G01*
X325240Y92300D01*
X323519Y91980D01*
X321900Y91440D01*
X320379Y90660D01*
X318940Y89660D01*
X317600Y88420D01*
X316380Y86920D01*
X315300Y85180D01*
X314340Y83160D01*
X313540Y80900D01*
X312880Y78340D01*
X312400Y75500D01*
X311480Y78940D01*
X310260Y81860D01*
X308760Y84260D01*
X307040Y86160D01*
X305120Y87620D01*
X303040Y88620D01*
X300860Y89220D01*
X298600Y89400D01*
X296580Y89260D01*
X294660Y88859D01*
X292880Y88180D01*
X291220Y87240D01*
X289720Y86020D01*
X288380Y84540D01*
X287220Y82800D01*
X286240Y80820D01*
X285460Y78560D01*
X284880Y76060D01*
X284520Y73300D01*
X284400Y70300D01*
X284400Y61800D01*
X287800Y61800D01*
X287800Y67900D01*
X287960Y71140D01*
X288440Y73920D01*
X289260Y76280D01*
X290420Y78200D01*
X291960Y79700D01*
X293880Y80760D01*
X296180Y81400D01*
X298900Y81600D01*
X301760Y81380D01*
X304220Y80700D01*
X306260Y79520D01*
X307920Y77880D01*
X309200Y75740D01*
X310100Y73080D01*
X310620Y69920D01*
X310800Y66200D01*
X310800Y61600D01*
X314400Y61600D01*
X314400Y66600D01*
X314480Y69520D01*
X314760Y72140D01*
X315200Y74480D01*
X315820Y76560D01*
X316620Y78380D01*
X317600Y79940D01*
X318740Y81240D01*
X320080Y82280D01*
X321580Y83080D01*
X323240Y83660D01*
X325080Y84000D01*
X327100Y84100D01*
X329020Y84000D01*
X330800Y83640D01*
X332420Y83059D01*
X333880Y82240D01*
X335160Y81199D01*
X336300Y79940D01*
X337260Y78440D01*
X338060Y76700D01*
X338680Y74740D01*
X339140Y72560D01*
X339400Y70140D01*
X339500Y67500D01*
X339500Y61800D01*
X329500Y61640D01*
X305020Y61620D01*
X284400Y61800D01*
X284400Y45300D01*
X287400Y45300D01*
X288300Y53400D01*
X296940Y53560D01*
X330319Y53560D01*
X339099Y53400D01*
X340000Y45300D01*
X343000Y45300D01*
X343000Y69200D01*
X342900Y72220D01*
X342640Y75000D01*
X342200Y77540D01*
X341620Y79880D01*
X340900Y81980D01*
X340040Y83880D01*
X339080Y85580D01*
X338000Y87060D01*
X336840Y88360D01*
X335580Y89460D01*
X334260Y90380D01*
X332879Y91140D01*
X331440Y91700D01*
X329980Y92100D01*
X328500Y92320D01*
G37*
G36*
X340300Y19400D02*
G01*
X339500Y12200D01*
X291300Y12200D01*
X278800Y12500D01*
X278200Y11399D01*
X281900Y-2200D01*
X284500Y-2200D01*
X285200Y5200D01*
X306000Y5200D01*
X303260Y2420D01*
X301500Y-400D01*
X300580Y-3280D01*
X300429Y-4900D01*
X304700Y-4900D01*
X304920Y-2620D01*
X305680Y-280D01*
X307100Y2240D01*
X309300Y5000D01*
X334700Y5000D01*
X337020Y2600D01*
X338540Y240D01*
X339360Y-2240D01*
X339600Y-5000D01*
X339500Y-6720D01*
X339159Y-8380D01*
X338620Y-9920D01*
X337819Y-11359D01*
X336800Y-12680D01*
X335540Y-13859D01*
X334020Y-14880D01*
X332239Y-15760D01*
X330200Y-16460D01*
X327879Y-16960D01*
X325280Y-17280D01*
X322400Y-17400D01*
X319400Y-17280D01*
X316720Y-16940D01*
X314320Y-16379D01*
X312220Y-15640D01*
X310380Y-14720D01*
X308820Y-13660D01*
X307520Y-12440D01*
X306480Y-11120D01*
X305700Y-9680D01*
X305140Y-8139D01*
X304800Y-6540D01*
X304700Y-4900D01*
X300429Y-4900D01*
X300300Y-6300D01*
X300400Y-8280D01*
X300700Y-10200D01*
X301200Y-12020D01*
X301880Y-13779D01*
X302740Y-15420D01*
X303760Y-16960D01*
X304980Y-18380D01*
X306360Y-19700D01*
X307880Y-20880D01*
X309560Y-21920D01*
X311400Y-22839D01*
X313380Y-23580D01*
X315500Y-24200D01*
X317740Y-24640D01*
X320100Y-24900D01*
X322600Y-25000D01*
X325720Y-24840D01*
X328640Y-24400D01*
X331360Y-23700D01*
X333860Y-22719D01*
X336140Y-21500D01*
X338140Y-20040D01*
X339900Y-18360D01*
X341380Y-16460D01*
X342540Y-14360D01*
X343400Y-12080D01*
X343920Y-9620D01*
X344099Y-7000D01*
X343680Y-3280D01*
X342460Y-20D01*
X340520Y2819D01*
X337900Y5300D01*
X343900Y5800D01*
X343000Y19400D01*
G37*
G36*
X317000Y-33000D02*
G01*
X314500Y-33140D01*
X312180Y-33560D01*
X310040Y-34240D01*
X308100Y-35160D01*
X306340Y-36300D01*
X304780Y-37660D01*
X303460Y-39220D01*
X302340Y-40960D01*
X301460Y-42859D01*
X300820Y-44920D01*
X300440Y-47100D01*
X300320Y-49800D01*
X303600Y-49800D01*
X303820Y-47779D01*
X304440Y-45940D01*
X305400Y-44300D01*
X306680Y-42900D01*
X308200Y-41760D01*
X309920Y-40900D01*
X311820Y-40380D01*
X313800Y-40199D01*
X315780Y-40380D01*
X317340Y-41080D01*
X318340Y-42520D01*
X318700Y-44900D01*
X318500Y-61800D01*
X314880Y-61240D01*
X311780Y-60300D01*
X309220Y-59020D01*
X307140Y-57480D01*
X305580Y-55720D01*
X304460Y-53820D01*
X303820Y-51820D01*
X303600Y-49800D01*
X300320Y-49800D01*
X300400Y-51400D01*
X300700Y-53360D01*
X301200Y-55260D01*
X301880Y-57080D01*
X302720Y-58840D01*
X303760Y-60500D01*
X304960Y-62060D01*
X306340Y-63500D01*
X307860Y-64800D01*
X309540Y-65980D01*
X311360Y-67000D01*
X313340Y-67880D01*
X315440Y-68560D01*
X317680Y-69080D01*
X320020Y-69380D01*
X322500Y-69500D01*
X325000Y-69400D01*
X327360Y-69120D01*
X329580Y-68680D01*
X331659Y-68060D01*
X333579Y-67280D01*
X335360Y-66340D01*
X336980Y-65260D01*
X338440Y-64040D01*
X339739Y-62660D01*
X340880Y-61160D01*
X341840Y-59540D01*
X342660Y-57800D01*
X343280Y-55960D01*
X343740Y-54000D01*
X344000Y-51940D01*
X344099Y-49800D01*
X343920Y-46980D01*
X343400Y-44360D01*
X342580Y-41960D01*
X341420Y-39760D01*
X339980Y-37800D01*
X338280Y-36040D01*
X336300Y-34500D01*
X334099Y-33200D01*
X332900Y-35000D01*
X335480Y-37400D01*
X337480Y-40140D01*
X338760Y-43360D01*
X339200Y-47300D01*
X339080Y-49360D01*
X338720Y-51320D01*
X338120Y-53140D01*
X337260Y-54800D01*
X336180Y-56340D01*
X334860Y-57699D01*
X333280Y-58880D01*
X331460Y-59880D01*
X329420Y-60679D01*
X327120Y-61280D01*
X324580Y-61640D01*
X321800Y-61800D01*
X321900Y-33700D01*
X319740Y-33200D01*
X318440Y-33040D01*
G37*
G36*
X340300Y-76100D02*
G01*
X339300Y-82200D01*
X324600Y-82400D01*
X316200Y-82400D01*
X312280Y-82579D01*
X308940Y-83100D01*
X306200Y-83980D01*
X304020Y-85220D01*
X302360Y-86800D01*
X301200Y-88720D01*
X300520Y-90980D01*
X300300Y-93600D01*
X300440Y-95640D01*
X300860Y-97700D01*
X301540Y-99780D01*
X302480Y-101840D01*
X303640Y-103840D01*
X305020Y-105780D01*
X306620Y-107640D01*
X308400Y-109400D01*
X301200Y-110100D01*
X300400Y-111300D01*
X305200Y-123600D01*
X307800Y-123600D01*
X308500Y-116600D01*
X320000Y-116400D01*
X339300Y-116600D01*
X340300Y-123000D01*
X343000Y-123000D01*
X343000Y-102899D01*
X340300Y-102899D01*
X339300Y-109000D01*
X311600Y-109100D01*
X308960Y-105840D01*
X307160Y-102760D01*
X306120Y-99820D01*
X305800Y-96900D01*
X305940Y-95120D01*
X306340Y-93600D01*
X307080Y-92340D01*
X308140Y-91340D01*
X309580Y-90559D01*
X311420Y-90020D01*
X313680Y-89700D01*
X316400Y-89600D01*
X328040Y-89620D01*
X339300Y-89800D01*
X340300Y-96199D01*
X343000Y-96199D01*
X343000Y-76100D01*
G37*
G36*
X301200Y-128600D02*
G01*
X300400Y-129800D01*
X303700Y-139800D01*
X302200Y-142080D01*
X301140Y-144700D01*
X300500Y-147660D01*
X300306Y-150800D01*
X303300Y-150800D01*
X303520Y-148840D01*
X304120Y-147120D01*
X305100Y-145620D01*
X306420Y-144380D01*
X308040Y-143400D01*
X309920Y-142680D01*
X312060Y-142240D01*
X314400Y-142100D01*
X316860Y-142240D01*
X319100Y-142700D01*
X321100Y-143440D01*
X322800Y-144460D01*
X324200Y-145740D01*
X325220Y-147280D01*
X325880Y-149060D01*
X326100Y-151100D01*
X325900Y-153040D01*
X325280Y-154780D01*
X324320Y-156260D01*
X322980Y-157500D01*
X321340Y-158500D01*
X319400Y-159200D01*
X317180Y-159640D01*
X314700Y-159800D01*
X312280Y-159640D01*
X310100Y-159180D01*
X308140Y-158420D01*
X306480Y-157400D01*
X305140Y-156100D01*
X304140Y-154560D01*
X303520Y-152780D01*
X303300Y-150800D01*
X300306Y-150800D01*
X300400Y-153140D01*
X300720Y-155260D01*
X301260Y-157240D01*
X301980Y-159080D01*
X302920Y-160740D01*
X304040Y-162240D01*
X305360Y-163540D01*
X306840Y-164640D01*
X308520Y-165520D01*
X310380Y-166160D01*
X312400Y-166560D01*
X314600Y-166700D01*
X316740Y-166580D01*
X318700Y-166240D01*
X320500Y-165680D01*
X322160Y-164920D01*
X323620Y-163960D01*
X324920Y-162820D01*
X326040Y-161480D01*
X327000Y-160000D01*
X329860Y-162780D01*
X332340Y-164640D01*
X334580Y-165680D01*
X336700Y-166000D01*
X339040Y-165600D01*
X340959Y-164500D01*
X342460Y-162700D01*
X343500Y-160300D01*
X345700Y-164240D01*
X348020Y-166860D01*
X350480Y-168340D01*
X353200Y-168800D01*
X354739Y-168680D01*
X356180Y-168320D01*
X357540Y-167740D01*
X358800Y-166900D01*
X359940Y-165799D01*
X360959Y-164460D01*
X361860Y-162840D01*
X362600Y-160960D01*
X363200Y-158800D01*
X363640Y-156360D01*
X363900Y-153620D01*
X364000Y-150600D01*
X363840Y-147140D01*
X363400Y-144000D01*
X362700Y-141140D01*
X361780Y-138600D01*
X360620Y-136340D01*
X359300Y-134400D01*
X357819Y-132740D01*
X356200Y-131400D01*
X354460Y-130340D01*
X352660Y-129600D01*
X350800Y-129140D01*
X348900Y-129000D01*
X346440Y-129200D01*
X344260Y-129840D01*
X342360Y-130900D01*
X340760Y-132400D01*
X339500Y-134340D01*
X338560Y-136760D01*
X338000Y-139640D01*
X337800Y-143000D01*
X337800Y-154600D01*
X337520Y-157320D01*
X337017Y-158400D01*
X344000Y-158400D01*
X344200Y-154100D01*
X344200Y-144000D01*
X344739Y-140000D01*
X346240Y-137340D01*
X348459Y-135860D01*
X351200Y-135400D01*
X353080Y-135640D01*
X354840Y-136360D01*
X356400Y-137560D01*
X357740Y-139240D01*
X358860Y-141380D01*
X359700Y-144000D01*
X360220Y-147060D01*
X360400Y-150600D01*
X360280Y-153040D01*
X359900Y-155240D01*
X359280Y-157180D01*
X358380Y-158840D01*
X357200Y-160180D01*
X355760Y-161160D01*
X354020Y-161780D01*
X352000Y-162000D01*
X349799Y-161800D01*
X347819Y-161160D01*
X345920Y-160060D01*
X344000Y-158400D01*
X337017Y-158400D01*
X336719Y-159040D01*
X335439Y-159940D01*
X333700Y-160200D01*
X332200Y-160040D01*
X330820Y-159600D01*
X329440Y-158840D01*
X328000Y-157800D01*
X328459Y-156220D01*
X328820Y-154540D01*
X329020Y-152740D01*
X329099Y-150900D01*
X329000Y-148680D01*
X328660Y-146560D01*
X328120Y-144580D01*
X327380Y-142760D01*
X326440Y-141080D01*
X325300Y-139580D01*
X323960Y-138280D01*
X322440Y-137160D01*
X320740Y-136280D01*
X318860Y-135640D01*
X316820Y-135240D01*
X314600Y-135100D01*
X312160Y-135260D01*
X309940Y-135720D01*
X307960Y-136440D01*
X306200Y-137400D01*
X306400Y-128600D01*
G37*
G36*
X340300Y-175000D02*
G01*
X339300Y-181000D01*
X312800Y-181100D01*
X301200Y-181000D01*
X300400Y-182200D01*
X305100Y-195600D01*
X307700Y-195600D01*
X308400Y-188500D01*
X313780Y-188260D01*
X328000Y-188220D01*
X339300Y-188400D01*
X340300Y-195100D01*
X343000Y-195100D01*
X343000Y-175000D01*
G37*
G36*
X284800Y-179200D02*
G01*
X282620Y-179640D01*
X280940Y-180859D01*
X279880Y-182659D01*
X279500Y-184800D01*
X279880Y-187040D01*
X280940Y-188840D01*
X282620Y-190060D01*
X284800Y-190500D01*
X287000Y-190060D01*
X288760Y-188840D01*
X289900Y-187040D01*
X290300Y-184800D01*
X289900Y-182659D01*
X288760Y-180859D01*
X287000Y-179640D01*
G37*
G36*
X331599Y-201600D02*
G01*
X329600Y-201759D01*
X327740Y-202260D01*
X325980Y-203120D01*
X324360Y-204360D01*
X322860Y-206020D01*
X321460Y-208080D01*
X320180Y-210600D01*
X317900Y-216600D01*
X316300Y-220400D01*
X314640Y-222940D01*
X312660Y-224360D01*
X310100Y-224800D01*
X307500Y-224240D01*
X305480Y-222600D01*
X304160Y-219899D01*
X303700Y-216200D01*
X303800Y-214620D01*
X304120Y-213039D01*
X304620Y-211460D01*
X305300Y-209899D01*
X312800Y-208200D01*
X312800Y-204300D01*
X303900Y-204000D01*
X302360Y-206840D01*
X301240Y-209760D01*
X300540Y-212840D01*
X300300Y-216200D01*
X300560Y-219700D01*
X301300Y-222760D01*
X302440Y-225380D01*
X303960Y-227560D01*
X305780Y-229259D01*
X307860Y-230500D01*
X310100Y-231240D01*
X312500Y-231500D01*
X314640Y-231300D01*
X316560Y-230740D01*
X318260Y-229820D01*
X319800Y-228580D01*
X321160Y-227040D01*
X322380Y-225200D01*
X323440Y-223120D01*
X324400Y-220799D01*
X325700Y-216700D01*
X327340Y-213020D01*
X329099Y-210500D01*
X331160Y-209060D01*
X333700Y-208600D01*
X335220Y-208740D01*
X336580Y-209200D01*
X337800Y-209960D01*
X338820Y-211040D01*
X339660Y-212440D01*
X340280Y-214160D01*
X340660Y-216220D01*
X340800Y-218600D01*
X340700Y-220620D01*
X340420Y-222500D01*
X339960Y-224220D01*
X339300Y-225799D01*
X331200Y-227800D01*
X331200Y-231900D01*
X340800Y-231800D01*
X342239Y-228580D01*
X343280Y-225420D01*
X343900Y-222140D01*
X344099Y-218600D01*
X343980Y-215900D01*
X343640Y-213440D01*
X343100Y-211220D01*
X342380Y-209200D01*
X341460Y-207440D01*
X340400Y-205900D01*
X339200Y-204579D01*
X337860Y-203520D01*
X336420Y-202680D01*
X334880Y-202079D01*
X333280Y-201720D01*
G37*
G36*
X317000Y-240300D02*
G01*
X314500Y-240440D01*
X312180Y-240859D01*
X310040Y-241540D01*
X308100Y-242460D01*
X306340Y-243600D01*
X304780Y-244960D01*
X303460Y-246520D01*
X302340Y-248260D01*
X301460Y-250159D01*
X300820Y-252220D01*
X300440Y-254400D01*
X300320Y-257100D01*
X303600Y-257100D01*
X303820Y-255040D01*
X304440Y-253180D01*
X305400Y-251520D01*
X306680Y-250100D01*
X308200Y-248960D01*
X309920Y-248100D01*
X311820Y-247580D01*
X313800Y-247399D01*
X315780Y-247600D01*
X317340Y-248340D01*
X318340Y-249800D01*
X318700Y-252200D01*
X318500Y-269000D01*
X314880Y-268480D01*
X311780Y-267560D01*
X309220Y-266300D01*
X307140Y-264760D01*
X305580Y-263020D01*
X304460Y-261119D01*
X303820Y-259120D01*
X303600Y-257100D01*
X300320Y-257100D01*
X300400Y-258700D01*
X300700Y-260660D01*
X301200Y-262560D01*
X301880Y-264380D01*
X302720Y-266140D01*
X303760Y-267800D01*
X304960Y-269360D01*
X306340Y-270800D01*
X307860Y-272100D01*
X309540Y-273280D01*
X311360Y-274300D01*
X313340Y-275180D01*
X315440Y-275860D01*
X317680Y-276380D01*
X320020Y-276680D01*
X322500Y-276800D01*
X325000Y-276700D01*
X327360Y-276420D01*
X329580Y-275980D01*
X331659Y-275360D01*
X333579Y-274580D01*
X335360Y-273640D01*
X336980Y-272560D01*
X338440Y-271320D01*
X339739Y-269940D01*
X340880Y-268440D01*
X341840Y-266820D01*
X342660Y-265060D01*
X343280Y-263200D01*
X343740Y-261240D01*
X344000Y-259160D01*
X344099Y-257000D01*
X343920Y-254200D01*
X343400Y-251620D01*
X342580Y-249240D01*
X341420Y-247060D01*
X339980Y-245080D01*
X338280Y-243340D01*
X336300Y-241800D01*
X334099Y-240500D01*
X332900Y-242200D01*
X335480Y-244660D01*
X337480Y-247420D01*
X338760Y-250660D01*
X339200Y-254600D01*
X339080Y-256660D01*
X338720Y-258619D01*
X338120Y-260440D01*
X337260Y-262100D01*
X336180Y-263640D01*
X334860Y-265000D01*
X333280Y-266180D01*
X331460Y-267180D01*
X329420Y-267980D01*
X327120Y-268580D01*
X324580Y-268940D01*
X321800Y-269100D01*
X321900Y-241000D01*
X319740Y-240500D01*
X318440Y-240340D01*
G37*
G36*
X313700Y-284900D02*
G01*
X310920Y-284980D01*
X308280Y-285220D01*
X305780Y-285640D01*
X303400Y-286220D01*
X301140Y-286940D01*
X299040Y-287820D01*
X297060Y-288840D01*
X295220Y-290000D01*
X293520Y-291300D01*
X291960Y-292740D01*
X290540Y-294300D01*
X289280Y-295980D01*
X288140Y-297780D01*
X287160Y-299700D01*
X286320Y-301720D01*
X285640Y-303860D01*
X285100Y-306100D01*
X284720Y-308440D01*
X284480Y-310880D01*
X284400Y-313400D01*
X284400Y-322400D01*
X287800Y-322400D01*
X287800Y-314800D01*
X287900Y-312360D01*
X288220Y-310080D01*
X288740Y-307940D01*
X289480Y-305940D01*
X290400Y-304080D01*
X291540Y-302360D01*
X292880Y-300800D01*
X294420Y-299400D01*
X296140Y-298160D01*
X298080Y-297060D01*
X300200Y-296140D01*
X302520Y-295380D01*
X305040Y-294780D01*
X307740Y-294340D01*
X310620Y-294080D01*
X313700Y-294000D01*
X316680Y-294080D01*
X319480Y-294340D01*
X322140Y-294780D01*
X324600Y-295380D01*
X326900Y-296160D01*
X329020Y-297100D01*
X330959Y-298220D01*
X332720Y-299500D01*
X334280Y-300940D01*
X335640Y-302540D01*
X336800Y-304300D01*
X337760Y-306220D01*
X338519Y-308320D01*
X339060Y-310540D01*
X339380Y-312940D01*
X339500Y-315500D01*
X339500Y-322400D01*
X327480Y-322560D01*
X308600Y-322600D01*
X284400Y-322400D01*
X284400Y-338900D01*
X287400Y-338900D01*
X288300Y-330700D01*
X297000Y-330620D01*
X339099Y-330700D01*
X340000Y-338900D01*
X343000Y-338900D01*
X343000Y-315000D01*
X342920Y-312400D01*
X342680Y-309900D01*
X342299Y-307480D01*
X341760Y-305140D01*
X341060Y-302900D01*
X340220Y-300780D01*
X339240Y-298740D01*
X338100Y-296840D01*
X336820Y-295040D01*
X335400Y-293380D01*
X333840Y-291840D01*
X332140Y-290440D01*
X330300Y-289200D01*
X328320Y-288080D01*
X326200Y-287140D01*
X323960Y-286340D01*
X321599Y-285720D01*
X319080Y-285260D01*
X316460Y-284980D01*
G37*
D46*
X-180600Y115705D02*
G01*
X-184700Y113605D01*
X-188800Y109504D01*
X-190799Y105505D01*
X-190799Y97305D01*
X-188800Y93205D01*
X-184700Y89104D01*
X-180600Y87004D01*
X-174399Y85005D01*
X-164200Y85005D01*
X-158100Y87004D01*
X-153999Y89104D01*
X-149899Y93205D01*
X-147899Y97305D01*
X-147899Y105505D01*
X-149899Y109504D01*
X-153999Y113605D01*
X-158100Y115705D01*
X-164200Y115705D01*
X-164200Y105505D02*
G01*
X-164200Y115705D01*
X-190799Y129205D02*
G01*
X-147899Y129205D01*
X-190799Y129205D02*
G01*
X-147899Y157804D01*
X-190799Y157804D02*
G01*
X-147899Y157804D01*
X-190799Y171305D02*
G01*
X-147899Y171305D01*
X-190799Y171305D02*
G01*
X-190799Y185605D01*
X-188800Y191804D01*
X-184700Y195905D01*
X-180600Y197905D01*
X-174399Y200005D01*
X-164200Y200005D01*
X-158100Y197905D01*
X-153999Y195905D01*
X-149899Y191804D01*
X-147899Y185605D01*
X-147899Y171305D01*
X-189499Y-232395D02*
G01*
X-189499Y-209895D01*
X-173100Y-222195D01*
X-173100Y-215994D01*
X-171099Y-211994D01*
X-169099Y-209895D01*
X-162899Y-207894D01*
X-158800Y-207894D01*
X-152700Y-209895D01*
X-148599Y-213994D01*
X-146599Y-220095D01*
X-146599Y-226295D01*
X-148599Y-232395D01*
X-150600Y-234494D01*
X-154700Y-236494D01*
X-189499Y-194394D02*
G01*
X-146599Y-177995D01*
X-189499Y-161594D02*
G01*
X-146599Y-177995D01*
X-189499Y-143994D02*
G01*
X-189499Y-121494D01*
X-173100Y-133795D01*
X-173100Y-127694D01*
X-171099Y-123595D01*
X-169099Y-121494D01*
X-162899Y-119494D01*
X-158800Y-119494D01*
X-152700Y-121494D01*
X-148599Y-125594D01*
X-146599Y-131794D01*
X-146599Y-137894D01*
X-148599Y-143994D01*
X-150600Y-146095D01*
X-154700Y-148094D01*
D54*
X-1974098Y447905D02*
G01*
X-1974098Y-447094D01*
X-1989098Y387905D02*
G01*
X-1974098Y447905D01*
X-1959098Y387905D01*
X-1989098Y-387094D02*
G01*
X-1974098Y-447094D01*
X-1959098Y-387094D01*
X-2117233Y-363733D02*
G01*
X-2121833Y-363733D01*
X-2130933Y-359133D01*
X-2135433Y-354634D01*
X-2140033Y-345533D01*
X-2140033Y-327334D01*
X-2135433Y-318233D01*
X-2130933Y-313733D01*
X-2121833Y-309133D01*
X-2112734Y-309133D01*
X-2103634Y-313733D01*
X-2090033Y-322734D01*
X-2044534Y-368233D01*
X-2044534Y-304634D01*
X-2117233Y-270034D02*
G01*
X-2121833Y-270034D01*
X-2130933Y-265533D01*
X-2135433Y-260933D01*
X-2140033Y-251833D01*
X-2140033Y-233733D01*
X-2135433Y-224634D01*
X-2130933Y-220034D01*
X-2121833Y-215533D01*
X-2112734Y-215533D01*
X-2103634Y-220034D01*
X-2090033Y-229133D01*
X-2044534Y-274634D01*
X-2044534Y-210933D01*
X-2067233Y-176433D02*
G01*
X-2062734Y-180933D01*
X-2058234Y-176433D01*
X-2062734Y-171833D01*
X-2067233Y-176433D01*
X-2140033Y-78233D02*
G01*
X-2044534Y-123733D01*
X-2140033Y-141833D02*
G01*
X-2140033Y-78233D01*
X-2140033Y-39133D02*
G01*
X-2140033Y10866D01*
X-2103634Y-16433D01*
X-2103634Y-2734D01*
X-2099134Y6266D01*
X-2094534Y10866D01*
X-2080933Y15365D01*
X-2071833Y15365D01*
X-2058234Y10866D01*
X-2049134Y1766D01*
X-2044534Y-11833D01*
X-2044534Y-25533D01*
X-2049134Y-39133D01*
X-2053634Y-43733D01*
X-2062734Y-48233D01*
X-2140033Y54466D02*
G01*
X-2140033Y104466D01*
X-2103634Y77265D01*
X-2103634Y90866D01*
X-2099134Y99965D01*
X-2094534Y104466D01*
X-2080933Y109066D01*
X-2071833Y109066D01*
X-2058234Y104466D01*
X-2049134Y95365D01*
X-2044534Y81766D01*
X-2044534Y68166D01*
X-2049134Y54466D01*
X-2053634Y49965D01*
X-2062734Y45365D01*
X-2108234Y139066D02*
G01*
X-2044534Y139066D01*
X-2090033Y139066D02*
G01*
X-2103634Y152665D01*
X-2108234Y161766D01*
X-2108234Y175365D01*
X-2103634Y184466D01*
X-2090033Y189066D01*
X-2044534Y189066D01*
X-2090033Y189066D02*
G01*
X-2103634Y202665D01*
X-2108234Y211766D01*
X-2108234Y225365D01*
X-2103634Y234466D01*
X-2090033Y239066D01*
X-2044534Y239066D01*
X-2108234Y269066D02*
G01*
X-2044534Y269066D01*
X-2090033Y269066D02*
G01*
X-2103634Y282665D01*
X-2108234Y291766D01*
X-2108234Y305365D01*
X-2103634Y314466D01*
X-2090033Y319066D01*
X-2044534Y319066D01*
X-2090033Y319066D02*
G01*
X-2103634Y332665D01*
X-2108234Y341766D01*
X-2108234Y355365D01*
X-2103634Y364466D01*
X-2090033Y369066D01*
X-2044534Y369066D01*
X-1895000Y447905D02*
G01*
X-2074098Y447905D01*
X-1895000Y-447094D02*
G01*
X-2074098Y-447094D01*
X-1755000Y612285D02*
G01*
X-371818Y612285D01*
X391818Y612285D02*
G01*
X1775000Y612285D01*
X-1695000Y597285D02*
G01*
X-1755000Y612285D01*
X-1695000Y627285D01*
X1715000Y597285D02*
G01*
X1775000Y612285D01*
X1715000Y627285D01*
X-329099Y713205D02*
G01*
X-342700Y708605D01*
X-347299Y699605D01*
X-347299Y690505D01*
X-342700Y681404D01*
X-333599Y676804D01*
X-315500Y672305D01*
X-301800Y667705D01*
X-292700Y658605D01*
X-288199Y649605D01*
X-288199Y635905D01*
X-292700Y626804D01*
X-297299Y622305D01*
X-310900Y617705D01*
X-329099Y617705D01*
X-342700Y622305D01*
X-347299Y626804D01*
X-351800Y635905D01*
X-351800Y649605D01*
X-347299Y658605D01*
X-338199Y667705D01*
X-324499Y672305D01*
X-306400Y676804D01*
X-297299Y681404D01*
X-292700Y690505D01*
X-292700Y699605D01*
X-297299Y708605D01*
X-310900Y713205D01*
X-329099Y713205D01*
X-199099Y681404D02*
G01*
X-203599Y667705D01*
X-212700Y658605D01*
X-226400Y654104D01*
X-230900Y654104D01*
X-244499Y658605D01*
X-253599Y667705D01*
X-258199Y681404D01*
X-258199Y685905D01*
X-253599Y699605D01*
X-244499Y708605D01*
X-230900Y713205D01*
X-226400Y713205D01*
X-212700Y708605D01*
X-203599Y699605D01*
X-199099Y681404D01*
X-199099Y658605D01*
X-203599Y635905D01*
X-212700Y622305D01*
X-226400Y617705D01*
X-235500Y617705D01*
X-249099Y622305D01*
X-253599Y631404D01*
X-164499Y640505D02*
G01*
X-169099Y635905D01*
X-164499Y631404D01*
X-160000Y635905D01*
X-164499Y640505D01*
X-75500Y699605D02*
G01*
X-80000Y708605D01*
X-93599Y713205D01*
X-102700Y713205D01*
X-116400Y708605D01*
X-125500Y695005D01*
X-130000Y672305D01*
X-130000Y649605D01*
X-125500Y631404D01*
X-116400Y622305D01*
X-102700Y617705D01*
X-98199Y617705D01*
X-84499Y622305D01*
X-75500Y631404D01*
X-70900Y645005D01*
X-70900Y649605D01*
X-75500Y663205D01*
X-84499Y672305D01*
X-98199Y676804D01*
X-102700Y676804D01*
X-116400Y672305D01*
X-125500Y663205D01*
X-130000Y649605D01*
X13599Y699605D02*
G01*
X9099Y708605D01*
X-4499Y713205D01*
X-13599Y713205D01*
X-27299Y708605D01*
X-36400Y695005D01*
X-40900Y672305D01*
X-40900Y649605D01*
X-36400Y631404D01*
X-27299Y622305D01*
X-13599Y617705D01*
X-9099Y617705D01*
X4499Y622305D01*
X13599Y631404D01*
X18199Y645005D01*
X18199Y649605D01*
X13599Y663205D01*
X4499Y672305D01*
X-9099Y676804D01*
X-13599Y676804D01*
X-27299Y672305D01*
X-36400Y663205D01*
X-40900Y649605D01*
X52700Y690505D02*
G01*
X52700Y695005D01*
X57299Y704104D01*
X61800Y708605D01*
X70900Y713205D01*
X89099Y713205D01*
X98199Y708605D01*
X102700Y704104D01*
X107299Y695005D01*
X107299Y685905D01*
X102700Y676804D01*
X93599Y663205D01*
X48199Y617705D01*
X111800Y617705D01*
X141800Y681404D02*
G01*
X141800Y617705D01*
X141800Y663205D02*
G01*
X155500Y676804D01*
X164499Y681404D01*
X178199Y681404D01*
X187299Y676804D01*
X191800Y663205D01*
X191800Y617705D01*
X191800Y663205D02*
G01*
X205500Y676804D01*
X214499Y681404D01*
X228199Y681404D01*
X237299Y676804D01*
X241800Y663205D01*
X241800Y617705D01*
X271800Y681404D02*
G01*
X271800Y617705D01*
X271800Y663205D02*
G01*
X285500Y676804D01*
X294499Y681404D01*
X308199Y681404D01*
X317299Y676804D01*
X321800Y663205D01*
X321800Y617705D01*
X321800Y663205D02*
G01*
X335500Y676804D01*
X344499Y681404D01*
X358199Y681404D01*
X367299Y676804D01*
X371800Y663205D01*
X371800Y617705D01*
X-1755000Y582905D02*
G01*
X-1755000Y712285D01*
X1775000Y582905D02*
G01*
X1775000Y712285D01*
D46*
X1400200Y278605D02*
G01*
X1400200Y321604D01*
X1371599Y278605D02*
G01*
X1371599Y321604D01*
X1400200Y299104D02*
G01*
X1371599Y299104D01*
X1356099Y288904D02*
G01*
X1356099Y286804D01*
X1353999Y282705D01*
X1351999Y280705D01*
X1347899Y278605D01*
X1339700Y278605D01*
X1335600Y280705D01*
X1333599Y282705D01*
X1331499Y286804D01*
X1331499Y290905D01*
X1333599Y295005D01*
X1337700Y301105D01*
X1358100Y321604D01*
X1329499Y321604D01*
X-263000Y-35194D02*
G01*
X-220100Y-51594D01*
X-263000Y-35194D02*
G01*
X-220100Y-18894D01*
X-234399Y-45495D02*
G01*
X-234399Y-24994D01*
X-263000Y-5394D02*
G01*
X-220100Y-5394D01*
X-263000Y-5394D02*
G01*
X-263000Y8904D01*
X-261000Y15104D01*
X-256899Y19205D01*
X-252799Y21204D01*
X-246599Y23305D01*
X-236400Y23305D01*
X-230299Y21204D01*
X-226199Y19205D01*
X-222100Y15104D01*
X-220100Y8904D01*
X-220100Y-5394D01*
X-263000Y49005D02*
G01*
X-261000Y42905D01*
X-254799Y38805D01*
X-244600Y36804D01*
X-238500Y36804D01*
X-228199Y38805D01*
X-222100Y42905D01*
X-220100Y49005D01*
X-220100Y53105D01*
X-222100Y59304D01*
X-228199Y63405D01*
X-238500Y65405D01*
X-244600Y65405D01*
X-254799Y63405D01*
X-261000Y59304D01*
X-263000Y53105D01*
X-263000Y49005D01*
X1640699Y-116392D02*
G01*
X1674099Y-116392D01*
X1640699Y-105893D02*
G01*
X1674099Y-105893D01*
X1640699Y-105893D02*
G01*
X1674099Y-83593D01*
X1640699Y-83593D02*
G01*
X1674099Y-83593D01*
X1645500Y-58793D02*
G01*
X1674099Y-58793D01*
X1659799Y-73092D02*
G01*
X1659799Y-44492D01*
X1642700Y43607D02*
G01*
X1676099Y43607D01*
X1642700Y43607D02*
G01*
X1642700Y57907D01*
X1644300Y62707D01*
X1645900Y64306D01*
X1648999Y65907D01*
X1652200Y65907D01*
X1655399Y64306D01*
X1656999Y62707D01*
X1658599Y57907D01*
X1658599Y43607D01*
X1658599Y54706D02*
G01*
X1676099Y65907D01*
X1642700Y76406D02*
G01*
X1676099Y76406D01*
X1676099Y76406D02*
G01*
X1676099Y95507D01*
X1642700Y106006D02*
G01*
X1676099Y106006D01*
X1642700Y106006D02*
G01*
X1642700Y117107D01*
X1644300Y121907D01*
X1647500Y125107D01*
X1650600Y126606D01*
X1655399Y128207D01*
X1663400Y128207D01*
X1668100Y126606D01*
X1671300Y125107D01*
X1674499Y121907D01*
X1676099Y117107D01*
X1676099Y106006D01*
X1642700Y-36392D02*
G01*
X1676099Y-36392D01*
X1642700Y-25893D02*
G01*
X1676099Y-25893D01*
X1642700Y-25893D02*
G01*
X1676099Y-3593D01*
X1642700Y-3593D02*
G01*
X1676099Y-3593D01*
X1661800Y6907D02*
G01*
X1661800Y35507D01*
G36*
X-441980Y-125680D02*
G01*
X-443620Y-125920D01*
X-445180Y-126480D01*
X-446599Y-127320D01*
X-447860Y-128420D01*
X-448860Y-129720D01*
X-449600Y-131220D01*
X-450040Y-132820D01*
X-450160Y-134460D01*
X-449960Y-136120D01*
X-449760Y-136920D01*
X-449099Y-138440D01*
X-448160Y-139800D01*
X-446980Y-140960D01*
X-445600Y-141880D01*
X-444060Y-142520D01*
X-442440Y-142840D01*
X-441500Y-142880D01*
X-439860Y-142720D01*
X-438280Y-142240D01*
X-436800Y-141460D01*
X-435520Y-140420D01*
X-434460Y-139140D01*
X-433660Y-137700D01*
X-433140Y-136120D01*
X-432960Y-134460D01*
X-433080Y-132820D01*
X-433519Y-131220D01*
X-434260Y-129720D01*
X-435260Y-128420D01*
X-436500Y-127320D01*
X-437939Y-126480D01*
X-439500Y-125920D01*
X-441140Y-125680D01*
G37*
X472700Y424904D02*
G01*
X447700Y424904D01*
X447700Y390905D01*
X468699Y390905D01*
X472700Y390905D01*
X487700Y390905D02*
G01*
X511700Y390905D01*
X511700Y424904D01*
X490699Y424904D01*
X487700Y424904D01*
X557299Y390905D02*
G01*
X582299Y390905D01*
X582299Y424904D01*
X561300Y424904D01*
X557299Y424904D01*
X542299Y424904D02*
G01*
X518299Y424904D01*
X518299Y390905D01*
X539300Y390905D01*
X542299Y390905D01*
D47*
X1460000Y430905D02*
G01*
X1460000Y330905D01*
X1260000Y330905D01*
X1260000Y430905D01*
X1335000Y430905D01*
D48*
X1460000Y430905D02*
G01*
X1335000Y430905D01*
D10*
X1455630Y307402D02*
G01*
X1534369Y307402D01*
X1455630Y244411D02*
G01*
X1534369Y244411D01*
X1481171Y307402D02*
G01*
X1481171Y244411D01*
D46*
X-737700Y369205D02*
G01*
X-712700Y369205D01*
X-712700Y403205D01*
X-733699Y403205D01*
X-737700Y403205D01*
X-752700Y403205D02*
G01*
X-776700Y403205D01*
X-776700Y369205D01*
X-755699Y369205D01*
X-752700Y369205D01*
X-622299Y348205D02*
G01*
X-647299Y348205D01*
X-647299Y314205D01*
X-626300Y314205D01*
X-622299Y314205D01*
X-607299Y314205D02*
G01*
X-583299Y314205D01*
X-583299Y348205D01*
X-604300Y348205D01*
X-607299Y348205D01*
X548999Y344706D02*
G01*
X548999Y319706D01*
X583000Y319706D01*
X583000Y340707D01*
X583000Y344706D01*
X583000Y359706D02*
G01*
X583000Y383706D01*
X548999Y383706D01*
X548999Y362707D01*
X548999Y359706D01*
X598199Y344807D02*
G01*
X598199Y319807D01*
X632200Y319807D01*
X632200Y340806D01*
X632200Y344807D01*
X632200Y359807D02*
G01*
X632200Y383807D01*
X598199Y383807D01*
X598199Y362807D01*
X598199Y359807D01*
D49*
X-1456099Y185965D02*
G01*
X-1456099Y142654D01*
X-1519099Y142654D01*
X-1519099Y185965D01*
X-1456099Y217454D02*
G01*
X-1456099Y260765D01*
X-1495469Y260765D01*
X-1519099Y260765D01*
X-1519099Y217454D01*
X-1515399Y185965D02*
G01*
X-1515399Y142654D01*
X-1578400Y142654D01*
X-1578400Y185965D01*
X-1515399Y217454D02*
G01*
X-1515399Y260765D01*
X-1554769Y260765D01*
X-1578400Y260765D01*
X-1578400Y217454D01*
D10*
X-1631741Y189544D02*
G01*
X-1631741Y214266D01*
X-1686859Y142849D02*
G01*
X-1686859Y176866D01*
X-1686859Y226943D02*
G01*
X-1686859Y260960D01*
X-1686859Y142849D02*
G01*
X-1647488Y142849D01*
X-1686859Y260960D02*
G01*
X-1647488Y260960D01*
D46*
X-211099Y-43694D02*
G01*
X-211099Y66305D01*
X-131099Y66305D02*
G01*
X-131099Y-43694D01*
X-141099Y76305D02*
G01*
X-201099Y76305D01*
X-131099Y6305D02*
G01*
X-131099Y-103694D01*
X-141099Y-113694D02*
G01*
X-201099Y-113694D01*
X-211099Y-103694D02*
G01*
X-211099Y6305D01*
D47*
X-1403999Y423205D02*
G01*
X-1303999Y423205D01*
X-1303999Y323205D01*
X-1403999Y323205D01*
X-1403999Y398205D01*
D48*
X-1403999Y423205D02*
G01*
X-1403999Y398205D01*
D47*
X-1735000Y422905D02*
G01*
X-1635000Y422905D01*
X-1635000Y322905D01*
X-1735000Y322905D01*
X-1735000Y397905D01*
D48*
X-1735000Y422905D02*
G01*
X-1735000Y397905D01*
D47*
X-1515000Y422905D02*
G01*
X-1415000Y422905D01*
X-1415000Y322905D01*
X-1515000Y322905D01*
X-1515000Y397905D01*
D48*
X-1515000Y422905D02*
G01*
X-1515000Y397905D01*
D47*
X-1625000Y422905D02*
G01*
X-1525000Y422905D01*
X-1525000Y322905D01*
X-1625000Y322905D01*
X-1625000Y397905D01*
D48*
X-1625000Y422905D02*
G01*
X-1625000Y397905D01*
D46*
X1132700Y-95392D02*
G01*
X1107700Y-95392D01*
X1107700Y-129393D01*
X1128699Y-129393D01*
X1132700Y-129393D01*
X1147700Y-129393D02*
G01*
X1171700Y-129393D01*
X1171700Y-95392D01*
X1150699Y-95392D01*
X1147700Y-95392D01*
X1572700Y-70392D02*
G01*
X1547700Y-70392D01*
X1547700Y-104393D01*
X1568699Y-104393D01*
X1572700Y-104393D01*
X1587700Y-104393D02*
G01*
X1611700Y-104393D01*
X1611700Y-70392D01*
X1590699Y-70392D01*
X1587700Y-70392D01*
X1132700Y24607D02*
G01*
X1107700Y24607D01*
X1107700Y-9393D01*
X1128699Y-9393D01*
X1132700Y-9393D01*
X1147700Y-9393D02*
G01*
X1171700Y-9393D01*
X1171700Y24607D01*
X1150699Y24607D01*
X1147700Y24607D01*
X1306999Y174907D02*
G01*
X1306999Y199907D01*
X1273000Y199907D01*
X1273000Y178906D01*
X1273000Y174907D01*
X1273000Y159907D02*
G01*
X1273000Y135907D01*
X1306999Y135907D01*
X1306999Y156907D01*
X1306999Y159907D01*
X1572700Y129607D02*
G01*
X1547700Y129607D01*
X1547700Y95606D01*
X1568699Y95606D01*
X1572700Y95606D01*
X1587700Y95606D02*
G01*
X1611700Y95606D01*
X1611700Y129607D01*
X1590699Y129607D01*
X1587700Y129607D01*
X1587299Y-24393D02*
G01*
X1612299Y-24393D01*
X1612299Y9607D01*
X1591300Y9607D01*
X1587299Y9607D01*
X1572299Y9607D02*
G01*
X1548299Y9607D01*
X1548299Y-24393D01*
X1569300Y-24393D01*
X1572299Y-24393D01*
X1413000Y-314692D02*
G01*
X1413000Y-339692D01*
X1446999Y-339692D01*
X1446999Y-318692D01*
X1446999Y-314692D01*
X1446999Y-299692D02*
G01*
X1446999Y-275693D01*
X1413000Y-275693D01*
X1413000Y-296693D01*
X1413000Y-299692D01*
X1213000Y-314692D02*
G01*
X1213000Y-339692D01*
X1246999Y-339692D01*
X1246999Y-318692D01*
X1246999Y-314692D01*
X1246999Y-299692D02*
G01*
X1246999Y-275693D01*
X1213000Y-275693D01*
X1213000Y-296693D01*
X1213000Y-299692D01*
X1587299Y-184393D02*
G01*
X1612299Y-184393D01*
X1612299Y-150392D01*
X1591300Y-150392D01*
X1587299Y-150392D01*
X1572299Y-150392D02*
G01*
X1548299Y-150392D01*
X1548299Y-184393D01*
X1569300Y-184393D01*
X1572299Y-184393D01*
X1253000Y-314692D02*
G01*
X1253000Y-339692D01*
X1286999Y-339692D01*
X1286999Y-318692D01*
X1286999Y-314692D01*
X1286999Y-299692D02*
G01*
X1286999Y-275693D01*
X1253000Y-275693D01*
X1253000Y-296693D01*
X1253000Y-299692D01*
X1293000Y-314692D02*
G01*
X1293000Y-339692D01*
X1326999Y-339692D01*
X1326999Y-318692D01*
X1326999Y-314692D01*
X1326999Y-299692D02*
G01*
X1326999Y-275693D01*
X1293000Y-275693D01*
X1293000Y-296693D01*
X1293000Y-299692D01*
X1333000Y-314692D02*
G01*
X1333000Y-339692D01*
X1366999Y-339692D01*
X1366999Y-318692D01*
X1366999Y-314692D01*
X1366999Y-299692D02*
G01*
X1366999Y-275693D01*
X1333000Y-275693D01*
X1333000Y-296693D01*
X1333000Y-299692D01*
X1373000Y-314692D02*
G01*
X1373000Y-339692D01*
X1406999Y-339692D01*
X1406999Y-318692D01*
X1406999Y-314692D01*
X1406999Y-299692D02*
G01*
X1406999Y-275693D01*
X1373000Y-275693D01*
X1373000Y-296693D01*
X1373000Y-299692D01*
X1453000Y-314692D02*
G01*
X1453000Y-339692D01*
X1486999Y-339692D01*
X1486999Y-318692D01*
X1486999Y-314692D01*
X1486999Y-299692D02*
G01*
X1486999Y-275693D01*
X1453000Y-275693D01*
X1453000Y-296693D01*
X1453000Y-299692D01*
X1587299Y-64393D02*
G01*
X1612299Y-64393D01*
X1612299Y-30392D01*
X1591300Y-30392D01*
X1587299Y-30392D01*
X1572299Y-30392D02*
G01*
X1548299Y-30392D01*
X1548299Y-64393D01*
X1569300Y-64393D01*
X1572299Y-64393D01*
X1587299Y-264393D02*
G01*
X1612299Y-264393D01*
X1612299Y-230392D01*
X1591300Y-230392D01*
X1587299Y-230392D01*
X1572299Y-230392D02*
G01*
X1548299Y-230392D01*
X1548299Y-264393D01*
X1569300Y-264393D01*
X1572299Y-264393D01*
X1572700Y49607D02*
G01*
X1547700Y49607D01*
X1547700Y15606D01*
X1568699Y15606D01*
X1572700Y15606D01*
X1587700Y15606D02*
G01*
X1611700Y15606D01*
X1611700Y49607D01*
X1590699Y49607D01*
X1587700Y49607D01*
X1587299Y55606D02*
G01*
X1612299Y55606D01*
X1612299Y89607D01*
X1591300Y89607D01*
X1587299Y89607D01*
X1572299Y89607D02*
G01*
X1548299Y89607D01*
X1548299Y55606D01*
X1569300Y55606D01*
X1572299Y55606D01*
X1572700Y-190392D02*
G01*
X1547700Y-190392D01*
X1547700Y-224393D01*
X1568699Y-224393D01*
X1572700Y-224393D01*
X1587700Y-224393D02*
G01*
X1611700Y-224393D01*
X1611700Y-190392D01*
X1590699Y-190392D01*
X1587700Y-190392D01*
X1132700Y-135392D02*
G01*
X1107700Y-135392D01*
X1107700Y-169393D01*
X1128699Y-169393D01*
X1132700Y-169393D01*
X1147700Y-169393D02*
G01*
X1171700Y-169393D01*
X1171700Y-135392D01*
X1150699Y-135392D01*
X1147700Y-135392D01*
X1587299Y-144393D02*
G01*
X1612299Y-144393D01*
X1612299Y-110392D01*
X1591300Y-110392D01*
X1587299Y-110392D01*
X1572299Y-110392D02*
G01*
X1548299Y-110392D01*
X1548299Y-144393D01*
X1569300Y-144393D01*
X1572299Y-144393D01*
X1132700Y-15392D02*
G01*
X1107700Y-15392D01*
X1107700Y-49393D01*
X1128699Y-49393D01*
X1132700Y-49393D01*
X1147700Y-49393D02*
G01*
X1171700Y-49393D01*
X1171700Y-15392D01*
X1150699Y-15392D01*
X1147700Y-15392D01*
X1132700Y-55392D02*
G01*
X1107700Y-55392D01*
X1107700Y-89393D01*
X1128699Y-89393D01*
X1132700Y-89393D01*
X1147700Y-89393D02*
G01*
X1171700Y-89393D01*
X1171700Y-55392D01*
X1150699Y-55392D01*
X1147700Y-55392D01*
X1313000Y160307D02*
G01*
X1313000Y135307D01*
X1346999Y135307D01*
X1346999Y156307D01*
X1346999Y160307D01*
X1346999Y175307D02*
G01*
X1346999Y199306D01*
X1313000Y199306D01*
X1313000Y178306D01*
X1313000Y175307D01*
X1426999Y174907D02*
G01*
X1426999Y199907D01*
X1393000Y199907D01*
X1393000Y178906D01*
X1393000Y174907D01*
X1393000Y159907D02*
G01*
X1393000Y135907D01*
X1426999Y135907D01*
X1426999Y156907D01*
X1426999Y159907D01*
X1353000Y160307D02*
G01*
X1353000Y135307D01*
X1386999Y135307D01*
X1386999Y156307D01*
X1386999Y160307D01*
X1386999Y175307D02*
G01*
X1386999Y199306D01*
X1353000Y199306D01*
X1353000Y178306D01*
X1353000Y175307D01*
X1078000Y295307D02*
G01*
X1078000Y270307D01*
X1111999Y270307D01*
X1111999Y291307D01*
X1111999Y295307D01*
X1111999Y310307D02*
G01*
X1111999Y334306D01*
X1078000Y334306D01*
X1078000Y313306D01*
X1078000Y310307D01*
D10*
X1060500Y358607D02*
G01*
X1118500Y358607D01*
X1060500Y426606D02*
G01*
X1118500Y426606D01*
X1060500Y426606D02*
G01*
X1060500Y358607D01*
X1141499Y358607D02*
G01*
X1187500Y358607D01*
X1142500Y426606D02*
G01*
X1187500Y426606D01*
X1187500Y426606D02*
G01*
X1201499Y412607D01*
X1201499Y372607D01*
X1187500Y358607D01*
D50*
X1124499Y407607D02*
G01*
X1124499Y376606D01*
X1134499Y386606D01*
X1134499Y400607D01*
X1124499Y410607D01*
X1124499Y401606D01*
X1129499Y383607D02*
G01*
X1129499Y403607D01*
D10*
X-1605500Y126905D02*
G01*
X-1663500Y126905D01*
X-1605500Y58904D02*
G01*
X-1663500Y58904D01*
X-1605500Y58904D02*
G01*
X-1605500Y126905D01*
X-1686499Y126905D02*
G01*
X-1732500Y126905D01*
X-1687500Y58904D02*
G01*
X-1732500Y58904D01*
X-1732500Y58904D02*
G01*
X-1746499Y72905D01*
X-1746499Y112905D01*
X-1732500Y126905D01*
D50*
X-1669499Y77905D02*
G01*
X-1669499Y108904D01*
X-1679499Y98904D01*
X-1679499Y84904D01*
X-1669499Y74904D01*
X-1669499Y83904D01*
X-1674499Y101905D02*
G01*
X-1674499Y81905D01*
D46*
X398000Y-349692D02*
G01*
X398000Y-374692D01*
X431999Y-374692D01*
X431999Y-353692D01*
X431999Y-349692D01*
X431999Y-334692D02*
G01*
X431999Y-310693D01*
X398000Y-310693D01*
X398000Y-331693D01*
X398000Y-334692D01*
X548000Y-351392D02*
G01*
X548000Y-376392D01*
X581999Y-376392D01*
X581999Y-355392D01*
X581999Y-351392D01*
X581999Y-336392D02*
G01*
X581999Y-312392D01*
X548000Y-312392D01*
X548000Y-333393D01*
X548000Y-336392D01*
X-1547700Y75905D02*
G01*
X-1522700Y75905D01*
X-1522700Y109904D01*
X-1543699Y109904D01*
X-1547700Y109904D01*
X-1562700Y109904D02*
G01*
X-1586700Y109904D01*
X-1586700Y75905D01*
X-1565699Y75905D01*
X-1562700Y75905D01*
X-1212700Y-44094D02*
G01*
X-1187700Y-44094D01*
X-1187700Y-10095D01*
X-1208699Y-10095D01*
X-1212700Y-10095D01*
X-1227700Y-10095D02*
G01*
X-1251700Y-10095D01*
X-1251700Y-44094D01*
X-1230699Y-44094D01*
X-1227700Y-44094D01*
X-751999Y-329394D02*
G01*
X-751999Y-354394D01*
X-718000Y-354394D01*
X-718000Y-333395D01*
X-718000Y-329394D01*
X-718000Y-314394D02*
G01*
X-718000Y-290394D01*
X-751999Y-290394D01*
X-751999Y-311394D01*
X-751999Y-314394D01*
X-701999Y-329394D02*
G01*
X-701999Y-354394D01*
X-668000Y-354394D01*
X-668000Y-333395D01*
X-668000Y-329394D01*
X-668000Y-314394D02*
G01*
X-668000Y-290394D01*
X-701999Y-290394D01*
X-701999Y-311394D01*
X-701999Y-314394D01*
X-656999Y-329394D02*
G01*
X-656999Y-354394D01*
X-623000Y-354394D01*
X-623000Y-333395D01*
X-623000Y-329394D01*
X-623000Y-314394D02*
G01*
X-623000Y-290394D01*
X-656999Y-290394D01*
X-656999Y-311394D01*
X-656999Y-314394D01*
X-671999Y55605D02*
G01*
X-671999Y30605D01*
X-638000Y30605D01*
X-638000Y51604D01*
X-638000Y55605D01*
X-638000Y70605D02*
G01*
X-638000Y94605D01*
X-671999Y94605D01*
X-671999Y73605D01*
X-671999Y70605D01*
X-631999Y55605D02*
G01*
X-631999Y30605D01*
X-598000Y30605D01*
X-598000Y51604D01*
X-598000Y55605D01*
X-598000Y70605D02*
G01*
X-598000Y94605D01*
X-631999Y94605D01*
X-631999Y73605D01*
X-631999Y70605D01*
X-591999Y55605D02*
G01*
X-591999Y30605D01*
X-558000Y30605D01*
X-558000Y51604D01*
X-558000Y55605D01*
X-558000Y70605D02*
G01*
X-558000Y94605D01*
X-591999Y94605D01*
X-591999Y73605D01*
X-591999Y70605D01*
X-711999Y55605D02*
G01*
X-711999Y30605D01*
X-678000Y30605D01*
X-678000Y51604D01*
X-678000Y55605D01*
X-678000Y70605D02*
G01*
X-678000Y94605D01*
X-711999Y94605D01*
X-711999Y73605D01*
X-711999Y70605D01*
X-892700Y-139094D02*
G01*
X-867700Y-139094D01*
X-867700Y-105095D01*
X-888699Y-105095D01*
X-892700Y-105095D01*
X-907700Y-105095D02*
G01*
X-931700Y-105095D01*
X-931700Y-139094D01*
X-910699Y-139094D01*
X-907700Y-139094D01*
X-1547700Y-24094D02*
G01*
X-1522700Y-24094D01*
X-1522700Y9904D01*
X-1543699Y9904D01*
X-1547700Y9904D01*
X-1562700Y9904D02*
G01*
X-1586700Y9904D01*
X-1586700Y-24094D01*
X-1565699Y-24094D01*
X-1562700Y-24094D01*
X-1227700Y230905D02*
G01*
X-1202700Y230905D01*
X-1202700Y264904D01*
X-1223699Y264904D01*
X-1227700Y264904D01*
X-1242700Y264904D02*
G01*
X-1266700Y264904D01*
X-1266700Y230905D01*
X-1245699Y230905D01*
X-1242700Y230905D01*
X-283000Y-388595D02*
G01*
X-283000Y-413595D01*
X-248999Y-413595D01*
X-248999Y-392595D01*
X-248999Y-388595D01*
X-248999Y-373595D02*
G01*
X-248999Y-349594D01*
X-283000Y-349594D01*
X-283000Y-370594D01*
X-283000Y-373595D01*
D47*
X-1435000Y-432094D02*
G01*
X-1435000Y-332094D01*
X-1235000Y-332094D01*
X-1235000Y-432094D01*
X-1310000Y-432094D01*
D48*
X-1435000Y-432094D02*
G01*
X-1310000Y-432094D01*
D10*
X-1271999Y54205D02*
G01*
X-1276000Y54205D01*
X-1276000Y118205D01*
X-1271999Y118205D01*
X-1168000Y118205D02*
G01*
X-1163999Y118205D01*
X-1163999Y54205D01*
X-1168000Y54205D01*
X-1198999Y54205D02*
G01*
X-1241000Y54205D01*
X-1203000Y118205D02*
G01*
X-1198999Y118205D01*
X-1241000Y118205D02*
G01*
X-1236999Y118205D01*
X-1517439Y-409574D02*
G01*
X-1743419Y-409574D01*
X-1517039Y-409574D02*
G01*
X-1517039Y-94614D01*
X-1517039Y-94614D02*
G01*
X-1743019Y-94614D01*
X-1743810Y-409574D02*
G01*
X-1743810Y-94614D01*
X-1715860Y-385554D02*
G01*
X-1715860Y-119025D01*
X-1743810Y-408784D02*
G01*
X-1739089Y-408784D01*
X-1715860Y-385554D01*
X-1743019Y-95794D02*
G01*
X-1739089Y-95794D01*
X-1715860Y-119025D01*
D46*
X-807700Y-219094D02*
G01*
X-782700Y-219094D01*
X-782700Y-185095D01*
X-803699Y-185095D01*
X-807700Y-185095D01*
X-822700Y-185095D02*
G01*
X-846700Y-185095D01*
X-846700Y-219094D01*
X-825699Y-219094D01*
X-822700Y-219094D01*
X-1242299Y219904D02*
G01*
X-1267299Y219904D01*
X-1267299Y185905D01*
X-1246300Y185905D01*
X-1242299Y185905D01*
X-1227299Y185905D02*
G01*
X-1203299Y185905D01*
X-1203299Y219904D01*
X-1224300Y219904D01*
X-1227299Y219904D01*
X340799Y384607D02*
G01*
X315799Y384607D01*
X315799Y350607D01*
X336800Y350607D01*
X340799Y350607D01*
X355799Y350607D02*
G01*
X379799Y350607D01*
X379799Y384607D01*
X358800Y384607D01*
X355799Y384607D01*
X-295808Y-71282D02*
G01*
X-320808Y-71282D01*
X-320808Y-105281D01*
X-299808Y-105281D01*
X-295808Y-105281D01*
X-280808Y-105281D02*
G01*
X-256809Y-105281D01*
X-256809Y-71282D01*
X-277808Y-71282D01*
X-280808Y-71282D01*
X-368500Y-373994D02*
G01*
X-368500Y-348994D01*
X-402500Y-348994D01*
X-402500Y-369994D01*
X-402500Y-373994D01*
X-402500Y-388994D02*
G01*
X-402500Y-412995D01*
X-368500Y-412995D01*
X-368500Y-391994D01*
X-368500Y-388994D01*
X-291999Y-374494D02*
G01*
X-291999Y-349494D01*
X-326000Y-349494D01*
X-326000Y-370495D01*
X-326000Y-374494D01*
X-326000Y-389494D02*
G01*
X-326000Y-413494D01*
X-291999Y-413494D01*
X-291999Y-392494D01*
X-291999Y-389494D01*
D49*
X-1095739Y186404D02*
G01*
X-1139049Y186404D01*
X-1139049Y249405D01*
X-1095739Y249405D01*
X-1064250Y186404D02*
G01*
X-1020940Y186404D01*
X-1020940Y225774D01*
X-1020940Y249405D01*
X-1064250Y249405D01*
X-1090739Y-73595D02*
G01*
X-1134049Y-73595D01*
X-1134049Y-10594D01*
X-1090739Y-10594D01*
X-1059250Y-73595D02*
G01*
X-1015940Y-73595D01*
X-1015940Y-34225D01*
X-1015940Y-10594D01*
X-1059250Y-10594D01*
X-1375739Y-78595D02*
G01*
X-1419049Y-78595D01*
X-1419049Y-15594D01*
X-1375739Y-15594D01*
X-1344250Y-78595D02*
G01*
X-1300940Y-78595D01*
X-1300940Y-39225D01*
X-1300940Y-15594D01*
X-1344250Y-15594D01*
X-1380739Y196404D02*
G01*
X-1424049Y196404D01*
X-1424049Y259405D01*
X-1380739Y259405D01*
X-1349250Y196404D02*
G01*
X-1305940Y196404D01*
X-1305940Y235774D01*
X-1305940Y259405D01*
X-1349250Y259405D01*
X-724329Y-220834D02*
G01*
X-724329Y-246424D01*
X-698739Y-246424D01*
X-541260Y-246424D02*
G01*
X-515670Y-246424D01*
X-515670Y-220834D01*
X-515670Y-63355D02*
G01*
X-515670Y-37764D01*
X-541260Y-37764D01*
X-724329Y-63355D02*
G01*
X-724329Y-37764D01*
X-698739Y-37764D01*
D10*
X-1028000Y119904D02*
G01*
X-1023000Y119904D01*
X-1023000Y55905D01*
X-1028000Y55905D01*
X-1131999Y55905D02*
G01*
X-1136999Y55905D01*
X-1136999Y119904D01*
X-1131999Y119904D01*
X-1101000Y119904D02*
G01*
X-1058999Y119904D01*
X-1096999Y55905D02*
G01*
X-1101000Y55905D01*
X-1058999Y55905D02*
G01*
X-1063000Y55905D01*
X-1308000Y119904D02*
G01*
X-1303000Y119904D01*
X-1303000Y55905D01*
X-1308000Y55905D01*
X-1411999Y55905D02*
G01*
X-1416999Y55905D01*
X-1416999Y119904D01*
X-1411999Y119904D01*
X-1381000Y119904D02*
G01*
X-1338999Y119904D01*
X-1376999Y55905D02*
G01*
X-1381000Y55905D01*
X-1338999Y55905D02*
G01*
X-1343000Y55905D01*
D49*
X-423158Y-149881D02*
G01*
X-423158Y-134131D01*
X-407408Y-134131D01*
X-269609Y-134131D02*
G01*
X-253859Y-134131D01*
X-253859Y-149881D01*
X-269609Y-303431D02*
G01*
X-253859Y-303431D01*
X-253859Y-287681D01*
X-407408Y-303431D02*
G01*
X-423158Y-303431D01*
X-423158Y-287681D01*
D10*
X-1320630Y-168591D02*
G01*
X-1399369Y-168591D01*
X-1320630Y-105598D02*
G01*
X-1399369Y-105598D01*
X-1346171Y-168591D02*
G01*
X-1346171Y-105598D01*
X-915590Y-594D02*
G01*
X-915590Y25385D01*
X-915590Y-594D01*
X-915590Y25385D01*
X-883500Y25385D01*
X-883500Y-89574D02*
G01*
X-915590Y-89574D01*
X-915590Y-63595D01*
D49*
X-854570Y-43904D02*
G01*
X-854570Y-20284D01*
D10*
X-854409Y71404D02*
G01*
X-854409Y45425D01*
X-854409Y71404D01*
X-854409Y45425D01*
X-886499Y45425D01*
X-886499Y160385D02*
G01*
X-854409Y160385D01*
X-854409Y134405D01*
D49*
X-915429Y114715D02*
G01*
X-915429Y91095D01*
D10*
X-1605500Y26905D02*
G01*
X-1663500Y26905D01*
X-1605500Y-41095D02*
G01*
X-1663500Y-41095D01*
X-1605500Y-41095D02*
G01*
X-1605500Y26905D01*
X-1686499Y26905D02*
G01*
X-1732500Y26905D01*
X-1687500Y-41095D02*
G01*
X-1732500Y-41095D01*
X-1732500Y-41095D02*
G01*
X-1746499Y-27094D01*
X-1746499Y12905D01*
X-1732500Y26905D01*
D50*
X-1669499Y-22094D02*
G01*
X-1669499Y8904D01*
X-1679499Y-1095D01*
X-1679499Y-15095D01*
X-1669499Y-25095D01*
X-1669499Y-16095D01*
X-1674499Y1905D02*
G01*
X-1674499Y-18094D01*
D51*
X-1336379Y-317844D02*
G01*
X-1383620Y-317844D01*
X-1336379Y-286345D02*
G01*
X-1383620Y-286345D01*
X-1336379Y-267844D02*
G01*
X-1383620Y-267844D01*
X-1336379Y-236345D02*
G01*
X-1383620Y-236345D01*
X-1383620Y-186345D02*
G01*
X-1336379Y-186345D01*
X-1383620Y-217844D02*
G01*
X-1336379Y-217844D01*
D10*
X-1166040Y-299605D02*
G01*
X-870760Y-299605D01*
X-870760Y-398034D01*
X-1162100Y-398034D01*
X-1166040Y-401974D01*
X-1166040Y-299605D01*
X-1106980Y-409845D02*
G01*
X-1106980Y-468904D01*
X-1047929Y-468904D01*
X-1047929Y-409845D01*
X-1047929Y-409845D01*
X-653999Y237204D02*
G01*
X-653999Y357204D01*
X-765000Y357204D01*
X-766000Y357204D01*
X-766000Y350205D01*
X-766000Y312204D02*
G01*
X-766000Y284290D01*
X-766000Y239205D02*
G01*
X-653000Y239205D01*
X-766000Y246204D02*
G01*
X-766000Y239246D01*
D46*
G75*
G01*
X-141100Y-113695D02*
G03*
X-131100Y-103695I0J10000D01*
G75*
G01*
X-201100Y-113695D02*
G02*
X-211100Y-103695I0J10000D01*
G75*
G01*
X-131100Y66305D02*
G03*
X-141100Y76305I-10000J0D01*
G75*
G01*
X-211100Y66305D02*
G02*
X-201100Y76305I10000J0D01*
D53*
G75*
G01*
X-738100Y-45595D02*
G03*
X-738100Y-45695I-5906J-50D01*
D51*
G75*
G01*
X-1316690Y-306035D02*
G03*
X-1316690Y-302095I0J1970D01*
G75*
G01*
X-1316690Y-302095D02*
G03*
X-1316690Y-306035I0J-1970D01*
G75*
G01*
X-1316690Y-256035D02*
G03*
X-1316690Y-252095I0J1970D01*
G75*
G01*
X-1316690Y-252095D02*
G03*
X-1316690Y-256035I0J-1970D01*
G75*
G01*
X-1403310Y-198155D02*
G03*
X-1403310Y-202095I0J-1970D01*
G75*
G01*
X-1403310Y-202095D02*
G03*
X-1403310Y-198155I0J1970D01*
D52*
G75*
G01
X-649000Y237205D02*
G03X-649000Y237205I-5000J0D01*
M02*
