G04 Layer: TopLayer*
G04 EasyEDA v6.5.5, 2022-06-25 23:47:44*
G04 621e16e28f884fd4bf2062cce9099d3c,e579ade59e434e5c9d4a708449f7d829,10*
G04 Gerber Generator version 0.2*
G04 Scale: 100 percent, Rotated: No, Reflected: No *
G04 Dimensions in inches *
G04 leading zeros omitted , absolute positions ,3 integer and 6 decimal *
%FSLAX36Y36*%
%MOIN*%

%ADD10C,0.0100*%
%ADD11C,0.0180*%
%ADD12C,0.0150*%
%ADD13C,0.0200*%
%ADD14C,0.0110*%
%ADD15C,0.0240*%
%ADD16C,0.0394*%
%ADD17R,0.0236X0.0256*%
%ADD18R,0.0394X0.0394*%
%ADD19R,0.0256X0.0236*%
%ADD20R,0.0433X0.0394*%
%ADD21R,0.0512X0.0236*%
%ADD22R,0.0430X0.0390*%
%ADD23R,0.0100X0.0197*%
%ADD24R,0.0197X0.0100*%
%ADD25R,0.0984X0.0984*%
%ADD26R,0.0217X0.0472*%
%ADD27R,0.0787X0.0177*%
%ADD28R,0.0472X0.0630*%
%ADD29R,0.0394X0.0433*%
%ADD33R,0.0492X0.0276*%
%ADD34R,0.0189X0.0158*%
%ADD36R,0.0551X0.0315*%
%ADD37R,0.0138X0.0320*%
%ADD38R,0.0748X0.0748*%
%ADD39C,0.0748*%
%ADD40R,0.0669X0.0669*%
%ADD41C,0.0512*%

%LPD*%
G36*
X-672080Y226300D02*
G01*
X-673620Y226600D01*
X-674920Y227480D01*
X-678720Y231260D01*
X-679580Y232560D01*
X-679880Y234080D01*
X-679599Y235600D01*
X-678760Y236880D01*
X-678760Y253939D01*
X-680140Y254780D01*
X-681060Y256119D01*
X-681380Y257700D01*
X-681380Y270700D01*
X-681060Y272280D01*
X-680140Y273600D01*
X-678760Y274460D01*
X-678760Y290300D01*
X-679479Y290300D01*
X-681940Y290020D01*
X-684280Y289200D01*
X-685600Y288980D01*
X-686919Y289200D01*
X-689240Y290020D01*
X-691720Y290300D01*
X-705639Y290320D01*
X-707520Y290780D01*
X-708740Y291780D01*
X-709500Y293160D01*
X-710460Y296380D01*
X-711860Y298980D01*
X-713060Y300440D01*
X-713840Y301980D01*
X-713920Y303700D01*
X-713259Y305280D01*
X-712000Y306440D01*
X-710360Y306960D01*
X-708660Y306760D01*
X-707540Y306380D01*
X-705080Y306100D01*
X-704360Y306100D01*
X-704360Y321820D01*
X-705920Y322600D01*
X-707000Y323980D01*
X-707380Y325700D01*
X-707380Y338700D01*
X-707000Y340400D01*
X-705920Y341800D01*
X-704360Y342580D01*
X-704360Y358300D01*
X-705300Y358300D01*
X-706820Y358600D01*
X-708120Y359460D01*
X-709000Y360760D01*
X-709300Y362299D01*
X-709300Y364880D01*
X-709140Y365980D01*
X-708680Y367000D01*
X-707420Y369040D01*
X-706660Y371160D01*
X-706520Y372540D01*
X-706100Y373940D01*
X-705200Y375080D01*
X-703960Y375840D01*
X-702540Y376100D01*
X-652920Y376100D01*
X-651380Y375800D01*
X-650080Y374920D01*
X-647980Y372819D01*
X-647099Y371520D01*
X-646800Y369980D01*
X-646800Y355959D01*
X-647020Y354640D01*
X-647680Y353459D01*
X-648680Y352580D01*
X-649800Y351880D01*
X-651500Y350540D01*
X-652880Y350200D01*
X-654300Y350360D01*
X-655580Y351019D01*
X-656540Y352080D01*
X-658020Y354500D01*
X-659599Y356079D01*
X-661520Y357280D01*
X-663640Y358020D01*
X-666120Y358300D01*
X-679479Y358300D01*
X-681940Y358020D01*
X-684280Y357200D01*
X-685600Y356980D01*
X-686919Y357200D01*
X-689240Y358020D01*
X-691720Y358300D01*
X-692440Y358300D01*
X-692440Y342460D01*
X-691060Y341599D01*
X-690140Y340280D01*
X-689800Y338700D01*
X-689800Y325700D01*
X-690140Y324120D01*
X-691060Y322780D01*
X-692440Y321940D01*
X-692440Y306100D01*
X-691720Y306100D01*
X-689240Y306380D01*
X-686919Y307180D01*
X-685600Y307420D01*
X-684280Y307180D01*
X-681940Y306380D01*
X-679479Y306100D01*
X-666120Y306100D01*
X-663640Y306380D01*
X-661520Y307120D01*
X-659599Y308320D01*
X-658020Y309920D01*
X-657280Y311100D01*
X-656300Y312140D01*
X-655040Y312800D01*
X-653620Y312960D01*
X-652240Y312600D01*
X-651060Y311800D01*
X-649800Y310520D01*
X-648680Y309820D01*
X-647680Y308940D01*
X-647020Y307760D01*
X-646800Y306440D01*
X-646800Y234800D01*
X-646280Y229980D01*
X-646660Y228560D01*
X-647540Y227360D01*
X-648800Y226580D01*
X-650260Y226300D01*
G37*

%LPC*%
G36*
X-666840Y238100D02*
G01*
X-666120Y238100D01*
X-663640Y238380D01*
X-661520Y239120D01*
X-659599Y240320D01*
X-658020Y241920D01*
X-656820Y243820D01*
X-656060Y245960D01*
X-655780Y248420D01*
X-655780Y253700D01*
X-666840Y253700D01*
G37*
G36*
X-666840Y274700D02*
G01*
X-655780Y274700D01*
X-655780Y279980D01*
X-656060Y282440D01*
X-656820Y284560D01*
X-658020Y286480D01*
X-659599Y288080D01*
X-661520Y289280D01*
X-663640Y290020D01*
X-666120Y290300D01*
X-666840Y290300D01*
G37*

%LPD*%
G36*
X1258100Y166000D02*
G01*
X1256560Y166300D01*
X1255280Y167180D01*
X1254400Y168480D01*
X1254100Y170000D01*
X1254100Y178020D01*
X1254400Y179540D01*
X1255280Y180840D01*
X1265960Y191540D01*
X1267260Y192399D01*
X1268780Y192700D01*
X1281100Y192700D01*
X1281100Y199500D01*
X1281399Y201040D01*
X1282280Y202340D01*
X1283580Y203200D01*
X1285100Y203500D01*
X1294900Y203500D01*
X1296420Y203200D01*
X1297720Y202340D01*
X1298600Y201040D01*
X1298899Y199500D01*
X1298899Y192700D01*
X1321100Y192700D01*
X1321100Y199500D01*
X1321399Y201040D01*
X1322280Y202340D01*
X1323580Y203200D01*
X1325100Y203500D01*
X1334900Y203500D01*
X1336420Y203200D01*
X1337720Y202340D01*
X1338600Y201040D01*
X1338899Y199500D01*
X1338899Y192700D01*
X1343100Y192700D01*
X1344640Y192399D01*
X1345940Y191540D01*
X1346800Y190240D01*
X1347100Y188700D01*
X1347100Y179899D01*
X1346800Y178359D01*
X1345940Y177060D01*
X1344640Y176200D01*
X1343100Y175900D01*
X1338800Y175900D01*
X1338020Y174300D01*
X1336620Y173200D01*
X1334900Y172820D01*
X1325100Y172820D01*
X1323380Y173200D01*
X1321980Y174300D01*
X1321200Y175900D01*
X1298800Y175900D01*
X1298020Y174300D01*
X1296620Y173200D01*
X1294900Y172820D01*
X1285100Y172820D01*
X1283380Y173200D01*
X1281980Y174300D01*
X1281200Y175900D01*
X1267100Y175900D01*
X1267100Y172719D01*
X1267360Y170460D01*
X1267200Y168780D01*
X1266360Y167340D01*
X1265020Y166360D01*
X1263380Y166000D01*
G37*

%LPD*%
G36*
X1649100Y-23280D02*
G01*
X1647560Y-22980D01*
X1646279Y-22120D01*
X1645400Y-20820D01*
X1645100Y-19280D01*
X1645100Y97400D01*
X1644800Y100540D01*
X1643940Y103379D01*
X1642540Y105980D01*
X1640540Y108420D01*
X1625820Y123140D01*
X1623380Y125140D01*
X1620780Y126540D01*
X1619300Y127180D01*
X1618400Y128040D01*
X1617580Y129760D01*
X1616380Y131680D01*
X1614800Y133280D01*
X1612880Y134480D01*
X1610760Y135220D01*
X1608280Y135500D01*
X1585120Y135500D01*
X1582640Y135220D01*
X1581320Y134760D01*
X1580000Y134540D01*
X1578680Y134760D01*
X1577360Y135220D01*
X1574880Y135500D01*
X1551720Y135500D01*
X1549240Y135220D01*
X1545440Y133900D01*
X1543700Y134120D01*
X1542200Y135060D01*
X1437960Y239280D01*
X1437100Y240580D01*
X1436800Y242120D01*
X1437100Y243640D01*
X1437960Y244940D01*
X1439259Y245820D01*
X1440800Y246119D01*
X1467220Y246119D01*
X1469680Y246400D01*
X1471819Y247140D01*
X1473720Y248340D01*
X1475320Y249940D01*
X1476519Y251840D01*
X1477260Y253980D01*
X1477540Y256439D01*
X1477540Y295360D01*
X1477260Y297820D01*
X1476519Y299960D01*
X1475320Y301860D01*
X1473720Y303460D01*
X1471819Y304660D01*
X1469680Y305420D01*
X1467220Y305680D01*
X1428300Y305680D01*
X1425820Y305420D01*
X1423700Y304660D01*
X1421780Y303460D01*
X1420200Y301860D01*
X1419079Y300100D01*
X1418120Y299040D01*
X1416840Y298400D01*
X1415420Y298240D01*
X1414040Y298580D01*
X1412860Y299400D01*
X1358680Y353579D01*
X1357800Y354880D01*
X1357500Y356420D01*
X1357500Y418080D01*
X1357220Y420540D01*
X1356480Y422680D01*
X1355280Y424580D01*
X1353680Y426180D01*
X1351780Y427380D01*
X1349640Y428120D01*
X1347180Y428400D01*
X1272820Y428400D01*
X1270360Y428120D01*
X1268220Y427380D01*
X1266320Y426180D01*
X1264720Y424580D01*
X1263520Y422680D01*
X1262780Y420540D01*
X1262500Y418080D01*
X1262500Y343720D01*
X1262780Y341260D01*
X1263520Y339120D01*
X1264720Y337220D01*
X1266320Y335620D01*
X1268220Y334420D01*
X1270360Y333680D01*
X1272820Y333400D01*
X1334500Y333400D01*
X1336020Y333100D01*
X1337320Y332220D01*
X1361720Y307840D01*
X1362580Y306540D01*
X1362880Y305000D01*
X1362580Y303480D01*
X1361720Y302180D01*
X1360420Y301300D01*
X1358880Y301000D01*
X1121620Y301000D01*
X1119980Y301360D01*
X1118640Y302340D01*
X1117800Y303780D01*
X1117640Y305460D01*
X1117900Y307720D01*
X1117900Y330880D01*
X1117620Y333360D01*
X1116880Y335480D01*
X1115680Y337400D01*
X1114080Y338980D01*
X1112480Y340260D01*
X1111820Y341440D01*
X1111600Y342760D01*
X1111600Y359000D01*
X1111900Y360540D01*
X1112780Y361840D01*
X1114060Y362700D01*
X1115600Y363000D01*
X1117780Y363000D01*
X1120240Y363280D01*
X1122380Y364020D01*
X1124280Y365220D01*
X1125880Y366820D01*
X1126620Y368000D01*
X1127720Y369159D01*
X1129200Y369780D01*
X1130800Y369780D01*
X1132280Y369159D01*
X1133380Y368000D01*
X1134120Y366820D01*
X1135720Y365220D01*
X1137620Y364020D01*
X1139760Y363280D01*
X1142220Y363000D01*
X1150260Y363000D01*
X1150260Y380360D01*
X1132100Y380360D01*
X1130560Y380660D01*
X1129280Y381520D01*
X1128400Y382819D01*
X1128100Y384360D01*
X1128100Y400860D01*
X1128400Y402380D01*
X1129280Y403680D01*
X1130560Y404540D01*
X1132100Y404860D01*
X1150260Y404860D01*
X1150260Y422200D01*
X1142220Y422200D01*
X1139760Y421920D01*
X1137620Y421180D01*
X1135720Y419980D01*
X1134120Y418380D01*
X1133380Y417220D01*
X1132280Y416060D01*
X1130800Y415420D01*
X1129200Y415420D01*
X1127720Y416060D01*
X1126620Y417220D01*
X1125880Y418380D01*
X1124280Y419980D01*
X1122380Y421180D01*
X1120240Y421920D01*
X1117780Y422200D01*
X1075220Y422200D01*
X1072760Y421920D01*
X1070620Y421180D01*
X1068720Y419980D01*
X1067120Y418380D01*
X1065920Y416480D01*
X1065180Y414340D01*
X1064900Y411880D01*
X1064900Y373320D01*
X1065180Y370860D01*
X1065920Y368740D01*
X1067120Y366820D01*
X1068720Y365220D01*
X1070620Y364020D01*
X1072760Y363280D01*
X1075220Y363000D01*
X1077400Y363000D01*
X1078920Y362700D01*
X1080220Y361840D01*
X1081100Y360540D01*
X1081400Y359000D01*
X1081400Y344280D01*
X1081060Y342680D01*
X1080120Y341340D01*
X1078720Y340500D01*
X1077840Y340180D01*
X1075920Y338980D01*
X1074320Y337400D01*
X1073120Y335480D01*
X1072380Y333360D01*
X1072100Y330880D01*
X1072100Y307720D01*
X1072360Y305460D01*
X1072200Y303780D01*
X1071360Y302340D01*
X1070020Y301360D01*
X1068380Y301000D01*
X640939Y301000D01*
X639500Y301260D01*
X638260Y302040D01*
X637380Y303180D01*
X636960Y304580D01*
X637080Y306040D01*
X637740Y308560D01*
X638080Y312400D01*
X637740Y316240D01*
X637320Y317840D01*
X637180Y319020D01*
X637400Y320180D01*
X637820Y321360D01*
X638100Y323820D01*
X638100Y346980D01*
X637820Y349460D01*
X637360Y350780D01*
X637120Y352100D01*
X637360Y353420D01*
X637820Y354760D01*
X638100Y357220D01*
X638100Y380379D01*
X637820Y382860D01*
X637080Y384980D01*
X635880Y386900D01*
X634280Y388480D01*
X632360Y389680D01*
X630240Y390439D01*
X627780Y390720D01*
X616980Y390720D01*
X615200Y390880D01*
X613060Y390720D01*
X602620Y390720D01*
X600160Y390439D01*
X598040Y389680D01*
X596140Y388500D01*
X594180Y386520D01*
X592920Y385660D01*
X591420Y385319D01*
X589900Y385600D01*
X588600Y386400D01*
X587700Y387640D01*
X587340Y389140D01*
X587560Y390640D01*
X588340Y392860D01*
X588620Y395319D01*
X588620Y399000D01*
X575100Y399000D01*
X575100Y394620D01*
X574800Y393080D01*
X573940Y391780D01*
X572640Y390920D01*
X571100Y390620D01*
X568080Y390620D01*
X566300Y390780D01*
X564160Y390620D01*
X562300Y390620D01*
X560760Y390920D01*
X559460Y391780D01*
X558600Y393080D01*
X558300Y394620D01*
X558300Y399099D01*
X556700Y399880D01*
X555600Y401280D01*
X555220Y403000D01*
X555220Y412800D01*
X555600Y414520D01*
X556700Y415920D01*
X558300Y416700D01*
X558300Y433800D01*
X558600Y435340D01*
X559460Y436620D01*
X560760Y437500D01*
X562300Y437800D01*
X571100Y437800D01*
X572640Y437500D01*
X573940Y436620D01*
X574800Y435340D01*
X575100Y433800D01*
X575100Y416800D01*
X588620Y416800D01*
X588620Y420480D01*
X588340Y422939D01*
X587580Y425060D01*
X586380Y426980D01*
X584800Y428579D01*
X582880Y429780D01*
X582160Y430020D01*
X580800Y430840D01*
X579840Y432120D01*
X579480Y433680D01*
X579740Y435240D01*
X580600Y436580D01*
X581920Y437480D01*
X583480Y437800D01*
X1483240Y437800D01*
X1484740Y437520D01*
X1486000Y436700D01*
X1486879Y435460D01*
X1487240Y433980D01*
X1487020Y432480D01*
X1486720Y431599D01*
X1486440Y429140D01*
X1486440Y415140D01*
X1510760Y415140D01*
X1510760Y433800D01*
X1511080Y435340D01*
X1511940Y436620D01*
X1513240Y437500D01*
X1514760Y437800D01*
X1545240Y437800D01*
X1546759Y437500D01*
X1548060Y436620D01*
X1548920Y435340D01*
X1549240Y433800D01*
X1549240Y415140D01*
X1562440Y415140D01*
X1563959Y414840D01*
X1565260Y413960D01*
X1566140Y412660D01*
X1566440Y411140D01*
X1566440Y380680D01*
X1566140Y379140D01*
X1565260Y377840D01*
X1563959Y376980D01*
X1562440Y376680D01*
X1549240Y376680D01*
X1549240Y352340D01*
X1563240Y352340D01*
X1565700Y352620D01*
X1569259Y353920D01*
X1570740Y353920D01*
X1574300Y352620D01*
X1576759Y352340D01*
X1643240Y352340D01*
X1645700Y352620D01*
X1647840Y353360D01*
X1649740Y354560D01*
X1651339Y356160D01*
X1652540Y358060D01*
X1653280Y360200D01*
X1653560Y362660D01*
X1653560Y429140D01*
X1653280Y431599D01*
X1652980Y432480D01*
X1652760Y433980D01*
X1653120Y435460D01*
X1654000Y436700D01*
X1655260Y437520D01*
X1656759Y437800D01*
X1672740Y437800D01*
X1674379Y437460D01*
X1675720Y436460D01*
X1676560Y435020D01*
X1676720Y433360D01*
X1676440Y430840D01*
X1676440Y364360D01*
X1676720Y361900D01*
X1678020Y358340D01*
X1678020Y356860D01*
X1676720Y353300D01*
X1676440Y350840D01*
X1676440Y284360D01*
X1676720Y281900D01*
X1678020Y278340D01*
X1678020Y276860D01*
X1676720Y273300D01*
X1676440Y270840D01*
X1676440Y204360D01*
X1676720Y201900D01*
X1678020Y198340D01*
X1678020Y196860D01*
X1676720Y193299D01*
X1676440Y190840D01*
X1676440Y124360D01*
X1676720Y121900D01*
X1678020Y118340D01*
X1678020Y116860D01*
X1676720Y113300D01*
X1676440Y110840D01*
X1676440Y44360D01*
X1676720Y41900D01*
X1678020Y38340D01*
X1678020Y36860D01*
X1676720Y33300D01*
X1676440Y30840D01*
X1676440Y4040D01*
X1676140Y2520D01*
X1675260Y1220D01*
X1651920Y-22120D01*
X1650640Y-22980D01*
G37*

%LPC*%
G36*
X1554580Y246119D02*
G01*
X1561699Y246119D01*
X1564180Y246400D01*
X1566300Y247140D01*
X1568220Y248340D01*
X1569800Y249940D01*
X1571000Y251840D01*
X1571759Y253980D01*
X1572020Y256439D01*
X1572020Y263560D01*
X1554580Y263560D01*
G37*
G36*
X1522780Y246119D02*
G01*
X1529900Y246119D01*
X1529900Y263560D01*
X1512460Y263560D01*
X1512460Y256439D01*
X1512740Y253980D01*
X1513480Y251840D01*
X1514680Y249940D01*
X1516279Y248340D01*
X1518180Y247140D01*
X1520320Y246400D01*
G37*
G36*
X1512460Y288240D02*
G01*
X1529900Y288240D01*
X1529900Y305680D01*
X1522780Y305680D01*
X1520320Y305420D01*
X1518180Y304660D01*
X1516279Y303460D01*
X1514680Y301860D01*
X1513480Y299960D01*
X1512740Y297820D01*
X1512460Y295360D01*
G37*
G36*
X1554580Y288240D02*
G01*
X1572020Y288240D01*
X1572020Y295360D01*
X1571759Y297820D01*
X1571000Y299960D01*
X1569800Y301860D01*
X1568220Y303460D01*
X1566300Y304660D01*
X1564180Y305420D01*
X1561699Y305680D01*
X1554580Y305680D01*
G37*
G36*
X1431200Y338400D02*
G01*
X1436240Y341300D01*
X1440900Y344840D01*
X1445100Y348900D01*
X1448760Y353459D01*
X1451840Y358440D01*
X1452420Y359700D01*
X1431200Y359700D01*
G37*
G36*
X1388800Y338500D02*
G01*
X1388800Y359700D01*
X1367580Y359700D01*
X1369620Y355900D01*
X1373000Y351120D01*
X1376940Y346800D01*
X1381380Y343000D01*
X1386260Y339760D01*
G37*
G36*
X1496759Y352340D02*
G01*
X1510760Y352340D01*
X1510760Y376680D01*
X1486440Y376680D01*
X1486440Y362660D01*
X1486720Y360200D01*
X1487460Y358060D01*
X1488660Y356160D01*
X1490260Y354560D01*
X1492160Y353360D01*
X1494300Y352620D01*
G37*
G36*
X1176760Y363000D02*
G01*
X1184780Y363000D01*
X1187240Y363280D01*
X1189380Y364020D01*
X1191280Y365220D01*
X1192880Y366820D01*
X1194080Y368740D01*
X1194820Y370860D01*
X1195100Y373320D01*
X1195100Y380360D01*
X1176760Y380360D01*
G37*
G36*
X1367580Y402100D02*
G01*
X1388800Y402100D01*
X1388800Y423300D01*
X1386260Y422040D01*
X1381380Y418800D01*
X1376940Y415000D01*
X1373000Y410680D01*
X1369620Y405900D01*
G37*
G36*
X1431200Y402100D02*
G01*
X1452420Y402100D01*
X1451840Y403360D01*
X1448760Y408340D01*
X1445100Y412900D01*
X1440900Y416960D01*
X1436240Y420500D01*
X1431200Y423400D01*
G37*
G36*
X1176760Y404860D02*
G01*
X1195100Y404860D01*
X1195100Y411880D01*
X1194820Y414340D01*
X1194080Y416480D01*
X1192880Y418380D01*
X1191280Y419980D01*
X1189380Y421180D01*
X1187240Y421920D01*
X1184780Y422200D01*
X1176760Y422200D01*
G37*

%LPD*%
G36*
X1292120Y-33400D02*
G01*
X1290800Y-33180D01*
X1289100Y-32580D01*
X1286480Y-32300D01*
X1254100Y-32300D01*
X1252560Y-32000D01*
X1251280Y-31120D01*
X1250400Y-29820D01*
X1250100Y-28300D01*
X1250100Y-27400D01*
X1250400Y-25860D01*
X1251280Y-24560D01*
X1252560Y-23700D01*
X1254100Y-23400D01*
X1269580Y-23400D01*
X1269580Y-13300D01*
X1267380Y-13300D01*
X1264900Y-13580D01*
X1262780Y-14320D01*
X1260860Y-15520D01*
X1259280Y-17120D01*
X1258080Y-19020D01*
X1257060Y-20960D01*
X1255780Y-21900D01*
X1254220Y-22260D01*
X1252660Y-22000D01*
X1251320Y-21140D01*
X1250420Y-19820D01*
X1250100Y-18260D01*
X1250100Y88000D01*
X1250400Y89520D01*
X1251280Y90820D01*
X1268080Y107620D01*
X1269360Y108480D01*
X1270900Y108800D01*
X1272440Y108480D01*
X1273720Y107620D01*
X1274600Y106320D01*
X1274900Y104800D01*
X1274900Y26800D01*
X1275200Y23660D01*
X1276060Y20820D01*
X1277460Y18220D01*
X1279460Y15780D01*
X1294720Y520D01*
X1295600Y-780D01*
X1295900Y-2320D01*
X1295900Y-4020D01*
X1296180Y-6600D01*
X1296140Y-7780D01*
X1295760Y-8920D01*
X1295040Y-9880D01*
X1292480Y-12440D01*
X1291519Y-13140D01*
X1290400Y-13540D01*
X1289199Y-13580D01*
X1286620Y-13300D01*
X1284420Y-13300D01*
X1284420Y-23400D01*
X1300960Y-23400D01*
X1302480Y-23700D01*
X1303779Y-24560D01*
X1304640Y-25860D01*
X1304960Y-27400D01*
X1304960Y-29400D01*
X1304640Y-30920D01*
X1303779Y-32220D01*
X1302480Y-33100D01*
X1300960Y-33400D01*
G37*

%LPD*%
G36*
X1083100Y-41280D02*
G01*
X1081560Y-40980D01*
X1080280Y-40119D01*
X1079400Y-38820D01*
X1079100Y-37280D01*
X1079100Y-3660D01*
X1079400Y-2140D01*
X1080280Y-840D01*
X1096440Y15320D01*
X1097740Y16200D01*
X1099260Y16500D01*
X1114900Y16500D01*
X1114900Y22799D01*
X1115200Y24340D01*
X1116060Y25640D01*
X1117360Y26500D01*
X1118900Y26800D01*
X1127700Y26800D01*
X1129240Y26500D01*
X1130540Y25640D01*
X1131400Y24340D01*
X1131700Y22799D01*
X1131700Y16400D01*
X1133300Y15620D01*
X1134400Y14220D01*
X1134800Y12500D01*
X1134800Y2700D01*
X1134400Y980D01*
X1133300Y-420D01*
X1131700Y-1180D01*
X1131700Y-5500D01*
X1131400Y-7040D01*
X1130540Y-8340D01*
X1129240Y-9200D01*
X1127700Y-9500D01*
X1118900Y-9500D01*
X1117360Y-9200D01*
X1116060Y-8340D01*
X1115200Y-7040D01*
X1114900Y-5500D01*
X1114900Y-1300D01*
X1101400Y-1300D01*
X1101400Y-4960D01*
X1101660Y-7440D01*
X1102420Y-9560D01*
X1102860Y-10260D01*
X1103400Y-11660D01*
X1103400Y-13140D01*
X1102860Y-14520D01*
X1102420Y-15240D01*
X1101660Y-17360D01*
X1101400Y-19820D01*
X1101400Y-23000D01*
X1101080Y-24520D01*
X1100220Y-25820D01*
X1085920Y-40119D01*
X1084640Y-40980D01*
G37*

%LPD*%
G36*
X1083100Y-106280D02*
G01*
X1081560Y-105980D01*
X1080280Y-105120D01*
X1079400Y-103820D01*
X1079100Y-102280D01*
X1079100Y-91300D01*
X1079400Y-89780D01*
X1080280Y-88480D01*
X1104080Y-64680D01*
X1105380Y-63800D01*
X1106900Y-63500D01*
X1114900Y-63500D01*
X1114900Y-59300D01*
X1115200Y-57760D01*
X1116060Y-56460D01*
X1117360Y-55599D01*
X1118900Y-55300D01*
X1127700Y-55300D01*
X1129240Y-55599D01*
X1130540Y-56460D01*
X1131400Y-57760D01*
X1131700Y-59300D01*
X1131700Y-63600D01*
X1133300Y-64380D01*
X1134400Y-65780D01*
X1134800Y-67500D01*
X1134800Y-77300D01*
X1134400Y-79020D01*
X1133300Y-80420D01*
X1131700Y-81180D01*
X1131700Y-85500D01*
X1131400Y-87040D01*
X1130540Y-88340D01*
X1129240Y-89200D01*
X1127700Y-89500D01*
X1118900Y-89500D01*
X1117360Y-89200D01*
X1116060Y-88340D01*
X1115200Y-87040D01*
X1114900Y-85500D01*
X1114900Y-81300D01*
X1101400Y-81300D01*
X1101400Y-84960D01*
X1101660Y-87440D01*
X1102420Y-89560D01*
X1102860Y-90260D01*
X1103400Y-91660D01*
X1103400Y-93140D01*
X1102860Y-94520D01*
X1102220Y-95540D01*
X1101420Y-96460D01*
X1100400Y-97100D01*
X1099220Y-97400D01*
X1097060Y-97600D01*
X1094220Y-98460D01*
X1091620Y-99860D01*
X1089180Y-101860D01*
X1085920Y-105120D01*
X1084640Y-105980D01*
G37*

%LPD*%
G36*
X1340000Y-121460D02*
G01*
X1338680Y-121220D01*
X1337240Y-120719D01*
X1334780Y-120440D01*
X1326900Y-120440D01*
X1325360Y-120140D01*
X1324079Y-119280D01*
X1323200Y-117980D01*
X1322900Y-116440D01*
X1322900Y-94500D01*
X1300960Y-94500D01*
X1299420Y-94200D01*
X1298120Y-93320D01*
X1297260Y-92020D01*
X1296960Y-90500D01*
X1296960Y-82620D01*
X1296680Y-80160D01*
X1296160Y-78720D01*
X1295940Y-77400D01*
X1296160Y-76080D01*
X1296680Y-74640D01*
X1296960Y-72180D01*
X1296960Y-62619D01*
X1296680Y-60160D01*
X1296160Y-58720D01*
X1295940Y-57400D01*
X1296160Y-56080D01*
X1296680Y-54640D01*
X1296960Y-52180D01*
X1296960Y-44300D01*
X1297260Y-42760D01*
X1298120Y-41460D01*
X1299420Y-40599D01*
X1300960Y-40300D01*
X1322900Y-40300D01*
X1322900Y-18340D01*
X1323200Y-16820D01*
X1324079Y-15520D01*
X1325360Y-14660D01*
X1326900Y-14340D01*
X1334780Y-14340D01*
X1337240Y-14060D01*
X1338680Y-13560D01*
X1340000Y-13340D01*
X1341320Y-13560D01*
X1342760Y-14060D01*
X1345220Y-14340D01*
X1354780Y-14340D01*
X1357240Y-14060D01*
X1358680Y-13560D01*
X1360000Y-13340D01*
X1361320Y-13560D01*
X1362760Y-14060D01*
X1365220Y-14340D01*
X1373100Y-14340D01*
X1374640Y-14660D01*
X1375920Y-15520D01*
X1376800Y-16820D01*
X1377100Y-18340D01*
X1377100Y-40300D01*
X1399060Y-40300D01*
X1400580Y-40599D01*
X1401879Y-41460D01*
X1402740Y-42760D01*
X1403060Y-44300D01*
X1403060Y-52180D01*
X1403320Y-54640D01*
X1403839Y-56080D01*
X1404060Y-57400D01*
X1403839Y-58720D01*
X1403320Y-60160D01*
X1403060Y-62619D01*
X1403060Y-72180D01*
X1403320Y-74640D01*
X1403839Y-76080D01*
X1404060Y-77400D01*
X1403839Y-78720D01*
X1403320Y-80160D01*
X1403060Y-82620D01*
X1403060Y-90500D01*
X1402740Y-92020D01*
X1401879Y-93320D01*
X1400580Y-94200D01*
X1399060Y-94500D01*
X1377100Y-94500D01*
X1377100Y-116440D01*
X1376800Y-117980D01*
X1375920Y-119280D01*
X1374640Y-120140D01*
X1373100Y-120440D01*
X1365220Y-120440D01*
X1362760Y-120719D01*
X1361320Y-121220D01*
X1360000Y-121460D01*
X1358680Y-121220D01*
X1357240Y-120719D01*
X1354780Y-120440D01*
X1345220Y-120440D01*
X1342760Y-120719D01*
X1341320Y-121220D01*
G37*

%LPD*%
G36*
X-630500Y-216400D02*
G01*
X-631740Y-215980D01*
X-633740Y-214899D01*
X-636660Y-214020D01*
X-639700Y-213720D01*
X-642740Y-214020D01*
X-645660Y-214899D01*
X-647420Y-215840D01*
X-649000Y-216300D01*
X-650620Y-216100D01*
X-652020Y-215260D01*
X-652980Y-213920D01*
X-653300Y-212320D01*
X-653300Y-175400D01*
X-690200Y-175400D01*
X-691800Y-175080D01*
X-693139Y-174120D01*
X-693980Y-172719D01*
X-694200Y-171100D01*
X-693740Y-169520D01*
X-692800Y-167760D01*
X-691900Y-164840D01*
X-691600Y-161800D01*
X-691900Y-158760D01*
X-692800Y-155840D01*
X-693860Y-153840D01*
X-694280Y-152600D01*
X-694280Y-151300D01*
X-693860Y-150060D01*
X-692800Y-148060D01*
X-691900Y-145140D01*
X-691600Y-142100D01*
X-691900Y-139060D01*
X-692800Y-136140D01*
X-694240Y-133440D01*
X-696180Y-131080D01*
X-698259Y-129360D01*
X-698980Y-128600D01*
X-699460Y-127660D01*
X-700759Y-127660D01*
X-701919Y-127480D01*
X-704160Y-126800D01*
X-707400Y-126480D01*
X-729440Y-126480D01*
X-733920Y-127000D01*
X-744260Y-127000D01*
X-745580Y-126780D01*
X-746760Y-126120D01*
X-747640Y-125120D01*
X-748160Y-123880D01*
X-748580Y-122020D01*
X-748640Y-120600D01*
X-748199Y-119240D01*
X-747020Y-117960D01*
X-748040Y-118000D01*
X-749520Y-117440D01*
X-750680Y-116340D01*
X-753080Y-112899D01*
X-755800Y-110180D01*
X-758960Y-107980D01*
X-762440Y-106340D01*
X-766160Y-105360D01*
X-770000Y-105020D01*
X-773840Y-105360D01*
X-777560Y-106340D01*
X-781040Y-107980D01*
X-784200Y-110180D01*
X-786919Y-112899D01*
X-789120Y-116060D01*
X-790759Y-119540D01*
X-791740Y-123260D01*
X-792080Y-127100D01*
X-791740Y-130940D01*
X-790759Y-134660D01*
X-789120Y-138140D01*
X-786919Y-141300D01*
X-786440Y-141780D01*
X-785580Y-143060D01*
X-785280Y-144600D01*
X-785580Y-146140D01*
X-786440Y-147420D01*
X-786919Y-147900D01*
X-789120Y-151060D01*
X-789860Y-152640D01*
X-790759Y-153880D01*
X-792060Y-154680D01*
X-793560Y-154940D01*
X-795040Y-154620D01*
X-796320Y-153780D01*
X-842039Y-108080D01*
X-844960Y-105879D01*
X-848100Y-104300D01*
X-851500Y-103340D01*
X-855180Y-103000D01*
X-861979Y-103000D01*
X-863520Y-102700D01*
X-865200Y-101420D01*
X-866260Y-100760D01*
X-867480Y-99580D01*
X-868080Y-97980D01*
X-867980Y-96280D01*
X-867159Y-94780D01*
X-865800Y-93740D01*
X-864140Y-93379D01*
X-816420Y-93379D01*
X-813960Y-93100D01*
X-811820Y-92360D01*
X-809920Y-91160D01*
X-808319Y-89560D01*
X-807120Y-87660D01*
X-806380Y-85520D01*
X-806100Y-83059D01*
X-806100Y-55940D01*
X-806380Y-53480D01*
X-807120Y-51340D01*
X-808319Y-49440D01*
X-809920Y-47840D01*
X-811820Y-46640D01*
X-813960Y-45900D01*
X-816420Y-45620D01*
X-865180Y-45620D01*
X-867640Y-45900D01*
X-869780Y-46640D01*
X-871680Y-47840D01*
X-873280Y-49440D01*
X-874479Y-51340D01*
X-875220Y-53480D01*
X-875500Y-55940D01*
X-875500Y-83059D01*
X-875220Y-85520D01*
X-874479Y-87660D01*
X-873280Y-89560D01*
X-871680Y-91160D01*
X-870639Y-91820D01*
X-869419Y-93020D01*
X-868800Y-94600D01*
X-868920Y-96320D01*
X-869740Y-97820D01*
X-871100Y-98840D01*
X-872760Y-99200D01*
X-894880Y-99200D01*
X-897360Y-99480D01*
X-898680Y-99940D01*
X-900000Y-100180D01*
X-901320Y-99940D01*
X-902640Y-99480D01*
X-905120Y-99200D01*
X-910900Y-99200D01*
X-912440Y-98900D01*
X-913720Y-98040D01*
X-914599Y-96740D01*
X-914900Y-95200D01*
X-914900Y-59440D01*
X-914560Y-57840D01*
X-913620Y-56500D01*
X-912220Y-55660D01*
X-910220Y-54960D01*
X-908319Y-53760D01*
X-906720Y-52160D01*
X-905520Y-50260D01*
X-904780Y-48120D01*
X-904500Y-45660D01*
X-904500Y-18540D01*
X-904780Y-16080D01*
X-905520Y-13939D01*
X-906720Y-12040D01*
X-908319Y-10440D01*
X-910220Y-9240D01*
X-912360Y-8500D01*
X-914820Y-8220D01*
X-963580Y-8220D01*
X-966040Y-8500D01*
X-968180Y-9240D01*
X-970080Y-10440D01*
X-971680Y-12040D01*
X-972880Y-13939D01*
X-973620Y-16080D01*
X-973900Y-18540D01*
X-973900Y-45660D01*
X-973620Y-48120D01*
X-972880Y-50260D01*
X-971680Y-52160D01*
X-970080Y-53760D01*
X-968180Y-54960D01*
X-966040Y-55700D01*
X-963580Y-55980D01*
X-949100Y-55980D01*
X-947560Y-56280D01*
X-946280Y-57160D01*
X-945400Y-58440D01*
X-945100Y-59980D01*
X-945100Y-107780D01*
X-945400Y-109300D01*
X-946280Y-110600D01*
X-947560Y-111460D01*
X-949100Y-111780D01*
X-950639Y-111460D01*
X-951919Y-110600D01*
X-1016480Y-46040D01*
X-1017360Y-44740D01*
X-1017660Y-43220D01*
X-1017660Y-20680D01*
X-1017940Y-18200D01*
X-1018680Y-16080D01*
X-1019880Y-14160D01*
X-1021480Y-12560D01*
X-1023020Y-11319D01*
X-1023680Y-10160D01*
X-1023900Y-8840D01*
X-1023900Y2980D01*
X-1023600Y4520D01*
X-1022720Y5820D01*
X-1021520Y7020D01*
X-1020320Y8920D01*
X-1019580Y11060D01*
X-1019300Y13520D01*
X-1019300Y60279D01*
X-1019580Y62740D01*
X-1020320Y64880D01*
X-1021520Y66780D01*
X-1023439Y68700D01*
X-1024400Y70240D01*
X-1025540Y73600D01*
X-1027260Y76680D01*
X-1029620Y79540D01*
X-1046460Y96380D01*
X-1048480Y98000D01*
X-1049560Y99260D01*
X-1050040Y100840D01*
X-1049860Y102480D01*
X-1049020Y103900D01*
X-1047680Y104860D01*
X-1046060Y105200D01*
X-1029620Y105200D01*
X-1027159Y105480D01*
X-1025020Y106220D01*
X-1023120Y107420D01*
X-1021520Y109019D01*
X-1020320Y110920D01*
X-1019580Y113059D01*
X-1019300Y115520D01*
X-1019300Y162280D01*
X-1019580Y164740D01*
X-1020320Y166880D01*
X-1021520Y168780D01*
X-1023120Y170380D01*
X-1025020Y171580D01*
X-1027159Y172320D01*
X-1029620Y172600D01*
X-1056380Y172600D01*
X-1058840Y172320D01*
X-1060980Y171580D01*
X-1062880Y170380D01*
X-1064480Y168780D01*
X-1065680Y166880D01*
X-1066420Y164740D01*
X-1066700Y162280D01*
X-1066700Y115520D01*
X-1066420Y113059D01*
X-1065680Y110920D01*
X-1063420Y107540D01*
X-1063120Y106000D01*
X-1063420Y104460D01*
X-1064280Y103180D01*
X-1065580Y102300D01*
X-1067120Y102000D01*
X-1092880Y102000D01*
X-1094420Y102300D01*
X-1095720Y103180D01*
X-1096580Y104460D01*
X-1096880Y106000D01*
X-1096580Y107540D01*
X-1095520Y109019D01*
X-1094320Y110920D01*
X-1093580Y113059D01*
X-1093300Y115520D01*
X-1093300Y162280D01*
X-1093580Y164740D01*
X-1094320Y166880D01*
X-1095520Y168780D01*
X-1096720Y169980D01*
X-1097600Y171280D01*
X-1097900Y172820D01*
X-1097900Y182140D01*
X-1097600Y183680D01*
X-1096720Y184980D01*
X-1095440Y185840D01*
X-1093900Y186140D01*
X-1088100Y186140D01*
X-1085640Y186420D01*
X-1083500Y187160D01*
X-1082120Y188039D01*
X-1080740Y188580D01*
X-1079260Y188580D01*
X-1077880Y188039D01*
X-1076500Y187160D01*
X-1074360Y186420D01*
X-1071900Y186140D01*
X-1064780Y186140D01*
X-1064780Y204579D01*
X-1073780Y204579D01*
X-1075300Y204880D01*
X-1076600Y205740D01*
X-1077480Y207040D01*
X-1077780Y208580D01*
X-1077780Y227220D01*
X-1077480Y228760D01*
X-1076600Y230060D01*
X-1075300Y230920D01*
X-1073780Y231220D01*
X-1064780Y231220D01*
X-1064780Y249660D01*
X-1071900Y249660D01*
X-1074360Y249380D01*
X-1076500Y248640D01*
X-1077880Y247760D01*
X-1079260Y247220D01*
X-1080740Y247220D01*
X-1082120Y247760D01*
X-1083500Y248640D01*
X-1085640Y249380D01*
X-1088100Y249660D01*
X-1127020Y249660D01*
X-1129480Y249380D01*
X-1131620Y248640D01*
X-1133520Y247440D01*
X-1135120Y245840D01*
X-1136320Y243920D01*
X-1137060Y241800D01*
X-1137340Y239320D01*
X-1137340Y196480D01*
X-1137060Y194000D01*
X-1136320Y191880D01*
X-1136100Y190560D01*
X-1136100Y172820D01*
X-1136400Y171280D01*
X-1137280Y169980D01*
X-1138480Y168780D01*
X-1139680Y166880D01*
X-1140420Y164740D01*
X-1140700Y162280D01*
X-1140700Y115520D01*
X-1140420Y113059D01*
X-1139680Y110920D01*
X-1138480Y109019D01*
X-1136880Y107420D01*
X-1134980Y106220D01*
X-1132840Y105480D01*
X-1130380Y105200D01*
X-1113960Y105200D01*
X-1112380Y104880D01*
X-1111060Y103940D01*
X-1110200Y102560D01*
X-1109980Y100960D01*
X-1110400Y99380D01*
X-1111420Y98120D01*
X-1113640Y96280D01*
X-1131020Y78860D01*
X-1133220Y75940D01*
X-1134820Y72760D01*
X-1135540Y70360D01*
X-1135940Y69480D01*
X-1136540Y68700D01*
X-1138480Y66780D01*
X-1139680Y64880D01*
X-1140420Y62740D01*
X-1140700Y60279D01*
X-1140700Y13520D01*
X-1140420Y11060D01*
X-1139680Y8920D01*
X-1138480Y7020D01*
X-1136880Y5420D01*
X-1134980Y4220D01*
X-1132840Y3479D01*
X-1130380Y3200D01*
X-1103620Y3200D01*
X-1101160Y3479D01*
X-1099820Y3940D01*
X-1098500Y4180D01*
X-1097180Y3940D01*
X-1095840Y3479D01*
X-1093380Y3200D01*
X-1089300Y3200D01*
X-1089300Y22599D01*
X-1090840Y22900D01*
X-1092120Y23780D01*
X-1093000Y25059D01*
X-1093300Y26600D01*
X-1093300Y47200D01*
X-1093000Y48740D01*
X-1092120Y50020D01*
X-1090840Y50900D01*
X-1089300Y51200D01*
X-1089300Y59800D01*
X-1089000Y61340D01*
X-1088120Y62619D01*
X-1086840Y63500D01*
X-1085300Y63800D01*
X-1074700Y63800D01*
X-1073160Y63500D01*
X-1071880Y62619D01*
X-1071000Y61340D01*
X-1070700Y59800D01*
X-1070700Y51200D01*
X-1069160Y50900D01*
X-1067880Y50020D01*
X-1067000Y48740D01*
X-1066700Y47200D01*
X-1066700Y26600D01*
X-1067000Y25059D01*
X-1067880Y23780D01*
X-1069160Y22900D01*
X-1070700Y22599D01*
X-1070700Y3200D01*
X-1066540Y3200D01*
X-1064880Y3040D01*
X-1063440Y2220D01*
X-1062440Y859D01*
X-1062100Y-760D01*
X-1062100Y-6340D01*
X-1062400Y-7880D01*
X-1063280Y-9180D01*
X-1064560Y-10040D01*
X-1066100Y-10340D01*
X-1066900Y-10340D01*
X-1069360Y-10620D01*
X-1071500Y-11359D01*
X-1072880Y-12240D01*
X-1074260Y-12780D01*
X-1075740Y-12780D01*
X-1077120Y-12240D01*
X-1078500Y-11359D01*
X-1080640Y-10620D01*
X-1083100Y-10340D01*
X-1090220Y-10340D01*
X-1090220Y-28780D01*
X-1081220Y-28780D01*
X-1079700Y-29080D01*
X-1078400Y-29940D01*
X-1077520Y-31240D01*
X-1077220Y-32780D01*
X-1077220Y-51420D01*
X-1077520Y-52960D01*
X-1078400Y-54260D01*
X-1079700Y-55119D01*
X-1081220Y-55420D01*
X-1090220Y-55420D01*
X-1090220Y-73860D01*
X-1083100Y-73860D01*
X-1080640Y-73580D01*
X-1078500Y-72840D01*
X-1077120Y-71960D01*
X-1075740Y-71420D01*
X-1074260Y-71420D01*
X-1072880Y-71960D01*
X-1071500Y-72840D01*
X-1069360Y-73580D01*
X-1066900Y-73860D01*
X-1044360Y-73860D01*
X-1042820Y-74160D01*
X-1041520Y-75020D01*
X-1005380Y-111180D01*
X-1004520Y-112460D01*
X-1004200Y-114000D01*
X-1004520Y-115540D01*
X-1005380Y-116820D01*
X-1006680Y-117700D01*
X-1008199Y-118000D01*
X-1279420Y-118000D01*
X-1281020Y-117660D01*
X-1282360Y-116720D01*
X-1283200Y-115320D01*
X-1284000Y-113040D01*
X-1285200Y-111140D01*
X-1286780Y-109540D01*
X-1288700Y-108340D01*
X-1290820Y-107600D01*
X-1293300Y-107320D01*
X-1309340Y-107320D01*
X-1310860Y-107020D01*
X-1312160Y-106140D01*
X-1313040Y-104840D01*
X-1313340Y-103320D01*
X-1313340Y-82400D01*
X-1313000Y-80800D01*
X-1312060Y-79480D01*
X-1310660Y-78620D01*
X-1308380Y-77840D01*
X-1306480Y-76640D01*
X-1304880Y-75040D01*
X-1303680Y-73120D01*
X-1302940Y-71000D01*
X-1302660Y-68520D01*
X-1302660Y-25680D01*
X-1302940Y-23200D01*
X-1303680Y-21080D01*
X-1303899Y-19760D01*
X-1303899Y2980D01*
X-1303600Y4520D01*
X-1302720Y5820D01*
X-1301519Y7020D01*
X-1300320Y8920D01*
X-1299580Y11060D01*
X-1299300Y13520D01*
X-1299300Y16100D01*
X-1299000Y17640D01*
X-1298120Y18920D01*
X-1296840Y19800D01*
X-1295300Y20099D01*
X-1281940Y20099D01*
X-1280420Y19800D01*
X-1279120Y18920D01*
X-1278260Y17640D01*
X-1277940Y16100D01*
X-1277940Y11820D01*
X-1277680Y9360D01*
X-1276920Y7220D01*
X-1275720Y5320D01*
X-1274140Y3720D01*
X-1272220Y2520D01*
X-1270100Y1780D01*
X-1267620Y1500D01*
X-1256060Y1500D01*
X-1254400Y1140D01*
X-1253020Y100D01*
X-1252220Y-1400D01*
X-1252100Y-3100D01*
X-1252720Y-4700D01*
X-1253920Y-5880D01*
X-1254800Y-6420D01*
X-1256380Y-8020D01*
X-1257580Y-9940D01*
X-1258340Y-12060D01*
X-1258600Y-14520D01*
X-1258600Y-18200D01*
X-1245100Y-18200D01*
X-1245100Y-1480D01*
X-1244780Y120D01*
X-1243820Y1460D01*
X-1242420Y2300D01*
X-1241780Y2520D01*
X-1239860Y3720D01*
X-1238280Y5320D01*
X-1237080Y7220D01*
X-1236320Y9360D01*
X-1236040Y11820D01*
X-1236040Y58580D01*
X-1236320Y61040D01*
X-1237080Y63179D01*
X-1238280Y65080D01*
X-1239860Y66680D01*
X-1241780Y67880D01*
X-1243900Y68620D01*
X-1246380Y68900D01*
X-1267620Y68900D01*
X-1270100Y68620D01*
X-1272220Y67880D01*
X-1274140Y66680D01*
X-1275720Y65080D01*
X-1276920Y63179D01*
X-1277680Y61040D01*
X-1277940Y58580D01*
X-1277940Y54300D01*
X-1278260Y52760D01*
X-1279120Y51480D01*
X-1280420Y50599D01*
X-1281940Y50300D01*
X-1295300Y50300D01*
X-1296840Y50599D01*
X-1298120Y51480D01*
X-1299000Y52760D01*
X-1299300Y54300D01*
X-1299300Y60279D01*
X-1299580Y62740D01*
X-1300320Y64880D01*
X-1301519Y66780D01*
X-1302720Y67980D01*
X-1303580Y69240D01*
X-1303899Y70720D01*
X-1303920Y71640D01*
X-1304420Y75260D01*
X-1305540Y78600D01*
X-1307260Y81679D01*
X-1309620Y84540D01*
X-1323460Y98379D01*
X-1324319Y99660D01*
X-1324640Y101199D01*
X-1324319Y102739D01*
X-1323460Y104019D01*
X-1322160Y104900D01*
X-1320640Y105200D01*
X-1309620Y105200D01*
X-1307160Y105480D01*
X-1305020Y106220D01*
X-1303120Y107420D01*
X-1301519Y109019D01*
X-1300320Y110920D01*
X-1299580Y113059D01*
X-1299300Y115520D01*
X-1299300Y162280D01*
X-1299580Y164740D01*
X-1300320Y166880D01*
X-1301519Y168780D01*
X-1303120Y170380D01*
X-1305020Y171580D01*
X-1307160Y172320D01*
X-1309620Y172600D01*
X-1336380Y172600D01*
X-1338839Y172320D01*
X-1340980Y171580D01*
X-1342880Y170380D01*
X-1344480Y168780D01*
X-1345680Y166880D01*
X-1346420Y164740D01*
X-1346699Y162280D01*
X-1346699Y115520D01*
X-1346420Y113059D01*
X-1346160Y112320D01*
X-1345940Y110820D01*
X-1346300Y109340D01*
X-1347180Y108100D01*
X-1348460Y107280D01*
X-1349940Y107000D01*
X-1370060Y107000D01*
X-1371540Y107280D01*
X-1372820Y108100D01*
X-1373700Y109340D01*
X-1374060Y110820D01*
X-1373839Y112320D01*
X-1373580Y113059D01*
X-1373300Y115520D01*
X-1373300Y162280D01*
X-1373460Y163920D01*
X-1373460Y192600D01*
X-1373120Y194200D01*
X-1372180Y195520D01*
X-1370780Y196380D01*
X-1368500Y197160D01*
X-1367120Y198039D01*
X-1365740Y198580D01*
X-1364259Y198580D01*
X-1362880Y198039D01*
X-1361500Y197160D01*
X-1359360Y196420D01*
X-1356900Y196140D01*
X-1349780Y196140D01*
X-1349780Y214579D01*
X-1358779Y214579D01*
X-1360300Y214880D01*
X-1361600Y215740D01*
X-1362480Y217040D01*
X-1362780Y218580D01*
X-1362780Y237220D01*
X-1362480Y238760D01*
X-1361600Y240060D01*
X-1360300Y240920D01*
X-1358779Y241220D01*
X-1349780Y241220D01*
X-1349780Y259660D01*
X-1356900Y259660D01*
X-1359360Y259380D01*
X-1361500Y258640D01*
X-1362880Y257760D01*
X-1364259Y257220D01*
X-1365740Y257220D01*
X-1367120Y257760D01*
X-1368500Y258640D01*
X-1370640Y259380D01*
X-1373100Y259660D01*
X-1395680Y259660D01*
X-1397220Y259960D01*
X-1398520Y260820D01*
X-1419640Y281920D01*
X-1422560Y284120D01*
X-1425700Y285700D01*
X-1429100Y286660D01*
X-1432780Y287000D01*
X-1519880Y287000D01*
X-1521420Y287300D01*
X-1522720Y288180D01*
X-1523580Y289460D01*
X-1523880Y291000D01*
X-1523580Y292540D01*
X-1522720Y293820D01*
X-1488380Y328160D01*
X-1487080Y329040D01*
X-1485560Y329340D01*
X-1431759Y329340D01*
X-1429300Y329620D01*
X-1427160Y330360D01*
X-1425260Y331560D01*
X-1423660Y333160D01*
X-1422460Y335060D01*
X-1421720Y337200D01*
X-1421440Y339660D01*
X-1421440Y406140D01*
X-1421720Y408600D01*
X-1422460Y410740D01*
X-1423660Y412640D01*
X-1425260Y414240D01*
X-1427160Y415439D01*
X-1429300Y416180D01*
X-1431759Y416460D01*
X-1498240Y416460D01*
X-1500700Y416180D01*
X-1502840Y415439D01*
X-1504740Y414240D01*
X-1506339Y412640D01*
X-1507540Y410740D01*
X-1508280Y408600D01*
X-1508560Y406140D01*
X-1508560Y352340D01*
X-1508860Y350820D01*
X-1509740Y349520D01*
X-1524860Y334400D01*
X-1526220Y333500D01*
X-1527840Y333220D01*
X-1529420Y333620D01*
X-1530720Y334620D01*
X-1531500Y336040D01*
X-1531660Y337680D01*
X-1531440Y339660D01*
X-1531440Y406140D01*
X-1531720Y408600D01*
X-1532460Y410740D01*
X-1533660Y412640D01*
X-1535260Y414240D01*
X-1537160Y415439D01*
X-1539300Y416180D01*
X-1541759Y416460D01*
X-1608240Y416460D01*
X-1610700Y416180D01*
X-1612840Y415439D01*
X-1614740Y414240D01*
X-1616339Y412640D01*
X-1617540Y410740D01*
X-1618280Y408600D01*
X-1618560Y406140D01*
X-1618560Y339660D01*
X-1618280Y337200D01*
X-1617540Y335060D01*
X-1616339Y333160D01*
X-1614740Y331560D01*
X-1612840Y330360D01*
X-1610700Y329620D01*
X-1608240Y329340D01*
X-1541759Y329340D01*
X-1539780Y329560D01*
X-1538140Y329400D01*
X-1536720Y328620D01*
X-1535720Y327320D01*
X-1535320Y325740D01*
X-1535600Y324120D01*
X-1536500Y322760D01*
X-1545280Y313980D01*
X-1546579Y313100D01*
X-1548120Y312800D01*
X-1572620Y312800D01*
X-1574160Y313100D01*
X-1575460Y313980D01*
X-1576100Y314620D01*
X-1579259Y316820D01*
X-1582740Y318460D01*
X-1586459Y319440D01*
X-1590300Y319780D01*
X-1594139Y319440D01*
X-1597860Y318460D01*
X-1601339Y316820D01*
X-1604500Y314620D01*
X-1607220Y311900D01*
X-1609420Y308740D01*
X-1611060Y305260D01*
X-1612040Y301540D01*
X-1612380Y297700D01*
X-1612040Y293860D01*
X-1611819Y292980D01*
X-1611740Y291260D01*
X-1612400Y289660D01*
X-1613680Y288480D01*
X-1615320Y287960D01*
X-1617040Y288180D01*
X-1618500Y289120D01*
X-1652140Y322760D01*
X-1652980Y323980D01*
X-1653320Y325439D01*
X-1653100Y326900D01*
X-1652340Y328200D01*
X-1651180Y329120D01*
X-1649300Y329620D01*
X-1647160Y330360D01*
X-1645260Y331560D01*
X-1643660Y333160D01*
X-1642460Y335060D01*
X-1641720Y337200D01*
X-1641440Y339660D01*
X-1641440Y406140D01*
X-1641720Y408600D01*
X-1642460Y410740D01*
X-1643660Y412640D01*
X-1645260Y414240D01*
X-1647160Y415439D01*
X-1649300Y416180D01*
X-1651759Y416460D01*
X-1718240Y416460D01*
X-1720700Y416180D01*
X-1722840Y415439D01*
X-1724740Y414240D01*
X-1726339Y412640D01*
X-1727540Y410740D01*
X-1728280Y408600D01*
X-1728560Y406140D01*
X-1728560Y339660D01*
X-1728280Y337200D01*
X-1727540Y335060D01*
X-1726339Y333160D01*
X-1725320Y332140D01*
X-1724460Y330840D01*
X-1724139Y329300D01*
X-1724139Y227820D01*
X-1724460Y226280D01*
X-1725320Y224980D01*
X-1726620Y224120D01*
X-1728140Y223820D01*
X-1731900Y223820D01*
X-1734379Y223540D01*
X-1736500Y222780D01*
X-1738779Y221360D01*
X-1740360Y220780D01*
X-1742060Y220920D01*
X-1743540Y221740D01*
X-1744540Y223100D01*
X-1744900Y224760D01*
X-1744900Y433800D01*
X-1744600Y435340D01*
X-1743720Y436620D01*
X-1742440Y437500D01*
X-1740900Y437800D01*
X-289140Y437800D01*
X-287620Y437500D01*
X-286320Y436620D01*
X-285440Y435340D01*
X-285140Y433800D01*
X-285440Y432260D01*
X-287540Y429040D01*
X-288280Y426900D01*
X-288560Y424440D01*
X-288560Y410439D01*
X-264240Y410439D01*
X-264240Y433800D01*
X-263920Y435340D01*
X-263060Y436620D01*
X-261759Y437500D01*
X-260240Y437800D01*
X-229760Y437800D01*
X-228240Y437500D01*
X-226940Y436620D01*
X-226080Y435340D01*
X-225760Y433800D01*
X-225760Y410439D01*
X-212560Y410439D01*
X-211040Y410120D01*
X-209740Y409260D01*
X-208860Y407960D01*
X-208560Y406440D01*
X-208560Y375959D01*
X-208860Y374440D01*
X-209740Y373140D01*
X-211040Y372280D01*
X-212560Y371960D01*
X-225760Y371960D01*
X-225760Y347640D01*
X-215240Y347640D01*
X-213700Y347340D01*
X-212399Y346460D01*
X-211540Y345160D01*
X-211240Y343640D01*
X-211540Y342100D01*
X-212399Y340800D01*
X-305040Y248180D01*
X-306340Y247300D01*
X-307860Y247000D01*
X-565740Y246980D01*
X-569360Y246480D01*
X-572700Y245360D01*
X-575780Y243640D01*
X-578640Y241280D01*
X-595000Y224920D01*
X-596300Y224040D01*
X-597820Y223740D01*
X-599360Y224040D01*
X-600660Y224920D01*
X-615420Y239680D01*
X-616300Y240980D01*
X-616600Y242520D01*
X-616600Y304580D01*
X-616260Y306220D01*
X-615260Y307560D01*
X-613820Y308400D01*
X-612160Y308560D01*
X-609880Y308300D01*
X-606700Y308300D01*
X-606700Y322400D01*
X-608300Y323180D01*
X-609400Y324580D01*
X-609780Y326300D01*
X-609780Y336100D01*
X-609400Y337819D01*
X-608300Y339219D01*
X-606700Y340000D01*
X-606700Y354099D01*
X-609880Y354099D01*
X-612160Y353840D01*
X-613820Y354000D01*
X-615260Y354840D01*
X-616260Y356180D01*
X-616600Y357819D01*
X-616600Y377700D01*
X-616900Y380840D01*
X-617760Y383680D01*
X-619160Y386280D01*
X-621160Y388720D01*
X-634180Y401740D01*
X-636620Y403740D01*
X-639220Y405140D01*
X-642060Y406000D01*
X-645200Y406300D01*
X-708139Y406300D01*
X-709260Y406460D01*
X-710280Y406920D01*
X-712120Y408080D01*
X-714240Y408820D01*
X-716720Y409099D01*
X-739880Y409099D01*
X-742360Y408820D01*
X-743680Y408360D01*
X-745000Y408120D01*
X-746320Y408360D01*
X-747640Y408820D01*
X-750120Y409099D01*
X-753300Y409099D01*
X-753300Y395000D01*
X-751700Y394219D01*
X-750600Y392819D01*
X-750200Y391100D01*
X-750200Y381300D01*
X-750600Y379580D01*
X-751700Y378180D01*
X-753300Y377400D01*
X-753300Y366019D01*
X-751960Y366300D01*
X-748760Y366300D01*
X-747660Y366140D01*
X-745920Y365220D01*
X-744920Y364340D01*
X-744260Y363160D01*
X-744040Y361840D01*
X-744040Y342460D01*
X-742660Y341599D01*
X-741740Y340280D01*
X-741400Y338700D01*
X-741400Y325700D01*
X-741740Y324120D01*
X-742660Y322780D01*
X-744040Y321940D01*
X-744040Y320300D01*
X-744340Y318780D01*
X-745220Y317480D01*
X-746520Y316600D01*
X-748040Y316300D01*
X-751960Y316300D01*
X-753480Y316600D01*
X-754780Y317480D01*
X-755639Y318780D01*
X-755960Y320300D01*
X-755960Y321700D01*
X-767000Y321700D01*
X-767000Y320300D01*
X-767320Y318780D01*
X-768180Y317480D01*
X-769479Y316600D01*
X-771000Y316300D01*
X-777080Y316300D01*
X-778620Y316600D01*
X-779920Y317480D01*
X-781820Y319380D01*
X-782620Y320500D01*
X-782980Y321860D01*
X-783259Y325040D01*
X-784240Y328760D01*
X-785879Y332239D01*
X-788080Y335400D01*
X-790800Y338120D01*
X-793960Y340319D01*
X-797440Y341960D01*
X-801160Y342939D01*
X-805000Y343280D01*
X-808840Y342939D01*
X-812560Y341960D01*
X-816040Y340319D01*
X-819200Y338120D01*
X-821919Y335400D01*
X-824120Y332239D01*
X-825759Y328760D01*
X-826740Y325040D01*
X-827080Y321200D01*
X-826740Y317360D01*
X-826420Y316120D01*
X-826300Y314740D01*
X-826660Y313400D01*
X-827460Y312260D01*
X-828600Y311460D01*
X-831040Y310320D01*
X-834200Y308120D01*
X-836919Y305400D01*
X-839120Y302240D01*
X-840759Y298760D01*
X-841740Y295040D01*
X-842080Y291200D01*
X-841740Y287360D01*
X-840759Y283640D01*
X-839120Y280160D01*
X-838040Y278600D01*
X-837380Y277000D01*
X-837460Y275280D01*
X-838259Y273740D01*
X-839620Y272680D01*
X-841040Y272020D01*
X-844200Y269820D01*
X-846919Y267100D01*
X-849120Y263940D01*
X-850759Y260460D01*
X-851740Y256740D01*
X-852080Y252900D01*
X-851740Y249060D01*
X-850759Y245340D01*
X-849120Y241860D01*
X-846919Y238700D01*
X-846280Y238060D01*
X-845400Y236759D01*
X-845100Y235219D01*
X-845100Y185580D01*
X-845400Y184040D01*
X-846280Y182740D01*
X-846919Y182100D01*
X-849120Y178939D01*
X-850759Y175460D01*
X-851360Y173180D01*
X-852159Y171640D01*
X-853540Y170580D01*
X-855220Y170200D01*
X-856919Y170580D01*
X-858300Y171640D01*
X-859100Y173180D01*
X-859240Y173760D01*
X-860879Y177240D01*
X-863080Y180400D01*
X-863720Y181040D01*
X-864599Y182340D01*
X-864900Y183880D01*
X-864900Y210219D01*
X-864599Y211759D01*
X-863720Y213060D01*
X-863080Y213700D01*
X-860879Y216860D01*
X-859240Y220340D01*
X-858259Y224060D01*
X-857920Y227900D01*
X-858259Y231740D01*
X-859240Y235460D01*
X-860879Y238939D01*
X-863080Y242100D01*
X-865800Y244820D01*
X-868960Y247020D01*
X-872440Y248660D01*
X-876160Y249640D01*
X-880000Y249980D01*
X-883840Y249640D01*
X-887560Y248660D01*
X-891040Y247020D01*
X-894200Y244820D01*
X-896919Y242100D01*
X-899120Y238939D01*
X-900759Y235460D01*
X-901740Y231740D01*
X-902080Y227900D01*
X-901740Y224060D01*
X-900759Y220340D01*
X-899120Y216860D01*
X-896919Y213700D01*
X-896280Y213060D01*
X-895400Y211759D01*
X-895100Y210219D01*
X-895100Y183880D01*
X-895400Y182340D01*
X-896280Y181040D01*
X-896919Y180400D01*
X-899120Y177240D01*
X-900759Y173760D01*
X-901740Y170040D01*
X-901940Y167840D01*
X-902340Y166420D01*
X-903220Y165240D01*
X-904479Y164460D01*
X-905920Y164180D01*
X-953580Y164180D01*
X-956040Y163900D01*
X-958180Y163160D01*
X-960080Y161960D01*
X-961680Y160360D01*
X-962880Y158460D01*
X-963620Y156320D01*
X-963900Y153860D01*
X-963900Y137820D01*
X-964220Y136280D01*
X-965080Y134980D01*
X-966380Y134120D01*
X-967900Y133820D01*
X-969440Y134120D01*
X-970740Y134980D01*
X-978720Y142980D01*
X-979599Y144280D01*
X-979900Y145820D01*
X-979900Y257700D01*
X-980200Y260840D01*
X-981060Y263680D01*
X-982460Y266280D01*
X-984460Y268720D01*
X-1008180Y292440D01*
X-1010620Y294440D01*
X-1013220Y295840D01*
X-1016060Y296680D01*
X-1019200Y297000D01*
X-1235800Y297000D01*
X-1238940Y296680D01*
X-1241780Y295840D01*
X-1244380Y294440D01*
X-1246820Y292440D01*
X-1262240Y277020D01*
X-1264240Y274580D01*
X-1265820Y271620D01*
X-1266440Y270760D01*
X-1267280Y270080D01*
X-1269820Y268540D01*
X-1271380Y266980D01*
X-1272580Y265060D01*
X-1273340Y262940D01*
X-1273600Y260479D01*
X-1273600Y235320D01*
X-1273340Y232860D01*
X-1272580Y230740D01*
X-1271380Y228820D01*
X-1270800Y228220D01*
X-1269920Y226940D01*
X-1269620Y225400D01*
X-1269920Y223860D01*
X-1270800Y222580D01*
X-1271380Y221980D01*
X-1272580Y220060D01*
X-1273340Y217940D01*
X-1273600Y215479D01*
X-1273600Y190320D01*
X-1273340Y187860D01*
X-1272580Y185740D01*
X-1271380Y183820D01*
X-1269800Y182220D01*
X-1267880Y181020D01*
X-1265760Y180280D01*
X-1263280Y180000D01*
X-1240120Y180000D01*
X-1237640Y180280D01*
X-1236320Y180740D01*
X-1235000Y180980D01*
X-1233680Y180740D01*
X-1232360Y180280D01*
X-1229880Y180000D01*
X-1226700Y180000D01*
X-1226700Y194100D01*
X-1228300Y194880D01*
X-1229400Y196280D01*
X-1229780Y198000D01*
X-1229780Y207800D01*
X-1229400Y209520D01*
X-1228300Y210920D01*
X-1226700Y211700D01*
X-1226700Y221000D01*
X-1226400Y222540D01*
X-1225540Y223840D01*
X-1224240Y224700D01*
X-1222700Y225000D01*
X-1213900Y225000D01*
X-1212360Y224700D01*
X-1211060Y223840D01*
X-1210200Y222540D01*
X-1209900Y221000D01*
X-1209900Y211800D01*
X-1196380Y211800D01*
X-1196380Y215479D01*
X-1196660Y217940D01*
X-1197420Y220060D01*
X-1198620Y221980D01*
X-1199200Y222580D01*
X-1200080Y223860D01*
X-1200380Y225400D01*
X-1200080Y226940D01*
X-1199200Y228220D01*
X-1198620Y228820D01*
X-1197420Y230740D01*
X-1196660Y232860D01*
X-1196380Y235320D01*
X-1196380Y246080D01*
X-1196220Y247900D01*
X-1196380Y250080D01*
X-1196380Y260479D01*
X-1196600Y262360D01*
X-1196440Y264020D01*
X-1195600Y265460D01*
X-1194260Y266460D01*
X-1192620Y266800D01*
X-1026919Y266800D01*
X-1025380Y266500D01*
X-1024080Y265620D01*
X-1011280Y252820D01*
X-1010400Y251520D01*
X-1010100Y249980D01*
X-1010100Y138100D01*
X-1009800Y134960D01*
X-1008940Y132120D01*
X-1007540Y129520D01*
X-1005540Y127080D01*
X-975819Y97360D01*
X-973379Y95360D01*
X-970780Y93960D01*
X-967940Y93100D01*
X-964800Y92800D01*
X-964100Y92800D01*
X-962580Y92500D01*
X-961280Y91620D01*
X-960400Y90340D01*
X-960100Y88800D01*
X-960400Y87260D01*
X-961680Y85559D01*
X-962880Y83660D01*
X-963620Y81519D01*
X-963900Y79060D01*
X-963900Y51940D01*
X-963620Y49480D01*
X-962880Y47340D01*
X-961680Y45439D01*
X-960080Y43840D01*
X-958180Y42640D01*
X-956040Y41900D01*
X-953580Y41620D01*
X-904820Y41620D01*
X-902360Y41900D01*
X-900220Y42640D01*
X-898319Y43840D01*
X-896720Y45439D01*
X-895520Y47340D01*
X-894780Y49480D01*
X-894500Y51940D01*
X-894500Y79060D01*
X-894780Y81519D01*
X-895520Y83660D01*
X-896720Y85559D01*
X-898000Y87260D01*
X-898300Y88800D01*
X-898000Y90340D01*
X-897120Y91620D01*
X-895819Y92500D01*
X-894300Y92800D01*
X-869479Y92800D01*
X-868040Y92540D01*
X-866800Y91780D01*
X-865920Y90640D01*
X-865500Y89240D01*
X-865220Y86880D01*
X-864479Y84740D01*
X-863280Y82840D01*
X-861680Y81240D01*
X-859780Y80040D01*
X-857640Y79300D01*
X-855180Y79020D01*
X-806420Y79020D01*
X-803960Y79300D01*
X-801820Y80040D01*
X-799920Y81240D01*
X-798319Y82840D01*
X-797120Y84740D01*
X-796380Y86880D01*
X-796100Y89340D01*
X-796100Y116460D01*
X-796380Y118920D01*
X-796700Y119880D01*
X-796919Y121380D01*
X-796580Y122860D01*
X-795699Y124100D01*
X-794419Y124920D01*
X-792940Y125200D01*
X-763620Y125200D01*
X-762080Y124900D01*
X-760780Y124040D01*
X-719060Y82320D01*
X-718199Y81020D01*
X-717900Y79480D01*
X-717900Y68020D01*
X-717620Y65540D01*
X-717159Y64220D01*
X-716919Y62900D01*
X-717159Y61580D01*
X-717620Y60260D01*
X-717900Y57779D01*
X-717900Y46320D01*
X-718199Y44780D01*
X-719060Y43480D01*
X-740980Y21580D01*
X-742280Y20700D01*
X-743820Y20400D01*
X-803220Y20400D01*
X-804820Y20740D01*
X-806140Y21680D01*
X-807120Y23460D01*
X-808319Y25360D01*
X-809920Y26960D01*
X-811820Y28160D01*
X-813960Y28900D01*
X-816420Y29180D01*
X-865180Y29180D01*
X-867640Y28900D01*
X-869780Y28160D01*
X-871680Y26960D01*
X-873280Y25360D01*
X-874479Y23460D01*
X-875220Y21320D01*
X-875500Y18860D01*
X-875500Y-8260D01*
X-875220Y-10720D01*
X-874479Y-12860D01*
X-873280Y-14760D01*
X-871680Y-16359D01*
X-869780Y-17560D01*
X-867640Y-18300D01*
X-865180Y-18580D01*
X-816420Y-18580D01*
X-813960Y-18300D01*
X-811820Y-17560D01*
X-809920Y-16359D01*
X-808319Y-14760D01*
X-806140Y-11080D01*
X-804800Y-10140D01*
X-803220Y-9800D01*
X-736100Y-9800D01*
X-732960Y-9480D01*
X-730140Y-8640D01*
X-727520Y-7240D01*
X-725080Y-5240D01*
X-716919Y2920D01*
X-715639Y3780D01*
X-714100Y4100D01*
X-712560Y3780D01*
X-711280Y2920D01*
X-710400Y1620D01*
X-710100Y100D01*
X-710100Y-27580D01*
X-709800Y-30720D01*
X-708940Y-33540D01*
X-707540Y-36160D01*
X-705540Y-38600D01*
X-695879Y-48259D01*
X-695020Y-49540D01*
X-694720Y-51080D01*
X-694720Y-54700D01*
X-694400Y-57939D01*
X-693500Y-60860D01*
X-692060Y-63560D01*
X-690120Y-65920D01*
X-688640Y-67140D01*
X-687600Y-68440D01*
X-687180Y-70040D01*
X-687440Y-71680D01*
X-688360Y-73060D01*
X-689040Y-73740D01*
X-690420Y-74660D01*
X-692060Y-74920D01*
X-693660Y-74500D01*
X-694960Y-73460D01*
X-696180Y-71980D01*
X-698540Y-70040D01*
X-701240Y-68600D01*
X-704160Y-67700D01*
X-707400Y-67380D01*
X-729440Y-67380D01*
X-732680Y-67700D01*
X-735600Y-68600D01*
X-738300Y-70040D01*
X-740660Y-71980D01*
X-742600Y-74340D01*
X-744040Y-77040D01*
X-744940Y-79960D01*
X-745240Y-83000D01*
X-744940Y-86039D01*
X-744040Y-88960D01*
X-742980Y-90960D01*
X-742560Y-92200D01*
X-742560Y-93500D01*
X-742980Y-94740D01*
X-744040Y-96740D01*
X-744940Y-99660D01*
X-745240Y-102700D01*
X-744940Y-105740D01*
X-744040Y-108660D01*
X-742980Y-110660D01*
X-742560Y-111960D01*
X-742580Y-113320D01*
X-743060Y-114600D01*
X-743960Y-116100D01*
X-744960Y-117200D01*
X-744680Y-117140D01*
X-736080Y-117140D01*
X-734920Y-117320D01*
X-732680Y-118000D01*
X-729440Y-118320D01*
X-707400Y-118320D01*
X-704160Y-118000D01*
X-701919Y-117320D01*
X-700759Y-117140D01*
X-699460Y-117140D01*
X-698980Y-116199D01*
X-698259Y-115440D01*
X-696180Y-113720D01*
X-694240Y-111359D01*
X-693100Y-109780D01*
X-691880Y-109040D01*
X-690460Y-108800D01*
X-653300Y-108800D01*
X-653300Y-71900D01*
X-652980Y-70300D01*
X-652020Y-68960D01*
X-650620Y-68120D01*
X-649000Y-67900D01*
X-647420Y-68360D01*
X-645660Y-69300D01*
X-642740Y-70200D01*
X-639700Y-70500D01*
X-636660Y-70200D01*
X-633740Y-69300D01*
X-631740Y-68240D01*
X-630500Y-67820D01*
X-629200Y-67820D01*
X-627960Y-68240D01*
X-625960Y-69300D01*
X-623040Y-70200D01*
X-620000Y-70500D01*
X-616960Y-70200D01*
X-614040Y-69300D01*
X-612040Y-68240D01*
X-610800Y-67820D01*
X-609500Y-67820D01*
X-608260Y-68240D01*
X-606260Y-69300D01*
X-603340Y-70200D01*
X-600300Y-70500D01*
X-597260Y-70200D01*
X-594340Y-69300D01*
X-592580Y-68360D01*
X-591000Y-67900D01*
X-589380Y-68120D01*
X-587980Y-68960D01*
X-587020Y-70300D01*
X-586700Y-71900D01*
X-586700Y-108800D01*
X-549780Y-108800D01*
X-548180Y-109120D01*
X-546840Y-110079D01*
X-546000Y-111480D01*
X-545800Y-113100D01*
X-546260Y-114680D01*
X-547200Y-116440D01*
X-548080Y-119360D01*
X-548380Y-122400D01*
X-548080Y-125440D01*
X-547200Y-128360D01*
X-546120Y-130360D01*
X-545700Y-131600D01*
X-545700Y-132900D01*
X-546120Y-134140D01*
X-547200Y-136140D01*
X-548080Y-139060D01*
X-548380Y-142100D01*
X-548080Y-145140D01*
X-547200Y-148060D01*
X-546120Y-150060D01*
X-545700Y-151300D01*
X-545700Y-152600D01*
X-546120Y-153840D01*
X-547200Y-155840D01*
X-548080Y-158760D01*
X-548380Y-161800D01*
X-548080Y-164840D01*
X-547200Y-167760D01*
X-546260Y-169520D01*
X-545800Y-171100D01*
X-546000Y-172719D01*
X-546840Y-174120D01*
X-548180Y-175080D01*
X-549780Y-175400D01*
X-586700Y-175400D01*
X-586700Y-212320D01*
X-587020Y-213920D01*
X-587980Y-215260D01*
X-589380Y-216100D01*
X-591000Y-216300D01*
X-592580Y-215840D01*
X-594340Y-214899D01*
X-597260Y-214020D01*
X-600300Y-213720D01*
X-603340Y-214020D01*
X-606260Y-214899D01*
X-608260Y-215980D01*
X-609500Y-216400D01*
X-610800Y-216400D01*
X-612040Y-215980D01*
X-614040Y-214899D01*
X-616960Y-214020D01*
X-620000Y-213720D01*
X-623040Y-214020D01*
X-625960Y-214899D01*
X-627960Y-215980D01*
X-629200Y-216400D01*
G37*

%LPC*%
G36*
X-1122020Y-73860D02*
G01*
X-1114900Y-73860D01*
X-1114900Y-55420D01*
X-1132340Y-55420D01*
X-1132340Y-63520D01*
X-1132060Y-66000D01*
X-1131320Y-68120D01*
X-1130120Y-70040D01*
X-1128520Y-71640D01*
X-1126620Y-72840D01*
X-1124480Y-73580D01*
G37*
G36*
X-1248280Y-50000D02*
G01*
X-1245100Y-50000D01*
X-1245100Y-36000D01*
X-1258600Y-36000D01*
X-1258600Y-39680D01*
X-1258340Y-42140D01*
X-1257580Y-44260D01*
X-1256380Y-46180D01*
X-1254800Y-47779D01*
X-1252880Y-48980D01*
X-1250760Y-49720D01*
G37*
G36*
X-1228300Y-50000D02*
G01*
X-1225120Y-50000D01*
X-1222640Y-49720D01*
X-1221320Y-49260D01*
X-1220000Y-49020D01*
X-1218680Y-49260D01*
X-1217360Y-49720D01*
X-1214880Y-50000D01*
X-1191720Y-50000D01*
X-1189240Y-49720D01*
X-1187120Y-48980D01*
X-1185200Y-47779D01*
X-1183620Y-46180D01*
X-1182420Y-44260D01*
X-1181660Y-42140D01*
X-1181380Y-39680D01*
X-1181380Y-28200D01*
X-1181080Y-26660D01*
X-1180220Y-25379D01*
X-1172460Y-17620D01*
X-1170460Y-15180D01*
X-1169060Y-12560D01*
X-1168200Y-9740D01*
X-1167900Y-6600D01*
X-1167900Y240D01*
X-1167680Y1560D01*
X-1167020Y2740D01*
X-1165860Y3720D01*
X-1164280Y5320D01*
X-1163080Y7220D01*
X-1162320Y9360D01*
X-1162040Y11820D01*
X-1162040Y58580D01*
X-1162320Y61040D01*
X-1163080Y63179D01*
X-1164280Y65080D01*
X-1165860Y66680D01*
X-1167780Y67880D01*
X-1169900Y68620D01*
X-1172380Y68900D01*
X-1193620Y68900D01*
X-1196100Y68620D01*
X-1198220Y67880D01*
X-1200140Y66680D01*
X-1201720Y65080D01*
X-1202920Y63179D01*
X-1203680Y61040D01*
X-1203940Y58580D01*
X-1203940Y11820D01*
X-1203680Y9360D01*
X-1202920Y7220D01*
X-1201720Y5320D01*
X-1199820Y3400D01*
X-1198940Y2100D01*
X-1198640Y580D01*
X-1198940Y-940D01*
X-1199800Y-2240D01*
X-1200580Y-3020D01*
X-1201880Y-3900D01*
X-1203420Y-4200D01*
X-1214880Y-4200D01*
X-1217360Y-4480D01*
X-1218680Y-4940D01*
X-1220000Y-5180D01*
X-1221320Y-4940D01*
X-1222640Y-4480D01*
X-1225120Y-4200D01*
X-1228300Y-4200D01*
X-1228300Y-18300D01*
X-1226700Y-19080D01*
X-1225600Y-20480D01*
X-1225200Y-22200D01*
X-1225200Y-32000D01*
X-1225600Y-33720D01*
X-1226700Y-35120D01*
X-1228300Y-35900D01*
G37*
G36*
X-1132340Y-28780D02*
G01*
X-1114900Y-28780D01*
X-1114900Y-10340D01*
X-1122020Y-10340D01*
X-1124480Y-10620D01*
X-1126620Y-11359D01*
X-1128520Y-12560D01*
X-1130120Y-14160D01*
X-1131320Y-16080D01*
X-1132060Y-18200D01*
X-1132340Y-20680D01*
G37*
G36*
X-1267620Y103500D02*
G01*
X-1246380Y103500D01*
X-1243900Y103780D01*
X-1241780Y104520D01*
X-1240620Y105239D01*
X-1239240Y105780D01*
X-1237760Y105780D01*
X-1236380Y105239D01*
X-1235220Y104520D01*
X-1233100Y103780D01*
X-1230620Y103500D01*
X-1227920Y103500D01*
X-1227920Y122899D01*
X-1232040Y122899D01*
X-1233580Y123200D01*
X-1234880Y124080D01*
X-1235740Y125360D01*
X-1236040Y126900D01*
X-1236040Y131560D01*
X-1235920Y132600D01*
X-1235260Y135060D01*
X-1234920Y138900D01*
X-1235260Y142740D01*
X-1235920Y145200D01*
X-1236040Y147500D01*
X-1235740Y149040D01*
X-1234880Y150320D01*
X-1233580Y151200D01*
X-1232040Y151500D01*
X-1227920Y151500D01*
X-1227920Y170900D01*
X-1230620Y170900D01*
X-1233100Y170620D01*
X-1235220Y169880D01*
X-1236380Y169160D01*
X-1237760Y168619D01*
X-1239240Y168619D01*
X-1240620Y169160D01*
X-1241780Y169880D01*
X-1243900Y170620D01*
X-1246380Y170900D01*
X-1267620Y170900D01*
X-1270100Y170620D01*
X-1272220Y169880D01*
X-1274140Y168680D01*
X-1275720Y167079D01*
X-1276920Y165180D01*
X-1277680Y163039D01*
X-1277940Y160580D01*
X-1277940Y146240D01*
X-1278080Y145200D01*
X-1278740Y142740D01*
X-1279080Y138900D01*
X-1278740Y135060D01*
X-1278080Y132600D01*
X-1277940Y131560D01*
X-1277940Y113820D01*
X-1277680Y111359D01*
X-1276920Y109220D01*
X-1275720Y107320D01*
X-1274140Y105719D01*
X-1272220Y104520D01*
X-1270100Y103780D01*
G37*
G36*
X-1212080Y103500D02*
G01*
X-1209380Y103500D01*
X-1206900Y103780D01*
X-1204780Y104520D01*
X-1203620Y105239D01*
X-1202240Y105780D01*
X-1200760Y105780D01*
X-1199380Y105239D01*
X-1198220Y104520D01*
X-1196100Y103780D01*
X-1193620Y103500D01*
X-1172380Y103500D01*
X-1169900Y103780D01*
X-1167780Y104520D01*
X-1165860Y105719D01*
X-1164280Y107320D01*
X-1163080Y109220D01*
X-1162320Y111359D01*
X-1162040Y113820D01*
X-1162040Y131560D01*
X-1161920Y132600D01*
X-1161260Y135060D01*
X-1160920Y138900D01*
X-1161260Y142740D01*
X-1161920Y145200D01*
X-1162040Y146240D01*
X-1162040Y160580D01*
X-1162320Y163039D01*
X-1163080Y165180D01*
X-1164280Y167079D01*
X-1165860Y168680D01*
X-1167780Y169880D01*
X-1169900Y170620D01*
X-1172380Y170900D01*
X-1193620Y170900D01*
X-1196100Y170620D01*
X-1198220Y169880D01*
X-1199380Y169160D01*
X-1200760Y168619D01*
X-1202240Y168619D01*
X-1203620Y169160D01*
X-1204780Y169880D01*
X-1206900Y170620D01*
X-1209380Y170900D01*
X-1212080Y170900D01*
X-1212080Y151500D01*
X-1207940Y151500D01*
X-1206420Y151200D01*
X-1205120Y150320D01*
X-1204260Y149040D01*
X-1203940Y147500D01*
X-1204080Y145200D01*
X-1204740Y142740D01*
X-1205080Y138900D01*
X-1204740Y135060D01*
X-1204080Y132600D01*
X-1203940Y131560D01*
X-1203940Y126900D01*
X-1204260Y125360D01*
X-1205120Y124080D01*
X-1206420Y123200D01*
X-1207940Y122899D01*
X-1212080Y122899D01*
G37*
G36*
X-1209900Y180000D02*
G01*
X-1206720Y180000D01*
X-1204240Y180280D01*
X-1202120Y181020D01*
X-1200200Y182220D01*
X-1198620Y183820D01*
X-1197420Y185740D01*
X-1196660Y187860D01*
X-1196380Y190320D01*
X-1196380Y194000D01*
X-1209900Y194000D01*
G37*
G36*
X-1040100Y186140D02*
G01*
X-1032980Y186140D01*
X-1030520Y186420D01*
X-1028379Y187160D01*
X-1026480Y188359D01*
X-1024880Y189960D01*
X-1023680Y191880D01*
X-1022940Y194000D01*
X-1022660Y196480D01*
X-1022660Y204579D01*
X-1040100Y204579D01*
G37*
G36*
X-1325100Y196140D02*
G01*
X-1317980Y196140D01*
X-1315520Y196420D01*
X-1313380Y197160D01*
X-1311480Y198359D01*
X-1309880Y199960D01*
X-1308680Y201880D01*
X-1307940Y204000D01*
X-1307660Y206480D01*
X-1307660Y214579D01*
X-1325100Y214579D01*
G37*
G36*
X-1040100Y231220D02*
G01*
X-1022660Y231220D01*
X-1022660Y239320D01*
X-1022940Y241800D01*
X-1023680Y243920D01*
X-1024880Y245840D01*
X-1026480Y247440D01*
X-1028379Y248640D01*
X-1030520Y249380D01*
X-1032980Y249660D01*
X-1040100Y249660D01*
G37*
G36*
X-1325100Y241220D02*
G01*
X-1307660Y241220D01*
X-1307660Y249320D01*
X-1307940Y251800D01*
X-1308680Y253920D01*
X-1309880Y255840D01*
X-1311480Y257440D01*
X-1313380Y258640D01*
X-1315520Y259380D01*
X-1317980Y259660D01*
X-1325100Y259660D01*
G37*
G36*
X-589900Y308300D02*
G01*
X-586720Y308300D01*
X-584240Y308580D01*
X-582120Y309320D01*
X-580200Y310520D01*
X-578620Y312120D01*
X-577420Y314040D01*
X-576660Y316160D01*
X-576380Y318620D01*
X-576380Y322299D01*
X-589900Y322299D01*
G37*
G36*
X-1334760Y329640D02*
G01*
X-1320760Y329640D01*
X-1318300Y329920D01*
X-1316160Y330660D01*
X-1314259Y331860D01*
X-1312660Y333459D01*
X-1311459Y335360D01*
X-1310720Y337500D01*
X-1310440Y339960D01*
X-1310440Y353960D01*
X-1334760Y353960D01*
G37*
G36*
X-1387240Y329640D02*
G01*
X-1373240Y329640D01*
X-1373240Y353960D01*
X-1397560Y353960D01*
X-1397560Y339960D01*
X-1397280Y337500D01*
X-1396540Y335360D01*
X-1395340Y333459D01*
X-1393740Y331860D01*
X-1391840Y330660D01*
X-1389700Y329920D01*
G37*
G36*
X-589900Y340100D02*
G01*
X-576380Y340100D01*
X-576380Y343780D01*
X-576660Y346240D01*
X-577420Y348360D01*
X-578620Y350280D01*
X-580200Y351880D01*
X-582120Y353080D01*
X-584240Y353820D01*
X-586720Y354099D01*
X-589900Y354099D01*
G37*
G36*
X-767000Y342700D02*
G01*
X-755960Y342700D01*
X-755960Y355580D01*
X-757300Y355300D01*
X-763940Y355300D01*
X-764800Y354460D01*
X-765980Y352560D01*
X-766720Y350439D01*
X-767000Y347980D01*
G37*
G36*
X-278240Y347640D02*
G01*
X-264240Y347640D01*
X-264240Y371960D01*
X-288560Y371960D01*
X-288560Y357960D01*
X-288280Y355500D01*
X-287540Y353360D01*
X-286340Y351460D01*
X-284740Y349860D01*
X-282840Y348660D01*
X-280700Y347920D01*
G37*
G36*
X-773280Y363300D02*
G01*
X-770100Y363300D01*
X-770100Y377299D01*
X-783600Y377299D01*
X-783600Y373620D01*
X-783340Y371160D01*
X-782580Y369040D01*
X-781380Y367120D01*
X-779800Y365520D01*
X-777880Y364320D01*
X-775759Y363579D01*
G37*
G36*
X-1334760Y392440D02*
G01*
X-1310440Y392440D01*
X-1310440Y406440D01*
X-1310720Y408900D01*
X-1311459Y411040D01*
X-1312660Y412939D01*
X-1314259Y414540D01*
X-1316160Y415740D01*
X-1318300Y416480D01*
X-1320760Y416760D01*
X-1334760Y416760D01*
G37*
G36*
X-1397560Y392440D02*
G01*
X-1373240Y392440D01*
X-1373240Y416760D01*
X-1387240Y416760D01*
X-1389700Y416480D01*
X-1391840Y415740D01*
X-1393740Y414540D01*
X-1395340Y412939D01*
X-1396540Y411040D01*
X-1397280Y408900D01*
X-1397560Y406440D01*
G37*
G36*
X-783600Y395100D02*
G01*
X-770100Y395100D01*
X-770100Y409099D01*
X-773280Y409099D01*
X-775759Y408820D01*
X-777880Y408080D01*
X-779800Y406880D01*
X-781380Y405280D01*
X-782580Y403360D01*
X-783340Y401240D01*
X-783600Y398780D01*
G37*

%LPD*%
G36*
X-820680Y-237560D02*
G01*
X-822300Y-237300D01*
X-823680Y-236400D01*
X-828259Y-231820D01*
X-829000Y-230700D01*
X-830120Y-229960D01*
X-838940Y-221160D01*
X-839800Y-219860D01*
X-840100Y-218320D01*
X-840100Y-211000D01*
X-847440Y-211000D01*
X-848960Y-210700D01*
X-850260Y-209820D01*
X-872860Y-187220D01*
X-873660Y-186080D01*
X-874020Y-184740D01*
X-873900Y-183359D01*
X-873259Y-180940D01*
X-872920Y-177100D01*
X-873259Y-173260D01*
X-874240Y-169540D01*
X-875879Y-166060D01*
X-878080Y-162900D01*
X-880800Y-160180D01*
X-883960Y-157980D01*
X-887440Y-156340D01*
X-891160Y-155360D01*
X-895000Y-155020D01*
X-898840Y-155360D01*
X-902560Y-156340D01*
X-905720Y-157820D01*
X-907340Y-158200D01*
X-908980Y-157880D01*
X-910360Y-156900D01*
X-911200Y-155480D01*
X-912360Y-152020D01*
X-912960Y-150940D01*
X-913439Y-149360D01*
X-913259Y-147720D01*
X-912420Y-146300D01*
X-911080Y-145340D01*
X-909460Y-145000D01*
X-905120Y-145000D01*
X-902640Y-144720D01*
X-901320Y-144260D01*
X-900000Y-144020D01*
X-898680Y-144260D01*
X-897360Y-144720D01*
X-894880Y-145000D01*
X-871720Y-145000D01*
X-869240Y-144720D01*
X-867120Y-143980D01*
X-865540Y-142980D01*
X-864300Y-142460D01*
X-862960Y-142380D01*
X-861660Y-142760D01*
X-860580Y-143540D01*
X-824460Y-179640D01*
X-823600Y-180940D01*
X-823300Y-182480D01*
X-823300Y-193299D01*
X-821700Y-194080D01*
X-820600Y-195479D01*
X-820200Y-197200D01*
X-820200Y-207000D01*
X-820600Y-208720D01*
X-821700Y-210120D01*
X-823300Y-210900D01*
X-823300Y-225000D01*
X-821380Y-225000D01*
X-819860Y-225300D01*
X-818560Y-226160D01*
X-817680Y-227460D01*
X-816900Y-233020D01*
X-817020Y-234660D01*
X-817780Y-236119D01*
X-819080Y-237160D01*
G37*

%LPC*%
G36*
X-853600Y-193200D02*
G01*
X-840100Y-193200D01*
X-840100Y-179200D01*
X-843280Y-179200D01*
X-845759Y-179480D01*
X-847880Y-180219D01*
X-849800Y-181420D01*
X-851380Y-183020D01*
X-852580Y-184940D01*
X-853340Y-187060D01*
X-853600Y-189520D01*
G37*

%LPD*%
G36*
X-229899Y-252340D02*
G01*
X-231360Y-252079D01*
X-232640Y-251320D01*
X-233540Y-250120D01*
X-233939Y-248700D01*
X-234240Y-245020D01*
X-235120Y-242120D01*
X-236200Y-240120D01*
X-236620Y-238880D01*
X-236620Y-237580D01*
X-236200Y-236360D01*
X-235120Y-234360D01*
X-234240Y-231420D01*
X-233939Y-228380D01*
X-234240Y-225340D01*
X-235120Y-222420D01*
X-236160Y-220479D01*
X-236580Y-219240D01*
X-236580Y-217940D01*
X-236160Y-216700D01*
X-235120Y-214760D01*
X-234240Y-211820D01*
X-233939Y-208780D01*
X-234240Y-205740D01*
X-235120Y-202820D01*
X-236200Y-200820D01*
X-236620Y-199579D01*
X-236620Y-198280D01*
X-236200Y-197060D01*
X-235120Y-195060D01*
X-234240Y-192120D01*
X-233939Y-189080D01*
X-234240Y-186040D01*
X-235120Y-183120D01*
X-236200Y-181119D01*
X-236620Y-179880D01*
X-236620Y-178580D01*
X-236200Y-177360D01*
X-235120Y-175360D01*
X-234920Y-174640D01*
X-243100Y-174640D01*
X-244259Y-174480D01*
X-246500Y-173800D01*
X-249720Y-173480D01*
X-269800Y-173480D01*
X-273040Y-173800D01*
X-275280Y-174480D01*
X-276440Y-174640D01*
X-289500Y-174640D01*
X-290940Y-174360D01*
X-292200Y-173580D01*
X-293080Y-172399D01*
X-293480Y-170980D01*
X-293600Y-169620D01*
X-293360Y-167900D01*
X-292420Y-166439D01*
X-290940Y-165520D01*
X-289220Y-165300D01*
X-288500Y-165380D01*
X-285460Y-165080D01*
X-282920Y-164300D01*
X-281760Y-164140D01*
X-270140Y-164140D01*
X-270140Y-153580D01*
X-271580Y-152740D01*
X-272560Y-151400D01*
X-272900Y-149780D01*
X-272900Y-129500D01*
X-273220Y-126260D01*
X-274100Y-123340D01*
X-275540Y-120640D01*
X-277480Y-118280D01*
X-278760Y-117240D01*
X-279820Y-115860D01*
X-280220Y-114160D01*
X-280220Y-97080D01*
X-281800Y-96300D01*
X-282900Y-94920D01*
X-283300Y-93180D01*
X-283300Y-83379D01*
X-282900Y-81660D01*
X-281800Y-80280D01*
X-280220Y-79500D01*
X-280220Y-65400D01*
X-283400Y-65400D01*
X-285860Y-65660D01*
X-287180Y-66140D01*
X-288500Y-66360D01*
X-289840Y-66140D01*
X-291160Y-65660D01*
X-293620Y-65400D01*
X-316800Y-65400D01*
X-319260Y-65660D01*
X-321400Y-66420D01*
X-323300Y-67620D01*
X-324900Y-69220D01*
X-326100Y-71120D01*
X-326840Y-73260D01*
X-327120Y-75720D01*
X-327120Y-100860D01*
X-326840Y-103320D01*
X-326100Y-105460D01*
X-324760Y-107600D01*
X-324180Y-109100D01*
X-324260Y-110719D01*
X-324980Y-112180D01*
X-326200Y-113219D01*
X-327740Y-113699D01*
X-330959Y-114019D01*
X-333880Y-114900D01*
X-335820Y-115940D01*
X-337060Y-116359D01*
X-338360Y-116359D01*
X-339600Y-115940D01*
X-341540Y-114900D01*
X-344460Y-114019D01*
X-349360Y-113560D01*
X-350780Y-112720D01*
X-351760Y-111380D01*
X-352100Y-109760D01*
X-352100Y-58920D01*
X-351800Y-57380D01*
X-350920Y-56080D01*
X-158220Y136620D01*
X-156920Y137500D01*
X-155380Y137800D01*
X-102560Y137800D01*
X-101039Y137500D01*
X-99740Y136620D01*
X-98859Y135340D01*
X-98560Y133800D01*
X-98560Y119660D01*
X-98280Y117200D01*
X-96980Y113640D01*
X-96980Y112160D01*
X-98280Y108600D01*
X-98560Y106140D01*
X-98560Y39660D01*
X-98280Y37200D01*
X-96980Y33640D01*
X-96980Y32160D01*
X-98280Y28600D01*
X-98560Y26140D01*
X-98560Y-17020D01*
X-98859Y-18560D01*
X-99740Y-19860D01*
X-101039Y-20720D01*
X-102560Y-21020D01*
X-104100Y-20720D01*
X-105399Y-19860D01*
X-117080Y-8159D01*
X-119520Y-6160D01*
X-122120Y-4760D01*
X-124960Y-3920D01*
X-125900Y-3820D01*
X-127300Y-3420D01*
X-128460Y-2520D01*
X-129240Y-1280D01*
X-129500Y160D01*
X-129500Y4079D01*
X-129780Y6540D01*
X-130520Y8680D01*
X-131380Y10560D01*
X-131380Y12040D01*
X-130520Y13919D01*
X-129780Y16060D01*
X-129500Y18520D01*
X-129500Y27300D01*
X-152840Y27300D01*
X-152840Y18400D01*
X-153160Y16860D01*
X-154020Y15580D01*
X-155320Y14700D01*
X-156840Y14400D01*
X-185340Y14400D01*
X-186880Y14700D01*
X-188180Y15580D01*
X-189040Y16860D01*
X-189340Y18400D01*
X-189340Y27300D01*
X-212700Y27300D01*
X-212700Y18520D01*
X-212420Y16060D01*
X-211680Y13919D01*
X-210820Y12040D01*
X-210820Y10560D01*
X-211680Y8680D01*
X-212420Y6540D01*
X-212700Y4079D01*
X-212700Y-41480D01*
X-212420Y-43940D01*
X-211680Y-46080D01*
X-210820Y-47960D01*
X-210820Y-49440D01*
X-211680Y-51320D01*
X-212420Y-53460D01*
X-212700Y-55920D01*
X-212700Y-101480D01*
X-212420Y-103940D01*
X-211680Y-106080D01*
X-210479Y-107980D01*
X-208880Y-109580D01*
X-206980Y-110780D01*
X-204840Y-111519D01*
X-202380Y-111800D01*
X-190200Y-111800D01*
X-188680Y-112100D01*
X-187380Y-112980D01*
X-186500Y-114260D01*
X-186200Y-115800D01*
X-186200Y-230280D01*
X-186500Y-231820D01*
X-187380Y-233120D01*
X-198180Y-243920D01*
X-199300Y-244720D01*
X-200660Y-245080D01*
X-203840Y-245360D01*
X-207560Y-246340D01*
X-211040Y-247979D01*
X-214200Y-250180D01*
X-215040Y-251040D01*
X-216320Y-251900D01*
X-217840Y-252200D01*
G37*

%LPC*%
G36*
X-249400Y-164140D02*
G01*
X-234920Y-164140D01*
X-235120Y-163420D01*
X-236560Y-160720D01*
X-238500Y-158360D01*
X-240880Y-156420D01*
X-243560Y-154980D01*
X-246500Y-154100D01*
X-249400Y-153800D01*
G37*
G36*
X-263400Y-111180D02*
G01*
X-260219Y-111180D01*
X-257760Y-110900D01*
X-255620Y-110160D01*
X-253720Y-108960D01*
X-252120Y-107360D01*
X-250920Y-105460D01*
X-250180Y-103320D01*
X-249899Y-100860D01*
X-249899Y-97180D01*
X-263400Y-97180D01*
G37*
G36*
X-263400Y-79380D02*
G01*
X-249899Y-79380D01*
X-249899Y-75720D01*
X-250180Y-73260D01*
X-250920Y-71120D01*
X-252120Y-69220D01*
X-253720Y-67620D01*
X-255620Y-66420D01*
X-257760Y-65660D01*
X-260219Y-65400D01*
X-263400Y-65400D01*
G37*
G36*
X-152840Y55300D02*
G01*
X-129500Y55300D01*
X-129500Y64080D01*
X-129780Y66540D01*
X-130520Y68680D01*
X-131720Y70580D01*
X-133320Y72180D01*
X-135220Y73380D01*
X-137360Y74120D01*
X-139820Y74400D01*
X-152840Y74400D01*
G37*
G36*
X-212700Y55300D02*
G01*
X-189340Y55300D01*
X-189340Y74400D01*
X-202380Y74400D01*
X-204840Y74120D01*
X-206980Y73380D01*
X-208880Y72180D01*
X-210479Y70580D01*
X-211680Y68680D01*
X-212420Y66540D01*
X-212700Y64080D01*
G37*

%LPD*%
G36*
X431840Y-304400D02*
G01*
X430040Y-304060D01*
X427580Y-303780D01*
X416100Y-303780D01*
X414560Y-303480D01*
X413280Y-302620D01*
X381079Y-270420D01*
X380200Y-269120D01*
X379900Y-267580D01*
X379900Y315840D01*
X380200Y317360D01*
X381079Y318660D01*
X382360Y319520D01*
X383900Y319840D01*
X385439Y319520D01*
X386719Y318660D01*
X496840Y208580D01*
X499760Y206380D01*
X502900Y204800D01*
X506300Y203840D01*
X509980Y203500D01*
X931600Y203500D01*
X933199Y203180D01*
X934520Y202240D01*
X935360Y200880D01*
X935600Y199280D01*
X935180Y197719D01*
X934180Y196439D01*
X434520Y-303240D01*
X433280Y-304060D01*
G37*

%LPD*%
G36*
X-288320Y-345980D02*
G01*
X-289960Y-345400D01*
X-291840Y-344219D01*
X-293960Y-343459D01*
X-296420Y-343200D01*
X-307900Y-343200D01*
X-309440Y-342879D01*
X-310740Y-342020D01*
X-312220Y-340520D01*
X-313100Y-339219D01*
X-313400Y-337700D01*
X-313400Y-311500D01*
X-312900Y-307060D01*
X-312900Y-286980D01*
X-313220Y-283740D01*
X-313900Y-281520D01*
X-314060Y-280360D01*
X-314060Y-278100D01*
X-315460Y-277720D01*
X-316720Y-276700D01*
X-317480Y-275760D01*
X-319840Y-273820D01*
X-322540Y-272380D01*
X-325460Y-271500D01*
X-328500Y-271200D01*
X-331560Y-271500D01*
X-334480Y-272380D01*
X-336420Y-273420D01*
X-337660Y-273840D01*
X-338960Y-273840D01*
X-340200Y-273420D01*
X-342140Y-272380D01*
X-345060Y-271500D01*
X-348100Y-271200D01*
X-351160Y-271500D01*
X-354080Y-272380D01*
X-356079Y-273460D01*
X-357299Y-273880D01*
X-358620Y-273880D01*
X-359840Y-273460D01*
X-361840Y-272380D01*
X-364540Y-271560D01*
X-366019Y-270740D01*
X-367040Y-269380D01*
X-367380Y-267740D01*
X-367380Y-247659D01*
X-388080Y-247659D01*
X-389739Y-247300D01*
X-391079Y-246300D01*
X-391900Y-244820D01*
X-392600Y-242520D01*
X-393680Y-240520D01*
X-394099Y-239280D01*
X-394099Y-237979D01*
X-393680Y-236759D01*
X-392600Y-234760D01*
X-391719Y-231820D01*
X-391420Y-228780D01*
X-391719Y-225740D01*
X-392600Y-222820D01*
X-393640Y-220880D01*
X-394060Y-219640D01*
X-394060Y-218340D01*
X-393640Y-217100D01*
X-392600Y-215159D01*
X-391719Y-212220D01*
X-391420Y-209180D01*
X-391719Y-206140D01*
X-392600Y-203220D01*
X-393680Y-201220D01*
X-394099Y-199980D01*
X-394099Y-198680D01*
X-393680Y-197460D01*
X-392600Y-195460D01*
X-391780Y-192740D01*
X-390959Y-191280D01*
X-389600Y-190260D01*
X-387960Y-189899D01*
X-367380Y-189899D01*
X-367380Y-169020D01*
X-367020Y-167360D01*
X-366019Y-166020D01*
X-364540Y-165200D01*
X-361240Y-164180D01*
X-359240Y-163120D01*
X-358020Y-162700D01*
X-356700Y-162700D01*
X-355480Y-163120D01*
X-353480Y-164180D01*
X-350560Y-165080D01*
X-347500Y-165380D01*
X-344460Y-165080D01*
X-341540Y-164180D01*
X-339600Y-163140D01*
X-338360Y-162719D01*
X-337060Y-162719D01*
X-335820Y-163140D01*
X-333880Y-164180D01*
X-330959Y-165080D01*
X-327900Y-165380D01*
X-324860Y-165080D01*
X-321940Y-164180D01*
X-319940Y-163120D01*
X-318720Y-162700D01*
X-317400Y-162700D01*
X-316180Y-163120D01*
X-314180Y-164180D01*
X-312460Y-164700D01*
X-311000Y-165520D01*
X-309980Y-166880D01*
X-309640Y-168540D01*
X-309640Y-189899D01*
X-288940Y-189899D01*
X-287280Y-190260D01*
X-285940Y-191280D01*
X-285120Y-192740D01*
X-284420Y-195060D01*
X-283340Y-197060D01*
X-282920Y-198280D01*
X-282920Y-199579D01*
X-283340Y-200820D01*
X-284420Y-202820D01*
X-285300Y-205740D01*
X-285600Y-208780D01*
X-285300Y-211820D01*
X-284420Y-214760D01*
X-283360Y-216700D01*
X-282960Y-217940D01*
X-282960Y-219240D01*
X-283360Y-220479D01*
X-284420Y-222420D01*
X-285300Y-225340D01*
X-285600Y-228380D01*
X-285300Y-231420D01*
X-284420Y-234360D01*
X-283340Y-236360D01*
X-282920Y-237580D01*
X-282920Y-238880D01*
X-283340Y-240120D01*
X-284420Y-242120D01*
X-285240Y-244820D01*
X-286060Y-246300D01*
X-287400Y-247300D01*
X-289060Y-247659D01*
X-309640Y-247659D01*
X-309640Y-263240D01*
X-308420Y-263200D01*
X-307160Y-263320D01*
X-305760Y-263720D01*
X-304580Y-264620D01*
X-303820Y-265860D01*
X-303560Y-267300D01*
X-303560Y-280360D01*
X-303720Y-281520D01*
X-304400Y-283740D01*
X-304720Y-286980D01*
X-304720Y-307060D01*
X-304400Y-310300D01*
X-303720Y-312540D01*
X-303560Y-313700D01*
X-303560Y-321880D01*
X-302840Y-321659D01*
X-300840Y-320600D01*
X-299620Y-320180D01*
X-298300Y-320180D01*
X-297080Y-320600D01*
X-295080Y-321659D01*
X-292160Y-322560D01*
X-289100Y-322860D01*
X-286880Y-322640D01*
X-285140Y-322860D01*
X-283660Y-323780D01*
X-282280Y-325180D01*
X-281400Y-326480D01*
X-281100Y-328020D01*
X-281100Y-340200D01*
X-281320Y-341520D01*
X-281980Y-342700D01*
X-282980Y-343600D01*
X-286580Y-345800D01*
G37*

%LPD*%
G36*
X-1236400Y-432000D02*
G01*
X-1238040Y-431640D01*
X-1239400Y-430640D01*
X-1240220Y-429159D01*
X-1240360Y-427460D01*
X-1239780Y-425880D01*
X-1238520Y-423880D01*
X-1237780Y-421740D01*
X-1237500Y-419280D01*
X-1237500Y-344920D01*
X-1237780Y-342460D01*
X-1238520Y-340319D01*
X-1239720Y-338420D01*
X-1241320Y-336820D01*
X-1243220Y-335620D01*
X-1245360Y-334880D01*
X-1247820Y-334600D01*
X-1261900Y-334600D01*
X-1263440Y-334300D01*
X-1264720Y-333420D01*
X-1265600Y-332120D01*
X-1265900Y-330600D01*
X-1265900Y-271660D01*
X-1265600Y-270140D01*
X-1264720Y-268840D01*
X-1203260Y-207380D01*
X-1201960Y-206500D01*
X-1200440Y-206200D01*
X-1136520Y-206200D01*
X-1134880Y-206540D01*
X-1133520Y-207540D01*
X-1132700Y-208980D01*
X-1132540Y-210640D01*
X-1132820Y-213220D01*
X-1132820Y-271140D01*
X-1133120Y-272620D01*
X-1133940Y-273900D01*
X-1135180Y-274780D01*
X-1136640Y-275140D01*
X-1138140Y-274920D01*
X-1139540Y-274420D01*
X-1142000Y-274160D01*
X-1153060Y-274160D01*
X-1153060Y-289620D01*
X-1136620Y-289620D01*
X-1135180Y-289880D01*
X-1133960Y-290640D01*
X-1133060Y-291800D01*
X-1132640Y-293180D01*
X-1132560Y-293980D01*
X-1131800Y-296120D01*
X-1130600Y-298020D01*
X-1129000Y-299620D01*
X-1127100Y-300820D01*
X-1124960Y-301560D01*
X-1122500Y-301840D01*
X-1091460Y-301840D01*
X-1089000Y-301560D01*
X-1086860Y-300820D01*
X-1084960Y-299620D01*
X-1083360Y-298020D01*
X-1082160Y-296120D01*
X-1081400Y-293980D01*
X-1081140Y-291520D01*
X-1081140Y-213220D01*
X-1081420Y-210640D01*
X-1081260Y-208980D01*
X-1080440Y-207540D01*
X-1079080Y-206540D01*
X-1077440Y-206200D01*
X-1063700Y-206200D01*
X-1062180Y-206500D01*
X-1060880Y-207380D01*
X-1015879Y-252360D01*
X-1015020Y-253660D01*
X-1014720Y-255200D01*
X-1014720Y-291520D01*
X-1014440Y-293980D01*
X-1013700Y-296120D01*
X-1012500Y-298020D01*
X-1010900Y-299620D01*
X-1008980Y-300820D01*
X-1006860Y-301560D01*
X-1004400Y-301840D01*
X-973340Y-301840D01*
X-970879Y-301560D01*
X-968760Y-300820D01*
X-966840Y-299620D01*
X-965240Y-298020D01*
X-964060Y-296140D01*
X-963139Y-293360D01*
X-962300Y-291920D01*
X-960960Y-290960D01*
X-959340Y-290600D01*
X-957720Y-290960D01*
X-956380Y-291920D01*
X-955540Y-293360D01*
X-954620Y-296140D01*
X-953439Y-298020D01*
X-951840Y-299620D01*
X-949940Y-300820D01*
X-947800Y-301560D01*
X-945340Y-301840D01*
X-914300Y-301840D01*
X-911840Y-301560D01*
X-909700Y-300820D01*
X-907800Y-299620D01*
X-906200Y-298020D01*
X-905000Y-296120D01*
X-904240Y-293980D01*
X-904120Y-292840D01*
X-903700Y-291460D01*
X-902820Y-290300D01*
X-901580Y-289540D01*
X-900140Y-289280D01*
X-887060Y-289280D01*
X-887060Y-273820D01*
X-898120Y-273820D01*
X-899520Y-273980D01*
X-901180Y-273800D01*
X-902640Y-272980D01*
X-903620Y-271620D01*
X-903980Y-270000D01*
X-903980Y-219800D01*
X-903660Y-218260D01*
X-902800Y-216960D01*
X-901500Y-216100D01*
X-899980Y-215799D01*
X-898439Y-216100D01*
X-897140Y-216960D01*
X-847120Y-266980D01*
X-846260Y-268280D01*
X-845960Y-269820D01*
X-846260Y-271340D01*
X-847120Y-272640D01*
X-848420Y-273500D01*
X-849960Y-273820D01*
X-854500Y-273820D01*
X-854500Y-289280D01*
X-832880Y-289280D01*
X-832039Y-287920D01*
X-830759Y-287000D01*
X-829200Y-286640D01*
X-827620Y-286940D01*
X-826300Y-287820D01*
X-761240Y-352840D01*
X-759120Y-354520D01*
X-757080Y-355660D01*
X-756180Y-356340D01*
X-754060Y-358500D01*
X-752159Y-359680D01*
X-750040Y-360439D01*
X-747580Y-360720D01*
X-722420Y-360720D01*
X-719960Y-360439D01*
X-717840Y-359680D01*
X-715920Y-358480D01*
X-714320Y-356900D01*
X-713379Y-355400D01*
X-712280Y-354240D01*
X-710800Y-353600D01*
X-709200Y-353600D01*
X-707720Y-354240D01*
X-706620Y-355400D01*
X-705680Y-356900D01*
X-704080Y-358480D01*
X-702159Y-359680D01*
X-700040Y-360439D01*
X-697580Y-360720D01*
X-693900Y-360720D01*
X-693900Y-347200D01*
X-708100Y-347200D01*
X-709640Y-346900D01*
X-710939Y-346040D01*
X-711800Y-344739D01*
X-712099Y-343200D01*
X-712099Y-334400D01*
X-711800Y-332860D01*
X-710939Y-331560D01*
X-709640Y-330700D01*
X-708100Y-330400D01*
X-693800Y-330400D01*
X-693020Y-328800D01*
X-691620Y-327700D01*
X-689900Y-327320D01*
X-680100Y-327320D01*
X-678379Y-327700D01*
X-676979Y-328800D01*
X-676200Y-330400D01*
X-666900Y-330400D01*
X-665360Y-330700D01*
X-664060Y-331560D01*
X-663199Y-332860D01*
X-662900Y-334400D01*
X-662900Y-343200D01*
X-663199Y-344739D01*
X-664060Y-346040D01*
X-665360Y-346900D01*
X-666900Y-347200D01*
X-676100Y-347200D01*
X-676100Y-360720D01*
X-672420Y-360720D01*
X-669960Y-360439D01*
X-667840Y-359680D01*
X-665920Y-358480D01*
X-665320Y-357900D01*
X-664040Y-357020D01*
X-662500Y-356719D01*
X-660960Y-357020D01*
X-659680Y-357900D01*
X-659080Y-358480D01*
X-657159Y-359680D01*
X-655040Y-360439D01*
X-652580Y-360720D01*
X-627420Y-360720D01*
X-624960Y-360439D01*
X-622840Y-359680D01*
X-620920Y-358480D01*
X-619320Y-356900D01*
X-618120Y-354980D01*
X-617380Y-352860D01*
X-617100Y-350379D01*
X-617100Y-327220D01*
X-617380Y-324739D01*
X-617840Y-323420D01*
X-618080Y-322100D01*
X-617840Y-320780D01*
X-617380Y-319460D01*
X-617100Y-316980D01*
X-617100Y-293820D01*
X-617380Y-291340D01*
X-618120Y-289220D01*
X-619320Y-287300D01*
X-620920Y-285720D01*
X-622840Y-284520D01*
X-624960Y-283760D01*
X-627420Y-283500D01*
X-638900Y-283500D01*
X-640420Y-283180D01*
X-641720Y-282320D01*
X-643120Y-280920D01*
X-644000Y-279620D01*
X-644300Y-278080D01*
X-644300Y-271300D01*
X-643960Y-269680D01*
X-642980Y-268340D01*
X-641560Y-267500D01*
X-636660Y-267040D01*
X-633740Y-266160D01*
X-631740Y-265080D01*
X-630500Y-264660D01*
X-629200Y-264660D01*
X-627960Y-265080D01*
X-625960Y-266160D01*
X-623040Y-267040D01*
X-620000Y-267340D01*
X-616960Y-267040D01*
X-614040Y-266160D01*
X-612040Y-265080D01*
X-610800Y-264660D01*
X-609500Y-264660D01*
X-608260Y-265080D01*
X-606260Y-266160D01*
X-603340Y-267040D01*
X-600300Y-267340D01*
X-597260Y-267040D01*
X-594340Y-266160D01*
X-592340Y-265080D01*
X-591100Y-264660D01*
X-589800Y-264660D01*
X-588560Y-265080D01*
X-586560Y-266160D01*
X-583640Y-267040D01*
X-580600Y-267340D01*
X-577560Y-267040D01*
X-574640Y-266160D01*
X-572640Y-265080D01*
X-571400Y-264660D01*
X-570100Y-264660D01*
X-568860Y-265080D01*
X-566860Y-266160D01*
X-563940Y-267040D01*
X-560900Y-267340D01*
X-557860Y-267040D01*
X-554940Y-266160D01*
X-552240Y-264720D01*
X-549880Y-262780D01*
X-547940Y-260420D01*
X-546500Y-257719D01*
X-545600Y-254800D01*
X-545280Y-251560D01*
X-545280Y-229500D01*
X-545600Y-226260D01*
X-546500Y-223340D01*
X-547940Y-220640D01*
X-549880Y-218280D01*
X-551360Y-217060D01*
X-552400Y-215760D01*
X-552820Y-214160D01*
X-552560Y-212520D01*
X-551660Y-211140D01*
X-550960Y-210440D01*
X-549580Y-209540D01*
X-547940Y-209280D01*
X-546340Y-209700D01*
X-545040Y-210740D01*
X-543820Y-212220D01*
X-541460Y-214160D01*
X-538760Y-215600D01*
X-535840Y-216500D01*
X-532600Y-216820D01*
X-510540Y-216820D01*
X-507299Y-216500D01*
X-504380Y-215600D01*
X-501680Y-214160D01*
X-499320Y-212220D01*
X-497380Y-209860D01*
X-495940Y-207160D01*
X-495060Y-204240D01*
X-494760Y-201200D01*
X-495060Y-198160D01*
X-495940Y-195240D01*
X-497020Y-193240D01*
X-497440Y-192000D01*
X-497440Y-190700D01*
X-497020Y-189460D01*
X-495940Y-187460D01*
X-495060Y-184540D01*
X-494760Y-181500D01*
X-495060Y-178460D01*
X-495940Y-175539D01*
X-497020Y-173540D01*
X-497440Y-172300D01*
X-497440Y-171000D01*
X-497020Y-169760D01*
X-495940Y-167760D01*
X-495060Y-164840D01*
X-494760Y-161800D01*
X-495060Y-158760D01*
X-495940Y-155840D01*
X-497020Y-153840D01*
X-497440Y-152600D01*
X-497440Y-151300D01*
X-497020Y-150060D01*
X-495940Y-148060D01*
X-495060Y-145140D01*
X-494760Y-142100D01*
X-495060Y-139060D01*
X-495940Y-136140D01*
X-497020Y-134140D01*
X-497440Y-132900D01*
X-497440Y-131600D01*
X-497020Y-130360D01*
X-495940Y-128360D01*
X-495060Y-125440D01*
X-494760Y-122400D01*
X-495060Y-119360D01*
X-495940Y-116440D01*
X-497020Y-114440D01*
X-497440Y-113200D01*
X-497440Y-111900D01*
X-497020Y-110660D01*
X-495940Y-108660D01*
X-495060Y-105740D01*
X-494760Y-102700D01*
X-495060Y-99660D01*
X-495940Y-96740D01*
X-497020Y-94740D01*
X-497440Y-93500D01*
X-497440Y-92200D01*
X-497020Y-90960D01*
X-495940Y-88960D01*
X-495060Y-86039D01*
X-494760Y-83000D01*
X-495060Y-79960D01*
X-495940Y-77040D01*
X-497380Y-74340D01*
X-499320Y-71980D01*
X-501680Y-70040D01*
X-504380Y-68600D01*
X-507299Y-67700D01*
X-510540Y-67380D01*
X-532600Y-67380D01*
X-535840Y-67700D01*
X-538760Y-68600D01*
X-541460Y-70040D01*
X-543820Y-71980D01*
X-545040Y-73460D01*
X-546340Y-74500D01*
X-547940Y-74920D01*
X-549580Y-74660D01*
X-550960Y-73760D01*
X-551640Y-73060D01*
X-552560Y-71680D01*
X-552820Y-70040D01*
X-552400Y-68440D01*
X-551360Y-67140D01*
X-549880Y-65920D01*
X-547940Y-63560D01*
X-546500Y-60860D01*
X-545600Y-57939D01*
X-545280Y-54700D01*
X-545280Y-32660D01*
X-545600Y-29420D01*
X-546500Y-26500D01*
X-547940Y-23800D01*
X-549880Y-21440D01*
X-552240Y-19500D01*
X-554940Y-18060D01*
X-557860Y-17160D01*
X-560900Y-16860D01*
X-563940Y-17160D01*
X-566860Y-18060D01*
X-568860Y-19120D01*
X-570100Y-19540D01*
X-571400Y-19540D01*
X-572640Y-19120D01*
X-574640Y-18060D01*
X-577560Y-17160D01*
X-579300Y-17000D01*
X-580740Y-16580D01*
X-581920Y-15660D01*
X-582680Y-14360D01*
X-582900Y-12880D01*
X-582580Y-11419D01*
X-581740Y-10180D01*
X-564460Y7080D01*
X-562460Y9520D01*
X-561060Y12120D01*
X-560200Y14960D01*
X-559900Y18100D01*
X-559900Y21800D01*
X-559680Y23120D01*
X-559020Y24300D01*
X-558020Y25200D01*
X-555920Y26520D01*
X-554320Y28100D01*
X-553120Y30019D01*
X-552380Y32140D01*
X-552100Y34620D01*
X-552100Y57779D01*
X-552380Y60260D01*
X-552840Y61580D01*
X-553080Y62900D01*
X-552840Y64220D01*
X-552380Y65540D01*
X-552100Y68020D01*
X-552100Y91180D01*
X-552380Y93660D01*
X-553120Y95780D01*
X-554320Y97700D01*
X-555920Y99280D01*
X-557840Y100480D01*
X-559960Y101240D01*
X-562420Y101500D01*
X-573180Y101519D01*
X-575000Y101679D01*
X-577180Y101500D01*
X-580380Y101500D01*
X-581900Y101820D01*
X-583200Y102680D01*
X-584080Y103980D01*
X-584380Y105500D01*
X-584080Y107040D01*
X-583200Y108340D01*
X-554920Y136620D01*
X-553620Y137500D01*
X-552080Y137800D01*
X-285200Y137800D01*
X-282060Y138100D01*
X-279220Y138960D01*
X-276620Y140360D01*
X-274180Y142360D01*
X-119920Y296620D01*
X-118620Y297500D01*
X-117080Y297800D01*
X-102560Y297800D01*
X-101039Y297500D01*
X-99740Y296620D01*
X-98859Y295340D01*
X-98560Y293800D01*
X-98560Y279660D01*
X-98280Y277200D01*
X-96980Y273640D01*
X-96980Y272160D01*
X-98280Y268600D01*
X-98560Y266140D01*
X-98560Y252000D01*
X-98859Y250460D01*
X-99740Y249180D01*
X-101039Y248299D01*
X-102560Y248000D01*
X-109800Y248000D01*
X-112940Y247700D01*
X-115780Y246840D01*
X-118379Y245440D01*
X-120820Y243440D01*
X-397440Y-33180D01*
X-399440Y-35620D01*
X-400840Y-38220D01*
X-401680Y-41060D01*
X-402000Y-44200D01*
X-402000Y-125000D01*
X-402200Y-126260D01*
X-402520Y-129500D01*
X-402520Y-149580D01*
X-402720Y-151580D01*
X-403640Y-153060D01*
X-405120Y-154000D01*
X-406880Y-154200D01*
X-406880Y-164540D01*
X-392340Y-164540D01*
X-391180Y-164700D01*
X-389960Y-165080D01*
X-387060Y-165360D01*
X-385600Y-165799D01*
X-384420Y-166720D01*
X-383660Y-168039D01*
X-383440Y-169520D01*
X-383519Y-171240D01*
X-383880Y-172700D01*
X-384760Y-173939D01*
X-386040Y-174760D01*
X-387520Y-175040D01*
X-400580Y-175040D01*
X-401740Y-174880D01*
X-403980Y-174200D01*
X-407200Y-173880D01*
X-427280Y-173880D01*
X-430520Y-174200D01*
X-432760Y-174880D01*
X-433920Y-175040D01*
X-442100Y-175040D01*
X-441900Y-175760D01*
X-440820Y-177760D01*
X-440400Y-178980D01*
X-440400Y-180280D01*
X-440820Y-181520D01*
X-441900Y-183520D01*
X-442780Y-186439D01*
X-443080Y-189480D01*
X-442780Y-192520D01*
X-441900Y-195460D01*
X-440820Y-197460D01*
X-440400Y-198680D01*
X-440400Y-199980D01*
X-440820Y-201220D01*
X-441900Y-203220D01*
X-442780Y-206140D01*
X-443080Y-209180D01*
X-442780Y-212220D01*
X-441900Y-215159D01*
X-440840Y-217100D01*
X-440439Y-218340D01*
X-440439Y-219640D01*
X-440840Y-220880D01*
X-441900Y-222820D01*
X-442780Y-225740D01*
X-443080Y-228780D01*
X-442780Y-231820D01*
X-441900Y-234760D01*
X-440820Y-236759D01*
X-440400Y-237979D01*
X-440400Y-239280D01*
X-440820Y-240520D01*
X-441900Y-242520D01*
X-442780Y-245440D01*
X-443080Y-248480D01*
X-442780Y-251520D01*
X-441900Y-254460D01*
X-440820Y-256460D01*
X-440400Y-257680D01*
X-440400Y-258980D01*
X-440820Y-260219D01*
X-441900Y-262220D01*
X-442780Y-265140D01*
X-443080Y-268180D01*
X-442780Y-271220D01*
X-441900Y-274160D01*
X-440439Y-276840D01*
X-438519Y-279220D01*
X-436140Y-281160D01*
X-433459Y-282600D01*
X-430520Y-283480D01*
X-427280Y-283800D01*
X-407120Y-283800D01*
X-405600Y-284100D01*
X-404300Y-284980D01*
X-403420Y-286260D01*
X-403120Y-287800D01*
X-403120Y-307060D01*
X-402800Y-310300D01*
X-401920Y-313240D01*
X-400480Y-315920D01*
X-398540Y-318280D01*
X-396180Y-320220D01*
X-393240Y-321800D01*
X-392080Y-322720D01*
X-391360Y-324000D01*
X-391140Y-325480D01*
X-391460Y-326920D01*
X-392299Y-328140D01*
X-396040Y-331880D01*
X-398040Y-334320D01*
X-399440Y-336920D01*
X-400300Y-339760D01*
X-400660Y-341640D01*
X-401300Y-342660D01*
X-402220Y-343459D01*
X-404580Y-344920D01*
X-406180Y-346500D01*
X-407380Y-348420D01*
X-408120Y-350540D01*
X-408400Y-353020D01*
X-408400Y-376180D01*
X-408120Y-378660D01*
X-407660Y-379980D01*
X-407420Y-381300D01*
X-407660Y-382620D01*
X-408120Y-383940D01*
X-408400Y-386420D01*
X-408400Y-389600D01*
X-394300Y-389600D01*
X-393519Y-388000D01*
X-392120Y-386900D01*
X-390400Y-386520D01*
X-380600Y-386520D01*
X-378880Y-386900D01*
X-377480Y-388000D01*
X-376700Y-389600D01*
X-362460Y-389600D01*
X-361659Y-388060D01*
X-360280Y-387020D01*
X-358600Y-386659D01*
X-356920Y-387040D01*
X-355160Y-387860D01*
X-351440Y-388840D01*
X-347600Y-389180D01*
X-343760Y-388840D01*
X-340040Y-387860D01*
X-337580Y-386700D01*
X-336079Y-386340D01*
X-334540Y-386560D01*
X-333220Y-387360D01*
X-332299Y-388600D01*
X-331900Y-390100D01*
X-317800Y-390100D01*
X-317020Y-388500D01*
X-315620Y-387400D01*
X-313900Y-387020D01*
X-304100Y-387020D01*
X-302380Y-387400D01*
X-300980Y-388500D01*
X-300200Y-390100D01*
X-294840Y-390100D01*
X-293900Y-389720D01*
X-292900Y-389600D01*
X-274800Y-389600D01*
X-274020Y-388000D01*
X-272620Y-386900D01*
X-270900Y-386520D01*
X-261100Y-386520D01*
X-259380Y-386900D01*
X-257979Y-388000D01*
X-257200Y-389600D01*
X-243100Y-389600D01*
X-243100Y-386420D01*
X-243359Y-384140D01*
X-243200Y-382480D01*
X-242360Y-381040D01*
X-241020Y-380040D01*
X-239380Y-379700D01*
X-210600Y-379700D01*
X-207460Y-379400D01*
X-204620Y-378540D01*
X-202020Y-377140D01*
X-199579Y-375140D01*
X-184100Y-359640D01*
X-182800Y-358780D01*
X-181260Y-358480D01*
X-179740Y-358780D01*
X-178440Y-359640D01*
X-177560Y-360940D01*
X-177260Y-362480D01*
X-177260Y-427440D01*
X-177420Y-429219D01*
X-178240Y-430660D01*
X-179600Y-431659D01*
X-181220Y-432000D01*
X-840100Y-432000D01*
X-841780Y-431640D01*
X-843139Y-430600D01*
X-843940Y-429080D01*
X-844040Y-427360D01*
X-843420Y-425760D01*
X-842159Y-424580D01*
X-838360Y-423280D01*
X-836460Y-422080D01*
X-834860Y-420480D01*
X-833660Y-418560D01*
X-832920Y-416440D01*
X-832640Y-413980D01*
X-832640Y-408820D01*
X-854020Y-408820D01*
X-854020Y-428000D01*
X-854320Y-429540D01*
X-855200Y-430820D01*
X-856480Y-431700D01*
X-858020Y-432000D01*
X-882580Y-432000D01*
X-884120Y-431700D01*
X-885400Y-430820D01*
X-886280Y-429540D01*
X-886580Y-428000D01*
X-886580Y-408820D01*
X-898120Y-408820D01*
X-899380Y-408620D01*
X-900520Y-408020D01*
X-901400Y-407100D01*
X-902400Y-405660D01*
X-903600Y-404460D01*
X-905000Y-403440D01*
X-907159Y-402460D01*
X-909560Y-402020D01*
X-1124760Y-402000D01*
X-1127300Y-402299D01*
X-1129440Y-403120D01*
X-1131440Y-404500D01*
X-1132640Y-405700D01*
X-1133660Y-407080D01*
X-1134840Y-409799D01*
X-1135720Y-411060D01*
X-1137000Y-411900D01*
X-1138520Y-412200D01*
X-1153420Y-412200D01*
X-1153420Y-428000D01*
X-1153720Y-429540D01*
X-1154600Y-430820D01*
X-1155880Y-431700D01*
X-1157420Y-432000D01*
X-1181980Y-432000D01*
X-1183520Y-431700D01*
X-1184800Y-430820D01*
X-1185680Y-429540D01*
X-1185980Y-428000D01*
X-1185980Y-412200D01*
X-1207360Y-412200D01*
X-1207360Y-417360D01*
X-1207080Y-419820D01*
X-1206340Y-421940D01*
X-1205140Y-423860D01*
X-1203820Y-425180D01*
X-1202960Y-426460D01*
X-1202660Y-428000D01*
X-1202960Y-429540D01*
X-1203820Y-430820D01*
X-1205120Y-431700D01*
X-1206660Y-432000D01*
G37*

%LPC*%
G36*
X-321580Y-420420D02*
G01*
X-317900Y-420420D01*
X-317900Y-406900D01*
X-331900Y-406900D01*
X-331900Y-410080D01*
X-331620Y-412560D01*
X-330880Y-414680D01*
X-329680Y-416599D01*
X-328080Y-418180D01*
X-326160Y-419380D01*
X-324040Y-420140D01*
G37*
G36*
X-300100Y-420420D02*
G01*
X-296420Y-420420D01*
X-293960Y-420140D01*
X-291840Y-419380D01*
X-288420Y-417299D01*
X-286680Y-417120D01*
X-285040Y-417700D01*
X-283160Y-418880D01*
X-281040Y-419640D01*
X-278580Y-419920D01*
X-274900Y-419920D01*
X-274900Y-406400D01*
X-280160Y-406400D01*
X-281100Y-406780D01*
X-282100Y-406900D01*
X-300100Y-406900D01*
G37*
G36*
X-257100Y-419920D02*
G01*
X-253420Y-419920D01*
X-250960Y-419640D01*
X-248840Y-418880D01*
X-246920Y-417680D01*
X-245320Y-416100D01*
X-244120Y-414180D01*
X-243380Y-412060D01*
X-243100Y-409580D01*
X-243100Y-406400D01*
X-257100Y-406400D01*
G37*
G36*
X-376599Y-419920D02*
G01*
X-372920Y-419920D01*
X-370460Y-419640D01*
X-368340Y-418880D01*
X-366420Y-417680D01*
X-364820Y-416100D01*
X-363620Y-414180D01*
X-362879Y-412060D01*
X-362600Y-409580D01*
X-362600Y-406400D01*
X-376599Y-406400D01*
G37*
G36*
X-398080Y-419920D02*
G01*
X-394400Y-419920D01*
X-394400Y-406400D01*
X-408400Y-406400D01*
X-408400Y-409580D01*
X-408120Y-412060D01*
X-407380Y-414180D01*
X-406180Y-416100D01*
X-404580Y-417680D01*
X-402660Y-418880D01*
X-400540Y-419640D01*
G37*
G36*
X-1153420Y-391460D02*
G01*
X-1132040Y-391460D01*
X-1132040Y-386300D01*
X-1132320Y-383840D01*
X-1133060Y-381719D01*
X-1134260Y-379799D01*
X-1135860Y-378200D01*
X-1137760Y-377000D01*
X-1139900Y-376260D01*
X-1142360Y-375980D01*
X-1153420Y-375980D01*
G37*
G36*
X-1207360Y-391460D02*
G01*
X-1185980Y-391460D01*
X-1185980Y-375980D01*
X-1197040Y-375980D01*
X-1199500Y-376260D01*
X-1201640Y-377000D01*
X-1203540Y-378200D01*
X-1205140Y-379799D01*
X-1206340Y-381719D01*
X-1207080Y-383840D01*
X-1207360Y-386300D01*
G37*
G36*
X-854020Y-388080D02*
G01*
X-832640Y-388080D01*
X-832640Y-382920D01*
X-832920Y-380460D01*
X-833660Y-378340D01*
X-834860Y-376420D01*
X-836460Y-374820D01*
X-838360Y-373620D01*
X-840500Y-372879D01*
X-842960Y-372600D01*
X-854020Y-372600D01*
G37*
G36*
X-907960Y-388080D02*
G01*
X-886580Y-388080D01*
X-886580Y-372600D01*
X-897640Y-372600D01*
X-900100Y-372879D01*
X-902240Y-373620D01*
X-904140Y-374820D01*
X-905740Y-376420D01*
X-906940Y-378340D01*
X-907680Y-380460D01*
X-907960Y-382920D01*
G37*
G36*
X-958480Y-376520D02*
G01*
X-954320Y-376340D01*
X-950260Y-375520D01*
X-946360Y-374040D01*
X-942760Y-371960D01*
X-939539Y-369340D01*
X-936780Y-366220D01*
X-934560Y-362700D01*
X-932940Y-358880D01*
X-931940Y-354840D01*
X-931600Y-350700D01*
X-931940Y-346560D01*
X-932940Y-342520D01*
X-934560Y-338700D01*
X-936780Y-335180D01*
X-939539Y-332060D01*
X-942760Y-329440D01*
X-946360Y-327360D01*
X-950260Y-325880D01*
X-954320Y-325060D01*
X-958480Y-324880D01*
X-962600Y-325379D01*
X-966600Y-326540D01*
X-970360Y-328320D01*
X-973780Y-330680D01*
X-976780Y-333560D01*
X-979280Y-336900D01*
X-981200Y-340580D01*
X-982520Y-344520D01*
X-983199Y-348620D01*
X-983199Y-352780D01*
X-982520Y-356880D01*
X-981200Y-360820D01*
X-979280Y-364500D01*
X-976780Y-367840D01*
X-973780Y-370720D01*
X-970360Y-373080D01*
X-966600Y-374860D01*
X-962600Y-376019D01*
G37*
G36*
X-1076680Y-376420D02*
G01*
X-1072520Y-376240D01*
X-1068460Y-375420D01*
X-1064560Y-373940D01*
X-1060960Y-371860D01*
X-1057740Y-369240D01*
X-1054980Y-366120D01*
X-1052760Y-362600D01*
X-1051140Y-358780D01*
X-1050140Y-354739D01*
X-1049800Y-350600D01*
X-1050140Y-346460D01*
X-1051140Y-342420D01*
X-1052760Y-338600D01*
X-1054980Y-335080D01*
X-1057740Y-331960D01*
X-1060960Y-329340D01*
X-1064560Y-327260D01*
X-1068460Y-325780D01*
X-1072520Y-324960D01*
X-1076680Y-324780D01*
X-1080800Y-325280D01*
X-1084800Y-326440D01*
X-1088560Y-328220D01*
X-1091980Y-330580D01*
X-1094980Y-333459D01*
X-1097480Y-336800D01*
X-1099400Y-340480D01*
X-1100720Y-344420D01*
X-1101400Y-348519D01*
X-1101400Y-352680D01*
X-1100720Y-356780D01*
X-1099400Y-360720D01*
X-1097480Y-364400D01*
X-1094980Y-367740D01*
X-1091980Y-370620D01*
X-1088560Y-372980D01*
X-1084800Y-374760D01*
X-1080800Y-375920D01*
G37*
G36*
X-1196680Y-325840D02*
G01*
X-1185620Y-325840D01*
X-1185620Y-310380D01*
X-1207000Y-310380D01*
X-1207000Y-315520D01*
X-1206720Y-317980D01*
X-1205980Y-320120D01*
X-1204780Y-322020D01*
X-1203180Y-323620D01*
X-1201280Y-324820D01*
X-1199140Y-325580D01*
G37*
G36*
X-1153060Y-325840D02*
G01*
X-1142000Y-325840D01*
X-1139540Y-325580D01*
X-1137400Y-324820D01*
X-1135500Y-323620D01*
X-1133900Y-322020D01*
X-1132700Y-320120D01*
X-1131960Y-317980D01*
X-1131680Y-315520D01*
X-1131680Y-310380D01*
X-1153060Y-310380D01*
G37*
G36*
X-854500Y-325500D02*
G01*
X-843439Y-325500D01*
X-840980Y-325240D01*
X-838840Y-324480D01*
X-836940Y-323280D01*
X-835340Y-321680D01*
X-834140Y-319780D01*
X-833400Y-317640D01*
X-833120Y-315180D01*
X-833120Y-310040D01*
X-854500Y-310040D01*
G37*
G36*
X-898120Y-325500D02*
G01*
X-887060Y-325500D01*
X-887060Y-310040D01*
X-908439Y-310040D01*
X-908439Y-315180D01*
X-908160Y-317640D01*
X-907420Y-319780D01*
X-906220Y-321680D01*
X-904620Y-323280D01*
X-902720Y-324480D01*
X-900580Y-325240D01*
G37*
G36*
X-1207000Y-289620D02*
G01*
X-1185620Y-289620D01*
X-1185620Y-274160D01*
X-1196680Y-274160D01*
X-1199140Y-274420D01*
X-1201280Y-275180D01*
X-1203180Y-276380D01*
X-1204780Y-277980D01*
X-1205980Y-279880D01*
X-1206720Y-282020D01*
X-1207000Y-284480D01*
G37*
G36*
X-442100Y-164540D02*
G01*
X-427620Y-164540D01*
X-427620Y-154200D01*
X-430520Y-154500D01*
X-433459Y-155380D01*
X-436140Y-156820D01*
X-438519Y-158760D01*
X-440439Y-161119D01*
X-441900Y-163820D01*
G37*

%LPD*%
G36*
X-1740900Y-432000D02*
G01*
X-1742440Y-431700D01*
X-1743720Y-430820D01*
X-1744600Y-429540D01*
X-1744900Y-428000D01*
X-1744900Y-35520D01*
X-1744600Y-33980D01*
X-1743720Y-32679D01*
X-1742440Y-31820D01*
X-1740900Y-31520D01*
X-1739360Y-31820D01*
X-1738080Y-32679D01*
X-1736279Y-34480D01*
X-1734379Y-35680D01*
X-1732240Y-36420D01*
X-1729780Y-36700D01*
X-1721740Y-36700D01*
X-1721740Y-19360D01*
X-1740900Y-19360D01*
X-1742440Y-19040D01*
X-1743720Y-18180D01*
X-1744600Y-16880D01*
X-1744900Y-15360D01*
X-1744900Y1140D01*
X-1744600Y2680D01*
X-1743720Y3980D01*
X-1742440Y4840D01*
X-1740900Y5140D01*
X-1721740Y5140D01*
X-1721740Y22500D01*
X-1729780Y22500D01*
X-1732240Y22220D01*
X-1734379Y21480D01*
X-1736279Y20280D01*
X-1738080Y18480D01*
X-1739360Y17620D01*
X-1740900Y17320D01*
X-1742440Y17620D01*
X-1743720Y18480D01*
X-1744600Y19780D01*
X-1744900Y21320D01*
X-1744900Y64480D01*
X-1744600Y66020D01*
X-1743720Y67320D01*
X-1742440Y68180D01*
X-1740900Y68480D01*
X-1739360Y68180D01*
X-1738080Y67320D01*
X-1736279Y65519D01*
X-1734379Y64320D01*
X-1732240Y63580D01*
X-1729780Y63300D01*
X-1721740Y63300D01*
X-1721740Y80640D01*
X-1740900Y80640D01*
X-1742440Y80960D01*
X-1743720Y81820D01*
X-1744600Y83120D01*
X-1744900Y84640D01*
X-1744900Y101140D01*
X-1744600Y102680D01*
X-1743720Y103980D01*
X-1742440Y104840D01*
X-1740900Y105140D01*
X-1721740Y105140D01*
X-1721740Y122500D01*
X-1729780Y122500D01*
X-1732240Y122220D01*
X-1734379Y121480D01*
X-1736279Y120280D01*
X-1738080Y118480D01*
X-1739360Y117620D01*
X-1740900Y117320D01*
X-1742440Y117620D01*
X-1743720Y118480D01*
X-1744600Y119780D01*
X-1744900Y121320D01*
X-1744900Y179040D01*
X-1744540Y180700D01*
X-1743540Y182060D01*
X-1742060Y182880D01*
X-1740360Y183020D01*
X-1738779Y182440D01*
X-1736500Y181020D01*
X-1734379Y180260D01*
X-1731900Y179980D01*
X-1681180Y179980D01*
X-1678720Y180260D01*
X-1676579Y181020D01*
X-1674680Y182220D01*
X-1673080Y183800D01*
X-1671879Y185720D01*
X-1671140Y187840D01*
X-1670860Y190320D01*
X-1670860Y213480D01*
X-1671140Y215960D01*
X-1671879Y218080D01*
X-1673080Y220000D01*
X-1674680Y221580D01*
X-1676579Y222780D01*
X-1678720Y223540D01*
X-1681180Y223820D01*
X-1684940Y223820D01*
X-1686480Y224120D01*
X-1687780Y224980D01*
X-1688640Y226280D01*
X-1688940Y227820D01*
X-1688940Y295880D01*
X-1688640Y297420D01*
X-1687780Y298700D01*
X-1686480Y299580D01*
X-1684960Y299880D01*
X-1683420Y299580D01*
X-1682120Y298700D01*
X-1645960Y262540D01*
X-1645180Y261460D01*
X-1644820Y260159D01*
X-1644880Y258820D01*
X-1645400Y257600D01*
X-1646720Y255479D01*
X-1647460Y253359D01*
X-1647740Y250880D01*
X-1647740Y227719D01*
X-1647460Y225240D01*
X-1646720Y223120D01*
X-1645520Y221200D01*
X-1643920Y219620D01*
X-1642020Y218420D01*
X-1639880Y217659D01*
X-1637420Y217399D01*
X-1586699Y217399D01*
X-1582480Y217979D01*
X-1581000Y217620D01*
X-1579760Y216740D01*
X-1578940Y215460D01*
X-1578660Y213980D01*
X-1578660Y209800D01*
X-1578380Y207340D01*
X-1577640Y205200D01*
X-1576759Y203820D01*
X-1576220Y202440D01*
X-1576220Y200960D01*
X-1576759Y199579D01*
X-1577640Y198200D01*
X-1578380Y196060D01*
X-1578660Y193600D01*
X-1578660Y189820D01*
X-1578940Y188340D01*
X-1579760Y187060D01*
X-1580560Y186480D01*
X-1560220Y186480D01*
X-1560220Y195479D01*
X-1559920Y197000D01*
X-1559060Y198299D01*
X-1557760Y199180D01*
X-1556220Y199480D01*
X-1537580Y199480D01*
X-1536040Y199180D01*
X-1534740Y198299D01*
X-1533880Y197000D01*
X-1533580Y195479D01*
X-1533580Y186480D01*
X-1500920Y186480D01*
X-1500920Y195479D01*
X-1500620Y197000D01*
X-1499760Y198299D01*
X-1498460Y199180D01*
X-1496920Y199480D01*
X-1478280Y199480D01*
X-1476740Y199180D01*
X-1475440Y198299D01*
X-1474580Y197000D01*
X-1474280Y195479D01*
X-1474280Y186480D01*
X-1455840Y186480D01*
X-1455840Y193600D01*
X-1456120Y196060D01*
X-1456860Y198200D01*
X-1457740Y199579D01*
X-1458280Y200960D01*
X-1458280Y202440D01*
X-1457740Y203820D01*
X-1456860Y205200D01*
X-1456120Y207340D01*
X-1455840Y209800D01*
X-1455840Y244800D01*
X-1455540Y246340D01*
X-1454680Y247620D01*
X-1453380Y248500D01*
X-1451840Y248800D01*
X-1442160Y248800D01*
X-1440640Y248500D01*
X-1439340Y247620D01*
X-1423520Y231800D01*
X-1422640Y230500D01*
X-1422340Y228980D01*
X-1422340Y206480D01*
X-1422060Y204000D01*
X-1421320Y201880D01*
X-1420120Y199960D01*
X-1418520Y198359D01*
X-1416620Y197160D01*
X-1414340Y196380D01*
X-1412940Y195520D01*
X-1412000Y194200D01*
X-1411660Y192600D01*
X-1411660Y179540D01*
X-1411960Y178000D01*
X-1412840Y176700D01*
X-1414139Y175840D01*
X-1415660Y175539D01*
X-1417200Y175840D01*
X-1418480Y176700D01*
X-1421399Y179620D01*
X-1424560Y181820D01*
X-1428040Y183460D01*
X-1431759Y184440D01*
X-1435600Y184780D01*
X-1439440Y184440D01*
X-1443160Y183460D01*
X-1446639Y181820D01*
X-1449760Y179660D01*
X-1452520Y176900D01*
X-1454720Y173740D01*
X-1456360Y170260D01*
X-1457340Y166540D01*
X-1457440Y165440D01*
X-1457840Y164020D01*
X-1458720Y162840D01*
X-1459980Y162060D01*
X-1461420Y161800D01*
X-1474280Y161800D01*
X-1474280Y147040D01*
X-1474580Y145500D01*
X-1475440Y144220D01*
X-1510480Y109179D01*
X-1511780Y108300D01*
X-1513899Y108000D01*
X-1515220Y108219D01*
X-1516399Y108880D01*
X-1517300Y109880D01*
X-1518620Y111980D01*
X-1520200Y113580D01*
X-1522120Y114780D01*
X-1524240Y115520D01*
X-1526720Y115800D01*
X-1549880Y115800D01*
X-1552360Y115520D01*
X-1553680Y115060D01*
X-1555000Y114820D01*
X-1556320Y115060D01*
X-1557640Y115520D01*
X-1560120Y115800D01*
X-1583280Y115800D01*
X-1585760Y115520D01*
X-1587880Y114780D01*
X-1589800Y113580D01*
X-1591380Y111980D01*
X-1592700Y109880D01*
X-1593600Y108880D01*
X-1594780Y108219D01*
X-1596100Y108000D01*
X-1605900Y108000D01*
X-1607340Y108260D01*
X-1608580Y109040D01*
X-1609480Y110200D01*
X-1609880Y111600D01*
X-1610180Y114660D01*
X-1610920Y116780D01*
X-1612120Y118680D01*
X-1613720Y120280D01*
X-1615620Y121480D01*
X-1617760Y122220D01*
X-1620220Y122500D01*
X-1662780Y122500D01*
X-1665240Y122220D01*
X-1667380Y121480D01*
X-1669280Y120280D01*
X-1670880Y118680D01*
X-1671620Y117500D01*
X-1672720Y116340D01*
X-1674199Y115719D01*
X-1675800Y115719D01*
X-1677280Y116340D01*
X-1678380Y117500D01*
X-1679120Y118680D01*
X-1680720Y120280D01*
X-1682620Y121480D01*
X-1684760Y122220D01*
X-1687220Y122500D01*
X-1695240Y122500D01*
X-1695240Y105140D01*
X-1677100Y105140D01*
X-1675560Y104840D01*
X-1674280Y103980D01*
X-1673400Y102680D01*
X-1673100Y101140D01*
X-1673100Y84640D01*
X-1673400Y83120D01*
X-1674280Y81820D01*
X-1675560Y80960D01*
X-1677100Y80640D01*
X-1695240Y80640D01*
X-1695240Y63300D01*
X-1687220Y63300D01*
X-1684760Y63580D01*
X-1682620Y64320D01*
X-1680720Y65519D01*
X-1679120Y67120D01*
X-1678380Y68300D01*
X-1677280Y69460D01*
X-1675800Y70080D01*
X-1674199Y70080D01*
X-1672720Y69460D01*
X-1671620Y68300D01*
X-1670880Y67120D01*
X-1669280Y65519D01*
X-1667380Y64320D01*
X-1665240Y63580D01*
X-1662780Y63300D01*
X-1620220Y63300D01*
X-1617760Y63580D01*
X-1615620Y64320D01*
X-1613720Y65519D01*
X-1612120Y67120D01*
X-1610920Y69020D01*
X-1610180Y71140D01*
X-1609880Y74200D01*
X-1609480Y75600D01*
X-1608580Y76760D01*
X-1607340Y77540D01*
X-1605900Y77800D01*
X-1596100Y77800D01*
X-1594780Y77580D01*
X-1593600Y76920D01*
X-1592700Y75920D01*
X-1591380Y73820D01*
X-1589800Y72220D01*
X-1587880Y71020D01*
X-1585760Y70280D01*
X-1583280Y70000D01*
X-1560120Y70000D01*
X-1557640Y70280D01*
X-1556320Y70740D01*
X-1555000Y70980D01*
X-1553680Y70740D01*
X-1552360Y70280D01*
X-1549880Y70000D01*
X-1526720Y70000D01*
X-1524240Y70280D01*
X-1522120Y71020D01*
X-1520200Y72220D01*
X-1518620Y73820D01*
X-1517300Y75920D01*
X-1516399Y76920D01*
X-1515220Y77580D01*
X-1513899Y77800D01*
X-1505600Y77800D01*
X-1502460Y78100D01*
X-1499620Y78960D01*
X-1497020Y80360D01*
X-1494580Y82360D01*
X-1437440Y139520D01*
X-1436300Y140320D01*
X-1434960Y140680D01*
X-1431759Y140960D01*
X-1428040Y141940D01*
X-1426399Y142720D01*
X-1424840Y143100D01*
X-1423260Y142820D01*
X-1421920Y141980D01*
X-1421020Y140660D01*
X-1420700Y139100D01*
X-1420700Y115520D01*
X-1420420Y113059D01*
X-1419680Y110920D01*
X-1418480Y109019D01*
X-1416879Y107420D01*
X-1414980Y106220D01*
X-1412840Y105480D01*
X-1410380Y105200D01*
X-1389360Y105200D01*
X-1387840Y104900D01*
X-1386540Y104019D01*
X-1385680Y102739D01*
X-1385360Y101199D01*
X-1385680Y99660D01*
X-1386540Y98379D01*
X-1411020Y73860D01*
X-1413280Y70880D01*
X-1414400Y69860D01*
X-1416900Y68360D01*
X-1418480Y66780D01*
X-1419680Y64880D01*
X-1420420Y62740D01*
X-1420700Y60279D01*
X-1420700Y36220D01*
X-1421000Y34680D01*
X-1421879Y33380D01*
X-1446080Y9180D01*
X-1447380Y8300D01*
X-1448920Y8000D01*
X-1513899Y8000D01*
X-1515220Y8220D01*
X-1516399Y8880D01*
X-1517300Y9880D01*
X-1518620Y11980D01*
X-1520200Y13580D01*
X-1522120Y14780D01*
X-1524240Y15520D01*
X-1526720Y15800D01*
X-1549880Y15800D01*
X-1552360Y15520D01*
X-1553680Y15060D01*
X-1555000Y14820D01*
X-1556320Y15060D01*
X-1557640Y15520D01*
X-1560120Y15800D01*
X-1583280Y15800D01*
X-1585760Y15520D01*
X-1587880Y14780D01*
X-1589800Y13580D01*
X-1591380Y11980D01*
X-1592700Y9880D01*
X-1593600Y8880D01*
X-1594780Y8220D01*
X-1596100Y8000D01*
X-1605900Y8000D01*
X-1607340Y8260D01*
X-1608580Y9040D01*
X-1609480Y10200D01*
X-1609880Y11600D01*
X-1610180Y14660D01*
X-1610920Y16780D01*
X-1612120Y18680D01*
X-1613720Y20280D01*
X-1615620Y21480D01*
X-1617760Y22220D01*
X-1620220Y22500D01*
X-1662780Y22500D01*
X-1665240Y22220D01*
X-1667380Y21480D01*
X-1669280Y20280D01*
X-1670880Y18680D01*
X-1671620Y17500D01*
X-1672720Y16339D01*
X-1674199Y15720D01*
X-1675800Y15720D01*
X-1677280Y16339D01*
X-1678380Y17500D01*
X-1679120Y18680D01*
X-1680720Y20280D01*
X-1682620Y21480D01*
X-1684760Y22220D01*
X-1687220Y22500D01*
X-1695240Y22500D01*
X-1695240Y5140D01*
X-1677100Y5140D01*
X-1675560Y4840D01*
X-1674280Y3980D01*
X-1673400Y2680D01*
X-1673100Y1140D01*
X-1673100Y-15360D01*
X-1673400Y-16880D01*
X-1674280Y-18180D01*
X-1675560Y-19040D01*
X-1677100Y-19360D01*
X-1695240Y-19360D01*
X-1695240Y-36700D01*
X-1687220Y-36700D01*
X-1684760Y-36420D01*
X-1682620Y-35680D01*
X-1680720Y-34480D01*
X-1679120Y-32880D01*
X-1678380Y-31700D01*
X-1677280Y-30540D01*
X-1675800Y-29920D01*
X-1674199Y-29920D01*
X-1672720Y-30540D01*
X-1671620Y-31700D01*
X-1670880Y-32880D01*
X-1669280Y-34480D01*
X-1667380Y-35680D01*
X-1665240Y-36420D01*
X-1662780Y-36700D01*
X-1620220Y-36700D01*
X-1617760Y-36420D01*
X-1615620Y-35680D01*
X-1613720Y-34480D01*
X-1612120Y-32880D01*
X-1610920Y-30980D01*
X-1610180Y-28860D01*
X-1609880Y-25800D01*
X-1609480Y-24400D01*
X-1608580Y-23240D01*
X-1607340Y-22460D01*
X-1605900Y-22200D01*
X-1596100Y-22200D01*
X-1594780Y-22420D01*
X-1593600Y-23080D01*
X-1592700Y-24080D01*
X-1591380Y-26180D01*
X-1589800Y-27780D01*
X-1587880Y-28980D01*
X-1585760Y-29720D01*
X-1583280Y-30000D01*
X-1560120Y-30000D01*
X-1557640Y-29720D01*
X-1556320Y-29260D01*
X-1555000Y-29020D01*
X-1553680Y-29260D01*
X-1552360Y-29720D01*
X-1549880Y-30000D01*
X-1526720Y-30000D01*
X-1524240Y-29720D01*
X-1522120Y-28980D01*
X-1520200Y-27780D01*
X-1518620Y-26180D01*
X-1517300Y-24080D01*
X-1516399Y-23080D01*
X-1515220Y-22420D01*
X-1513899Y-22200D01*
X-1441200Y-22200D01*
X-1438060Y-21900D01*
X-1435220Y-21040D01*
X-1432620Y-19640D01*
X-1430180Y-17640D01*
X-1410520Y2020D01*
X-1409220Y2900D01*
X-1407680Y3200D01*
X-1383620Y3200D01*
X-1381160Y3479D01*
X-1379820Y3940D01*
X-1378500Y4180D01*
X-1377180Y3940D01*
X-1375840Y3479D01*
X-1373380Y3200D01*
X-1369300Y3200D01*
X-1369300Y22599D01*
X-1370840Y22900D01*
X-1372120Y23780D01*
X-1373000Y25059D01*
X-1373300Y26600D01*
X-1373300Y47200D01*
X-1373000Y48740D01*
X-1372120Y50020D01*
X-1370840Y50900D01*
X-1369300Y51200D01*
X-1369300Y59940D01*
X-1369000Y61460D01*
X-1368120Y62760D01*
X-1363260Y67620D01*
X-1361960Y68500D01*
X-1360440Y68800D01*
X-1354700Y68800D01*
X-1353160Y68500D01*
X-1351879Y67620D01*
X-1351000Y66340D01*
X-1350700Y64800D01*
X-1350700Y51200D01*
X-1349160Y50900D01*
X-1347880Y50020D01*
X-1347000Y48740D01*
X-1346699Y47200D01*
X-1346699Y26600D01*
X-1347000Y25059D01*
X-1347880Y23780D01*
X-1349160Y22900D01*
X-1350700Y22599D01*
X-1350700Y3200D01*
X-1346540Y3200D01*
X-1344880Y3040D01*
X-1343440Y2220D01*
X-1342440Y859D01*
X-1342100Y-760D01*
X-1342100Y-11339D01*
X-1342400Y-12880D01*
X-1343280Y-14180D01*
X-1344560Y-15040D01*
X-1346100Y-15340D01*
X-1351900Y-15340D01*
X-1354360Y-15620D01*
X-1356500Y-16359D01*
X-1357880Y-17240D01*
X-1359259Y-17780D01*
X-1360740Y-17780D01*
X-1362120Y-17240D01*
X-1363500Y-16359D01*
X-1365640Y-15620D01*
X-1368100Y-15340D01*
X-1375220Y-15340D01*
X-1375220Y-33780D01*
X-1366220Y-33780D01*
X-1364700Y-34080D01*
X-1363400Y-34940D01*
X-1362520Y-36240D01*
X-1362220Y-37780D01*
X-1362220Y-56420D01*
X-1362520Y-57960D01*
X-1363400Y-59260D01*
X-1364700Y-60119D01*
X-1366220Y-60420D01*
X-1375220Y-60420D01*
X-1375220Y-78860D01*
X-1368100Y-78860D01*
X-1365640Y-78580D01*
X-1363500Y-77840D01*
X-1362120Y-76960D01*
X-1360740Y-76420D01*
X-1359259Y-76420D01*
X-1357880Y-76960D01*
X-1356500Y-77840D01*
X-1354220Y-78620D01*
X-1352820Y-79480D01*
X-1351879Y-80800D01*
X-1351540Y-82400D01*
X-1351519Y-118160D01*
X-1351020Y-121800D01*
X-1349900Y-125140D01*
X-1348160Y-128240D01*
X-1346519Y-130320D01*
X-1343700Y-133180D01*
X-1342840Y-134460D01*
X-1342540Y-135980D01*
X-1342540Y-143860D01*
X-1342840Y-145400D01*
X-1343720Y-146700D01*
X-1344560Y-147540D01*
X-1346560Y-149980D01*
X-1347960Y-152580D01*
X-1348820Y-155420D01*
X-1349120Y-158560D01*
X-1349120Y-184060D01*
X-1349420Y-185600D01*
X-1350300Y-186880D01*
X-1351339Y-187940D01*
X-1352540Y-189860D01*
X-1353300Y-191980D01*
X-1353560Y-194440D01*
X-1353560Y-209760D01*
X-1353300Y-212220D01*
X-1352540Y-214340D01*
X-1351339Y-216260D01*
X-1349760Y-217860D01*
X-1347840Y-219060D01*
X-1345720Y-219800D01*
X-1343240Y-220080D01*
X-1324800Y-220080D01*
X-1322320Y-219800D01*
X-1320200Y-219060D01*
X-1318280Y-217860D01*
X-1316699Y-216260D01*
X-1315500Y-214340D01*
X-1314740Y-212220D01*
X-1314460Y-209760D01*
X-1314460Y-194440D01*
X-1314740Y-191980D01*
X-1315500Y-189860D01*
X-1316699Y-187940D01*
X-1317740Y-186880D01*
X-1318620Y-185580D01*
X-1318920Y-184060D01*
X-1318920Y-170880D01*
X-1318620Y-169360D01*
X-1317740Y-168060D01*
X-1316459Y-167180D01*
X-1314920Y-166880D01*
X-1293300Y-166880D01*
X-1290820Y-166600D01*
X-1288700Y-165859D01*
X-1286780Y-164660D01*
X-1285200Y-163060D01*
X-1284000Y-161160D01*
X-1283200Y-158880D01*
X-1282360Y-157480D01*
X-1281020Y-156540D01*
X-1279420Y-156200D01*
X-1009560Y-156200D01*
X-1008040Y-156500D01*
X-1006740Y-157380D01*
X-981979Y-182120D01*
X-981340Y-182960D01*
X-980759Y-184660D01*
X-979120Y-188140D01*
X-976919Y-191300D01*
X-974200Y-194020D01*
X-971900Y-195620D01*
X-970759Y-196840D01*
X-970220Y-198440D01*
X-970380Y-200100D01*
X-971200Y-201560D01*
X-972560Y-202540D01*
X-974200Y-202900D01*
X-1004400Y-202900D01*
X-1006860Y-203180D01*
X-1007600Y-203440D01*
X-1009060Y-203660D01*
X-1010520Y-203320D01*
X-1011740Y-202480D01*
X-1041180Y-173080D01*
X-1044100Y-170880D01*
X-1047240Y-169300D01*
X-1050640Y-168340D01*
X-1054320Y-168000D01*
X-1210740Y-168020D01*
X-1214360Y-168520D01*
X-1217700Y-169640D01*
X-1220780Y-171360D01*
X-1223640Y-173720D01*
X-1299019Y-249140D01*
X-1301220Y-252060D01*
X-1302800Y-255200D01*
X-1303760Y-258600D01*
X-1304100Y-262280D01*
X-1304100Y-330600D01*
X-1304400Y-332120D01*
X-1305280Y-333420D01*
X-1306560Y-334300D01*
X-1308100Y-334600D01*
X-1322180Y-334600D01*
X-1324640Y-334880D01*
X-1326780Y-335620D01*
X-1328680Y-336820D01*
X-1330280Y-338420D01*
X-1331480Y-340319D01*
X-1332220Y-342460D01*
X-1332500Y-344920D01*
X-1332500Y-419280D01*
X-1332220Y-421740D01*
X-1331480Y-423880D01*
X-1330220Y-425880D01*
X-1329640Y-427460D01*
X-1329780Y-429159D01*
X-1330600Y-430640D01*
X-1331960Y-431640D01*
X-1333600Y-432000D01*
X-1361860Y-432000D01*
X-1363580Y-431599D01*
X-1364840Y-430620D01*
X-1366260Y-431700D01*
X-1367800Y-432000D01*
X-1402200Y-432000D01*
X-1403740Y-431700D01*
X-1405020Y-430820D01*
X-1405240Y-430580D01*
X-1406620Y-431620D01*
X-1408300Y-432000D01*
X-1623240Y-432000D01*
X-1624880Y-431659D01*
X-1626220Y-430660D01*
X-1627060Y-429219D01*
X-1627220Y-427540D01*
X-1626680Y-425959D01*
X-1625560Y-424739D01*
X-1622080Y-422280D01*
X-1618520Y-418960D01*
X-1615440Y-415180D01*
X-1612920Y-411019D01*
X-1612420Y-409900D01*
X-1638160Y-409900D01*
X-1638160Y-428000D01*
X-1638460Y-429540D01*
X-1639319Y-430820D01*
X-1640620Y-431700D01*
X-1642160Y-432000D01*
X-1682460Y-432000D01*
X-1684000Y-431700D01*
X-1685300Y-430820D01*
X-1686160Y-429540D01*
X-1686459Y-428000D01*
X-1686459Y-409900D01*
X-1712200Y-409900D01*
X-1711699Y-411019D01*
X-1709180Y-415180D01*
X-1706100Y-418960D01*
X-1702540Y-422280D01*
X-1699060Y-424739D01*
X-1697940Y-425959D01*
X-1697400Y-427540D01*
X-1697560Y-429219D01*
X-1698400Y-430660D01*
X-1699740Y-431659D01*
X-1701380Y-432000D01*
G37*

%LPC*%
G36*
X-1406200Y-424640D02*
G01*
X-1406200Y-403300D01*
X-1427420Y-403300D01*
X-1426840Y-404560D01*
X-1423760Y-409540D01*
X-1420100Y-414099D01*
X-1415900Y-418160D01*
X-1411240Y-421700D01*
G37*
G36*
X-1363800Y-424540D02*
G01*
X-1361260Y-423240D01*
X-1356380Y-420000D01*
X-1351940Y-416200D01*
X-1348000Y-411880D01*
X-1344620Y-407100D01*
X-1342580Y-403300D01*
X-1363800Y-403300D01*
G37*
G36*
X-1540720Y-379980D02*
G01*
X-1537100Y-378060D01*
X-1533080Y-375140D01*
X-1529500Y-371680D01*
X-1526420Y-367760D01*
X-1523800Y-363100D01*
X-1540720Y-363100D01*
G37*
G36*
X-1571300Y-379980D02*
G01*
X-1571300Y-363100D01*
X-1588220Y-363100D01*
X-1585600Y-367760D01*
X-1582520Y-371680D01*
X-1578940Y-375140D01*
X-1574920Y-378060D01*
G37*
G36*
X-1712200Y-379300D02*
G01*
X-1686459Y-379300D01*
X-1686459Y-364520D01*
X-1699139Y-364520D01*
X-1702540Y-366920D01*
X-1706100Y-370240D01*
X-1709180Y-374020D01*
X-1711699Y-378180D01*
G37*
G36*
X-1638160Y-379300D02*
G01*
X-1612420Y-379300D01*
X-1612920Y-378180D01*
X-1615440Y-374020D01*
X-1618520Y-370240D01*
X-1622080Y-366920D01*
X-1626060Y-364120D01*
X-1630380Y-361880D01*
X-1634960Y-360240D01*
X-1638160Y-359580D01*
G37*
G36*
X-1363800Y-360900D02*
G01*
X-1342580Y-360900D01*
X-1344620Y-357100D01*
X-1348000Y-352320D01*
X-1351940Y-348000D01*
X-1356380Y-344200D01*
X-1361260Y-340959D01*
X-1363800Y-339700D01*
G37*
G36*
X-1427420Y-360900D02*
G01*
X-1406200Y-360900D01*
X-1406200Y-339600D01*
X-1411240Y-342500D01*
X-1415900Y-346040D01*
X-1420100Y-350100D01*
X-1423760Y-354660D01*
X-1426840Y-359640D01*
G37*
G36*
X-1718280Y-356520D02*
G01*
X-1709180Y-356520D01*
X-1709180Y-333160D01*
X-1728600Y-333160D01*
X-1728600Y-346200D01*
X-1728320Y-348660D01*
X-1727580Y-350780D01*
X-1726380Y-352700D01*
X-1724780Y-354300D01*
X-1722880Y-355500D01*
X-1720740Y-356240D01*
G37*
G36*
X-1680560Y-350940D02*
G01*
X-1662260Y-350900D01*
X-1661440Y-348660D01*
X-1661160Y-346200D01*
X-1661160Y-333160D01*
X-1680560Y-333160D01*
G37*
G36*
X-1540720Y-332500D02*
G01*
X-1523860Y-332500D01*
X-1525200Y-329820D01*
X-1540720Y-329820D01*
G37*
G36*
X-1588160Y-332500D02*
G01*
X-1571300Y-332500D01*
X-1571300Y-309840D01*
X-1574580Y-309800D01*
X-1574580Y-311480D01*
X-1574220Y-314500D01*
X-1574319Y-316000D01*
X-1574980Y-317340D01*
X-1576080Y-318360D01*
X-1576980Y-318940D01*
X-1580800Y-322140D01*
X-1584120Y-325840D01*
X-1586920Y-329960D01*
G37*
G36*
X-1385980Y-324180D02*
G01*
X-1382140Y-323840D01*
X-1378420Y-322860D01*
X-1374940Y-321220D01*
X-1370360Y-317960D01*
X-1368660Y-316260D01*
X-1367340Y-314180D01*
X-1365220Y-309660D01*
X-1364240Y-305940D01*
X-1363899Y-302100D01*
X-1364240Y-298260D01*
X-1365220Y-294540D01*
X-1367340Y-290020D01*
X-1368660Y-287940D01*
X-1370360Y-286240D01*
X-1374940Y-282980D01*
X-1378420Y-281340D01*
X-1379860Y-280960D01*
X-1381399Y-280160D01*
X-1382440Y-278800D01*
X-1382820Y-277100D01*
X-1382440Y-275400D01*
X-1381399Y-274040D01*
X-1379860Y-273240D01*
X-1378420Y-272860D01*
X-1374940Y-271220D01*
X-1370360Y-267960D01*
X-1368660Y-266260D01*
X-1367340Y-264180D01*
X-1365220Y-259660D01*
X-1364240Y-255940D01*
X-1363899Y-252100D01*
X-1364240Y-248260D01*
X-1365220Y-244540D01*
X-1367340Y-240020D01*
X-1368660Y-237940D01*
X-1370360Y-236240D01*
X-1374940Y-232979D01*
X-1378420Y-231340D01*
X-1382140Y-230360D01*
X-1385320Y-230080D01*
X-1386680Y-229720D01*
X-1387800Y-228920D01*
X-1392040Y-224700D01*
X-1392900Y-223400D01*
X-1393200Y-221860D01*
X-1393200Y-208540D01*
X-1405740Y-208540D01*
X-1406680Y-210040D01*
X-1408160Y-211000D01*
X-1409920Y-211220D01*
X-1412180Y-211000D01*
X-1444440Y-211000D01*
X-1445960Y-210700D01*
X-1447260Y-209820D01*
X-1448120Y-208520D01*
X-1448440Y-207000D01*
X-1448120Y-205460D01*
X-1447260Y-204180D01*
X-1411140Y-168060D01*
X-1409840Y-167180D01*
X-1408320Y-166880D01*
X-1387780Y-166880D01*
X-1385320Y-166600D01*
X-1383180Y-165859D01*
X-1381279Y-164660D01*
X-1379680Y-163060D01*
X-1378480Y-161160D01*
X-1377740Y-159020D01*
X-1377460Y-156560D01*
X-1377460Y-117640D01*
X-1377740Y-115180D01*
X-1378480Y-113040D01*
X-1379680Y-111140D01*
X-1381279Y-109540D01*
X-1383180Y-108340D01*
X-1385320Y-107600D01*
X-1387780Y-107320D01*
X-1426699Y-107320D01*
X-1429180Y-107600D01*
X-1431300Y-108340D01*
X-1433220Y-109540D01*
X-1434800Y-111140D01*
X-1436000Y-113040D01*
X-1436759Y-115180D01*
X-1437020Y-117640D01*
X-1437020Y-138260D01*
X-1437340Y-139800D01*
X-1438200Y-141080D01*
X-1477340Y-180240D01*
X-1478640Y-181100D01*
X-1480180Y-181400D01*
X-1521960Y-181400D01*
X-1523580Y-181060D01*
X-1524940Y-180080D01*
X-1525760Y-178640D01*
X-1525940Y-176980D01*
X-1525420Y-175400D01*
X-1523800Y-172500D01*
X-1540720Y-172500D01*
X-1540720Y-177560D01*
X-1541020Y-179080D01*
X-1541879Y-180380D01*
X-1543180Y-181240D01*
X-1544720Y-181560D01*
X-1564259Y-181560D01*
X-1566860Y-181840D01*
X-1568520Y-181680D01*
X-1569980Y-180859D01*
X-1570960Y-179500D01*
X-1571300Y-177860D01*
X-1571300Y-172500D01*
X-1588220Y-172500D01*
X-1585600Y-177160D01*
X-1582520Y-181080D01*
X-1578940Y-184540D01*
X-1576040Y-186640D01*
X-1575060Y-187659D01*
X-1574500Y-188939D01*
X-1574420Y-190320D01*
X-1574580Y-191880D01*
X-1574580Y-209140D01*
X-1574319Y-211620D01*
X-1573959Y-213299D01*
X-1574319Y-215000D01*
X-1574580Y-217460D01*
X-1574580Y-234740D01*
X-1574319Y-237200D01*
X-1573959Y-238900D01*
X-1574319Y-240580D01*
X-1574580Y-243060D01*
X-1574580Y-260320D01*
X-1574319Y-262800D01*
X-1573959Y-264480D01*
X-1574319Y-266180D01*
X-1574580Y-268640D01*
X-1574580Y-285920D01*
X-1574319Y-288380D01*
X-1573959Y-290080D01*
X-1574319Y-291760D01*
X-1574580Y-294240D01*
X-1574580Y-295940D01*
X-1566680Y-295960D01*
X-1564259Y-296240D01*
X-1485980Y-296240D01*
X-1483100Y-295940D01*
X-1475640Y-295940D01*
X-1475640Y-294240D01*
X-1475920Y-291760D01*
X-1476279Y-290080D01*
X-1475920Y-288380D01*
X-1475640Y-285920D01*
X-1475640Y-270800D01*
X-1475340Y-269260D01*
X-1474480Y-267960D01*
X-1473180Y-267100D01*
X-1471639Y-266800D01*
X-1444300Y-266800D01*
X-1442760Y-267100D01*
X-1441480Y-267960D01*
X-1409160Y-300260D01*
X-1408360Y-301400D01*
X-1408000Y-302740D01*
X-1407720Y-305940D01*
X-1406740Y-309660D01*
X-1404620Y-314180D01*
X-1403300Y-316260D01*
X-1401600Y-317960D01*
X-1397020Y-321220D01*
X-1393540Y-322860D01*
X-1389820Y-323840D01*
G37*
G36*
X-1502940Y-321820D02*
G01*
X-1485980Y-321820D01*
X-1483500Y-321560D01*
X-1481380Y-320800D01*
X-1479460Y-319600D01*
X-1477880Y-318020D01*
X-1476680Y-316100D01*
X-1475920Y-313980D01*
X-1475640Y-311500D01*
X-1475640Y-309800D01*
X-1502940Y-309800D01*
G37*
G36*
X-1326800Y-320080D02*
G01*
X-1324800Y-320080D01*
X-1322320Y-319800D01*
X-1320200Y-319060D01*
X-1318280Y-317860D01*
X-1316699Y-316260D01*
X-1315500Y-314340D01*
X-1314740Y-312220D01*
X-1314460Y-309760D01*
X-1314460Y-308540D01*
X-1326800Y-308540D01*
G37*
G36*
X-1343240Y-320080D02*
G01*
X-1341240Y-320080D01*
X-1341240Y-308540D01*
X-1353560Y-308540D01*
X-1353560Y-309760D01*
X-1353300Y-312220D01*
X-1352540Y-314340D01*
X-1351339Y-316260D01*
X-1349760Y-317860D01*
X-1347840Y-319060D01*
X-1345720Y-319800D01*
G37*
G36*
X-1728600Y-296680D02*
G01*
X-1709180Y-296680D01*
X-1709180Y-273320D01*
X-1718280Y-273320D01*
X-1720740Y-273600D01*
X-1722880Y-274340D01*
X-1724780Y-275540D01*
X-1726380Y-277140D01*
X-1727580Y-279060D01*
X-1728320Y-281180D01*
X-1728600Y-283640D01*
G37*
G36*
X-1680560Y-296680D02*
G01*
X-1661160Y-296680D01*
X-1661160Y-283640D01*
X-1661440Y-281180D01*
X-1662180Y-279060D01*
X-1663380Y-277140D01*
X-1664980Y-275540D01*
X-1666879Y-274340D01*
X-1669019Y-273600D01*
X-1671480Y-273320D01*
X-1680560Y-273320D01*
G37*
G36*
X-1353560Y-295660D02*
G01*
X-1341240Y-295660D01*
X-1341240Y-284120D01*
X-1343240Y-284120D01*
X-1345720Y-284400D01*
X-1347840Y-285140D01*
X-1349760Y-286340D01*
X-1351339Y-287940D01*
X-1352540Y-289860D01*
X-1353300Y-291980D01*
X-1353560Y-294440D01*
G37*
G36*
X-1326800Y-295660D02*
G01*
X-1314460Y-295660D01*
X-1314460Y-294440D01*
X-1314740Y-291980D01*
X-1315500Y-289860D01*
X-1316699Y-287940D01*
X-1318280Y-286340D01*
X-1320200Y-285140D01*
X-1322320Y-284400D01*
X-1324800Y-284120D01*
X-1326800Y-284120D01*
G37*
G36*
X-1326800Y-270080D02*
G01*
X-1324800Y-270080D01*
X-1322320Y-269800D01*
X-1320200Y-269060D01*
X-1318280Y-267860D01*
X-1316699Y-266260D01*
X-1315500Y-264340D01*
X-1314740Y-262220D01*
X-1314460Y-259760D01*
X-1314460Y-258540D01*
X-1326800Y-258540D01*
G37*
G36*
X-1343240Y-270080D02*
G01*
X-1341240Y-270080D01*
X-1341240Y-258540D01*
X-1353560Y-258540D01*
X-1353560Y-259760D01*
X-1353300Y-262220D01*
X-1352540Y-264340D01*
X-1351339Y-266260D01*
X-1349760Y-267860D01*
X-1347840Y-269060D01*
X-1345720Y-269800D01*
G37*
G36*
X-1353560Y-245660D02*
G01*
X-1341240Y-245660D01*
X-1341240Y-234120D01*
X-1343240Y-234120D01*
X-1345720Y-234400D01*
X-1347840Y-235140D01*
X-1349760Y-236340D01*
X-1351339Y-237940D01*
X-1352540Y-239860D01*
X-1353300Y-241980D01*
X-1353560Y-244440D01*
G37*
G36*
X-1326800Y-245660D02*
G01*
X-1314460Y-245660D01*
X-1314460Y-244440D01*
X-1314740Y-241980D01*
X-1315500Y-239860D01*
X-1316699Y-237940D01*
X-1318280Y-236340D01*
X-1320200Y-235140D01*
X-1322320Y-234400D01*
X-1324800Y-234120D01*
X-1326800Y-234120D01*
G37*
G36*
X-1679920Y-227440D02*
G01*
X-1670840Y-227440D01*
X-1668380Y-227160D01*
X-1666240Y-226420D01*
X-1664340Y-225219D01*
X-1662740Y-223619D01*
X-1661540Y-221700D01*
X-1660800Y-219579D01*
X-1660520Y-217120D01*
X-1660520Y-204080D01*
X-1679920Y-204080D01*
G37*
G36*
X-1717640Y-227440D02*
G01*
X-1708540Y-227440D01*
X-1708540Y-204080D01*
X-1727960Y-204080D01*
X-1727960Y-217120D01*
X-1727680Y-219579D01*
X-1726940Y-221700D01*
X-1725740Y-223619D01*
X-1724139Y-225219D01*
X-1722240Y-226420D01*
X-1720100Y-227160D01*
G37*
G36*
X-1378760Y-220080D02*
G01*
X-1376759Y-220080D01*
X-1374280Y-219800D01*
X-1372160Y-219060D01*
X-1370240Y-217860D01*
X-1368660Y-216260D01*
X-1367460Y-214340D01*
X-1366699Y-212220D01*
X-1366420Y-209760D01*
X-1366420Y-208540D01*
X-1378760Y-208540D01*
G37*
G36*
X-1405520Y-195660D02*
G01*
X-1393200Y-195660D01*
X-1393200Y-184120D01*
X-1395200Y-184120D01*
X-1397680Y-184400D01*
X-1399800Y-185140D01*
X-1401720Y-186340D01*
X-1403300Y-187940D01*
X-1404500Y-189860D01*
X-1405260Y-191980D01*
X-1405520Y-194440D01*
G37*
G36*
X-1378760Y-195660D02*
G01*
X-1366420Y-195660D01*
X-1366420Y-194440D01*
X-1366699Y-191980D01*
X-1367460Y-189860D01*
X-1368660Y-187940D01*
X-1370240Y-186340D01*
X-1372160Y-185140D01*
X-1374280Y-184400D01*
X-1376759Y-184120D01*
X-1378760Y-184120D01*
G37*
G36*
X-1679920Y-167600D02*
G01*
X-1660520Y-167600D01*
X-1660520Y-154560D01*
X-1660660Y-153300D01*
X-1679920Y-153300D01*
G37*
G36*
X-1727960Y-167600D02*
G01*
X-1708540Y-167600D01*
X-1708540Y-144240D01*
X-1717640Y-144240D01*
X-1720100Y-144520D01*
X-1722240Y-145260D01*
X-1724139Y-146460D01*
X-1725740Y-148060D01*
X-1726940Y-149980D01*
X-1727680Y-152100D01*
X-1727960Y-154560D01*
G37*
G36*
X-1638160Y-144620D02*
G01*
X-1634960Y-143960D01*
X-1630380Y-142320D01*
X-1626060Y-140080D01*
X-1622080Y-137280D01*
X-1618520Y-133960D01*
X-1615440Y-130180D01*
X-1612920Y-126020D01*
X-1612420Y-124900D01*
X-1638160Y-124900D01*
G37*
G36*
X-1588160Y-141900D02*
G01*
X-1571300Y-141900D01*
X-1571300Y-125040D01*
X-1572760Y-125700D01*
X-1576980Y-128340D01*
X-1580800Y-131540D01*
X-1584120Y-135240D01*
X-1586920Y-139360D01*
G37*
G36*
X-1540720Y-141900D02*
G01*
X-1523860Y-141900D01*
X-1525100Y-139360D01*
X-1527900Y-135240D01*
X-1531220Y-131540D01*
X-1535040Y-128340D01*
X-1539259Y-125700D01*
X-1540720Y-125040D01*
G37*
G36*
X-1703660Y-136240D02*
G01*
X-1686459Y-136240D01*
X-1686459Y-124900D01*
X-1712200Y-124900D01*
X-1711699Y-126020D01*
X-1709180Y-130180D01*
X-1706100Y-133960D01*
G37*
G36*
X-1712200Y-94300D02*
G01*
X-1686459Y-94300D01*
X-1686459Y-74580D01*
X-1689660Y-75240D01*
X-1694240Y-76880D01*
X-1698560Y-79120D01*
X-1702540Y-81920D01*
X-1706100Y-85239D01*
X-1709180Y-89019D01*
X-1711699Y-93180D01*
G37*
G36*
X-1638160Y-94300D02*
G01*
X-1612420Y-94300D01*
X-1612920Y-93180D01*
X-1615440Y-89019D01*
X-1618520Y-85239D01*
X-1622080Y-81920D01*
X-1626060Y-79120D01*
X-1630380Y-76880D01*
X-1634960Y-75240D01*
X-1638160Y-74580D01*
G37*
G36*
X-1407020Y-78860D02*
G01*
X-1399900Y-78860D01*
X-1399900Y-60420D01*
X-1417340Y-60420D01*
X-1417340Y-68520D01*
X-1417060Y-71000D01*
X-1416320Y-73120D01*
X-1415120Y-75040D01*
X-1413520Y-76640D01*
X-1411620Y-77840D01*
X-1409480Y-78580D01*
G37*
G36*
X-1417340Y-33780D02*
G01*
X-1399900Y-33780D01*
X-1399900Y-15340D01*
X-1407020Y-15340D01*
X-1409480Y-15620D01*
X-1411620Y-16359D01*
X-1413520Y-17560D01*
X-1415120Y-19160D01*
X-1416320Y-21080D01*
X-1417060Y-23200D01*
X-1417340Y-25680D01*
G37*
G36*
X-1637420Y142580D02*
G01*
X-1627360Y142580D01*
X-1627360Y156100D01*
X-1647740Y156100D01*
X-1647740Y152920D01*
X-1647460Y150440D01*
X-1646720Y148320D01*
X-1645520Y146400D01*
X-1643920Y144820D01*
X-1642020Y143600D01*
X-1639880Y142860D01*
G37*
G36*
X-1596759Y142580D02*
G01*
X-1586699Y142580D01*
X-1584220Y142860D01*
X-1582100Y143600D01*
X-1580180Y144820D01*
X-1579280Y145700D01*
X-1578200Y146480D01*
X-1576900Y146860D01*
X-1575580Y146780D01*
X-1574340Y146260D01*
X-1572920Y145380D01*
X-1570800Y144640D01*
X-1568320Y144360D01*
X-1560220Y144360D01*
X-1560220Y161800D01*
X-1568360Y161800D01*
X-1568360Y160100D01*
X-1568660Y158560D01*
X-1569540Y157260D01*
X-1570840Y156400D01*
X-1572360Y156100D01*
X-1596759Y156100D01*
G37*
G36*
X-1533580Y144360D02*
G01*
X-1525480Y144360D01*
X-1523000Y144640D01*
X-1520880Y145380D01*
X-1519379Y146320D01*
X-1518000Y146860D01*
X-1516500Y146860D01*
X-1515120Y146320D01*
X-1513620Y145380D01*
X-1511500Y144640D01*
X-1509019Y144360D01*
X-1500920Y144360D01*
X-1500920Y161800D01*
X-1533580Y161800D01*
G37*
G36*
X-1596759Y172900D02*
G01*
X-1586660Y172900D01*
X-1586660Y182480D01*
X-1586339Y184020D01*
X-1585480Y185320D01*
X-1584240Y186140D01*
X-1586699Y186400D01*
X-1596759Y186400D01*
G37*
G36*
X-1647740Y172900D02*
G01*
X-1627360Y172900D01*
X-1627360Y186400D01*
X-1637420Y186400D01*
X-1639880Y186140D01*
X-1642020Y185380D01*
X-1643920Y184180D01*
X-1645520Y182600D01*
X-1646720Y180680D01*
X-1647460Y178560D01*
X-1647740Y176080D01*
G37*

%LPD*%
G36*
X-86180Y-432000D02*
G01*
X-87800Y-431659D01*
X-89160Y-430660D01*
X-89980Y-429219D01*
X-90140Y-427440D01*
X-90140Y-374660D01*
X-89840Y-373140D01*
X-88960Y-371840D01*
X-87660Y-370959D01*
X-86140Y-370660D01*
X-21760Y-370660D01*
X-19300Y-370379D01*
X-17160Y-369640D01*
X-15280Y-368459D01*
X-13620Y-367860D01*
X-11880Y-368040D01*
X-10380Y-368960D01*
X-9400Y-370420D01*
X-8980Y-371560D01*
X-7600Y-373560D01*
X-6440Y-374700D01*
X-4440Y-376079D01*
X-2300Y-376900D01*
X240Y-377200D01*
X264760Y-377200D01*
X267300Y-376900D01*
X269440Y-376079D01*
X271440Y-374700D01*
X272640Y-373500D01*
X273660Y-372100D01*
X274640Y-369940D01*
X275100Y-367040D01*
X275100Y372660D01*
X274800Y375200D01*
X273980Y377340D01*
X272600Y379340D01*
X271400Y380540D01*
X270000Y381560D01*
X267840Y382540D01*
X264940Y383000D01*
X240Y383000D01*
X-2300Y382700D01*
X-4440Y381880D01*
X-5160Y381380D01*
X-6760Y380720D01*
X-8480Y380820D01*
X-10020Y381620D01*
X-11060Y382980D01*
X-11439Y384680D01*
X-11439Y426140D01*
X-11720Y428600D01*
X-12460Y430740D01*
X-13040Y431680D01*
X-13620Y433260D01*
X-13500Y434960D01*
X-12680Y436440D01*
X-11319Y437440D01*
X-9660Y437800D01*
X403440Y437800D01*
X405020Y437480D01*
X406360Y436540D01*
X407200Y435160D01*
X407420Y433540D01*
X407000Y431980D01*
X405980Y430720D01*
X404340Y429360D01*
X401300Y425959D01*
X398840Y422140D01*
X396960Y417960D01*
X395760Y413579D01*
X395240Y409040D01*
X395400Y404480D01*
X396280Y400000D01*
X397819Y395720D01*
X400000Y391700D01*
X402760Y388080D01*
X406040Y384920D01*
X409780Y382299D01*
X413860Y380280D01*
X418220Y378900D01*
X422720Y378200D01*
X427280Y378200D01*
X431780Y378900D01*
X436140Y380280D01*
X440319Y382380D01*
X441920Y383040D01*
X443660Y382980D01*
X445200Y382180D01*
X446260Y380820D01*
X446640Y379120D01*
X446280Y377420D01*
X444739Y374159D01*
X443760Y370439D01*
X443420Y366599D01*
X443760Y362760D01*
X444739Y359040D01*
X446380Y355560D01*
X448579Y352400D01*
X451300Y349680D01*
X454460Y347480D01*
X457939Y345840D01*
X461659Y344860D01*
X464860Y344580D01*
X466200Y344219D01*
X467340Y343420D01*
X535380Y275360D01*
X537820Y273360D01*
X540420Y271980D01*
X543260Y271120D01*
X546400Y270800D01*
X1070240Y270800D01*
X1071560Y270580D01*
X1072740Y269940D01*
X1073620Y268940D01*
X1074320Y267820D01*
X1075920Y266220D01*
X1077840Y265020D01*
X1079960Y264280D01*
X1082420Y264000D01*
X1107580Y264000D01*
X1110040Y264280D01*
X1112160Y265020D01*
X1114080Y266220D01*
X1115680Y267820D01*
X1116380Y268940D01*
X1117260Y269940D01*
X1118440Y270580D01*
X1119760Y270800D01*
X1362080Y270800D01*
X1363620Y270500D01*
X1364920Y269640D01*
X1421500Y213039D01*
X1422380Y211740D01*
X1422680Y210219D01*
X1422380Y208680D01*
X1421500Y207380D01*
X1420200Y206520D01*
X1418680Y206220D01*
X1397420Y206220D01*
X1394960Y205940D01*
X1392940Y205219D01*
X1391420Y205000D01*
X1389940Y205360D01*
X1388700Y206260D01*
X1387880Y207560D01*
X1387500Y208520D01*
X1385740Y211680D01*
X1383380Y214540D01*
X1361260Y236620D01*
X1358340Y238820D01*
X1355200Y240400D01*
X1351800Y241360D01*
X1348120Y241700D01*
X519360Y241700D01*
X517840Y242000D01*
X516540Y242880D01*
X387879Y371540D01*
X387020Y372819D01*
X386719Y374360D01*
X386719Y380180D01*
X386440Y382640D01*
X385680Y384760D01*
X384480Y386680D01*
X382900Y388280D01*
X380980Y389480D01*
X378860Y390220D01*
X376380Y390500D01*
X353220Y390500D01*
X350740Y390220D01*
X349420Y389760D01*
X348100Y389540D01*
X346780Y389760D01*
X345460Y390220D01*
X342980Y390500D01*
X339799Y390500D01*
X339799Y376400D01*
X341400Y375620D01*
X342500Y374219D01*
X342900Y372500D01*
X342900Y362700D01*
X342500Y360980D01*
X341400Y359580D01*
X339799Y358820D01*
X339799Y344700D01*
X342980Y344700D01*
X345260Y344960D01*
X346920Y344799D01*
X348360Y343980D01*
X349360Y342620D01*
X349700Y340980D01*
X349700Y-275300D01*
X350000Y-278440D01*
X350860Y-281260D01*
X352260Y-283880D01*
X354260Y-286320D01*
X390940Y-322980D01*
X391800Y-324280D01*
X392100Y-325820D01*
X392100Y-337280D01*
X392380Y-339739D01*
X392840Y-341079D01*
X393080Y-342400D01*
X392840Y-343720D01*
X392380Y-345040D01*
X392100Y-347520D01*
X392100Y-370680D01*
X392380Y-373140D01*
X393120Y-375280D01*
X394320Y-377180D01*
X395920Y-378780D01*
X397840Y-379980D01*
X399960Y-380720D01*
X402420Y-381000D01*
X404600Y-381000D01*
X406300Y-381380D01*
X407939Y-382160D01*
X411659Y-383140D01*
X415500Y-383480D01*
X419340Y-383140D01*
X423060Y-382160D01*
X424700Y-381380D01*
X426400Y-381000D01*
X427580Y-381000D01*
X430040Y-380720D01*
X432160Y-379980D01*
X434080Y-378780D01*
X435680Y-377180D01*
X436880Y-375280D01*
X437620Y-373140D01*
X437900Y-370600D01*
X438459Y-368980D01*
X439640Y-367720D01*
X441240Y-367100D01*
X442939Y-367180D01*
X444460Y-367980D01*
X445500Y-369360D01*
X445880Y-370140D01*
X448080Y-373300D01*
X450800Y-376019D01*
X453960Y-378220D01*
X457440Y-379860D01*
X461160Y-380840D01*
X465000Y-381180D01*
X468840Y-380840D01*
X472560Y-379860D01*
X476040Y-378220D01*
X479200Y-376019D01*
X481920Y-373300D01*
X484120Y-370140D01*
X485760Y-366659D01*
X486079Y-365439D01*
X486880Y-363900D01*
X488260Y-362840D01*
X489940Y-362480D01*
X491640Y-362840D01*
X493000Y-363900D01*
X493800Y-365439D01*
X494739Y-368960D01*
X496380Y-372440D01*
X498579Y-375600D01*
X501300Y-378320D01*
X504460Y-380520D01*
X507939Y-382160D01*
X511659Y-383140D01*
X515500Y-383480D01*
X519340Y-383140D01*
X523060Y-382160D01*
X526540Y-380520D01*
X529700Y-378320D01*
X532420Y-375600D01*
X534640Y-372400D01*
X535680Y-371040D01*
X537200Y-370240D01*
X538920Y-370140D01*
X540520Y-370780D01*
X541700Y-372020D01*
X542240Y-373640D01*
X542380Y-374840D01*
X543120Y-376980D01*
X544320Y-378880D01*
X545920Y-380480D01*
X547840Y-381680D01*
X549960Y-382420D01*
X552420Y-382700D01*
X559480Y-382700D01*
X561660Y-383140D01*
X565500Y-383480D01*
X569340Y-383140D01*
X571520Y-382700D01*
X577580Y-382700D01*
X580040Y-382420D01*
X582160Y-381680D01*
X584080Y-380480D01*
X585680Y-378880D01*
X586880Y-376980D01*
X587660Y-374720D01*
X587860Y-373579D01*
X588260Y-372440D01*
X588980Y-371480D01*
X885580Y-74880D01*
X886960Y-73960D01*
X888620Y-73700D01*
X890220Y-74140D01*
X891520Y-75180D01*
X892260Y-76660D01*
X893139Y-79960D01*
X894780Y-83440D01*
X896979Y-86600D01*
X899700Y-89320D01*
X902860Y-91519D01*
X906340Y-93160D01*
X910060Y-94140D01*
X913259Y-94420D01*
X914599Y-94780D01*
X915740Y-95580D01*
X1223620Y-403480D01*
X1224480Y-404780D01*
X1224800Y-406300D01*
X1224480Y-407840D01*
X1223620Y-409120D01*
X1222320Y-410000D01*
X1220800Y-410300D01*
X1010920Y-410300D01*
X1009380Y-410000D01*
X1008080Y-409120D01*
X988180Y-389219D01*
X987380Y-388080D01*
X987020Y-386740D01*
X986740Y-383560D01*
X985759Y-379840D01*
X984120Y-376360D01*
X981919Y-373200D01*
X979200Y-370480D01*
X976040Y-368280D01*
X972560Y-366640D01*
X968840Y-365660D01*
X965000Y-365319D01*
X961160Y-365660D01*
X957440Y-366640D01*
X953960Y-368280D01*
X950800Y-370480D01*
X948080Y-373200D01*
X945879Y-376360D01*
X944240Y-379840D01*
X943259Y-383560D01*
X942920Y-387400D01*
X943259Y-391240D01*
X944240Y-394960D01*
X945879Y-398440D01*
X948080Y-401599D01*
X950800Y-404320D01*
X953960Y-406520D01*
X957440Y-408160D01*
X961160Y-409140D01*
X964360Y-409420D01*
X965699Y-409780D01*
X966840Y-410580D01*
X981420Y-425180D01*
X982280Y-426460D01*
X982600Y-428000D01*
X982280Y-429540D01*
X981420Y-430820D01*
X980120Y-431700D01*
X978600Y-432000D01*
G37*

%LPC*%
G36*
X319820Y344700D02*
G01*
X323000Y344700D01*
X323000Y358700D01*
X309500Y358700D01*
X309500Y355040D01*
X309760Y352560D01*
X310520Y350439D01*
X311720Y348519D01*
X313300Y346940D01*
X315220Y345740D01*
X317340Y344980D01*
G37*
G36*
X309500Y376500D02*
G01*
X323000Y376500D01*
X323000Y390500D01*
X319820Y390500D01*
X317340Y390220D01*
X315220Y389480D01*
X313300Y388280D01*
X311720Y386680D01*
X310520Y384760D01*
X309760Y382640D01*
X309500Y380180D01*
G37*

%LPD*%
D11*
X364799Y367607D02*
G01*
X509799Y222607D01*
X1348298Y222607D01*
X1370000Y200907D01*
X1370000Y184306D01*
X1060000Y-87392D02*
G01*
X1060000Y5907D01*
X1100000Y45907D01*
X1155000Y45907D01*
X1235000Y125907D01*
X1235000Y187593D01*
X1270016Y222607D01*
D10*
X1720000Y-162392D02*
G01*
X1695000Y-162392D01*
X1670000Y-187392D01*
X1670000Y-246894D01*
X1514499Y-402392D01*
X1243899Y-402392D01*
X913899Y-72392D01*
X1470000Y-290693D02*
G01*
X1470000Y-252392D01*
X1388999Y-171392D01*
X1388999Y-140390D01*
X1310000Y-290693D02*
G01*
X1310000Y-292392D01*
X1350000Y-324092D02*
G01*
X1350000Y-357392D01*
X1366999Y-374394D01*
X1455000Y-374394D01*
X1123301Y-32392D02*
G01*
X1114997Y-32392D01*
X1060000Y-87392D01*
D11*
X1410000Y184306D02*
G01*
X1370000Y184306D01*
D10*
X1156698Y-72392D02*
G01*
X1156698Y7607D01*
X1230000Y-290693D02*
G01*
X1231698Y-292392D01*
X1310000Y-292392D01*
X1330000Y150907D02*
G01*
X1370000Y150907D01*
X1330000Y5605D02*
G01*
X1330000Y150907D01*
X1350000Y5605D02*
G01*
X1350000Y37607D01*
X1410000Y97607D01*
X1410000Y150907D01*
X1563301Y72607D02*
G01*
X1563301Y32607D01*
X1423000Y-47392D02*
G01*
X1465000Y-47392D01*
X1545000Y32607D01*
X1563301Y32607D01*
X1563301Y-7392D02*
G01*
X1563301Y-47392D01*
X1423000Y-106392D02*
G01*
X1544299Y-106392D01*
X1563301Y-87392D01*
X1563301Y-167392D02*
G01*
X1563301Y-87392D01*
X1156698Y-152392D02*
G01*
X1156698Y-112392D01*
X1430000Y-290693D02*
G01*
X1425000Y-285693D01*
X1425000Y-257392D01*
X1370000Y-202392D01*
X1370000Y-140390D01*
X1390000Y-290693D02*
G01*
X1390000Y-257392D01*
X1350000Y-217392D01*
X1350000Y-140390D01*
X1350000Y-290693D02*
G01*
X1350000Y-252392D01*
X1330000Y-232392D01*
X1330000Y-140390D01*
X1423000Y-87392D02*
G01*
X1505000Y-87392D01*
X1545000Y-47392D01*
X1563301Y-47392D01*
X1423000Y-67392D02*
G01*
X1485000Y-67392D01*
X1510000Y-42392D01*
X1596698Y32607D02*
G01*
X1596698Y-7392D01*
X1596698Y-247392D02*
G01*
X1620000Y-247392D01*
X1630000Y-237392D01*
X1630000Y-57392D01*
X1620000Y-47392D01*
X1596698Y-47392D01*
X1276999Y-87392D02*
G01*
X1205000Y-87392D01*
X1563301Y-207392D02*
G01*
X1525000Y-207392D01*
X1515000Y-197392D01*
X1563301Y-247392D02*
G01*
X1563301Y-207392D01*
X1370000Y5605D02*
G01*
X1370000Y22607D01*
X1400000Y52607D01*
X1388999Y5605D02*
G01*
X1388999Y6606D01*
X1435000Y52607D01*
X1596698Y112607D02*
G01*
X1615000Y112607D01*
X1630000Y97607D01*
X1630000Y-57392D01*
X364799Y367607D02*
G01*
X365000Y367607D01*
X1123301Y-112392D02*
G01*
X1100000Y-112392D01*
X1080000Y-132392D01*
X1080000Y-172392D01*
X1100000Y-192392D01*
X1258999Y-192392D01*
X1311000Y-140390D01*
X1156698Y-72392D02*
G01*
X1166698Y-62392D01*
X1220000Y-62392D01*
X1225000Y-67392D01*
X1276999Y-67392D01*
X1095000Y319306D02*
G01*
X1096499Y320805D01*
X1096499Y392607D01*
X1310000Y-351392D02*
G01*
X1310000Y-324092D01*
X1390000Y-351392D02*
G01*
X1390000Y-324092D01*
X1165000Y135907D02*
G01*
X1165000Y145907D01*
X1150000Y160907D01*
X955000Y160907D01*
X465000Y-329092D01*
X465000Y-359092D01*
X1130000Y135907D02*
G01*
X965000Y135907D01*
X515500Y-313593D01*
X515500Y-361392D01*
X1145000Y105907D02*
G01*
X1045000Y105907D01*
X578298Y-360790D01*
X565000Y-360790D01*
X415000Y-325693D02*
G01*
X364799Y-275493D01*
X364799Y367607D01*
X565000Y-327392D02*
G01*
X565000Y-319092D01*
X615000Y-269092D01*
X1290000Y150907D02*
G01*
X1235000Y150907D01*
X1095000Y285907D02*
G01*
X546201Y285907D01*
X465500Y366606D01*
X1390000Y-351392D02*
G01*
X1541000Y-351392D01*
X1650000Y-242392D01*
X1650000Y-45390D01*
X1693000Y-2392D01*
X1720000Y-2392D01*
X1000000Y-422392D02*
G01*
X965000Y-387392D01*
X1720000Y-242392D02*
G01*
X1700600Y-242392D01*
X1520600Y-422392D01*
X1130000Y185907D02*
G01*
X945000Y185907D01*
X445000Y-314092D01*
X445000Y-339092D01*
X425000Y-359092D01*
X415000Y-359092D01*
X565901Y312607D02*
G01*
X566000Y312710D01*
X566000Y335307D01*
X615200Y335405D02*
G01*
X616000Y312407D01*
D11*
X1060000Y-87392D02*
G01*
X1060000Y-182392D01*
X1201698Y-324092D01*
X1230000Y-324092D01*
D10*
X1447799Y275907D02*
G01*
X1415000Y275907D01*
X1310000Y380907D01*
X1276999Y-106392D02*
G01*
X1222700Y-106392D01*
X1216698Y-112392D01*
X1156698Y-112392D01*
X1276999Y-47392D02*
G01*
X1243301Y-47392D01*
X1235000Y-39092D01*
X1235000Y95907D01*
X1290000Y150907D01*
X1563301Y112607D02*
G01*
X1543301Y112607D01*
X1370000Y285907D01*
X1095000Y285907D01*
X1423000Y-28393D02*
G01*
X1450700Y-28393D01*
X1525000Y45907D01*
X1525000Y80907D01*
X1556698Y112607D01*
X1563301Y112607D01*
X1520600Y-425396D02*
G01*
X1000000Y-425396D01*
X-631698Y331206D02*
G01*
X-631698Y377905D01*
X-645000Y391206D01*
X-728301Y391206D01*
X-728301Y386206D01*
X-698401Y332206D02*
G01*
X-698401Y362607D01*
X-698999Y363202D01*
X-672799Y264203D02*
G01*
X-672799Y284003D01*
X-698401Y309603D01*
X-698401Y332206D01*
X-695000Y79603D02*
G01*
X-755700Y140307D01*
X-929198Y140307D01*
X-698401Y264203D02*
G01*
X-698401Y229603D01*
X-680000Y211206D01*
X-608301Y211206D01*
X-595000Y197905D01*
X-724399Y264203D02*
G01*
X-724399Y290605D01*
X-735000Y301206D01*
X-785000Y301206D01*
X-805000Y321206D01*
X-724399Y332206D02*
G01*
X-724399Y382303D01*
X-728301Y386206D01*
X-672799Y332206D02*
G01*
X-671799Y331206D01*
X-631698Y331206D01*
X-631698Y331206D02*
G01*
X-631698Y234603D01*
X-595000Y197905D01*
X-750000Y264203D02*
G01*
X-793000Y264203D01*
X-820000Y291206D01*
X-367200Y-139594D02*
G01*
X-367200Y-50996D01*
X-163301Y152905D01*
X-55000Y152905D01*
X-200000Y-267094D02*
G01*
X-171100Y-238193D01*
X-171100Y-78696D01*
X-199399Y-310996D02*
G01*
X-111499Y-223096D01*
X-111499Y-35092D01*
X-127899Y-18696D01*
X-171100Y-18696D01*
X-348100Y-297026D02*
G01*
X-348100Y-366592D01*
X-347600Y-367094D01*
X-309000Y-365097D02*
G01*
X-328500Y-345601D01*
X-328500Y-297026D01*
X-385500Y-364594D02*
G01*
X-385500Y-342696D01*
X-367799Y-324994D01*
X-367799Y-296997D01*
X-55000Y392905D02*
G01*
X-70000Y392905D01*
X-285000Y177905D01*
X-570000Y177905D01*
X-655000Y92905D01*
X-655000Y79603D01*
X-386899Y-139546D02*
G01*
X-386899Y-43993D01*
X-110000Y232905D01*
X-55000Y232905D01*
X-55000Y312905D02*
G01*
X-125000Y312905D01*
X-285000Y152905D01*
X-560000Y152905D01*
X-615000Y97905D01*
X-615000Y79603D01*
X-830000Y167905D02*
G01*
X-830000Y252905D01*
X-308200Y-139546D02*
G01*
X-308200Y-91275D01*
X-305209Y-88285D01*
X-289098Y-296997D02*
G01*
X-266000Y-320097D01*
X-266000Y-364594D01*
X-916698Y-122094D02*
G01*
X-930000Y-108793D01*
X-930000Y-32094D01*
X-695000Y46206D02*
G01*
X-735901Y5307D01*
X-840801Y5307D01*
X-600299Y-43676D02*
G01*
X-600299Y-7392D01*
X-575000Y17905D01*
X-575000Y46206D01*
X-655000Y46206D02*
G01*
X-639700Y30902D01*
X-639700Y-43676D01*
X-679098Y-43676D02*
G01*
X-695000Y-27773D01*
X-695000Y46206D01*
X-718419Y-142094D02*
G01*
X-755000Y-142094D01*
X-770000Y-127094D01*
X-718401Y-161797D02*
G01*
X-770000Y-162094D01*
X-640000Y-305396D02*
G01*
X-659399Y-285996D01*
X-659399Y-240522D01*
X-679098Y-240522D02*
G01*
X-685000Y-246426D01*
X-685000Y-305396D01*
X-1396999Y36903D02*
G01*
X-1440999Y-7094D01*
X-1538301Y-7094D01*
X-1641499Y-7094D02*
G01*
X-1571698Y-7094D01*
X-1571698Y92905D02*
G01*
X-1641499Y92905D01*
X-1256999Y35205D02*
G01*
X-1321301Y35205D01*
X-1323000Y36903D01*
X-1251698Y202905D02*
G01*
X-1251698Y247905D01*
X-1312761Y-137094D02*
G01*
X-1334021Y-158355D01*
X-1334021Y-202094D01*
D11*
X-1525119Y-200502D02*
G01*
X-1470609Y-200502D01*
X-1407200Y-137094D01*
D10*
X-1385978Y-252094D02*
G01*
X-1411980Y-226093D01*
X-1525119Y-226093D01*
D11*
X-1312761Y-137094D02*
G01*
X-1332439Y-117417D01*
X-1332439Y-47094D01*
X-1323000Y36903D02*
G01*
X-1323000Y-37656D01*
X-1332439Y-47094D01*
X-1396999Y138906D02*
G01*
X-1392560Y143344D01*
X-1392560Y227905D01*
D10*
X-718419Y-201196D02*
G01*
X-718419Y-181493D01*
X-259799Y-267793D02*
G01*
X-200000Y-267094D01*
D11*
X-1396999Y36903D02*
G01*
X-1396999Y60902D01*
X-1370000Y87905D01*
X-1340000Y87905D01*
X-1323000Y70902D01*
X-1323000Y36903D01*
X-735000Y-338793D02*
G01*
X-748301Y-338793D01*
X-895000Y-192094D01*
X-895000Y-177094D01*
X-735000Y-305396D02*
G01*
X-685000Y-305396D01*
X-770000Y-257094D02*
G01*
X-798301Y-228793D01*
X-798301Y-202094D01*
D10*
X-718401Y-201196D02*
G01*
X-798301Y-202094D01*
D11*
X-1116999Y138906D02*
G01*
X-1116999Y217905D01*
X-1107500Y217905D01*
D10*
X-880000Y166206D02*
G01*
X-880000Y227905D01*
X-55000Y-87094D02*
G01*
X-53301Y-87094D01*
X-620000Y-43696D02*
G01*
X-620000Y46206D01*
X-615000Y46206D01*
D11*
X-165000Y391206D02*
G01*
X-165000Y361206D01*
X-298301Y227905D01*
X-565000Y227905D01*
X-595000Y197905D01*
D10*
X-1538301Y92905D02*
G01*
X-1505399Y92905D01*
X-1435600Y162705D01*
D12*
X-1487600Y229266D02*
G01*
X-1546899Y229266D01*
D10*
X-1487600Y174106D02*
G01*
X-1487600Y168202D01*
X-1608401Y168202D01*
X-1612100Y164506D01*
D11*
X-1392600Y227905D02*
G01*
X-1432600Y267905D01*
X-1624299Y267905D01*
X-1685000Y328603D01*
X-1685000Y372905D01*
D10*
X-830801Y102905D02*
G01*
X-835801Y107905D01*
X-965000Y107905D01*
X-995000Y137905D01*
X-995000Y257905D01*
X-1018999Y281903D01*
X-1236000Y281903D01*
X-1251698Y266206D01*
X-1251698Y247905D01*
X-1590299Y297705D02*
G01*
X-1540200Y297705D01*
X-1465000Y372905D01*
X-55000Y-327094D02*
G01*
X-172899Y-327094D01*
X-210399Y-364594D01*
X-266000Y-364594D01*
X-1385978Y-302094D02*
G01*
X-1436388Y-251684D01*
X-1525119Y-251684D01*
D12*
X-1546899Y229306D02*
G01*
X-1546899Y239306D01*
X-1612100Y239306D01*
X-1706549Y201903D02*
G01*
X-1706549Y351357D01*
X-1685000Y372905D01*
D10*
X-1203301Y-27094D02*
G01*
X-1183000Y-6792D01*
X-1183000Y35205D01*
D11*
X-798301Y-202094D02*
G01*
X-798301Y-178793D01*
X-855000Y-122094D01*
X-883301Y-122094D01*
X-929818Y-252363D02*
G01*
X-929818Y-159717D01*
X-1047439Y-42094D01*
X-1047439Y-42094D02*
G01*
X-1043000Y-37656D01*
X-1043000Y36903D01*
X-1116999Y36905D02*
G01*
X-1116999Y65905D01*
X-1100000Y82905D01*
X-1060000Y82905D01*
X-1043000Y65905D01*
X-1043000Y36905D01*
X-960000Y-177094D02*
G01*
X-1000000Y-137094D01*
X-1312758Y-137094D01*
X-1285000Y-382094D02*
G01*
X-1285000Y-262094D01*
X-1210000Y-187094D01*
X-1054139Y-187094D01*
X-988869Y-252364D01*
D10*
X496700Y407905D02*
G01*
X533299Y407905D01*
X515500Y366604D02*
G01*
X496700Y385405D01*
X496700Y407905D01*
D13*
X425000Y407905D02*
G01*
X463299Y407905D01*
D10*
X1311000Y5605D02*
G01*
X1290000Y26606D01*
X1290000Y150907D01*
D14*
X-679099Y-32454D02*
G01*
X-679099Y-54895D01*
X-659399Y-32454D02*
G01*
X-659399Y-54895D01*
X-639700Y-32454D02*
G01*
X-639700Y-54895D01*
X-620000Y-32454D02*
G01*
X-620000Y-54895D01*
X-600299Y-32454D02*
G01*
X-600299Y-54895D01*
X-580600Y-32454D02*
G01*
X-580600Y-54895D01*
X-560900Y-32454D02*
G01*
X-560900Y-54895D01*
X-532790Y-82995D02*
G01*
X-510348Y-82995D01*
X-532790Y-102694D02*
G01*
X-510348Y-102694D01*
X-532790Y-122395D02*
G01*
X-510348Y-122395D01*
X-532790Y-142094D02*
G01*
X-510348Y-142094D01*
X-532790Y-161794D02*
G01*
X-510348Y-161794D01*
X-532790Y-181494D02*
G01*
X-510348Y-181494D01*
X-532790Y-201194D02*
G01*
X-510348Y-201194D01*
X-560900Y-229304D02*
G01*
X-560900Y-251745D01*
X-580600Y-229304D02*
G01*
X-580600Y-251745D01*
X-600299Y-229304D02*
G01*
X-600299Y-251745D01*
X-620000Y-229304D02*
G01*
X-620000Y-251745D01*
X-639700Y-229304D02*
G01*
X-639700Y-251745D01*
X-659399Y-229304D02*
G01*
X-659399Y-251745D01*
X-679099Y-229304D02*
G01*
X-679099Y-251745D01*
X-729639Y-201194D02*
G01*
X-707199Y-201194D01*
X-729639Y-181494D02*
G01*
X-707199Y-181494D01*
X-729639Y-161794D02*
G01*
X-707199Y-161794D01*
X-729639Y-142094D02*
G01*
X-707199Y-142094D01*
X-729639Y-122395D02*
G01*
X-707199Y-122395D01*
X-729639Y-102694D02*
G01*
X-707199Y-102694D01*
X-729639Y-82995D02*
G01*
X-707199Y-82995D01*
X-427475Y-169784D02*
G01*
X-407003Y-169784D01*
X-427475Y-189484D02*
G01*
X-407003Y-189484D01*
X-427475Y-209184D02*
G01*
X-407003Y-209184D01*
X-427475Y-228784D02*
G01*
X-407003Y-228784D01*
X-427475Y-248485D02*
G01*
X-407003Y-248485D01*
X-427475Y-268184D02*
G01*
X-407003Y-268184D01*
X-387500Y-286788D02*
G01*
X-387500Y-307260D01*
X-367799Y-286788D02*
G01*
X-367799Y-307260D01*
X-348100Y-286788D02*
G01*
X-348100Y-307260D01*
X-328500Y-286788D02*
G01*
X-328500Y-307260D01*
X-308800Y-286788D02*
G01*
X-308800Y-307260D01*
X-289099Y-286788D02*
G01*
X-289099Y-307260D01*
X-269996Y-267784D02*
G01*
X-249524Y-267784D01*
X-269996Y-248085D02*
G01*
X-249524Y-248085D01*
X-269996Y-228384D02*
G01*
X-249524Y-228384D01*
X-269996Y-208784D02*
G01*
X-249524Y-208784D01*
X-269996Y-189085D02*
G01*
X-249524Y-189085D01*
X-269996Y-169384D02*
G01*
X-249524Y-169384D01*
X-288500Y-129308D02*
G01*
X-288500Y-149780D01*
X-308199Y-129308D02*
G01*
X-308199Y-149780D01*
X-327899Y-129308D02*
G01*
X-327899Y-149780D01*
X-347500Y-129308D02*
G01*
X-347500Y-149780D01*
X-367200Y-129308D02*
G01*
X-367200Y-149780D01*
X-386899Y-129308D02*
G01*
X-386899Y-149780D01*
D16*
G01*
X425000Y407905D03*
G36*
X484889Y420695D02*
G01*
X508509Y420695D01*
X508509Y395115D01*
X484889Y395115D01*
G37*
G36*
X451490Y420695D02*
G01*
X475110Y420695D01*
X475110Y395115D01*
X451490Y395115D01*
G37*
D17*
G01*
X533299Y407905D03*
G01*
X566700Y407905D03*
D18*
G01*
X1542240Y275905D03*
G01*
X1447759Y275905D03*
D17*
G01*
X-761700Y386204D03*
G01*
X-728299Y386204D03*
G36*
X-610110Y343994D02*
G01*
X-586490Y343994D01*
X-586490Y318414D01*
X-610110Y318414D01*
G37*
G36*
X-643509Y343994D02*
G01*
X-619889Y343994D01*
X-619889Y318414D01*
X-643509Y318414D01*
G37*
D19*
G01*
X566000Y368704D03*
G01*
X566000Y335304D03*
G01*
X615200Y368805D03*
G01*
X615200Y335405D03*
D20*
G01*
X-1487600Y229265D03*
G01*
X-1487600Y174144D03*
G01*
X-1546899Y229265D03*
G01*
X-1546899Y174144D03*
D21*
G01*
X-1612060Y239304D03*
G01*
X-1706540Y201905D03*
G01*
X-1612060Y164504D03*
G36*
X-202600Y-41694D02*
G01*
X-202600Y4304D01*
X-139600Y4304D01*
X-139600Y-41694D01*
G37*
G36*
X-202600Y-101694D02*
G01*
X-202600Y-55695D01*
X-139600Y-55695D01*
X-139600Y-101694D01*
G37*
G36*
X-202600Y18305D02*
G01*
X-202600Y64304D01*
X-139600Y64304D01*
X-139600Y18305D01*
G37*
G36*
X1144889Y-99602D02*
G01*
X1168509Y-99602D01*
X1168509Y-125182D01*
X1144889Y-125182D01*
G37*
G36*
X1111490Y-99602D02*
G01*
X1135110Y-99602D01*
X1135110Y-125182D01*
X1111490Y-125182D01*
G37*
G36*
X1584889Y-74602D02*
G01*
X1608509Y-74602D01*
X1608509Y-100182D01*
X1584889Y-100182D01*
G37*
G36*
X1551490Y-74602D02*
G01*
X1575110Y-74602D01*
X1575110Y-100182D01*
X1551490Y-100182D01*
G37*
G36*
X1144889Y20397D02*
G01*
X1168509Y20397D01*
X1168509Y-5182D01*
X1144889Y-5182D01*
G37*
G36*
X1111490Y20397D02*
G01*
X1135110Y20397D01*
X1135110Y-5182D01*
X1111490Y-5182D01*
G37*
D19*
G01*
X1290000Y150905D03*
G01*
X1290000Y184304D03*
G36*
X1584889Y125397D02*
G01*
X1608509Y125397D01*
X1608509Y99817D01*
X1584889Y99817D01*
G37*
G36*
X1551490Y125397D02*
G01*
X1575110Y125397D01*
X1575110Y99817D01*
X1551490Y99817D01*
G37*
D17*
G01*
X1563299Y-7395D03*
G01*
X1596700Y-7395D03*
D19*
G01*
X1430000Y-290695D03*
G01*
X1430000Y-324094D03*
G01*
X1230000Y-290695D03*
G01*
X1230000Y-324094D03*
D17*
G01*
X1563299Y-167395D03*
G01*
X1596700Y-167395D03*
D19*
G01*
X1270000Y-290695D03*
G01*
X1270000Y-324094D03*
G01*
X1310000Y-290695D03*
G01*
X1310000Y-324094D03*
G01*
X1350000Y-290695D03*
G01*
X1350000Y-324094D03*
G01*
X1390000Y-290695D03*
G01*
X1390000Y-324094D03*
G01*
X1470000Y-290695D03*
G01*
X1470000Y-324094D03*
D17*
G01*
X1563299Y-47395D03*
G01*
X1596700Y-47395D03*
G01*
X1563299Y-247395D03*
G01*
X1596700Y-247395D03*
G36*
X1584889Y45397D02*
G01*
X1608509Y45397D01*
X1608509Y19817D01*
X1584889Y19817D01*
G37*
G36*
X1551490Y45397D02*
G01*
X1575110Y45397D01*
X1575110Y19817D01*
X1551490Y19817D01*
G37*
G01*
X1563299Y72604D03*
G01*
X1596700Y72604D03*
G36*
X1584889Y-194602D02*
G01*
X1608509Y-194602D01*
X1608509Y-220182D01*
X1584889Y-220182D01*
G37*
G36*
X1551490Y-194602D02*
G01*
X1575110Y-194602D01*
X1575110Y-220182D01*
X1551490Y-220182D01*
G37*
G36*
X1144889Y-139602D02*
G01*
X1168509Y-139602D01*
X1168509Y-165182D01*
X1144889Y-165182D01*
G37*
G36*
X1111490Y-139602D02*
G01*
X1135110Y-139602D01*
X1135110Y-165182D01*
X1111490Y-165182D01*
G37*
G01*
X1563299Y-127395D03*
G01*
X1596700Y-127395D03*
G36*
X1144889Y-19602D02*
G01*
X1168509Y-19602D01*
X1168509Y-45182D01*
X1144889Y-45182D01*
G37*
G36*
X1111490Y-19602D02*
G01*
X1135110Y-19602D01*
X1135110Y-45182D01*
X1111490Y-45182D01*
G37*
G36*
X1144889Y-59602D02*
G01*
X1168509Y-59602D01*
X1168509Y-85182D01*
X1144889Y-85182D01*
G37*
G36*
X1111490Y-59602D02*
G01*
X1135110Y-59602D01*
X1135110Y-85182D01*
X1111490Y-85182D01*
G37*
D19*
G01*
X1330000Y184304D03*
G01*
X1330000Y150905D03*
G01*
X1410000Y150905D03*
G01*
X1410000Y184304D03*
G01*
X1370000Y184304D03*
G01*
X1370000Y150905D03*
G01*
X1095000Y319304D03*
G01*
X1095000Y285905D03*
D22*
G01*
X1096499Y392604D03*
G01*
X1163500Y392604D03*
G01*
X-1641499Y92905D03*
G01*
X-1708500Y92905D03*
G36*
X1306000Y-130542D02*
G01*
X1316000Y-130542D01*
X1316000Y-150243D01*
X1306000Y-150243D01*
G37*
G36*
X1325000Y-130542D02*
G01*
X1335000Y-130542D01*
X1335000Y-150243D01*
X1325000Y-150243D01*
G37*
G36*
X1345000Y-130542D02*
G01*
X1355000Y-130542D01*
X1355000Y-150243D01*
X1345000Y-150243D01*
G37*
G36*
X1365000Y-130542D02*
G01*
X1375000Y-130542D01*
X1375000Y-150243D01*
X1365000Y-150243D01*
G37*
G36*
X1383999Y-130542D02*
G01*
X1393999Y-130542D01*
X1393999Y-150243D01*
X1383999Y-150243D01*
G37*
D24*
G01*
X1423000Y-106394D03*
G01*
X1423000Y-87395D03*
G01*
X1423000Y-67395D03*
G01*
X1423000Y-47395D03*
G01*
X1423000Y-28395D03*
D23*
G01*
X1388999Y5605D03*
G01*
X1370000Y5605D03*
G01*
X1350000Y5605D03*
G01*
X1330000Y5605D03*
G01*
X1311000Y5605D03*
D24*
G01*
X1276999Y-28395D03*
G01*
X1276999Y-47395D03*
G01*
X1276999Y-67395D03*
G01*
X1276999Y-87395D03*
G01*
X1276999Y-106394D03*
D25*
G01*
X1350000Y-67395D03*
D19*
G01*
X415000Y-325695D03*
G01*
X415000Y-359094D03*
G01*
X565000Y-327395D03*
G01*
X565000Y-360794D03*
D17*
G01*
X-1571700Y92905D03*
G01*
X-1538299Y92905D03*
G01*
X-1236700Y-27094D03*
G01*
X-1203299Y-27094D03*
D19*
G01*
X-735000Y-305394D03*
G01*
X-735000Y-338795D03*
G01*
X-685000Y-305394D03*
G01*
X-685000Y-338795D03*
G01*
X-640000Y-305394D03*
G01*
X-640000Y-338795D03*
G01*
X-655000Y79605D03*
G01*
X-655000Y46204D03*
G01*
X-615000Y79605D03*
G01*
X-615000Y46204D03*
G01*
X-575000Y79605D03*
G01*
X-575000Y46204D03*
G01*
X-695000Y79605D03*
G01*
X-695000Y46204D03*
D17*
G01*
X-916700Y-122094D03*
G01*
X-883299Y-122094D03*
G01*
X-1571700Y-7094D03*
G01*
X-1538299Y-7094D03*
G01*
X-1251700Y247905D03*
G01*
X-1218299Y247905D03*
D19*
G01*
X-266000Y-364594D03*
G01*
X-266000Y-397995D03*
D26*
G01*
X-1183000Y137204D03*
G01*
X-1220000Y137204D03*
G01*
X-1256999Y137204D03*
G01*
X-1256999Y35205D03*
G01*
X-1183000Y35205D03*
D27*
G01*
X-1525119Y-302865D03*
G01*
X-1525119Y-277274D03*
G01*
X-1525119Y-251684D03*
G01*
X-1525119Y-226095D03*
G01*
X-1525119Y-200504D03*
D28*
G01*
X-1694880Y-314915D03*
G01*
X-1694239Y-185834D03*
D17*
G01*
X-831700Y-202094D03*
G01*
X-798299Y-202094D03*
G36*
X-1230110Y215695D02*
G01*
X-1206490Y215695D01*
X-1206490Y190115D01*
X-1230110Y190115D01*
G37*
G36*
X-1263509Y215695D02*
G01*
X-1239889Y215695D01*
X-1239889Y190115D01*
X-1263509Y190115D01*
G37*
G36*
X352989Y380397D02*
G01*
X376610Y380397D01*
X376610Y354817D01*
X352989Y354817D01*
G37*
G36*
X319589Y380397D02*
G01*
X343209Y380397D01*
X343209Y354817D01*
X319589Y354817D01*
G37*
G36*
X-283618Y-75491D02*
G01*
X-259998Y-75491D01*
X-259998Y-101071D01*
X-283618Y-101071D01*
G37*
G36*
X-317019Y-75491D02*
G01*
X-293398Y-75491D01*
X-293398Y-101071D01*
X-317019Y-101071D01*
G37*
D19*
G01*
X-385500Y-397995D03*
G01*
X-385500Y-364594D03*
G01*
X-308999Y-398494D03*
G01*
X-308999Y-365095D03*
D29*
G01*
X-1052439Y217905D03*
G01*
X-1107550Y217905D03*
G01*
X-1047439Y-42094D03*
G01*
X-1102550Y-42094D03*
G01*
X-1332439Y-47094D03*
G01*
X-1387550Y-47094D03*
G01*
X-1337439Y227905D03*
G01*
X-1392550Y227905D03*
G36*
X-681610Y-80484D02*
G01*
X-558389Y-80484D01*
X-558389Y-203704D01*
X-681610Y-203704D01*
G37*
G36*
X-1130600Y60505D02*
G01*
X-1103400Y60505D01*
X-1103400Y13305D01*
X-1130600Y13305D01*
G37*
G36*
X-1093599Y60505D02*
G01*
X-1066400Y60505D01*
X-1066400Y13305D01*
X-1093599Y13305D01*
G37*
G36*
X-1056599Y60505D02*
G01*
X-1029399Y60505D01*
X-1029399Y13305D01*
X-1056599Y13305D01*
G37*
G36*
X-1056599Y162505D02*
G01*
X-1029399Y162505D01*
X-1029399Y115304D01*
X-1056599Y115304D01*
G37*
G36*
X-1130600Y162505D02*
G01*
X-1103400Y162505D01*
X-1103400Y115304D01*
X-1130600Y115304D01*
G37*
G36*
X-1410600Y60505D02*
G01*
X-1383400Y60505D01*
X-1383400Y13305D01*
X-1410600Y13305D01*
G37*
G36*
X-1373599Y60505D02*
G01*
X-1346400Y60505D01*
X-1346400Y13305D01*
X-1373599Y13305D01*
G37*
G36*
X-1336599Y60505D02*
G01*
X-1309399Y60505D01*
X-1309399Y13305D01*
X-1336599Y13305D01*
G37*
G36*
X-1336599Y162505D02*
G01*
X-1309399Y162505D01*
X-1309399Y115304D01*
X-1336599Y115304D01*
G37*
G36*
X-1410600Y162505D02*
G01*
X-1383400Y162505D01*
X-1383400Y115304D01*
X-1410600Y115304D01*
G37*
G36*
X-391269Y-166021D02*
G01*
X-285748Y-166021D01*
X-285748Y-271541D01*
X-391269Y-271541D01*
G37*
G36*
X-1426929Y-117409D02*
G01*
X-1387559Y-117409D01*
X-1387559Y-156779D01*
X-1426929Y-156779D01*
G37*
G36*
X-1332440Y-117409D02*
G01*
X-1293071Y-117409D01*
X-1293071Y-156779D01*
X-1332440Y-156779D01*
G37*
D33*
G01*
X-939200Y-32094D03*
G01*
X-840799Y5304D03*
G01*
X-840799Y-69494D03*
G01*
X-830799Y102905D03*
G01*
X-929200Y65505D03*
G01*
X-929200Y140304D03*
D22*
G01*
X-1641499Y-7094D03*
G01*
X-1708500Y-7094D03*
D34*
G01*
X-1334020Y-302094D03*
G01*
X-1385979Y-302094D03*
G01*
X-1334020Y-252094D03*
G01*
X-1385979Y-252094D03*
G36*
X-1395429Y-194220D02*
G01*
X-1376530Y-194220D01*
X-1376530Y-209969D01*
X-1395429Y-209969D01*
G37*
G36*
X-1343469Y-194220D02*
G01*
X-1324570Y-194220D01*
X-1324570Y-209969D01*
X-1343469Y-209969D01*
G37*
G36*
X-1122730Y-212995D02*
G01*
X-1091229Y-212995D01*
X-1091229Y-291734D01*
X-1122730Y-291734D01*
G37*
G36*
X-1004620Y-212995D02*
G01*
X-973119Y-212995D01*
X-973119Y-291734D01*
X-1004620Y-291734D01*
G37*
G36*
X-945569Y-212995D02*
G01*
X-914070Y-212995D01*
X-914070Y-291734D01*
X-945569Y-291734D01*
G37*
D36*
G01*
X-1169340Y-299994D03*
G01*
X-870780Y-299654D03*
G01*
X-870299Y-398445D03*
G01*
X-1169700Y-401824D03*
D37*
G01*
X-750000Y332204D03*
G01*
X-724399Y332204D03*
G01*
X-698400Y332204D03*
G01*
X-672799Y332204D03*
G01*
X-750000Y264205D03*
G01*
X-724399Y264205D03*
G01*
X-698400Y264205D03*
G01*
X-672799Y264205D03*
G36*
X1272597Y418306D02*
G01*
X1347400Y418306D01*
X1347400Y343504D01*
X1272597Y343504D01*
G37*
D39*
G01*
X1410000Y380905D03*
D40*
G01*
X-1353999Y373205D03*
G36*
X1686535Y-48928D02*
G01*
X1753464Y-48928D01*
X1753464Y-115857D01*
X1686535Y-115857D01*
G37*
G36*
X1686535Y111071D02*
G01*
X1753464Y111071D01*
X1753464Y44142D01*
X1686535Y44142D01*
G37*
G36*
X1686535Y31071D02*
G01*
X1753464Y31071D01*
X1753464Y-35857D01*
X1686535Y-35857D01*
G37*
G01*
X-1685000Y372905D03*
G01*
X-1465000Y372905D03*
G01*
X-1575000Y372905D03*
D38*
G01*
X-1285000Y-382094D03*
D39*
G01*
X-1385000Y-382094D03*
D41*
G01*
X-1556009Y-157195D03*
G01*
X-1556009Y-347795D03*
D40*
G01*
X1720000Y-162395D03*
G01*
X1720000Y-322395D03*
G01*
X1720000Y-242395D03*
G01*
X1720000Y-82395D03*
G01*
X1720000Y-2395D03*
G01*
X1720000Y77604D03*
G01*
X1720000Y157604D03*
G36*
X1686535Y271071D02*
G01*
X1753464Y271071D01*
X1753464Y204142D01*
X1686535Y204142D01*
G37*
G36*
X1686535Y351071D02*
G01*
X1753464Y351071D01*
X1753464Y284142D01*
X1686535Y284142D01*
G37*
G36*
X1686535Y431071D02*
G01*
X1753464Y431071D01*
X1753464Y364142D01*
X1686535Y364142D01*
G37*
G36*
X1576535Y429371D02*
G01*
X1643464Y429371D01*
X1643464Y362442D01*
X1576535Y362442D01*
G37*
G36*
X1496535Y429371D02*
G01*
X1563464Y429371D01*
X1563464Y362442D01*
X1496535Y362442D01*
G37*
G01*
X-55000Y-327094D03*
G01*
X-55000Y-247094D03*
G01*
X-55000Y-167094D03*
G01*
X-55000Y-87094D03*
G01*
X-55000Y-7094D03*
G01*
X-55000Y72905D03*
G36*
X-88464Y266370D02*
G01*
X-21535Y266370D01*
X-21535Y199439D01*
X-88464Y199439D01*
G37*
G36*
X-88464Y346370D02*
G01*
X-21535Y346370D01*
X-21535Y279439D01*
X-88464Y279439D01*
G37*
G36*
X-88464Y426370D02*
G01*
X-21535Y426370D01*
X-21535Y359439D01*
X-88464Y359439D01*
G37*
G36*
X-198464Y424670D02*
G01*
X-131535Y424670D01*
X-131535Y357739D01*
X-198464Y357739D01*
G37*
G36*
X-278464Y424670D02*
G01*
X-211535Y424670D01*
X-211535Y357739D01*
X-278464Y357739D01*
G37*
G01*
X-55000Y152905D03*
G01*
X-133699Y-394194D03*
G01*
X1641300Y-389494D03*
D15*
G01*
X885000Y165905D03*
G01*
X870000Y190905D03*
G01*
X905000Y190905D03*
G01*
X616000Y312404D03*
G01*
X565900Y312604D03*
G01*
X-1590299Y297705D03*
G01*
X-1487600Y229265D03*
G01*
X-1396999Y138904D03*
G01*
X615200Y368805D03*
G01*
X566300Y368704D03*
G01*
X-883299Y-122094D03*
G01*
X-1392560Y227905D03*
G01*
X-1218299Y247905D03*
G01*
X-1107550Y217905D03*
G01*
X-640000Y-337094D03*
G01*
X-770000Y-257094D03*
G01*
X-200000Y-267094D03*
G01*
X415500Y-361394D03*
G01*
X565500Y-361394D03*
G01*
X365000Y367604D03*
G01*
X1563299Y112604D03*
G01*
X1596700Y72604D03*
G01*
X465500Y366604D03*
G01*
X1400000Y52604D03*
G01*
X1435000Y52604D03*
G01*
X1515000Y-197395D03*
G01*
X1205000Y-87395D03*
G01*
X1123299Y-152395D03*
G01*
X1596700Y-127395D03*
G01*
X1596700Y-207395D03*
G01*
X1596499Y-167595D03*
G01*
X1596700Y-7395D03*
G01*
X1510000Y-42395D03*
G01*
X1596700Y-87395D03*
G01*
X-1256999Y138904D03*
G01*
X-1435600Y162705D03*
G01*
X-1183000Y138904D03*
G01*
X-770000Y-162094D03*
G01*
X-770000Y-127094D03*
G01*
X-1385979Y-302094D03*
G01*
X-1385979Y-252094D03*
G01*
X-840799Y-69494D03*
G01*
X-575000Y79605D03*
G01*
X-575000Y46204D03*
G01*
X-929200Y65505D03*
G01*
X-895000Y-177094D03*
G01*
X-960000Y-177094D03*
G01*
X1470000Y-290695D03*
G01*
X1430000Y-324094D03*
G01*
X1310000Y-290394D03*
G01*
X1270000Y-324094D03*
G01*
X1350000Y-324094D03*
G01*
X1310000Y-351394D03*
G01*
X1390000Y-351394D03*
G01*
X-830799Y102905D03*
G01*
X-830000Y252905D03*
G01*
X-830000Y167905D03*
G01*
X-880000Y227905D03*
G01*
X-880000Y166204D03*
G01*
X-930000Y-32094D03*
G01*
X-595000Y197905D03*
G01*
X1410000Y182604D03*
G01*
X965000Y-387395D03*
G01*
X1455000Y-374394D03*
G01*
X1470000Y-324394D03*
G01*
X1130000Y185905D03*
G01*
X1145000Y105905D03*
G01*
X1165000Y135905D03*
G01*
X1130000Y135905D03*
G01*
X913900Y-72395D03*
G01*
X515500Y-361394D03*
G01*
X465000Y-359094D03*
G01*
X620000Y-264094D03*
G01*
X-668000Y-190794D03*
G01*
X-340000Y-218795D03*
G01*
X1350000Y-67395D03*
G01*
X1260000Y905D03*
G01*
X1105000Y905D03*
G01*
X1095000Y-89094D03*
G01*
X1290000Y184304D03*
G01*
X1660000Y105905D03*
G01*
X-870299Y-398445D03*
G01*
X-870780Y-299654D03*
G01*
X-1169700Y-401824D03*
G01*
X-865000Y-158795D03*
G01*
X-1694880Y-314915D03*
G01*
X-1694239Y-185834D03*
G01*
X-1620000Y-248795D03*
G01*
X-1708500Y-7094D03*
G01*
X-1708500Y92905D03*
G01*
X1163500Y392604D03*
G01*
X-620000Y-142094D03*
G01*
X-571999Y-190794D03*
G01*
X-571999Y-94794D03*
G01*
X-668000Y-94794D03*
G01*
X520000Y-109094D03*
G01*
X520000Y-59094D03*
G01*
X518999Y-9094D03*
G01*
X518999Y40905D03*
G01*
X518999Y90905D03*
G01*
X568999Y90905D03*
G01*
X568999Y40905D03*
G01*
X568999Y-9094D03*
G01*
X570000Y-59094D03*
G01*
X570000Y-109094D03*
G01*
X621999Y-58094D03*
G01*
X621999Y-8094D03*
G01*
X621999Y41905D03*
G01*
X621999Y91905D03*
G01*
X668999Y-9094D03*
G01*
X668999Y40905D03*
G01*
X668999Y90905D03*
G01*
X718999Y90905D03*
G01*
X718999Y40905D03*
G01*
X475000Y-109094D03*
G01*
X475000Y-59094D03*
G01*
X475000Y-9094D03*
G01*
X475000Y40905D03*
G01*
X475000Y90905D03*
G01*
X670000Y145905D03*
G01*
X625000Y145905D03*
G01*
X570000Y145905D03*
G01*
X520000Y145905D03*
G01*
X475000Y145905D03*
G01*
X-1385979Y-202094D03*
G01*
X-347600Y-367094D03*
G01*
X-199399Y-310994D03*
G01*
X-171599Y41105D03*
G01*
X-298500Y101305D03*
G01*
X-805000Y321204D03*
G01*
X-820000Y291204D03*
G01*
X-698999Y363205D03*
G01*
X-1106999Y-226095D03*
G01*
X515500Y366604D03*
G01*
X315500Y366604D03*
G01*
X865000Y-207094D03*
G01*
X865000Y-172094D03*
G01*
X825000Y-277094D03*
G01*
X825000Y-242094D03*
G01*
X825000Y-172094D03*
G01*
X865000Y-242094D03*
G01*
X825000Y-207094D03*
G01*
X865000Y-277094D03*
D41*
X-1644593Y-394594D02*
G01*
X-1680025Y-394594D01*
X-1644593Y-109594D02*
G01*
X-1680025Y-109594D01*
M02*
