G04 Layer: BottomSolderMaskLayer*
G04 EasyEDA v6.5.5, 2022-06-25 23:47:44*
G04 621e16e28f884fd4bf2062cce9099d3c,e579ade59e434e5c9d4a708449f7d829,10*
G04 Gerber Generator version 0.2*
G04 Scale: 100 percent, Rotated: No, Reflected: No *
G04 Dimensions in inches *
G04 leading zeros omitted , absolute positions ,3 integer and 6 decimal *
%FSLAX36Y36*%
%MOIN*%

%ADD55C,0.0592*%
%ADD60C,0.0828*%
%ADD62R,0.0336X0.0316*%
%ADD84R,0.2442X0.2442*%

%LPD*%
D55*
X-1644593Y-394594D02*
G01*
X-1680025Y-394594D01*
X-1644593Y-109594D02*
G01*
X-1680025Y-109594D01*
G36*
X1170900Y209104D02*
G01*
X1170900Y242705D01*
X1202500Y242705D01*
X1202500Y209104D01*
G37*
G36*
X1137500Y209104D02*
G01*
X1137500Y242705D01*
X1169099Y242705D01*
X1169099Y209104D01*
G37*
G36*
X1348199Y168405D02*
G01*
X1348199Y200005D01*
X1381800Y200005D01*
X1381800Y168405D01*
G37*
D62*
G01*
X1365000Y217604D03*
G36*
X1325600Y248105D02*
G01*
X1325600Y283704D01*
X1382799Y283704D01*
X1382799Y248105D01*
G37*
G36*
X1227200Y285505D02*
G01*
X1227200Y321105D01*
X1284399Y321105D01*
X1284399Y285505D01*
G37*
G36*
X1227200Y210705D02*
G01*
X1227200Y246305D01*
X1284399Y246305D01*
X1284399Y210705D01*
G37*
G36*
X441800Y333105D02*
G01*
X441800Y400205D01*
X489200Y400205D01*
X489200Y333105D01*
G37*
G36*
X491800Y333105D02*
G01*
X491800Y400205D01*
X539200Y400205D01*
X539200Y333105D01*
G37*
G36*
X541800Y333105D02*
G01*
X541800Y400205D01*
X589200Y400205D01*
X589200Y333105D01*
G37*
G36*
X591800Y333105D02*
G01*
X591800Y400205D01*
X639200Y400205D01*
X639200Y333105D01*
G37*
G36*
X641800Y333105D02*
G01*
X641800Y400205D01*
X689200Y400205D01*
X689200Y333105D01*
G37*
G36*
X691800Y333105D02*
G01*
X691800Y400205D01*
X739200Y400205D01*
X739200Y333105D01*
G37*
G36*
X741800Y333105D02*
G01*
X741800Y400205D01*
X789200Y400205D01*
X789200Y333105D01*
G37*
G36*
X791800Y333105D02*
G01*
X791800Y400205D01*
X839200Y400205D01*
X839200Y333105D01*
G37*
G36*
X1001000Y-247094D02*
G01*
X1001000Y-199695D01*
X1068100Y-199695D01*
X1068100Y-247094D01*
G37*
G36*
X941800Y-394895D02*
G01*
X941800Y-327795D01*
X989200Y-327795D01*
X989200Y-394895D01*
G37*
G36*
X891800Y-394895D02*
G01*
X891800Y-327795D01*
X939200Y-327795D01*
X939200Y-394895D01*
G37*
G36*
X841800Y-394895D02*
G01*
X841800Y-327795D01*
X889200Y-327795D01*
X889200Y-394895D01*
G37*
G36*
X791800Y-394895D02*
G01*
X791800Y-327795D01*
X839200Y-327795D01*
X839200Y-394895D01*
G37*
G36*
X741800Y-394895D02*
G01*
X741800Y-327795D01*
X789200Y-327795D01*
X789200Y-394895D01*
G37*
G36*
X691800Y-394895D02*
G01*
X691800Y-327795D01*
X739200Y-327795D01*
X739200Y-394895D01*
G37*
G36*
X641800Y-394895D02*
G01*
X641800Y-327795D01*
X689200Y-327795D01*
X689200Y-394895D01*
G37*
G36*
X1001000Y102905D02*
G01*
X1001000Y150304D01*
X1068100Y150304D01*
X1068100Y102905D01*
G37*
G36*
X841800Y333105D02*
G01*
X841800Y400205D01*
X889200Y400205D01*
X889200Y333105D01*
G37*
G36*
X891800Y333105D02*
G01*
X891800Y400205D01*
X939200Y400205D01*
X939200Y333105D01*
G37*
G36*
X941800Y333105D02*
G01*
X941800Y400205D01*
X989200Y400205D01*
X989200Y333105D01*
G37*
G36*
X1001000Y202905D02*
G01*
X1001000Y250304D01*
X1068100Y250304D01*
X1068100Y202905D01*
G37*
G36*
X1001000Y152905D02*
G01*
X1001000Y200304D01*
X1068100Y200304D01*
X1068100Y152905D01*
G37*
G36*
X391800Y333105D02*
G01*
X391800Y400205D01*
X439200Y400205D01*
X439200Y333105D01*
G37*
G36*
X341800Y333105D02*
G01*
X341800Y400205D01*
X389200Y400205D01*
X389200Y333105D01*
G37*
G36*
X291800Y333105D02*
G01*
X291800Y400205D01*
X339200Y400205D01*
X339200Y333105D01*
G37*
G36*
X1001000Y52905D02*
G01*
X1001000Y100304D01*
X1068100Y100304D01*
X1068100Y52905D01*
G37*
G36*
X1001000Y2905D02*
G01*
X1001000Y50304D01*
X1068100Y50304D01*
X1068100Y2905D01*
G37*
G36*
X1001000Y-47094D02*
G01*
X1001000Y304D01*
X1068100Y304D01*
X1068100Y-47094D01*
G37*
G36*
X1001000Y-197094D02*
G01*
X1001000Y-149695D01*
X1068100Y-149695D01*
X1068100Y-197094D01*
G37*
G36*
X1001000Y-147094D02*
G01*
X1001000Y-99695D01*
X1068100Y-99695D01*
X1068100Y-147094D01*
G37*
G36*
X1001000Y-97094D02*
G01*
X1001000Y-49695D01*
X1068100Y-49695D01*
X1068100Y-97094D01*
G37*
G36*
X591800Y-394895D02*
G01*
X591800Y-327795D01*
X639200Y-327795D01*
X639200Y-394895D01*
G37*
G36*
X541800Y-394895D02*
G01*
X541800Y-327795D01*
X589200Y-327795D01*
X589200Y-394895D01*
G37*
G36*
X491800Y-394895D02*
G01*
X491800Y-327795D01*
X539200Y-327795D01*
X539200Y-394895D01*
G37*
G36*
X441800Y-394895D02*
G01*
X441800Y-327795D01*
X489200Y-327795D01*
X489200Y-394895D01*
G37*
G36*
X391800Y-394895D02*
G01*
X391800Y-327795D01*
X439200Y-327795D01*
X439200Y-394895D01*
G37*
G36*
X341800Y-394895D02*
G01*
X341800Y-327795D01*
X389200Y-327795D01*
X389200Y-394895D01*
G37*
G36*
X291800Y-394895D02*
G01*
X291800Y-327795D01*
X339200Y-327795D01*
X339200Y-394895D01*
G37*
D84*
G01*
X619499Y-9394D03*
G36*
X-1394300Y-76894D02*
G01*
X-1394300Y-43294D01*
X-1362700Y-43294D01*
X-1362700Y-76894D01*
G37*
G36*
X-1360900Y-76894D02*
G01*
X-1360900Y-43294D01*
X-1329300Y-43294D01*
X-1329300Y-76894D01*
G37*
G36*
X-1581000Y-99094D02*
G01*
X-1581000Y-77294D01*
X-1533000Y-77294D01*
X-1533000Y-99094D01*
G37*
G36*
X-1581000Y-67595D02*
G01*
X-1581000Y-45794D01*
X-1533000Y-45794D01*
X-1533000Y-67595D01*
G37*
G36*
X-1581000Y-36095D02*
G01*
X-1581000Y-14294D01*
X-1533000Y-14294D01*
X-1533000Y-36095D01*
G37*
G36*
X-1581000Y-4594D02*
G01*
X-1581000Y17204D01*
X-1533000Y17204D01*
X-1533000Y-4594D01*
G37*
G36*
X-1581000Y26905D02*
G01*
X-1581000Y48605D01*
X-1533000Y48605D01*
X-1533000Y26905D01*
G37*
G36*
X-1581000Y58305D02*
G01*
X-1581000Y80104D01*
X-1533000Y80104D01*
X-1533000Y58305D01*
G37*
G36*
X-1581000Y89805D02*
G01*
X-1581000Y111604D01*
X-1533000Y111604D01*
X-1533000Y89805D01*
G37*
G36*
X-1476999Y-99094D02*
G01*
X-1476999Y-77294D01*
X-1428999Y-77294D01*
X-1428999Y-99094D01*
G37*
G36*
X-1476999Y-67595D02*
G01*
X-1476999Y-45794D01*
X-1428999Y-45794D01*
X-1428999Y-67595D01*
G37*
G36*
X-1476999Y-36095D02*
G01*
X-1476999Y-14294D01*
X-1428999Y-14294D01*
X-1428999Y-36095D01*
G37*
G36*
X-1476999Y-4594D02*
G01*
X-1476999Y17204D01*
X-1428999Y17204D01*
X-1428999Y-4594D01*
G37*
G36*
X-1476999Y26905D02*
G01*
X-1476999Y48605D01*
X-1428999Y48605D01*
X-1428999Y26905D01*
G37*
G36*
X-1476999Y58305D02*
G01*
X-1476999Y80104D01*
X-1428999Y80104D01*
X-1428999Y58305D01*
G37*
G36*
X-1476999Y89805D02*
G01*
X-1476999Y111604D01*
X-1428999Y111604D01*
X-1428999Y89805D01*
G37*
G36*
X1268599Y339504D02*
G01*
X1268599Y422305D01*
X1351400Y422305D01*
X1351400Y339504D01*
G37*
D60*
G01*
X1410000Y380905D03*
G36*
X-1391499Y335705D02*
G01*
X-1391499Y410705D01*
X-1316499Y410705D01*
X-1316499Y335705D01*
G37*
G36*
X1682500Y-119895D02*
G01*
X1682500Y-44895D01*
X1757500Y-44895D01*
X1757500Y-119895D01*
G37*
G36*
X1682500Y40104D02*
G01*
X1682500Y115104D01*
X1757500Y115104D01*
X1757500Y40104D01*
G37*
G36*
X1682500Y-39895D02*
G01*
X1682500Y35104D01*
X1757500Y35104D01*
X1757500Y-39895D01*
G37*
G36*
X-1722500Y335405D02*
G01*
X-1722500Y410405D01*
X-1647500Y410405D01*
X-1647500Y335405D01*
G37*
G36*
X-1502500Y335405D02*
G01*
X-1502500Y410405D01*
X-1427500Y410405D01*
X-1427500Y335405D01*
G37*
G36*
X-1612500Y335405D02*
G01*
X-1612500Y410405D01*
X-1537500Y410405D01*
X-1537500Y335405D01*
G37*
G36*
X-1326400Y-423494D02*
G01*
X-1326400Y-340695D01*
X-1243599Y-340695D01*
X-1243599Y-423494D01*
G37*
G01*
X-1385000Y-382094D03*
D55*
G01*
X-1556009Y-157195D03*
G01*
X-1556009Y-347795D03*
G36*
X1682500Y-199895D02*
G01*
X1682500Y-124895D01*
X1757500Y-124895D01*
X1757500Y-199895D01*
G37*
G36*
X1682500Y-359895D02*
G01*
X1682500Y-284895D01*
X1757500Y-284895D01*
X1757500Y-359895D01*
G37*
G36*
X1682500Y-279895D02*
G01*
X1682500Y-204895D01*
X1757500Y-204895D01*
X1757500Y-279895D01*
G37*
G36*
X1682500Y-119895D02*
G01*
X1682500Y-44895D01*
X1757500Y-44895D01*
X1757500Y-119895D01*
G37*
G36*
X1682500Y-39895D02*
G01*
X1682500Y35104D01*
X1757500Y35104D01*
X1757500Y-39895D01*
G37*
G36*
X1682500Y40104D02*
G01*
X1682500Y115104D01*
X1757500Y115104D01*
X1757500Y40104D01*
G37*
G36*
X1682500Y120104D02*
G01*
X1682500Y195104D01*
X1757500Y195104D01*
X1757500Y120104D01*
G37*
G36*
X1682500Y200104D02*
G01*
X1682500Y275104D01*
X1757500Y275104D01*
X1757500Y200104D01*
G37*
G36*
X1682500Y280104D02*
G01*
X1682500Y355104D01*
X1757500Y355104D01*
X1757500Y280104D01*
G37*
G36*
X1682500Y360104D02*
G01*
X1682500Y435104D01*
X1757500Y435104D01*
X1757500Y360104D01*
G37*
G36*
X1572500Y358405D02*
G01*
X1572500Y433405D01*
X1647500Y433405D01*
X1647500Y358405D01*
G37*
G36*
X1492500Y358405D02*
G01*
X1492500Y433405D01*
X1567500Y433405D01*
X1567500Y358405D01*
G37*
G36*
X-92500Y-364594D02*
G01*
X-92500Y-289594D01*
X-17500Y-289594D01*
X-17500Y-364594D01*
G37*
G36*
X-92500Y-284594D02*
G01*
X-92500Y-209594D01*
X-17500Y-209594D01*
X-17500Y-284594D01*
G37*
G36*
X-92500Y-204594D02*
G01*
X-92500Y-129594D01*
X-17500Y-129594D01*
X-17500Y-204594D01*
G37*
G36*
X-92500Y-124594D02*
G01*
X-92500Y-49594D01*
X-17500Y-49594D01*
X-17500Y-124594D01*
G37*
G36*
X-92500Y-44594D02*
G01*
X-92500Y30405D01*
X-17500Y30405D01*
X-17500Y-44594D01*
G37*
G36*
X-92500Y35405D02*
G01*
X-92500Y110405D01*
X-17500Y110405D01*
X-17500Y35405D01*
G37*
G36*
X-92500Y195405D02*
G01*
X-92500Y270405D01*
X-17500Y270405D01*
X-17500Y195405D01*
G37*
G36*
X-92500Y275405D02*
G01*
X-92500Y350405D01*
X-17500Y350405D01*
X-17500Y275405D01*
G37*
G36*
X-92500Y355405D02*
G01*
X-92500Y430405D01*
X-17500Y430405D01*
X-17500Y355405D01*
G37*
G36*
X-202500Y353704D02*
G01*
X-202500Y428704D01*
X-127500Y428704D01*
X-127500Y353704D01*
G37*
G36*
X-282500Y353704D02*
G01*
X-282500Y428704D01*
X-207500Y428704D01*
X-207500Y353704D01*
G37*
G36*
X-92500Y115405D02*
G01*
X-92500Y190405D01*
X-17500Y190405D01*
X-17500Y115405D01*
G37*
G36*
X-171199Y-431694D02*
G01*
X-171199Y-356694D01*
X-96199Y-356694D01*
X-96199Y-431694D01*
G37*
G36*
X1603800Y-426994D02*
G01*
X1603800Y-351994D01*
X1678800Y-351994D01*
X1678800Y-426994D01*
G37*
M02*
