G04 Layer: TopPasteMaskLayer*
G04 EasyEDA v6.5.5, 2022-06-25 23:47:44*
G04 621e16e28f884fd4bf2062cce9099d3c,e579ade59e434e5c9d4a708449f7d829,10*
G04 Gerber Generator version 0.2*
G04 Scale: 100 percent, Rotated: No, Reflected: No *
G04 Dimensions in inches *
G04 leading zeros omitted , absolute positions ,3 integer and 6 decimal *
%FSLAX36Y36*%
%MOIN*%

%ADD14C,0.0110*%
%ADD16C,0.0394*%
%ADD17R,0.0236X0.0256*%
%ADD18R,0.0394X0.0394*%
%ADD19R,0.0256X0.0236*%
%ADD20R,0.0433X0.0394*%
%ADD21R,0.0512X0.0236*%
%ADD22R,0.0430X0.0390*%
%ADD23R,0.0100X0.0197*%
%ADD24R,0.0197X0.0100*%
%ADD25R,0.0984X0.0984*%
%ADD26R,0.0217X0.0472*%
%ADD27R,0.0787X0.0177*%
%ADD28R,0.0472X0.0630*%
%ADD29R,0.0394X0.0433*%
%ADD33R,0.0492X0.0276*%
%ADD34R,0.0189X0.0158*%
%ADD36R,0.0551X0.0315*%
%ADD37R,0.0138X0.0320*%

%LPD*%
D14*
X-679099Y-32454D02*
G01*
X-679099Y-54895D01*
X-659399Y-32454D02*
G01*
X-659399Y-54895D01*
X-639700Y-32454D02*
G01*
X-639700Y-54895D01*
X-620000Y-32454D02*
G01*
X-620000Y-54895D01*
X-600299Y-32454D02*
G01*
X-600299Y-54895D01*
X-580600Y-32454D02*
G01*
X-580600Y-54895D01*
X-560900Y-32454D02*
G01*
X-560900Y-54895D01*
X-532790Y-82995D02*
G01*
X-510348Y-82995D01*
X-532790Y-102694D02*
G01*
X-510348Y-102694D01*
X-532790Y-122395D02*
G01*
X-510348Y-122395D01*
X-532790Y-142094D02*
G01*
X-510348Y-142094D01*
X-532790Y-161794D02*
G01*
X-510348Y-161794D01*
X-532790Y-181494D02*
G01*
X-510348Y-181494D01*
X-532790Y-201194D02*
G01*
X-510348Y-201194D01*
X-560900Y-229304D02*
G01*
X-560900Y-251745D01*
X-580600Y-229304D02*
G01*
X-580600Y-251745D01*
X-600299Y-229304D02*
G01*
X-600299Y-251745D01*
X-620000Y-229304D02*
G01*
X-620000Y-251745D01*
X-639700Y-229304D02*
G01*
X-639700Y-251745D01*
X-659399Y-229304D02*
G01*
X-659399Y-251745D01*
X-679099Y-229304D02*
G01*
X-679099Y-251745D01*
X-729639Y-201194D02*
G01*
X-707199Y-201194D01*
X-729639Y-181494D02*
G01*
X-707199Y-181494D01*
X-729639Y-161794D02*
G01*
X-707199Y-161794D01*
X-729639Y-142094D02*
G01*
X-707199Y-142094D01*
X-729639Y-122395D02*
G01*
X-707199Y-122395D01*
X-729639Y-102694D02*
G01*
X-707199Y-102694D01*
X-729639Y-82995D02*
G01*
X-707199Y-82995D01*
X-427475Y-169784D02*
G01*
X-407003Y-169784D01*
X-427475Y-189484D02*
G01*
X-407003Y-189484D01*
X-427475Y-209184D02*
G01*
X-407003Y-209184D01*
X-427475Y-228784D02*
G01*
X-407003Y-228784D01*
X-427475Y-248485D02*
G01*
X-407003Y-248485D01*
X-427475Y-268184D02*
G01*
X-407003Y-268184D01*
X-387500Y-286788D02*
G01*
X-387500Y-307260D01*
X-367799Y-286788D02*
G01*
X-367799Y-307260D01*
X-348100Y-286788D02*
G01*
X-348100Y-307260D01*
X-328500Y-286788D02*
G01*
X-328500Y-307260D01*
X-308800Y-286788D02*
G01*
X-308800Y-307260D01*
X-289099Y-286788D02*
G01*
X-289099Y-307260D01*
X-269996Y-267784D02*
G01*
X-249524Y-267784D01*
X-269996Y-248085D02*
G01*
X-249524Y-248085D01*
X-269996Y-228384D02*
G01*
X-249524Y-228384D01*
X-269996Y-208784D02*
G01*
X-249524Y-208784D01*
X-269996Y-189085D02*
G01*
X-249524Y-189085D01*
X-269996Y-169384D02*
G01*
X-249524Y-169384D01*
X-288500Y-129308D02*
G01*
X-288500Y-149780D01*
X-308199Y-129308D02*
G01*
X-308199Y-149780D01*
X-327899Y-129308D02*
G01*
X-327899Y-149780D01*
X-347500Y-129308D02*
G01*
X-347500Y-149780D01*
X-367200Y-129308D02*
G01*
X-367200Y-149780D01*
X-386899Y-129308D02*
G01*
X-386899Y-149780D01*
D16*
G01*
X425000Y407905D03*
G36*
X484889Y420695D02*
G01*
X508509Y420695D01*
X508509Y395114D01*
X484889Y395114D01*
G37*
G36*
X451490Y420695D02*
G01*
X475110Y420695D01*
X475110Y395114D01*
X451490Y395114D01*
G37*
D17*
G01*
X533299Y407905D03*
G01*
X566700Y407905D03*
D18*
G01*
X1542240Y275905D03*
G01*
X1447759Y275905D03*
D17*
G01*
X-761700Y386204D03*
G01*
X-728299Y386204D03*
G36*
X-610110Y343994D02*
G01*
X-586490Y343994D01*
X-586490Y318414D01*
X-610110Y318414D01*
G37*
G36*
X-643509Y343994D02*
G01*
X-619889Y343994D01*
X-619889Y318414D01*
X-643509Y318414D01*
G37*
D19*
G01*
X566000Y368704D03*
G01*
X566000Y335304D03*
G01*
X615200Y368805D03*
G01*
X615200Y335405D03*
D20*
G01*
X-1487600Y229265D03*
G01*
X-1487600Y174144D03*
G01*
X-1546899Y229265D03*
G01*
X-1546899Y174144D03*
D21*
G01*
X-1612060Y239304D03*
G01*
X-1706540Y201905D03*
G01*
X-1612060Y164504D03*
G36*
X-202600Y-41694D02*
G01*
X-202600Y4304D01*
X-139600Y4304D01*
X-139600Y-41694D01*
G37*
G36*
X-202600Y-101694D02*
G01*
X-202600Y-55695D01*
X-139600Y-55695D01*
X-139600Y-101694D01*
G37*
G36*
X-202600Y18305D02*
G01*
X-202600Y64304D01*
X-139600Y64304D01*
X-139600Y18305D01*
G37*
G36*
X1144889Y-99602D02*
G01*
X1168509Y-99602D01*
X1168509Y-125183D01*
X1144889Y-125183D01*
G37*
G36*
X1111490Y-99602D02*
G01*
X1135110Y-99602D01*
X1135110Y-125183D01*
X1111490Y-125183D01*
G37*
G36*
X1584889Y-74602D02*
G01*
X1608509Y-74602D01*
X1608509Y-100183D01*
X1584889Y-100183D01*
G37*
G36*
X1551490Y-74602D02*
G01*
X1575110Y-74602D01*
X1575110Y-100183D01*
X1551490Y-100183D01*
G37*
G36*
X1144889Y20397D02*
G01*
X1168509Y20397D01*
X1168509Y-5183D01*
X1144889Y-5183D01*
G37*
G36*
X1111490Y20397D02*
G01*
X1135110Y20397D01*
X1135110Y-5183D01*
X1111490Y-5183D01*
G37*
D19*
G01*
X1290000Y150905D03*
G01*
X1290000Y184304D03*
G36*
X1584889Y125397D02*
G01*
X1608509Y125397D01*
X1608509Y99816D01*
X1584889Y99816D01*
G37*
G36*
X1551490Y125397D02*
G01*
X1575110Y125397D01*
X1575110Y99816D01*
X1551490Y99816D01*
G37*
D17*
G01*
X1563299Y-7395D03*
G01*
X1596700Y-7395D03*
D19*
G01*
X1430000Y-290695D03*
G01*
X1430000Y-324094D03*
G01*
X1230000Y-290695D03*
G01*
X1230000Y-324094D03*
D17*
G01*
X1563299Y-167395D03*
G01*
X1596700Y-167395D03*
D19*
G01*
X1270000Y-290695D03*
G01*
X1270000Y-324094D03*
G01*
X1310000Y-290695D03*
G01*
X1310000Y-324094D03*
G01*
X1350000Y-290695D03*
G01*
X1350000Y-324094D03*
G01*
X1390000Y-290695D03*
G01*
X1390000Y-324094D03*
G01*
X1470000Y-290695D03*
G01*
X1470000Y-324094D03*
D17*
G01*
X1563299Y-47395D03*
G01*
X1596700Y-47395D03*
G01*
X1563299Y-247395D03*
G01*
X1596700Y-247395D03*
G36*
X1584889Y45397D02*
G01*
X1608509Y45397D01*
X1608509Y19816D01*
X1584889Y19816D01*
G37*
G36*
X1551490Y45397D02*
G01*
X1575110Y45397D01*
X1575110Y19816D01*
X1551490Y19816D01*
G37*
G01*
X1563299Y72604D03*
G01*
X1596700Y72604D03*
G36*
X1584889Y-194602D02*
G01*
X1608509Y-194602D01*
X1608509Y-220183D01*
X1584889Y-220183D01*
G37*
G36*
X1551490Y-194602D02*
G01*
X1575110Y-194602D01*
X1575110Y-220183D01*
X1551490Y-220183D01*
G37*
G36*
X1144889Y-139602D02*
G01*
X1168509Y-139602D01*
X1168509Y-165183D01*
X1144889Y-165183D01*
G37*
G36*
X1111490Y-139602D02*
G01*
X1135110Y-139602D01*
X1135110Y-165183D01*
X1111490Y-165183D01*
G37*
G01*
X1563299Y-127395D03*
G01*
X1596700Y-127395D03*
G36*
X1144889Y-19602D02*
G01*
X1168509Y-19602D01*
X1168509Y-45183D01*
X1144889Y-45183D01*
G37*
G36*
X1111490Y-19602D02*
G01*
X1135110Y-19602D01*
X1135110Y-45183D01*
X1111490Y-45183D01*
G37*
G36*
X1144889Y-59602D02*
G01*
X1168509Y-59602D01*
X1168509Y-85183D01*
X1144889Y-85183D01*
G37*
G36*
X1111490Y-59602D02*
G01*
X1135110Y-59602D01*
X1135110Y-85183D01*
X1111490Y-85183D01*
G37*
D19*
G01*
X1330000Y184304D03*
G01*
X1330000Y150905D03*
G01*
X1410000Y150905D03*
G01*
X1410000Y184304D03*
G01*
X1370000Y184304D03*
G01*
X1370000Y150905D03*
G01*
X1095000Y319304D03*
G01*
X1095000Y285905D03*
D22*
G01*
X1096499Y392604D03*
G01*
X1163500Y392604D03*
G01*
X-1641499Y92905D03*
G01*
X-1708500Y92905D03*
G36*
X1306000Y-130542D02*
G01*
X1316000Y-130542D01*
X1316000Y-150242D01*
X1306000Y-150242D01*
G37*
G36*
X1325000Y-130542D02*
G01*
X1335000Y-130542D01*
X1335000Y-150242D01*
X1325000Y-150242D01*
G37*
G36*
X1345000Y-130542D02*
G01*
X1355000Y-130542D01*
X1355000Y-150242D01*
X1345000Y-150242D01*
G37*
G36*
X1365000Y-130542D02*
G01*
X1375000Y-130542D01*
X1375000Y-150242D01*
X1365000Y-150242D01*
G37*
G36*
X1383999Y-130542D02*
G01*
X1393999Y-130542D01*
X1393999Y-150242D01*
X1383999Y-150242D01*
G37*
D24*
G01*
X1423000Y-106394D03*
G01*
X1423000Y-87395D03*
G01*
X1423000Y-67395D03*
G01*
X1423000Y-47395D03*
G01*
X1423000Y-28395D03*
D23*
G01*
X1388999Y5605D03*
G01*
X1370000Y5605D03*
G01*
X1350000Y5605D03*
G01*
X1330000Y5605D03*
G01*
X1311000Y5605D03*
D24*
G01*
X1276999Y-28395D03*
G01*
X1276999Y-47395D03*
G01*
X1276999Y-67395D03*
G01*
X1276999Y-87395D03*
G01*
X1276999Y-106394D03*
D25*
G01*
X1350000Y-67395D03*
D19*
G01*
X415000Y-325695D03*
G01*
X415000Y-359094D03*
G01*
X565000Y-327395D03*
G01*
X565000Y-360794D03*
D17*
G01*
X-1571700Y92905D03*
G01*
X-1538299Y92905D03*
G01*
X-1236700Y-27094D03*
G01*
X-1203299Y-27094D03*
D19*
G01*
X-735000Y-305394D03*
G01*
X-735000Y-338795D03*
G01*
X-685000Y-305394D03*
G01*
X-685000Y-338795D03*
G01*
X-640000Y-305394D03*
G01*
X-640000Y-338795D03*
G01*
X-655000Y79605D03*
G01*
X-655000Y46204D03*
G01*
X-615000Y79605D03*
G01*
X-615000Y46204D03*
G01*
X-575000Y79605D03*
G01*
X-575000Y46204D03*
G01*
X-695000Y79605D03*
G01*
X-695000Y46204D03*
D17*
G01*
X-916700Y-122094D03*
G01*
X-883299Y-122094D03*
G01*
X-1571700Y-7094D03*
G01*
X-1538299Y-7094D03*
G01*
X-1251700Y247905D03*
G01*
X-1218299Y247905D03*
D19*
G01*
X-266000Y-364594D03*
G01*
X-266000Y-397995D03*
D26*
G01*
X-1183000Y137204D03*
G01*
X-1220000Y137204D03*
G01*
X-1256999Y137204D03*
G01*
X-1256999Y35205D03*
G01*
X-1183000Y35205D03*
D27*
G01*
X-1525119Y-302865D03*
G01*
X-1525119Y-277274D03*
G01*
X-1525119Y-251684D03*
G01*
X-1525119Y-226095D03*
G01*
X-1525119Y-200504D03*
D28*
G01*
X-1694880Y-314915D03*
G01*
X-1694239Y-185834D03*
D17*
G01*
X-831700Y-202094D03*
G01*
X-798299Y-202094D03*
G36*
X-1230110Y215695D02*
G01*
X-1206490Y215695D01*
X-1206490Y190114D01*
X-1230110Y190114D01*
G37*
G36*
X-1263509Y215695D02*
G01*
X-1239889Y215695D01*
X-1239889Y190114D01*
X-1263509Y190114D01*
G37*
G36*
X352989Y380397D02*
G01*
X376610Y380397D01*
X376610Y354816D01*
X352989Y354816D01*
G37*
G36*
X319589Y380397D02*
G01*
X343209Y380397D01*
X343209Y354816D01*
X319589Y354816D01*
G37*
G36*
X-283618Y-75491D02*
G01*
X-259998Y-75491D01*
X-259998Y-101071D01*
X-283618Y-101071D01*
G37*
G36*
X-317019Y-75491D02*
G01*
X-293398Y-75491D01*
X-293398Y-101071D01*
X-317019Y-101071D01*
G37*
D19*
G01*
X-385500Y-397995D03*
G01*
X-385500Y-364594D03*
G01*
X-308999Y-398494D03*
G01*
X-308999Y-365095D03*
D29*
G01*
X-1052439Y217905D03*
G01*
X-1107550Y217905D03*
G01*
X-1047439Y-42094D03*
G01*
X-1102550Y-42094D03*
G01*
X-1332439Y-47094D03*
G01*
X-1387550Y-47094D03*
G01*
X-1337439Y227905D03*
G01*
X-1392550Y227905D03*
G36*
X-681610Y-80485D02*
G01*
X-558389Y-80485D01*
X-558389Y-203704D01*
X-681610Y-203704D01*
G37*
G36*
X-1130600Y60505D02*
G01*
X-1103400Y60505D01*
X-1103400Y13305D01*
X-1130600Y13305D01*
G37*
G36*
X-1093599Y60505D02*
G01*
X-1066400Y60505D01*
X-1066400Y13305D01*
X-1093599Y13305D01*
G37*
G36*
X-1056599Y60505D02*
G01*
X-1029399Y60505D01*
X-1029399Y13305D01*
X-1056599Y13305D01*
G37*
G36*
X-1056599Y162505D02*
G01*
X-1029399Y162505D01*
X-1029399Y115304D01*
X-1056599Y115304D01*
G37*
G36*
X-1130600Y162505D02*
G01*
X-1103400Y162505D01*
X-1103400Y115304D01*
X-1130600Y115304D01*
G37*
G36*
X-1410600Y60505D02*
G01*
X-1383400Y60505D01*
X-1383400Y13305D01*
X-1410600Y13305D01*
G37*
G36*
X-1373599Y60505D02*
G01*
X-1346400Y60505D01*
X-1346400Y13305D01*
X-1373599Y13305D01*
G37*
G36*
X-1336599Y60505D02*
G01*
X-1309399Y60505D01*
X-1309399Y13305D01*
X-1336599Y13305D01*
G37*
G36*
X-1336599Y162505D02*
G01*
X-1309399Y162505D01*
X-1309399Y115304D01*
X-1336599Y115304D01*
G37*
G36*
X-1410600Y162505D02*
G01*
X-1383400Y162505D01*
X-1383400Y115304D01*
X-1410600Y115304D01*
G37*
G36*
X-391269Y-166021D02*
G01*
X-285748Y-166021D01*
X-285748Y-271541D01*
X-391269Y-271541D01*
G37*
G36*
X-1426929Y-117409D02*
G01*
X-1387559Y-117409D01*
X-1387559Y-156779D01*
X-1426929Y-156779D01*
G37*
G36*
X-1332440Y-117409D02*
G01*
X-1293071Y-117409D01*
X-1293071Y-156779D01*
X-1332440Y-156779D01*
G37*
D33*
G01*
X-939200Y-32094D03*
G01*
X-840799Y5304D03*
G01*
X-840799Y-69494D03*
G01*
X-830799Y102905D03*
G01*
X-929200Y65505D03*
G01*
X-929200Y140304D03*
D22*
G01*
X-1641499Y-7094D03*
G01*
X-1708500Y-7094D03*
D34*
G01*
X-1334020Y-302094D03*
G01*
X-1385979Y-302094D03*
G01*
X-1334020Y-252094D03*
G01*
X-1385979Y-252094D03*
G36*
X-1395429Y-194220D02*
G01*
X-1376530Y-194220D01*
X-1376530Y-209969D01*
X-1395429Y-209969D01*
G37*
G36*
X-1343469Y-194220D02*
G01*
X-1324570Y-194220D01*
X-1324570Y-209969D01*
X-1343469Y-209969D01*
G37*
G36*
X-1122730Y-212995D02*
G01*
X-1091229Y-212995D01*
X-1091229Y-291735D01*
X-1122730Y-291735D01*
G37*
G36*
X-1004620Y-212995D02*
G01*
X-973119Y-212995D01*
X-973119Y-291735D01*
X-1004620Y-291735D01*
G37*
G36*
X-945569Y-212995D02*
G01*
X-914070Y-212995D01*
X-914070Y-291735D01*
X-945569Y-291735D01*
G37*
D36*
G01*
X-1169340Y-299994D03*
G01*
X-870780Y-299654D03*
G01*
X-870299Y-398445D03*
G01*
X-1169700Y-401824D03*
D37*
G01*
X-750000Y332204D03*
G01*
X-724399Y332204D03*
G01*
X-698400Y332204D03*
G01*
X-672799Y332204D03*
G01*
X-750000Y264205D03*
G01*
X-724399Y264205D03*
G01*
X-698400Y264205D03*
G01*
X-672799Y264205D03*
M02*
