G04 Layer: BottomLayer*
G04 EasyEDA v6.5.5, 2022-06-25 23:47:44*
G04 621e16e28f884fd4bf2062cce9099d3c,e579ade59e434e5c9d4a708449f7d829,10*
G04 Gerber Generator version 0.2*
G04 Scale: 100 percent, Rotated: No, Reflected: No *
G04 Dimensions in inches *
G04 leading zeros omitted , absolute positions ,3 integer and 6 decimal *
%FSLAX36Y36*%
%MOIN*%

%ADD10C,0.0100*%
%ADD11C,0.0180*%
%ADD15C,0.0240*%
%ADD38R,0.0748X0.0748*%
%ADD39C,0.0748*%
%ADD40R,0.0669X0.0669*%
%ADD41C,0.0512*%
%ADD45R,0.0400X0.0138*%

%LPD*%
G36*
X990660Y-5659D02*
G01*
X989180Y-5200D01*
X987980Y-4220D01*
X987140Y-3180D01*
X663940Y320120D01*
X663060Y321420D01*
X662760Y322960D01*
X663060Y324480D01*
X663940Y325780D01*
X665240Y326640D01*
X666760Y326960D01*
X684980Y326960D01*
X687440Y327239D01*
X689180Y327840D01*
X690500Y328060D01*
X691820Y327840D01*
X693560Y327239D01*
X696020Y326960D01*
X734980Y326960D01*
X737440Y327239D01*
X739180Y327840D01*
X740500Y328060D01*
X741820Y327840D01*
X743560Y327239D01*
X746020Y326960D01*
X747920Y326960D01*
X749340Y326700D01*
X750560Y325959D01*
X751460Y324840D01*
X752960Y322020D01*
X754960Y319580D01*
X794180Y280360D01*
X796620Y278360D01*
X799220Y276980D01*
X802060Y276120D01*
X805200Y275800D01*
X1087080Y275800D01*
X1088620Y275500D01*
X1089920Y274640D01*
X1130220Y234320D01*
X1131080Y233039D01*
X1131400Y231500D01*
X1131400Y213340D01*
X1131520Y212240D01*
X1131380Y210660D01*
X1130640Y209259D01*
X1129400Y208240D01*
X1127880Y207800D01*
X1126160Y207640D01*
X1122440Y206660D01*
X1118960Y205020D01*
X1115800Y202820D01*
X1113080Y200100D01*
X1110880Y196940D01*
X1109240Y193460D01*
X1108260Y189740D01*
X1107920Y185900D01*
X1108220Y182500D01*
X1107980Y180780D01*
X1107060Y179320D01*
X1094460Y166720D01*
X1092460Y164280D01*
X1091060Y161680D01*
X1090200Y158840D01*
X1089900Y155700D01*
X1089900Y111100D01*
X1090200Y107960D01*
X1091060Y105140D01*
X1092460Y102520D01*
X1094460Y100079D01*
X1120020Y74540D01*
X1120880Y73240D01*
X1121180Y71700D01*
X1120880Y70180D01*
X1120020Y68880D01*
X1118720Y68000D01*
X1117180Y67700D01*
X1092920Y67700D01*
X1091380Y68000D01*
X1090080Y68880D01*
X1075320Y83640D01*
X1074460Y84940D01*
X1074160Y86460D01*
X1074160Y96080D01*
X1073880Y98539D01*
X1073260Y100280D01*
X1073040Y101600D01*
X1073260Y102920D01*
X1073880Y104660D01*
X1074160Y107120D01*
X1074160Y146080D01*
X1073880Y148540D01*
X1073260Y150280D01*
X1073040Y151600D01*
X1073260Y152920D01*
X1073880Y154660D01*
X1074160Y157120D01*
X1074160Y196080D01*
X1073880Y198540D01*
X1073260Y200280D01*
X1073040Y201600D01*
X1073260Y202920D01*
X1073880Y204660D01*
X1074160Y207120D01*
X1074160Y214259D01*
X1051780Y214259D01*
X1051780Y210400D01*
X1051480Y208880D01*
X1050600Y207580D01*
X1049300Y206700D01*
X1047780Y206400D01*
X1021220Y206400D01*
X1019700Y206700D01*
X1018400Y207580D01*
X1017520Y208880D01*
X1017220Y210400D01*
X1017220Y214259D01*
X994860Y214259D01*
X994860Y207120D01*
X995120Y204660D01*
X995740Y202920D01*
X995960Y201600D01*
X995740Y200280D01*
X995120Y198540D01*
X994860Y196080D01*
X994860Y157120D01*
X995120Y154660D01*
X995740Y152920D01*
X995960Y151600D01*
X995740Y150280D01*
X995120Y148540D01*
X994860Y146080D01*
X994860Y107120D01*
X995120Y104660D01*
X995740Y102920D01*
X995960Y101600D01*
X995740Y100280D01*
X995120Y98539D01*
X994860Y96080D01*
X994860Y57120D01*
X995120Y54660D01*
X995740Y52920D01*
X995960Y51600D01*
X995740Y50279D01*
X995120Y48540D01*
X994860Y46080D01*
X994860Y7120D01*
X995120Y4660D01*
X995740Y2920D01*
X995960Y1600D01*
X995740Y280D01*
X995120Y-1460D01*
X995060Y-2120D01*
X994580Y-3600D01*
X993580Y-4800D01*
X992220Y-5520D01*
G37*

%LPC*%
G36*
X1051780Y238960D02*
G01*
X1074160Y238960D01*
X1074160Y246080D01*
X1073880Y248540D01*
X1073120Y250680D01*
X1071920Y252580D01*
X1070340Y254180D01*
X1068420Y255380D01*
X1066300Y256119D01*
X1063820Y256400D01*
X1051780Y256400D01*
G37*
G36*
X994860Y238960D02*
G01*
X1017220Y238960D01*
X1017220Y256400D01*
X1005180Y256400D01*
X1002700Y256119D01*
X1000580Y255380D01*
X998660Y254180D01*
X997080Y252580D01*
X995879Y250680D01*
X995120Y248540D01*
X994860Y246080D01*
G37*

%LPD*%
G36*
X1140960Y-137300D02*
G01*
X1139440Y-137000D01*
X1138140Y-136120D01*
X1137500Y-135480D01*
X1134340Y-133280D01*
X1130860Y-131660D01*
X1126700Y-130559D01*
X1125220Y-129800D01*
X1124160Y-128520D01*
X1123720Y-126900D01*
X1123980Y-125260D01*
X1124900Y-123859D01*
X1145080Y-103660D01*
X1146380Y-102800D01*
X1147920Y-102500D01*
X1187320Y-102500D01*
X1188860Y-102800D01*
X1190160Y-103660D01*
X1190800Y-104320D01*
X1193960Y-106519D01*
X1197440Y-108160D01*
X1201160Y-109140D01*
X1205000Y-109480D01*
X1208840Y-109140D01*
X1212560Y-108160D01*
X1216040Y-106519D01*
X1219200Y-104320D01*
X1221920Y-101600D01*
X1224120Y-98440D01*
X1225760Y-94960D01*
X1226740Y-91240D01*
X1227080Y-87400D01*
X1226740Y-83560D01*
X1225760Y-79840D01*
X1224120Y-76360D01*
X1221920Y-73200D01*
X1219200Y-70480D01*
X1216040Y-68280D01*
X1212560Y-66640D01*
X1208840Y-65660D01*
X1205000Y-65320D01*
X1201160Y-65660D01*
X1197440Y-66640D01*
X1193960Y-68280D01*
X1190800Y-70480D01*
X1190160Y-71120D01*
X1188860Y-72000D01*
X1187340Y-72300D01*
X1140200Y-72300D01*
X1137060Y-72600D01*
X1134220Y-73460D01*
X1131620Y-74860D01*
X1129180Y-76860D01*
X1084460Y-121580D01*
X1082460Y-124019D01*
X1081680Y-125480D01*
X1080540Y-126820D01*
X1078940Y-127520D01*
X1077180Y-127480D01*
X1075620Y-126700D01*
X1074540Y-125300D01*
X1074160Y-123600D01*
X1074160Y-103920D01*
X1073880Y-101460D01*
X1073260Y-99720D01*
X1073040Y-98400D01*
X1073260Y-97080D01*
X1073880Y-95340D01*
X1074160Y-92880D01*
X1074160Y-53920D01*
X1073880Y-51460D01*
X1073260Y-49720D01*
X1073040Y-48400D01*
X1073260Y-47080D01*
X1073880Y-45340D01*
X1074160Y-42880D01*
X1074160Y-3920D01*
X1073880Y-1460D01*
X1073260Y280D01*
X1073040Y1600D01*
X1073260Y2920D01*
X1073880Y4660D01*
X1074160Y7500D01*
X1074460Y9040D01*
X1075320Y10320D01*
X1076620Y11200D01*
X1078160Y11500D01*
X1408800Y11500D01*
X1411940Y11820D01*
X1414780Y12660D01*
X1417380Y14060D01*
X1419820Y16060D01*
X1433160Y29420D01*
X1434300Y30219D01*
X1435640Y30580D01*
X1438839Y30860D01*
X1442560Y31840D01*
X1446040Y33480D01*
X1449199Y35680D01*
X1451920Y38400D01*
X1454120Y41560D01*
X1455760Y45039D01*
X1456740Y48760D01*
X1457080Y52600D01*
X1456740Y56440D01*
X1455400Y61700D01*
X1455680Y63259D01*
X1456540Y64600D01*
X1457840Y65480D01*
X1459400Y65800D01*
X1464800Y65800D01*
X1467940Y66120D01*
X1470780Y66980D01*
X1473380Y68360D01*
X1475820Y70360D01*
X1570080Y164640D01*
X1571380Y165500D01*
X1572920Y165799D01*
X1672440Y165799D01*
X1673959Y165500D01*
X1675260Y164640D01*
X1676140Y163340D01*
X1676440Y161800D01*
X1676440Y124360D01*
X1676720Y121900D01*
X1678020Y118340D01*
X1678020Y116860D01*
X1676720Y113300D01*
X1676440Y110840D01*
X1676440Y85040D01*
X1676140Y83520D01*
X1675260Y82220D01*
X1631459Y38420D01*
X1629460Y35980D01*
X1628060Y33380D01*
X1627200Y30540D01*
X1626900Y27400D01*
X1626900Y-126580D01*
X1626600Y-128120D01*
X1625720Y-129420D01*
X1624440Y-130280D01*
X1622900Y-130580D01*
X1621360Y-130280D01*
X1619880Y-129220D01*
X1619079Y-128100D01*
X1618720Y-126740D01*
X1618440Y-123560D01*
X1617460Y-119840D01*
X1615820Y-116359D01*
X1613620Y-113200D01*
X1610640Y-110220D01*
X1609780Y-108920D01*
X1609480Y-107380D01*
X1609780Y-105860D01*
X1610640Y-104560D01*
X1613620Y-101600D01*
X1615820Y-98440D01*
X1617460Y-94960D01*
X1618440Y-91240D01*
X1618779Y-87400D01*
X1618440Y-83560D01*
X1617460Y-79840D01*
X1615820Y-76360D01*
X1613620Y-73200D01*
X1612980Y-72560D01*
X1612100Y-71260D01*
X1611800Y-69720D01*
X1611800Y-25080D01*
X1612100Y-23540D01*
X1612980Y-22240D01*
X1613620Y-21600D01*
X1615820Y-18440D01*
X1617460Y-14960D01*
X1618440Y-11240D01*
X1618779Y-7400D01*
X1618440Y-3560D01*
X1617460Y160D01*
X1615820Y3640D01*
X1613620Y6800D01*
X1610900Y9520D01*
X1607740Y11720D01*
X1604259Y13360D01*
X1600540Y14340D01*
X1596699Y14680D01*
X1592860Y14340D01*
X1589139Y13360D01*
X1585660Y11720D01*
X1582500Y9520D01*
X1579780Y6800D01*
X1577580Y3640D01*
X1575940Y160D01*
X1574960Y-3560D01*
X1574620Y-7400D01*
X1574960Y-11240D01*
X1575940Y-14960D01*
X1577580Y-18440D01*
X1579780Y-21600D01*
X1580420Y-22240D01*
X1581300Y-23540D01*
X1581600Y-25059D01*
X1581600Y-68300D01*
X1581300Y-69820D01*
X1580420Y-71120D01*
X1579120Y-72000D01*
X1577600Y-72300D01*
X1562920Y-72300D01*
X1561380Y-72000D01*
X1560080Y-71120D01*
X1533180Y-44220D01*
X1532380Y-43080D01*
X1532020Y-41740D01*
X1531740Y-38560D01*
X1530760Y-34840D01*
X1529120Y-31360D01*
X1526920Y-28200D01*
X1524199Y-25480D01*
X1521040Y-23280D01*
X1517560Y-21640D01*
X1513839Y-20660D01*
X1510000Y-20320D01*
X1506160Y-20660D01*
X1502440Y-21640D01*
X1498959Y-23280D01*
X1495800Y-25480D01*
X1493080Y-28200D01*
X1490880Y-31360D01*
X1489240Y-34840D01*
X1488260Y-38560D01*
X1487920Y-42400D01*
X1488260Y-46240D01*
X1489240Y-49960D01*
X1490880Y-53440D01*
X1493080Y-56600D01*
X1495800Y-59320D01*
X1498959Y-61520D01*
X1502440Y-63160D01*
X1506160Y-64140D01*
X1509360Y-64420D01*
X1510700Y-64780D01*
X1511840Y-65580D01*
X1544180Y-97940D01*
X1546620Y-99940D01*
X1549220Y-101340D01*
X1552060Y-102180D01*
X1555200Y-102500D01*
X1579019Y-102500D01*
X1580580Y-102800D01*
X1581879Y-103680D01*
X1582780Y-104600D01*
X1583620Y-105900D01*
X1583920Y-107420D01*
X1583620Y-108940D01*
X1582760Y-110239D01*
X1579780Y-113200D01*
X1577580Y-116359D01*
X1575940Y-119840D01*
X1574960Y-123560D01*
X1574680Y-126740D01*
X1574319Y-128080D01*
X1573520Y-129220D01*
X1566620Y-136120D01*
X1565320Y-137000D01*
X1563779Y-137300D01*
G37*

%LPC*%
G36*
X1596699Y50519D02*
G01*
X1600540Y50860D01*
X1604259Y51840D01*
X1607740Y53480D01*
X1610900Y55679D01*
X1613620Y58400D01*
X1615820Y61560D01*
X1617460Y65039D01*
X1618440Y68760D01*
X1618779Y72600D01*
X1618440Y76440D01*
X1617460Y80160D01*
X1615820Y83640D01*
X1613620Y86800D01*
X1610900Y89520D01*
X1607740Y91720D01*
X1604240Y93360D01*
X1603100Y94160D01*
X1586480Y110780D01*
X1585680Y111920D01*
X1585320Y113260D01*
X1585040Y116440D01*
X1584060Y120160D01*
X1582420Y123640D01*
X1580220Y126800D01*
X1577500Y129520D01*
X1574340Y131720D01*
X1570860Y133360D01*
X1567140Y134340D01*
X1563300Y134680D01*
X1559460Y134340D01*
X1555740Y133360D01*
X1552260Y131720D01*
X1549100Y129520D01*
X1546380Y126800D01*
X1544180Y123640D01*
X1542540Y120160D01*
X1541560Y116440D01*
X1541220Y112600D01*
X1541560Y108760D01*
X1542540Y105040D01*
X1544180Y101560D01*
X1546380Y98400D01*
X1549100Y95680D01*
X1552260Y93480D01*
X1555740Y91840D01*
X1559460Y90860D01*
X1562660Y90580D01*
X1564000Y90220D01*
X1565140Y89420D01*
X1573980Y80559D01*
X1574780Y79420D01*
X1575140Y78080D01*
X1574620Y72600D01*
X1574960Y68760D01*
X1575940Y65039D01*
X1577580Y61560D01*
X1579780Y58400D01*
X1582500Y55679D01*
X1585660Y53480D01*
X1589139Y51840D01*
X1592860Y50860D01*
G37*

%LPD*%
G36*
X-102560Y-146520D02*
G01*
X-104100Y-146220D01*
X-105399Y-145360D01*
X-381719Y130980D01*
X-382580Y132260D01*
X-382879Y133800D01*
X-382580Y135340D01*
X-381719Y136620D01*
X-380420Y137500D01*
X-378880Y137800D01*
X-102560Y137800D01*
X-101039Y137500D01*
X-99740Y136620D01*
X-98859Y135340D01*
X-98560Y133800D01*
X-98560Y119660D01*
X-98280Y117200D01*
X-96980Y113640D01*
X-96980Y112160D01*
X-98280Y108600D01*
X-98560Y106140D01*
X-98560Y39660D01*
X-98280Y37200D01*
X-96980Y33640D01*
X-96980Y32160D01*
X-98280Y28600D01*
X-98560Y26140D01*
X-98560Y-40340D01*
X-98280Y-42800D01*
X-96980Y-46360D01*
X-96980Y-47840D01*
X-98280Y-51400D01*
X-98560Y-53860D01*
X-98560Y-120340D01*
X-98280Y-122800D01*
X-96980Y-126359D01*
X-96980Y-127840D01*
X-98280Y-131400D01*
X-98560Y-133860D01*
X-98560Y-142520D01*
X-98859Y-144060D01*
X-99740Y-145360D01*
X-101039Y-146220D01*
G37*

%LPD*%
G36*
X-1368300Y-237000D02*
G01*
X-1369840Y-236700D01*
X-1371140Y-235820D01*
X-1371780Y-235180D01*
X-1374940Y-232979D01*
X-1378420Y-231340D01*
X-1382140Y-230360D01*
X-1385980Y-230020D01*
X-1389820Y-230360D01*
X-1393540Y-231340D01*
X-1394100Y-231620D01*
X-1395660Y-231980D01*
X-1397240Y-231720D01*
X-1398580Y-230859D01*
X-1399480Y-229560D01*
X-1399800Y-228000D01*
X-1399800Y-175219D01*
X-1399500Y-173680D01*
X-1398620Y-172380D01*
X-1367960Y-141720D01*
X-1365960Y-139280D01*
X-1364560Y-136680D01*
X-1363720Y-133840D01*
X-1363400Y-130700D01*
X-1363400Y-86720D01*
X-1363060Y-85079D01*
X-1362060Y-83740D01*
X-1360620Y-82899D01*
X-1358959Y-82739D01*
X-1356680Y-83000D01*
X-1333520Y-83000D01*
X-1331040Y-82720D01*
X-1328920Y-81980D01*
X-1327000Y-80780D01*
X-1325420Y-79180D01*
X-1324220Y-77260D01*
X-1323460Y-75140D01*
X-1323180Y-72680D01*
X-1323180Y-47520D01*
X-1323460Y-45060D01*
X-1324220Y-42939D01*
X-1325420Y-41020D01*
X-1327000Y-39420D01*
X-1328120Y-38720D01*
X-1329120Y-37840D01*
X-1329780Y-36660D01*
X-1330000Y-35340D01*
X-1330000Y86800D01*
X-1330300Y89940D01*
X-1331160Y92780D01*
X-1332560Y95380D01*
X-1334560Y97820D01*
X-1373820Y137080D01*
X-1374620Y138200D01*
X-1374980Y139560D01*
X-1375380Y144220D01*
X-1374960Y145620D01*
X-1374079Y146780D01*
X-1372820Y147540D01*
X-1371399Y147800D01*
X-1282600Y147800D01*
X-1281180Y147540D01*
X-1279920Y146780D01*
X-1279040Y145620D01*
X-1278620Y144220D01*
X-1279080Y138900D01*
X-1278740Y135060D01*
X-1277760Y131340D01*
X-1276480Y128600D01*
X-1276100Y126920D01*
X-1276080Y-76840D01*
X-1275580Y-80460D01*
X-1274460Y-83800D01*
X-1272740Y-86880D01*
X-1270380Y-89740D01*
X-1129940Y-230180D01*
X-1129080Y-231460D01*
X-1128760Y-233000D01*
X-1129080Y-234540D01*
X-1129940Y-235820D01*
X-1131240Y-236700D01*
X-1132760Y-237000D01*
G37*

%LPD*%
G36*
X-816780Y-379099D02*
G01*
X-818319Y-378800D01*
X-819620Y-377920D01*
X-896420Y-301140D01*
X-897260Y-299900D01*
X-897580Y-298440D01*
X-897360Y-296960D01*
X-896600Y-295660D01*
X-895420Y-294740D01*
X-893980Y-294320D01*
X-892660Y-294200D01*
X-889820Y-293340D01*
X-887220Y-291940D01*
X-884780Y-289940D01*
X-804920Y-210080D01*
X-803620Y-209200D01*
X-802080Y-208900D01*
X-760200Y-208900D01*
X-757060Y-208580D01*
X-754220Y-207740D01*
X-751620Y-206340D01*
X-749180Y-204340D01*
X-729460Y-184620D01*
X-727460Y-182180D01*
X-726060Y-179579D01*
X-725200Y-176740D01*
X-724900Y-173600D01*
X-724900Y-157300D01*
X-725200Y-154160D01*
X-726060Y-151320D01*
X-727460Y-148720D01*
X-729460Y-146280D01*
X-746820Y-128920D01*
X-747620Y-127800D01*
X-747980Y-126440D01*
X-748259Y-123260D01*
X-749240Y-119540D01*
X-750879Y-116060D01*
X-753080Y-112899D01*
X-755800Y-110180D01*
X-758960Y-107980D01*
X-762440Y-106340D01*
X-766160Y-105360D01*
X-770000Y-105020D01*
X-773840Y-105360D01*
X-777560Y-106340D01*
X-781040Y-107980D01*
X-784200Y-110180D01*
X-786919Y-112899D01*
X-789120Y-116060D01*
X-790759Y-119540D01*
X-791740Y-123260D01*
X-792080Y-127100D01*
X-791740Y-130940D01*
X-790759Y-134660D01*
X-789120Y-138140D01*
X-787340Y-140700D01*
X-786660Y-142300D01*
X-786740Y-144040D01*
X-787540Y-145580D01*
X-788920Y-146620D01*
X-790600Y-147000D01*
X-808100Y-147000D01*
X-811240Y-147300D01*
X-814080Y-148160D01*
X-816680Y-149560D01*
X-819120Y-151560D01*
X-903379Y-235820D01*
X-904680Y-236700D01*
X-906220Y-237000D01*
X-1081940Y-237000D01*
X-1083360Y-236740D01*
X-1084600Y-235980D01*
X-1085500Y-234820D01*
X-1085900Y-233420D01*
X-1085800Y-231960D01*
X-1085260Y-229940D01*
X-1084920Y-226100D01*
X-1085260Y-222260D01*
X-1086240Y-218540D01*
X-1087880Y-215060D01*
X-1090080Y-211900D01*
X-1092800Y-209180D01*
X-1095960Y-206980D01*
X-1099440Y-205340D01*
X-1101140Y-204760D01*
X-1101980Y-204120D01*
X-1236720Y-69360D01*
X-1237600Y-68060D01*
X-1237900Y-66540D01*
X-1237900Y126920D01*
X-1237520Y128600D01*
X-1236240Y131340D01*
X-1235260Y135060D01*
X-1234920Y138900D01*
X-1235380Y144220D01*
X-1234960Y145620D01*
X-1234080Y146780D01*
X-1232820Y147540D01*
X-1231400Y147800D01*
X-1214920Y147800D01*
X-1213380Y147500D01*
X-1212080Y146620D01*
X-1206180Y140740D01*
X-1205380Y139600D01*
X-1205020Y138260D01*
X-1204740Y135060D01*
X-1203760Y131340D01*
X-1202120Y127860D01*
X-1199920Y124700D01*
X-1197200Y121980D01*
X-1194040Y119780D01*
X-1190560Y118140D01*
X-1186840Y117160D01*
X-1183000Y116820D01*
X-1179160Y117160D01*
X-1175440Y118140D01*
X-1171960Y119780D01*
X-1168800Y121980D01*
X-1166080Y124700D01*
X-1165120Y126080D01*
X-1163840Y127240D01*
X-1162200Y127760D01*
X-1160480Y127540D01*
X-1159020Y126600D01*
X-905280Y-127120D01*
X-904640Y-127960D01*
X-904060Y-129660D01*
X-902420Y-133140D01*
X-900220Y-136300D01*
X-897500Y-139020D01*
X-894340Y-141220D01*
X-890860Y-142860D01*
X-887140Y-143840D01*
X-883300Y-144180D01*
X-879460Y-143840D01*
X-875740Y-142860D01*
X-872260Y-141220D01*
X-869100Y-139020D01*
X-866380Y-136300D01*
X-864180Y-133140D01*
X-862540Y-129660D01*
X-861560Y-125940D01*
X-861220Y-122100D01*
X-861560Y-118260D01*
X-862540Y-114540D01*
X-864180Y-111060D01*
X-866380Y-107899D01*
X-869100Y-105180D01*
X-872260Y-102980D01*
X-875740Y-101340D01*
X-877440Y-100760D01*
X-878280Y-100120D01*
X-920520Y-57880D01*
X-921360Y-56600D01*
X-921680Y-55119D01*
X-921420Y-53620D01*
X-920620Y-52320D01*
X-915800Y-49020D01*
X-913080Y-46300D01*
X-910879Y-43140D01*
X-909240Y-39660D01*
X-908259Y-35940D01*
X-907920Y-32100D01*
X-908259Y-28260D01*
X-909240Y-24540D01*
X-910879Y-21060D01*
X-913080Y-17900D01*
X-915800Y-15180D01*
X-918960Y-12980D01*
X-922440Y-11339D01*
X-926160Y-10360D01*
X-929340Y-10080D01*
X-930699Y-9720D01*
X-931820Y-8920D01*
X-938720Y-2020D01*
X-939599Y-720D01*
X-939900Y820D01*
X-939900Y40380D01*
X-939640Y41820D01*
X-938880Y43060D01*
X-937720Y43940D01*
X-936320Y44360D01*
X-934860Y44240D01*
X-933040Y43760D01*
X-929200Y43420D01*
X-925360Y43760D01*
X-921640Y44740D01*
X-918160Y46380D01*
X-915000Y48580D01*
X-914360Y49220D01*
X-913060Y50100D01*
X-911540Y50400D01*
X-772600Y50400D01*
X-769460Y50700D01*
X-766620Y51560D01*
X-764020Y52960D01*
X-761580Y54960D01*
X-724920Y91620D01*
X-723620Y92500D01*
X-722080Y92800D01*
X-599400Y92800D01*
X-597840Y92480D01*
X-596540Y91600D01*
X-595680Y90260D01*
X-595400Y88699D01*
X-596740Y83440D01*
X-597020Y80239D01*
X-597380Y78900D01*
X-598180Y77760D01*
X-729180Y-53240D01*
X-730480Y-54100D01*
X-732020Y-54400D01*
X-823120Y-54400D01*
X-824659Y-54100D01*
X-825960Y-53240D01*
X-826600Y-52580D01*
X-829760Y-50380D01*
X-833240Y-48740D01*
X-836960Y-47760D01*
X-840800Y-47420D01*
X-844640Y-47760D01*
X-848360Y-48740D01*
X-851840Y-50380D01*
X-855000Y-52580D01*
X-857720Y-55300D01*
X-859920Y-58460D01*
X-861560Y-61940D01*
X-862540Y-65660D01*
X-862880Y-69500D01*
X-862540Y-73340D01*
X-861560Y-77060D01*
X-859920Y-80540D01*
X-857720Y-83699D01*
X-855000Y-86420D01*
X-851840Y-88620D01*
X-848360Y-90260D01*
X-844640Y-91240D01*
X-840800Y-91580D01*
X-836960Y-91240D01*
X-833240Y-90260D01*
X-829760Y-88620D01*
X-826600Y-86420D01*
X-825960Y-85780D01*
X-824659Y-84900D01*
X-823139Y-84600D01*
X-724300Y-84600D01*
X-721160Y-84300D01*
X-718319Y-83440D01*
X-715720Y-82040D01*
X-713280Y-80040D01*
X-599120Y34120D01*
X-597660Y35040D01*
X-595960Y35280D01*
X-594300Y34760D01*
X-593020Y33580D01*
X-591920Y32000D01*
X-589200Y29280D01*
X-586040Y27080D01*
X-582560Y25440D01*
X-578840Y24460D01*
X-575000Y24120D01*
X-571160Y24460D01*
X-567440Y25440D01*
X-563960Y27080D01*
X-560800Y29280D01*
X-559120Y30960D01*
X-557940Y31780D01*
X-556520Y32120D01*
X-544240Y32820D01*
X-542900Y32960D01*
X-541200Y33300D01*
X-540020Y33660D01*
X-538420Y34320D01*
X-537340Y34900D01*
X-535900Y35860D01*
X-534940Y36640D01*
X-533720Y37860D01*
X-532860Y38900D01*
X-526300Y47660D01*
X-525060Y48760D01*
X-523480Y49240D01*
X-521840Y49060D01*
X-520400Y48220D01*
X-519440Y46880D01*
X-519099Y45260D01*
X-519099Y-187540D01*
X-519400Y-189060D01*
X-520280Y-190360D01*
X-637180Y-307260D01*
X-638460Y-308120D01*
X-640000Y-308440D01*
X-641540Y-308120D01*
X-642820Y-307260D01*
X-707039Y-243080D01*
X-709960Y-240880D01*
X-713100Y-239300D01*
X-716500Y-238340D01*
X-720180Y-238000D01*
X-758020Y-238000D01*
X-759700Y-237620D01*
X-762440Y-236340D01*
X-766160Y-235360D01*
X-770000Y-235020D01*
X-773840Y-235360D01*
X-777560Y-236340D01*
X-781040Y-237979D01*
X-784200Y-240180D01*
X-786919Y-242900D01*
X-789120Y-246060D01*
X-790759Y-249540D01*
X-791740Y-253260D01*
X-792080Y-257100D01*
X-791740Y-260940D01*
X-790759Y-264660D01*
X-789120Y-268140D01*
X-786919Y-271300D01*
X-784200Y-274020D01*
X-781040Y-276220D01*
X-777560Y-277860D01*
X-773840Y-278840D01*
X-770000Y-279180D01*
X-766160Y-278840D01*
X-762440Y-277860D01*
X-759700Y-276580D01*
X-758020Y-276200D01*
X-729560Y-276200D01*
X-728040Y-276500D01*
X-726740Y-277380D01*
X-661979Y-342120D01*
X-661340Y-342960D01*
X-660759Y-344660D01*
X-659120Y-348140D01*
X-656919Y-351300D01*
X-654200Y-354020D01*
X-651040Y-356220D01*
X-647560Y-357860D01*
X-643840Y-358840D01*
X-640000Y-359180D01*
X-636160Y-358840D01*
X-632440Y-357860D01*
X-628960Y-356220D01*
X-625800Y-354020D01*
X-623080Y-351300D01*
X-620880Y-348140D01*
X-619240Y-344660D01*
X-618660Y-342960D01*
X-618020Y-342120D01*
X-563260Y-287380D01*
X-561960Y-286500D01*
X-560440Y-286200D01*
X-215020Y-286200D01*
X-213380Y-286560D01*
X-212040Y-287540D01*
X-211220Y-289000D01*
X-211060Y-290660D01*
X-211600Y-292260D01*
X-212740Y-293480D01*
X-213600Y-294080D01*
X-216320Y-296800D01*
X-218520Y-299960D01*
X-220159Y-303440D01*
X-221140Y-307160D01*
X-221420Y-310360D01*
X-221780Y-311700D01*
X-222580Y-312840D01*
X-260580Y-350820D01*
X-261880Y-351700D01*
X-263420Y-352000D01*
X-329920Y-352000D01*
X-331460Y-351700D01*
X-332760Y-350820D01*
X-333400Y-350180D01*
X-336560Y-347980D01*
X-340040Y-346340D01*
X-343760Y-345360D01*
X-347600Y-345020D01*
X-351440Y-345360D01*
X-355160Y-346340D01*
X-358640Y-347980D01*
X-361800Y-350180D01*
X-364520Y-352900D01*
X-366719Y-356060D01*
X-368360Y-359540D01*
X-369340Y-363260D01*
X-369680Y-367100D01*
X-369340Y-370940D01*
X-368519Y-374060D01*
X-368400Y-375520D01*
X-368820Y-376920D01*
X-369700Y-378080D01*
X-370940Y-378840D01*
X-372380Y-379099D01*
G37*

%LPC*%
G36*
X-960000Y-199180D02*
G01*
X-956160Y-198840D01*
X-952440Y-197860D01*
X-949700Y-196580D01*
X-948020Y-196200D01*
X-906979Y-196200D01*
X-905300Y-196580D01*
X-902560Y-197860D01*
X-898840Y-198840D01*
X-895000Y-199180D01*
X-891160Y-198840D01*
X-887440Y-197860D01*
X-883960Y-196220D01*
X-880800Y-194020D01*
X-878080Y-191300D01*
X-875879Y-188140D01*
X-874240Y-184660D01*
X-873259Y-180940D01*
X-872920Y-177100D01*
X-873259Y-173260D01*
X-874240Y-169540D01*
X-875879Y-166060D01*
X-878080Y-162900D01*
X-880800Y-160180D01*
X-883960Y-157980D01*
X-887440Y-156340D01*
X-891160Y-155360D01*
X-895000Y-155020D01*
X-898840Y-155360D01*
X-902560Y-156340D01*
X-905300Y-157620D01*
X-906979Y-158000D01*
X-948020Y-158000D01*
X-949700Y-157620D01*
X-952440Y-156340D01*
X-956160Y-155360D01*
X-960000Y-155020D01*
X-963840Y-155360D01*
X-967560Y-156340D01*
X-971040Y-157980D01*
X-974200Y-160180D01*
X-976919Y-162900D01*
X-979120Y-166060D01*
X-980759Y-169540D01*
X-981740Y-173260D01*
X-982080Y-177100D01*
X-981740Y-180940D01*
X-980759Y-184660D01*
X-979120Y-188140D01*
X-976919Y-191300D01*
X-974200Y-194020D01*
X-971040Y-196220D01*
X-967560Y-197860D01*
X-963840Y-198840D01*
G37*

%LPD*%
G36*
X-236480Y-379099D02*
G01*
X-238020Y-378800D01*
X-239320Y-377920D01*
X-240180Y-376640D01*
X-240479Y-375100D01*
X-240180Y-373560D01*
X-239320Y-372280D01*
X-201220Y-334180D01*
X-200080Y-333380D01*
X-198740Y-333020D01*
X-195560Y-332740D01*
X-191840Y-331760D01*
X-188359Y-330120D01*
X-185200Y-327920D01*
X-182480Y-325200D01*
X-180280Y-322040D01*
X-178640Y-318560D01*
X-177659Y-314840D01*
X-177320Y-311000D01*
X-177659Y-307160D01*
X-178640Y-303440D01*
X-180280Y-299960D01*
X-182480Y-296800D01*
X-185200Y-294080D01*
X-188020Y-292120D01*
X-189080Y-291020D01*
X-189640Y-289600D01*
X-189640Y-288080D01*
X-189080Y-286660D01*
X-188020Y-285560D01*
X-185799Y-284020D01*
X-183080Y-281300D01*
X-180880Y-278140D01*
X-179240Y-274660D01*
X-178260Y-270940D01*
X-177920Y-267100D01*
X-178260Y-263260D01*
X-179240Y-259540D01*
X-180880Y-256060D01*
X-183080Y-252900D01*
X-185799Y-250180D01*
X-188960Y-247979D01*
X-192440Y-246340D01*
X-196160Y-245360D01*
X-200000Y-245020D01*
X-203840Y-245360D01*
X-207560Y-246340D01*
X-210300Y-247620D01*
X-211980Y-248000D01*
X-514240Y-248000D01*
X-515760Y-247700D01*
X-517060Y-246820D01*
X-517920Y-245539D01*
X-518240Y-244000D01*
X-517920Y-242460D01*
X-517060Y-241180D01*
X-485980Y-210060D01*
X-483780Y-207140D01*
X-482200Y-204000D01*
X-481240Y-200600D01*
X-480900Y-196920D01*
X-480920Y128640D01*
X-481420Y132260D01*
X-482540Y135600D01*
X-484260Y138680D01*
X-486620Y141540D01*
X-551060Y205980D01*
X-551920Y207260D01*
X-552240Y208800D01*
X-551920Y210340D01*
X-551060Y211620D01*
X-549760Y212500D01*
X-548240Y212800D01*
X-537920Y212800D01*
X-536380Y212500D01*
X-535080Y211620D01*
X-126280Y-197180D01*
X-125399Y-198480D01*
X-125100Y-200020D01*
X-125100Y-206900D01*
X-124800Y-210040D01*
X-123940Y-212880D01*
X-122540Y-215479D01*
X-120540Y-217920D01*
X-99740Y-238720D01*
X-98859Y-240020D01*
X-98560Y-241540D01*
X-98560Y-280340D01*
X-98280Y-282800D01*
X-96980Y-286360D01*
X-96980Y-287840D01*
X-98280Y-291400D01*
X-98560Y-293860D01*
X-98560Y-346640D01*
X-98859Y-348160D01*
X-99740Y-349460D01*
X-101039Y-350340D01*
X-102560Y-350640D01*
X-166940Y-350640D01*
X-169400Y-350920D01*
X-171540Y-351659D01*
X-173440Y-352860D01*
X-175040Y-354460D01*
X-176240Y-356360D01*
X-176980Y-358500D01*
X-177260Y-360959D01*
X-177260Y-375100D01*
X-177560Y-376640D01*
X-178440Y-377920D01*
X-179740Y-378800D01*
X-181260Y-379099D01*
G37*

%LPD*%
G36*
X-1740900Y-432000D02*
G01*
X-1742440Y-431700D01*
X-1743720Y-430820D01*
X-1744600Y-429540D01*
X-1744900Y-428000D01*
X-1744900Y433800D01*
X-1744600Y435340D01*
X-1743720Y436620D01*
X-1742440Y437500D01*
X-1740900Y437800D01*
X-289140Y437800D01*
X-287620Y437500D01*
X-286320Y436620D01*
X-285440Y435340D01*
X-285140Y433800D01*
X-285440Y432260D01*
X-287540Y429040D01*
X-288280Y426900D01*
X-288560Y424440D01*
X-288560Y410439D01*
X-264240Y410439D01*
X-264240Y433800D01*
X-263920Y435340D01*
X-263060Y436620D01*
X-261759Y437500D01*
X-260240Y437800D01*
X-229760Y437800D01*
X-228240Y437500D01*
X-226940Y436620D01*
X-226080Y435340D01*
X-225760Y433800D01*
X-225760Y410439D01*
X-212560Y410439D01*
X-211040Y410120D01*
X-209740Y409260D01*
X-208860Y407960D01*
X-208560Y406440D01*
X-208560Y375959D01*
X-208860Y374440D01*
X-209740Y373140D01*
X-211040Y372280D01*
X-212560Y371960D01*
X-225760Y371960D01*
X-225760Y347640D01*
X-211759Y347640D01*
X-209300Y347920D01*
X-205740Y349219D01*
X-204259Y349219D01*
X-200700Y347920D01*
X-198240Y347640D01*
X-131760Y347640D01*
X-129300Y347920D01*
X-127160Y348660D01*
X-125260Y349860D01*
X-123660Y351460D01*
X-122460Y353360D01*
X-121720Y355500D01*
X-121440Y357960D01*
X-121440Y424440D01*
X-121720Y426900D01*
X-122460Y429040D01*
X-124560Y432260D01*
X-124860Y433800D01*
X-124560Y435340D01*
X-123680Y436620D01*
X-122380Y437500D01*
X-120860Y437800D01*
X-100340Y437800D01*
X-98680Y437440D01*
X-97320Y436440D01*
X-96500Y434960D01*
X-96380Y433260D01*
X-96960Y431680D01*
X-97540Y430740D01*
X-98280Y428600D01*
X-98560Y426140D01*
X-98560Y359660D01*
X-98280Y357200D01*
X-96980Y353640D01*
X-96980Y352160D01*
X-98280Y348600D01*
X-98560Y346140D01*
X-98560Y279660D01*
X-98280Y277200D01*
X-96980Y273640D01*
X-96980Y272160D01*
X-98280Y268600D01*
X-98560Y266140D01*
X-98560Y252420D01*
X-98880Y250880D01*
X-99740Y249579D01*
X-101060Y248700D01*
X-102600Y248420D01*
X-427060Y251240D01*
X-428560Y251540D01*
X-429840Y252399D01*
X-509180Y331740D01*
X-511620Y333740D01*
X-514219Y335140D01*
X-517060Y336000D01*
X-520200Y336300D01*
X-787340Y336300D01*
X-788860Y336599D01*
X-790160Y337480D01*
X-790800Y338120D01*
X-793960Y340319D01*
X-797440Y341960D01*
X-801160Y342939D01*
X-805000Y343280D01*
X-808840Y342939D01*
X-812560Y341960D01*
X-816040Y340319D01*
X-819200Y338120D01*
X-819840Y337480D01*
X-821140Y336599D01*
X-822660Y336300D01*
X-1306440Y336300D01*
X-1307960Y336599D01*
X-1309259Y337480D01*
X-1310140Y338780D01*
X-1310440Y340300D01*
X-1310440Y353960D01*
X-1334760Y353960D01*
X-1334760Y340300D01*
X-1335080Y338780D01*
X-1335940Y337480D01*
X-1337240Y336599D01*
X-1338760Y336300D01*
X-1369240Y336300D01*
X-1370760Y336599D01*
X-1372060Y337480D01*
X-1372920Y338780D01*
X-1373240Y340300D01*
X-1373240Y353960D01*
X-1397560Y353960D01*
X-1397560Y340300D01*
X-1397860Y338780D01*
X-1398740Y337480D01*
X-1400040Y336599D01*
X-1402080Y336300D01*
X-1403620Y336599D01*
X-1404920Y337480D01*
X-1420260Y352819D01*
X-1421140Y354120D01*
X-1421440Y355640D01*
X-1421440Y406140D01*
X-1421720Y408600D01*
X-1422460Y410740D01*
X-1423660Y412640D01*
X-1425260Y414240D01*
X-1427160Y415439D01*
X-1429300Y416180D01*
X-1431759Y416460D01*
X-1498240Y416460D01*
X-1500700Y416180D01*
X-1502840Y415439D01*
X-1504740Y414240D01*
X-1506339Y412640D01*
X-1507540Y410740D01*
X-1508280Y408600D01*
X-1508560Y406140D01*
X-1508560Y339660D01*
X-1508280Y337200D01*
X-1507540Y335060D01*
X-1506339Y333160D01*
X-1504740Y331560D01*
X-1502840Y330360D01*
X-1500700Y329620D01*
X-1498240Y329340D01*
X-1441140Y329340D01*
X-1439620Y329040D01*
X-1438320Y328160D01*
X-1423980Y313820D01*
X-1423120Y312520D01*
X-1422800Y311000D01*
X-1423120Y309460D01*
X-1423980Y308180D01*
X-1425280Y307300D01*
X-1426800Y307000D01*
X-1532780Y307000D01*
X-1534319Y307300D01*
X-1535620Y308180D01*
X-1549960Y322500D01*
X-1550820Y323800D01*
X-1551120Y325340D01*
X-1550820Y326860D01*
X-1549960Y328160D01*
X-1548660Y329040D01*
X-1547120Y329340D01*
X-1541759Y329340D01*
X-1539300Y329620D01*
X-1537160Y330360D01*
X-1535260Y331560D01*
X-1533660Y333160D01*
X-1532460Y335060D01*
X-1531720Y337200D01*
X-1531440Y339660D01*
X-1531440Y406140D01*
X-1531720Y408600D01*
X-1532460Y410740D01*
X-1533660Y412640D01*
X-1535260Y414240D01*
X-1537160Y415439D01*
X-1539300Y416180D01*
X-1541759Y416460D01*
X-1608240Y416460D01*
X-1610700Y416180D01*
X-1612840Y415439D01*
X-1614740Y414240D01*
X-1616339Y412640D01*
X-1617540Y410740D01*
X-1618280Y408600D01*
X-1618560Y406140D01*
X-1618560Y339700D01*
X-1618160Y336580D01*
X-1618200Y335379D01*
X-1618580Y334219D01*
X-1619300Y333240D01*
X-1650540Y302020D01*
X-1652540Y299580D01*
X-1653940Y296980D01*
X-1654800Y294140D01*
X-1655100Y291000D01*
X-1655100Y-18600D01*
X-1654800Y-21740D01*
X-1653940Y-24580D01*
X-1652540Y-27180D01*
X-1650540Y-29620D01*
X-1612880Y-67260D01*
X-1610440Y-69260D01*
X-1607840Y-70660D01*
X-1605020Y-71520D01*
X-1601879Y-71820D01*
X-1589960Y-71820D01*
X-1588460Y-72120D01*
X-1587180Y-72940D01*
X-1586300Y-74180D01*
X-1585960Y-75640D01*
X-1586180Y-77160D01*
X-1586860Y-79100D01*
X-1587140Y-81560D01*
X-1587140Y-94900D01*
X-1586860Y-97360D01*
X-1586120Y-99500D01*
X-1584920Y-101400D01*
X-1583320Y-103000D01*
X-1581399Y-104200D01*
X-1579280Y-104940D01*
X-1576819Y-105220D01*
X-1537260Y-105220D01*
X-1534800Y-104940D01*
X-1532660Y-104200D01*
X-1530760Y-103000D01*
X-1529160Y-101400D01*
X-1527960Y-99500D01*
X-1527220Y-97360D01*
X-1526940Y-94900D01*
X-1526940Y-81560D01*
X-1527220Y-79100D01*
X-1527960Y-76980D01*
X-1529460Y-74640D01*
X-1530000Y-73240D01*
X-1530000Y-71720D01*
X-1529460Y-70320D01*
X-1527960Y-67980D01*
X-1527220Y-65860D01*
X-1526940Y-63400D01*
X-1526940Y-50060D01*
X-1527220Y-47600D01*
X-1527960Y-45480D01*
X-1529440Y-43140D01*
X-1530000Y-41740D01*
X-1530000Y-40240D01*
X-1529440Y-38840D01*
X-1527960Y-36480D01*
X-1527220Y-34380D01*
X-1526940Y-31900D01*
X-1526940Y-18580D01*
X-1527220Y-16100D01*
X-1527960Y-14000D01*
X-1529460Y-11640D01*
X-1530000Y-10240D01*
X-1530000Y-8740D01*
X-1529460Y-7340D01*
X-1527960Y-4980D01*
X-1527220Y-2880D01*
X-1526940Y-400D01*
X-1526940Y320D01*
X-1544540Y320D01*
X-1544540Y-4260D01*
X-1544840Y-5780D01*
X-1545700Y-7080D01*
X-1547000Y-7940D01*
X-1548540Y-8260D01*
X-1565540Y-8260D01*
X-1567060Y-7940D01*
X-1568360Y-7080D01*
X-1569240Y-5780D01*
X-1569540Y-4260D01*
X-1569540Y320D01*
X-1587140Y320D01*
X-1587140Y-400D01*
X-1586860Y-2880D01*
X-1586180Y-4780D01*
X-1585960Y-6280D01*
X-1586320Y-7760D01*
X-1587200Y-9000D01*
X-1588480Y-9820D01*
X-1589960Y-10100D01*
X-1590680Y-10100D01*
X-1592220Y-9800D01*
X-1593520Y-8920D01*
X-1603720Y1280D01*
X-1604600Y2580D01*
X-1604900Y4120D01*
X-1604900Y260080D01*
X-1604600Y261620D01*
X-1603720Y262920D01*
X-1592120Y274520D01*
X-1591000Y275320D01*
X-1589640Y275680D01*
X-1586459Y275960D01*
X-1582740Y276940D01*
X-1579259Y278580D01*
X-1576100Y280780D01*
X-1573380Y283500D01*
X-1571180Y286660D01*
X-1569540Y290140D01*
X-1569379Y290740D01*
X-1568640Y292220D01*
X-1567340Y293280D01*
X-1565740Y293700D01*
X-1564079Y293440D01*
X-1562700Y292540D01*
X-1551519Y281360D01*
X-1549079Y279360D01*
X-1546480Y277960D01*
X-1543640Y277100D01*
X-1540500Y276800D01*
X-1225840Y276800D01*
X-1224240Y276460D01*
X-1222900Y275520D01*
X-1222060Y274120D01*
X-1221840Y272500D01*
X-1222300Y270920D01*
X-1223340Y269680D01*
X-1224800Y268940D01*
X-1225860Y268660D01*
X-1228600Y267380D01*
X-1230280Y267000D01*
X-1373300Y266980D01*
X-1376920Y266480D01*
X-1380260Y265360D01*
X-1383340Y263640D01*
X-1386200Y261280D01*
X-1397580Y249880D01*
X-1398420Y249240D01*
X-1400120Y248660D01*
X-1403600Y247020D01*
X-1406759Y244820D01*
X-1409480Y242100D01*
X-1411680Y238939D01*
X-1413320Y235460D01*
X-1414300Y231740D01*
X-1414640Y227900D01*
X-1414300Y224060D01*
X-1413320Y220340D01*
X-1411680Y216860D01*
X-1409480Y213700D01*
X-1406759Y210980D01*
X-1403600Y208780D01*
X-1400120Y207140D01*
X-1396399Y206160D01*
X-1392560Y205820D01*
X-1388720Y206160D01*
X-1385000Y207140D01*
X-1381519Y208780D01*
X-1378360Y210980D01*
X-1375640Y213700D01*
X-1373440Y216860D01*
X-1371800Y220340D01*
X-1371220Y222040D01*
X-1370580Y222880D01*
X-1365820Y227620D01*
X-1364520Y228500D01*
X-1363000Y228800D01*
X-1241400Y228800D01*
X-1239880Y228500D01*
X-1238580Y227620D01*
X-1237700Y226340D01*
X-1237400Y224800D01*
X-1237380Y212160D01*
X-1236880Y208540D01*
X-1235760Y205200D01*
X-1234040Y202120D01*
X-1231680Y199259D01*
X-1217240Y184820D01*
X-1216380Y183540D01*
X-1216060Y182000D01*
X-1216380Y180460D01*
X-1217240Y179180D01*
X-1218540Y178299D01*
X-1220060Y178000D01*
X-1395200Y178000D01*
X-1397440Y177800D01*
X-1417920Y177800D01*
X-1419460Y178100D01*
X-1420760Y178980D01*
X-1421399Y179620D01*
X-1424560Y181820D01*
X-1428040Y183460D01*
X-1431759Y184440D01*
X-1435600Y184780D01*
X-1439440Y184440D01*
X-1443160Y183460D01*
X-1446639Y181820D01*
X-1449800Y179620D01*
X-1452520Y176900D01*
X-1454720Y173740D01*
X-1456360Y170260D01*
X-1457340Y166540D01*
X-1457680Y162700D01*
X-1457340Y158860D01*
X-1456360Y155140D01*
X-1454720Y151660D01*
X-1452520Y148500D01*
X-1449800Y145780D01*
X-1446639Y143580D01*
X-1443160Y141940D01*
X-1439440Y140960D01*
X-1435600Y140620D01*
X-1431759Y140960D01*
X-1428040Y141940D01*
X-1424700Y143500D01*
X-1423080Y143880D01*
X-1421459Y143560D01*
X-1420080Y142600D01*
X-1419240Y141180D01*
X-1419019Y139540D01*
X-1419079Y138900D01*
X-1418740Y135060D01*
X-1417760Y131340D01*
X-1416120Y127860D01*
X-1413920Y124700D01*
X-1413280Y124060D01*
X-1412400Y122760D01*
X-1412100Y121220D01*
X-1412100Y97120D01*
X-1412400Y95580D01*
X-1413280Y94280D01*
X-1416100Y91440D01*
X-1417400Y90580D01*
X-1418940Y90280D01*
X-1420460Y90580D01*
X-1421759Y91440D01*
X-1422640Y92739D01*
X-1422940Y94280D01*
X-1422940Y107360D01*
X-1423220Y109840D01*
X-1423959Y111960D01*
X-1425160Y113880D01*
X-1426759Y115460D01*
X-1428660Y116660D01*
X-1430800Y117420D01*
X-1433260Y117680D01*
X-1472820Y117680D01*
X-1475280Y117420D01*
X-1477400Y116660D01*
X-1479319Y115460D01*
X-1480920Y113880D01*
X-1482940Y110559D01*
X-1484220Y109620D01*
X-1485780Y109240D01*
X-1487340Y109520D01*
X-1488680Y110380D01*
X-1489580Y111679D01*
X-1489900Y113240D01*
X-1489900Y203299D01*
X-1489620Y204760D01*
X-1488839Y206020D01*
X-1487660Y206900D01*
X-1486240Y207300D01*
X-1483760Y207520D01*
X-1480040Y208500D01*
X-1476560Y210140D01*
X-1473400Y212340D01*
X-1470680Y215060D01*
X-1468480Y218220D01*
X-1466840Y221700D01*
X-1465860Y225420D01*
X-1465520Y229259D01*
X-1465860Y233100D01*
X-1466840Y236820D01*
X-1468480Y240300D01*
X-1470680Y243460D01*
X-1473400Y246180D01*
X-1476560Y248380D01*
X-1480040Y250020D01*
X-1483760Y251000D01*
X-1487600Y251340D01*
X-1491440Y251000D01*
X-1495160Y250020D01*
X-1498640Y248380D01*
X-1501800Y246180D01*
X-1504520Y243460D01*
X-1506720Y240300D01*
X-1508360Y236820D01*
X-1509340Y233100D01*
X-1509620Y229960D01*
X-1509980Y228619D01*
X-1510780Y227480D01*
X-1515540Y222719D01*
X-1517540Y220280D01*
X-1518940Y217680D01*
X-1519800Y214840D01*
X-1520100Y211700D01*
X-1520100Y113040D01*
X-1520420Y111480D01*
X-1521320Y110180D01*
X-1522660Y109320D01*
X-1524220Y109040D01*
X-1525780Y109420D01*
X-1527060Y110360D01*
X-1529160Y113880D01*
X-1530760Y115460D01*
X-1532660Y116660D01*
X-1534800Y117420D01*
X-1537260Y117680D01*
X-1576819Y117680D01*
X-1579280Y117420D01*
X-1581399Y116660D01*
X-1583320Y115460D01*
X-1584920Y113880D01*
X-1586120Y111960D01*
X-1586860Y109840D01*
X-1587140Y107360D01*
X-1587140Y94040D01*
X-1586860Y91560D01*
X-1586120Y89440D01*
X-1584620Y87100D01*
X-1584079Y85719D01*
X-1584079Y84200D01*
X-1584620Y82820D01*
X-1586120Y80480D01*
X-1586860Y78360D01*
X-1587140Y75880D01*
X-1587140Y62560D01*
X-1586860Y60080D01*
X-1586120Y57960D01*
X-1584620Y55620D01*
X-1584079Y54240D01*
X-1584079Y52720D01*
X-1584620Y51340D01*
X-1586120Y49000D01*
X-1586860Y46880D01*
X-1587140Y44400D01*
X-1587140Y31080D01*
X-1586860Y28600D01*
X-1586120Y26480D01*
X-1584620Y24140D01*
X-1584079Y22759D01*
X-1584079Y21240D01*
X-1584620Y19860D01*
X-1586120Y17520D01*
X-1586860Y15400D01*
X-1587140Y12920D01*
X-1587140Y12200D01*
X-1569540Y12200D01*
X-1569540Y16740D01*
X-1569240Y18280D01*
X-1568360Y19580D01*
X-1567060Y20440D01*
X-1565540Y20740D01*
X-1548540Y20740D01*
X-1547000Y20440D01*
X-1545700Y19580D01*
X-1544840Y18280D01*
X-1544540Y16740D01*
X-1544540Y12200D01*
X-1526940Y12200D01*
X-1526940Y12920D01*
X-1527220Y15400D01*
X-1527960Y17520D01*
X-1529440Y19860D01*
X-1530000Y21240D01*
X-1530000Y22759D01*
X-1529440Y24140D01*
X-1527960Y26480D01*
X-1527340Y28240D01*
X-1526480Y29660D01*
X-1525120Y30620D01*
X-1523480Y30920D01*
X-1521860Y30540D01*
X-1520540Y29540D01*
X-1519740Y28080D01*
X-1518940Y25440D01*
X-1517540Y22820D01*
X-1515540Y20379D01*
X-1490920Y-4240D01*
X-1488480Y-6240D01*
X-1485880Y-7640D01*
X-1484379Y-8080D01*
X-1483100Y-8760D01*
X-1482120Y-9820D01*
X-1481600Y-11180D01*
X-1481600Y-12620D01*
X-1482860Y-16100D01*
X-1483140Y-18580D01*
X-1483140Y-19300D01*
X-1465540Y-19300D01*
X-1465540Y-14740D01*
X-1465240Y-13200D01*
X-1464360Y-11900D01*
X-1463060Y-11040D01*
X-1461540Y-10740D01*
X-1444540Y-10740D01*
X-1443000Y-11040D01*
X-1441699Y-11900D01*
X-1440840Y-13200D01*
X-1440540Y-14740D01*
X-1440540Y-19300D01*
X-1422940Y-19300D01*
X-1422940Y-18580D01*
X-1423220Y-16100D01*
X-1423959Y-14000D01*
X-1425460Y-11640D01*
X-1426000Y-10240D01*
X-1426000Y-8740D01*
X-1425460Y-7340D01*
X-1423959Y-4980D01*
X-1423220Y-2880D01*
X-1422940Y-400D01*
X-1422940Y12920D01*
X-1423220Y15400D01*
X-1423959Y17520D01*
X-1425440Y19860D01*
X-1426000Y21240D01*
X-1426000Y22759D01*
X-1425440Y24140D01*
X-1423959Y26480D01*
X-1423220Y28600D01*
X-1422940Y31080D01*
X-1422940Y44400D01*
X-1423220Y46880D01*
X-1423880Y48800D01*
X-1424100Y50300D01*
X-1423760Y51780D01*
X-1422880Y53000D01*
X-1421600Y53840D01*
X-1420120Y54120D01*
X-1417180Y54120D01*
X-1414040Y54420D01*
X-1411200Y55279D01*
X-1408600Y56680D01*
X-1406160Y58680D01*
X-1386459Y78380D01*
X-1384460Y80820D01*
X-1383060Y83420D01*
X-1382200Y86260D01*
X-1381900Y89400D01*
X-1381900Y92800D01*
X-1381600Y94320D01*
X-1380720Y95620D01*
X-1379440Y96480D01*
X-1377900Y96800D01*
X-1376360Y96480D01*
X-1375080Y95620D01*
X-1361380Y81920D01*
X-1360500Y80620D01*
X-1360200Y79100D01*
X-1360200Y-33480D01*
X-1360540Y-35120D01*
X-1361540Y-36460D01*
X-1362980Y-37300D01*
X-1364640Y-37460D01*
X-1366920Y-37200D01*
X-1390080Y-37200D01*
X-1392560Y-37480D01*
X-1394680Y-38220D01*
X-1396600Y-39420D01*
X-1397600Y-40420D01*
X-1398880Y-41300D01*
X-1400420Y-41600D01*
X-1420100Y-41600D01*
X-1421600Y-41320D01*
X-1422860Y-40500D01*
X-1423740Y-39260D01*
X-1424100Y-37780D01*
X-1423880Y-36280D01*
X-1423220Y-34380D01*
X-1422940Y-31900D01*
X-1422940Y-31180D01*
X-1440540Y-31180D01*
X-1440540Y-35740D01*
X-1440840Y-37280D01*
X-1441699Y-38560D01*
X-1443000Y-39440D01*
X-1444540Y-39740D01*
X-1461540Y-39740D01*
X-1463060Y-39440D01*
X-1464360Y-38560D01*
X-1465240Y-37280D01*
X-1465540Y-35740D01*
X-1465540Y-31180D01*
X-1483140Y-31180D01*
X-1483140Y-31900D01*
X-1482860Y-34380D01*
X-1482120Y-36480D01*
X-1480620Y-38840D01*
X-1480060Y-40240D01*
X-1480060Y-41740D01*
X-1480620Y-43140D01*
X-1482120Y-45480D01*
X-1482860Y-47600D01*
X-1483140Y-50060D01*
X-1483140Y-63400D01*
X-1482860Y-65860D01*
X-1482120Y-67980D01*
X-1480620Y-70320D01*
X-1480060Y-71720D01*
X-1480060Y-73240D01*
X-1480620Y-74640D01*
X-1482120Y-76980D01*
X-1482860Y-79100D01*
X-1483140Y-81560D01*
X-1483140Y-94900D01*
X-1482860Y-97360D01*
X-1482120Y-99500D01*
X-1480920Y-101400D01*
X-1479319Y-103000D01*
X-1477400Y-104200D01*
X-1475280Y-104940D01*
X-1472820Y-105220D01*
X-1433260Y-105220D01*
X-1430800Y-104940D01*
X-1428660Y-104200D01*
X-1426759Y-103000D01*
X-1425160Y-101400D01*
X-1423959Y-99500D01*
X-1423220Y-97360D01*
X-1422940Y-94900D01*
X-1422940Y-81560D01*
X-1423220Y-79100D01*
X-1423899Y-77120D01*
X-1424120Y-75620D01*
X-1423779Y-74140D01*
X-1422900Y-72900D01*
X-1421620Y-72080D01*
X-1420120Y-71800D01*
X-1404079Y-71800D01*
X-1402460Y-72140D01*
X-1401120Y-73100D01*
X-1400280Y-74540D01*
X-1399379Y-77300D01*
X-1398180Y-79180D01*
X-1396600Y-80780D01*
X-1395480Y-81480D01*
X-1394480Y-82360D01*
X-1393820Y-83539D01*
X-1393600Y-84860D01*
X-1393600Y-122980D01*
X-1393899Y-124520D01*
X-1394780Y-125820D01*
X-1425440Y-156480D01*
X-1427440Y-158920D01*
X-1428839Y-161520D01*
X-1429700Y-164360D01*
X-1430000Y-167500D01*
X-1430000Y-307600D01*
X-1429700Y-310740D01*
X-1428839Y-313560D01*
X-1427440Y-316180D01*
X-1425440Y-318620D01*
X-1408779Y-335280D01*
X-1407960Y-336480D01*
X-1407620Y-337900D01*
X-1407800Y-339340D01*
X-1408500Y-340620D01*
X-1409600Y-341560D01*
X-1411240Y-342500D01*
X-1415900Y-346040D01*
X-1420100Y-350100D01*
X-1423760Y-354660D01*
X-1426840Y-359640D01*
X-1427420Y-360900D01*
X-1406200Y-360900D01*
X-1406200Y-345100D01*
X-1405920Y-343640D01*
X-1405140Y-342380D01*
X-1403940Y-341500D01*
X-1402520Y-341120D01*
X-1401040Y-341280D01*
X-1398340Y-342100D01*
X-1395200Y-342400D01*
X-1376000Y-342400D01*
X-1372860Y-342100D01*
X-1368120Y-340580D01*
X-1366480Y-340800D01*
X-1365080Y-341640D01*
X-1364139Y-342980D01*
X-1363800Y-344580D01*
X-1363800Y-360900D01*
X-1342580Y-360900D01*
X-1344620Y-357100D01*
X-1348000Y-352320D01*
X-1351940Y-348000D01*
X-1356380Y-344200D01*
X-1361300Y-340940D01*
X-1362520Y-339660D01*
X-1363080Y-338000D01*
X-1362860Y-336260D01*
X-1361920Y-334780D01*
X-1349820Y-322680D01*
X-1348520Y-321800D01*
X-1346980Y-321500D01*
X-1091660Y-321500D01*
X-1090020Y-321860D01*
X-1088660Y-322840D01*
X-1087840Y-324320D01*
X-1087680Y-325980D01*
X-1088220Y-327580D01*
X-1089380Y-328800D01*
X-1091980Y-330580D01*
X-1094980Y-333459D01*
X-1097480Y-336800D01*
X-1099400Y-340480D01*
X-1100720Y-344420D01*
X-1101400Y-348519D01*
X-1101400Y-352680D01*
X-1100720Y-356780D01*
X-1099400Y-360720D01*
X-1097480Y-364400D01*
X-1094980Y-367740D01*
X-1091980Y-370620D01*
X-1088560Y-372980D01*
X-1084800Y-374760D01*
X-1080800Y-375920D01*
X-1076680Y-376420D01*
X-1072520Y-376240D01*
X-1068460Y-375420D01*
X-1064560Y-373940D01*
X-1060960Y-371860D01*
X-1057740Y-369240D01*
X-1054980Y-366120D01*
X-1052760Y-362600D01*
X-1051140Y-358780D01*
X-1050140Y-354739D01*
X-1049800Y-350600D01*
X-1050140Y-346460D01*
X-1051140Y-342420D01*
X-1052760Y-338600D01*
X-1054980Y-335080D01*
X-1057740Y-331960D01*
X-1060960Y-329340D01*
X-1061600Y-328960D01*
X-1062880Y-327800D01*
X-1063540Y-326200D01*
X-1063480Y-324460D01*
X-1062680Y-322939D01*
X-1061300Y-321880D01*
X-1059600Y-321500D01*
X-973300Y-321500D01*
X-971660Y-321860D01*
X-970320Y-322840D01*
X-969479Y-324320D01*
X-969340Y-325980D01*
X-969880Y-327580D01*
X-971040Y-328800D01*
X-973780Y-330680D01*
X-976780Y-333560D01*
X-979280Y-336900D01*
X-981200Y-340580D01*
X-982520Y-344520D01*
X-983199Y-348620D01*
X-983199Y-352780D01*
X-982520Y-356880D01*
X-981200Y-360820D01*
X-979280Y-364500D01*
X-976780Y-367840D01*
X-973780Y-370720D01*
X-970360Y-373080D01*
X-966600Y-374860D01*
X-962600Y-376019D01*
X-958480Y-376520D01*
X-954320Y-376340D01*
X-950260Y-375520D01*
X-946360Y-374040D01*
X-942760Y-371960D01*
X-939539Y-369340D01*
X-936780Y-366220D01*
X-934560Y-362700D01*
X-932940Y-358880D01*
X-931940Y-354840D01*
X-931600Y-350700D01*
X-931940Y-346560D01*
X-932940Y-342520D01*
X-934560Y-338700D01*
X-936780Y-335180D01*
X-939539Y-332060D01*
X-942760Y-329440D01*
X-943580Y-328960D01*
X-944860Y-327800D01*
X-945520Y-326200D01*
X-945440Y-324460D01*
X-944640Y-322939D01*
X-943280Y-321880D01*
X-941580Y-321500D01*
X-920420Y-321500D01*
X-918880Y-321800D01*
X-917580Y-322680D01*
X-835520Y-404739D01*
X-833080Y-406740D01*
X-830480Y-408140D01*
X-827640Y-409000D01*
X-824500Y-409300D01*
X-181260Y-409300D01*
X-179740Y-409600D01*
X-178440Y-410480D01*
X-177560Y-411760D01*
X-177260Y-413300D01*
X-177260Y-427560D01*
X-177420Y-429219D01*
X-178240Y-430660D01*
X-179600Y-431659D01*
X-181220Y-432000D01*
X-895900Y-432000D01*
X-897440Y-431700D01*
X-898720Y-430820D01*
X-899599Y-429540D01*
X-899900Y-428000D01*
X-899900Y-412340D01*
X-900200Y-409799D01*
X-901020Y-407660D01*
X-902400Y-405660D01*
X-903600Y-404460D01*
X-905000Y-403440D01*
X-907159Y-402460D01*
X-910060Y-402000D01*
X-1124760Y-402000D01*
X-1127300Y-402299D01*
X-1129440Y-403120D01*
X-1131440Y-404500D01*
X-1132640Y-405700D01*
X-1133660Y-407100D01*
X-1134640Y-409260D01*
X-1135100Y-412160D01*
X-1135100Y-428000D01*
X-1135400Y-429540D01*
X-1136280Y-430820D01*
X-1137560Y-431700D01*
X-1139100Y-432000D01*
X-1236400Y-432000D01*
X-1238040Y-431640D01*
X-1239400Y-430640D01*
X-1240220Y-429159D01*
X-1240360Y-427460D01*
X-1239780Y-425880D01*
X-1238520Y-423880D01*
X-1237780Y-421740D01*
X-1237500Y-419280D01*
X-1237500Y-344920D01*
X-1237780Y-342460D01*
X-1238520Y-340319D01*
X-1239720Y-338420D01*
X-1241320Y-336820D01*
X-1243220Y-335620D01*
X-1245360Y-334880D01*
X-1247820Y-334600D01*
X-1322180Y-334600D01*
X-1324640Y-334880D01*
X-1326780Y-335620D01*
X-1328680Y-336820D01*
X-1330280Y-338420D01*
X-1331480Y-340319D01*
X-1332220Y-342460D01*
X-1332500Y-344920D01*
X-1332500Y-419280D01*
X-1332220Y-421740D01*
X-1331480Y-423880D01*
X-1330220Y-425880D01*
X-1329640Y-427460D01*
X-1329780Y-429159D01*
X-1330600Y-430640D01*
X-1331960Y-431640D01*
X-1333600Y-432000D01*
X-1361860Y-432000D01*
X-1363580Y-431599D01*
X-1364840Y-430620D01*
X-1366260Y-431700D01*
X-1367800Y-432000D01*
X-1402200Y-432000D01*
X-1403740Y-431700D01*
X-1405020Y-430820D01*
X-1405240Y-430580D01*
X-1406620Y-431620D01*
X-1408300Y-432000D01*
X-1623240Y-432000D01*
X-1624880Y-431659D01*
X-1626220Y-430660D01*
X-1627060Y-429219D01*
X-1627220Y-427540D01*
X-1626680Y-425959D01*
X-1625560Y-424739D01*
X-1622080Y-422280D01*
X-1618520Y-418960D01*
X-1615440Y-415180D01*
X-1612920Y-411019D01*
X-1612420Y-409900D01*
X-1638160Y-409900D01*
X-1638160Y-428000D01*
X-1638460Y-429540D01*
X-1639319Y-430820D01*
X-1640620Y-431700D01*
X-1642160Y-432000D01*
X-1682460Y-432000D01*
X-1684000Y-431700D01*
X-1685300Y-430820D01*
X-1686160Y-429540D01*
X-1686459Y-428000D01*
X-1686459Y-409900D01*
X-1712200Y-409900D01*
X-1711699Y-411019D01*
X-1709180Y-415180D01*
X-1706100Y-418960D01*
X-1702540Y-422280D01*
X-1699060Y-424739D01*
X-1697940Y-425959D01*
X-1697400Y-427540D01*
X-1697560Y-429219D01*
X-1698400Y-430660D01*
X-1699740Y-431659D01*
X-1701380Y-432000D01*
G37*

%LPC*%
G36*
X-1406200Y-424640D02*
G01*
X-1406200Y-403300D01*
X-1427420Y-403300D01*
X-1426840Y-404560D01*
X-1423760Y-409540D01*
X-1420100Y-414099D01*
X-1415900Y-418160D01*
X-1411240Y-421700D01*
G37*
G36*
X-1363800Y-424540D02*
G01*
X-1361260Y-423240D01*
X-1356380Y-420000D01*
X-1351940Y-416200D01*
X-1348000Y-411880D01*
X-1344620Y-407100D01*
X-1342580Y-403300D01*
X-1363800Y-403300D01*
G37*
G36*
X-1540720Y-379980D02*
G01*
X-1537100Y-378060D01*
X-1533080Y-375140D01*
X-1529500Y-371680D01*
X-1526420Y-367760D01*
X-1523800Y-363100D01*
X-1540720Y-363100D01*
G37*
G36*
X-1571300Y-379980D02*
G01*
X-1571300Y-363100D01*
X-1588220Y-363100D01*
X-1585600Y-367760D01*
X-1582520Y-371680D01*
X-1578940Y-375140D01*
X-1574920Y-378060D01*
G37*
G36*
X-1712200Y-379300D02*
G01*
X-1686459Y-379300D01*
X-1686459Y-359580D01*
X-1689660Y-360240D01*
X-1694240Y-361880D01*
X-1698560Y-364120D01*
X-1702540Y-366920D01*
X-1706100Y-370240D01*
X-1709180Y-374020D01*
X-1711699Y-378180D01*
G37*
G36*
X-1638160Y-379300D02*
G01*
X-1612420Y-379300D01*
X-1612920Y-378180D01*
X-1615440Y-374020D01*
X-1618520Y-370240D01*
X-1622080Y-366920D01*
X-1626060Y-364120D01*
X-1630380Y-361880D01*
X-1634960Y-360240D01*
X-1638160Y-359580D01*
G37*
G36*
X-1540720Y-332500D02*
G01*
X-1523860Y-332500D01*
X-1525100Y-329960D01*
X-1527900Y-325840D01*
X-1531220Y-322140D01*
X-1535040Y-318940D01*
X-1539259Y-316300D01*
X-1540720Y-315640D01*
G37*
G36*
X-1588160Y-332500D02*
G01*
X-1571300Y-332500D01*
X-1571300Y-315640D01*
X-1572760Y-316300D01*
X-1576980Y-318940D01*
X-1580800Y-322140D01*
X-1584120Y-325840D01*
X-1586920Y-329960D01*
G37*
G36*
X-1571300Y-189380D02*
G01*
X-1571300Y-172500D01*
X-1588220Y-172500D01*
X-1585600Y-177160D01*
X-1582520Y-181080D01*
X-1578940Y-184540D01*
X-1574920Y-187460D01*
G37*
G36*
X-1540720Y-189380D02*
G01*
X-1537100Y-187460D01*
X-1533080Y-184540D01*
X-1529500Y-181080D01*
X-1526420Y-177160D01*
X-1523800Y-172500D01*
X-1540720Y-172500D01*
G37*
G36*
X-1638160Y-144620D02*
G01*
X-1634960Y-143960D01*
X-1630380Y-142320D01*
X-1626060Y-140080D01*
X-1622080Y-137280D01*
X-1618520Y-133960D01*
X-1615440Y-130180D01*
X-1612920Y-126020D01*
X-1612420Y-124900D01*
X-1638160Y-124900D01*
G37*
G36*
X-1686459Y-144620D02*
G01*
X-1686459Y-124900D01*
X-1712200Y-124900D01*
X-1711699Y-126020D01*
X-1709180Y-130180D01*
X-1706100Y-133960D01*
X-1702540Y-137280D01*
X-1698560Y-140080D01*
X-1694240Y-142320D01*
X-1689660Y-143960D01*
G37*
G36*
X-1540720Y-141900D02*
G01*
X-1523860Y-141900D01*
X-1525100Y-139360D01*
X-1527900Y-135240D01*
X-1531220Y-131540D01*
X-1535040Y-128340D01*
X-1539259Y-125700D01*
X-1540720Y-125040D01*
G37*
G36*
X-1588160Y-141900D02*
G01*
X-1571300Y-141900D01*
X-1571300Y-125040D01*
X-1572760Y-125700D01*
X-1576980Y-128340D01*
X-1580800Y-131540D01*
X-1584120Y-135240D01*
X-1586920Y-139360D01*
G37*
G36*
X-1712200Y-94300D02*
G01*
X-1686459Y-94300D01*
X-1686459Y-74580D01*
X-1689660Y-75240D01*
X-1694240Y-76880D01*
X-1698560Y-79120D01*
X-1702540Y-81920D01*
X-1706100Y-85239D01*
X-1709180Y-89019D01*
X-1711699Y-93180D01*
G37*
G36*
X-1638160Y-94300D02*
G01*
X-1612420Y-94300D01*
X-1612920Y-93180D01*
X-1615440Y-89019D01*
X-1618520Y-85239D01*
X-1622080Y-81920D01*
X-1626060Y-79120D01*
X-1630380Y-76880D01*
X-1634960Y-75240D01*
X-1638160Y-74580D01*
G37*
G36*
X-1718240Y329340D02*
G01*
X-1651759Y329340D01*
X-1649300Y329620D01*
X-1647160Y330360D01*
X-1645260Y331560D01*
X-1643660Y333160D01*
X-1642460Y335060D01*
X-1641720Y337200D01*
X-1641440Y339660D01*
X-1641440Y406140D01*
X-1641720Y408600D01*
X-1642460Y410740D01*
X-1643660Y412640D01*
X-1645260Y414240D01*
X-1647160Y415439D01*
X-1649300Y416180D01*
X-1651759Y416460D01*
X-1718240Y416460D01*
X-1720700Y416180D01*
X-1722840Y415439D01*
X-1724740Y414240D01*
X-1726339Y412640D01*
X-1727540Y410740D01*
X-1728280Y408600D01*
X-1728560Y406140D01*
X-1728560Y339660D01*
X-1728280Y337200D01*
X-1727540Y335060D01*
X-1726339Y333160D01*
X-1724740Y331560D01*
X-1722840Y330360D01*
X-1720700Y329620D01*
G37*
G36*
X-278240Y347640D02*
G01*
X-264240Y347640D01*
X-264240Y371960D01*
X-288560Y371960D01*
X-288560Y357960D01*
X-288280Y355500D01*
X-287540Y353360D01*
X-286340Y351460D01*
X-284740Y349860D01*
X-282840Y348660D01*
X-280700Y347920D01*
G37*
G36*
X-1334760Y392440D02*
G01*
X-1310440Y392440D01*
X-1310440Y406440D01*
X-1310720Y408900D01*
X-1311459Y411040D01*
X-1312660Y412939D01*
X-1314259Y414540D01*
X-1316160Y415740D01*
X-1318300Y416480D01*
X-1320760Y416760D01*
X-1334760Y416760D01*
G37*
G36*
X-1397560Y392440D02*
G01*
X-1373240Y392440D01*
X-1373240Y416760D01*
X-1387240Y416760D01*
X-1389700Y416480D01*
X-1391840Y415740D01*
X-1393740Y414540D01*
X-1395340Y412939D01*
X-1396540Y411040D01*
X-1397280Y408900D01*
X-1397560Y406440D01*
G37*

%LPD*%
G36*
X-86180Y-432000D02*
G01*
X-87800Y-431659D01*
X-89160Y-430660D01*
X-89980Y-429219D01*
X-90140Y-427440D01*
X-90140Y-374660D01*
X-89840Y-373140D01*
X-88960Y-371840D01*
X-87660Y-370959D01*
X-86140Y-370660D01*
X-21760Y-370660D01*
X-19300Y-370379D01*
X-17160Y-369640D01*
X-15280Y-368459D01*
X-13620Y-367860D01*
X-11880Y-368040D01*
X-10380Y-368960D01*
X-9400Y-370420D01*
X-8980Y-371560D01*
X-7600Y-373560D01*
X-6440Y-374700D01*
X-4440Y-376079D01*
X-2300Y-376900D01*
X240Y-377200D01*
X264760Y-377200D01*
X267300Y-376900D01*
X269440Y-376079D01*
X271440Y-374700D01*
X272640Y-373500D01*
X273660Y-372100D01*
X274640Y-369940D01*
X275100Y-367040D01*
X275100Y372660D01*
X274800Y375200D01*
X273980Y377340D01*
X272600Y379340D01*
X271400Y380540D01*
X270000Y381560D01*
X267840Y382540D01*
X264940Y383000D01*
X240Y383000D01*
X-2300Y382700D01*
X-4440Y381880D01*
X-5160Y381380D01*
X-6760Y380720D01*
X-8480Y380820D01*
X-10020Y381620D01*
X-11060Y382980D01*
X-11439Y384680D01*
X-11439Y426140D01*
X-11720Y428600D01*
X-12460Y430740D01*
X-13040Y431680D01*
X-13620Y433260D01*
X-13500Y434960D01*
X-12680Y436440D01*
X-11319Y437440D01*
X-9660Y437800D01*
X1483240Y437800D01*
X1484740Y437520D01*
X1486000Y436700D01*
X1486879Y435460D01*
X1487240Y433980D01*
X1487020Y432480D01*
X1486720Y431599D01*
X1486440Y429140D01*
X1486440Y415140D01*
X1510760Y415140D01*
X1510760Y433800D01*
X1511080Y435340D01*
X1511940Y436620D01*
X1513240Y437500D01*
X1514760Y437800D01*
X1545240Y437800D01*
X1546759Y437500D01*
X1548060Y436620D01*
X1548920Y435340D01*
X1549240Y433800D01*
X1549240Y415140D01*
X1562440Y415140D01*
X1563959Y414840D01*
X1565260Y413960D01*
X1566140Y412660D01*
X1566440Y411140D01*
X1566440Y380680D01*
X1566140Y379140D01*
X1565260Y377840D01*
X1563959Y376980D01*
X1562440Y376680D01*
X1549240Y376680D01*
X1549240Y350500D01*
X1548920Y348980D01*
X1548060Y347680D01*
X1404980Y204579D01*
X1404139Y203939D01*
X1402440Y203359D01*
X1398959Y201720D01*
X1396540Y200020D01*
X1395440Y199480D01*
X1394240Y199300D01*
X1391620Y199300D01*
X1389980Y199660D01*
X1388640Y200640D01*
X1387800Y202079D01*
X1387640Y203760D01*
X1387900Y206020D01*
X1387900Y229180D01*
X1387620Y231660D01*
X1386879Y233780D01*
X1385680Y235700D01*
X1383760Y237600D01*
X1382820Y239100D01*
X1382600Y240840D01*
X1383160Y242520D01*
X1384400Y243780D01*
X1385060Y244220D01*
X1386680Y245840D01*
X1387880Y247760D01*
X1388620Y249880D01*
X1388899Y252340D01*
X1388899Y279460D01*
X1388620Y281920D01*
X1387880Y284060D01*
X1386680Y285960D01*
X1385080Y287560D01*
X1383180Y288760D01*
X1381040Y289500D01*
X1378580Y289780D01*
X1329820Y289780D01*
X1327360Y289500D01*
X1325220Y288760D01*
X1323320Y287560D01*
X1321720Y285960D01*
X1320520Y284060D01*
X1319780Y281920D01*
X1319500Y279460D01*
X1319500Y252340D01*
X1319780Y249880D01*
X1320520Y247760D01*
X1321720Y245840D01*
X1323320Y244240D01*
X1325220Y243039D01*
X1327360Y242300D01*
X1329820Y242020D01*
X1335100Y242020D01*
X1336620Y241720D01*
X1337920Y240859D01*
X1338800Y239560D01*
X1339100Y238020D01*
X1339100Y228600D01*
X1339400Y225460D01*
X1340260Y222640D01*
X1341639Y220080D01*
X1341980Y219160D01*
X1342100Y218180D01*
X1342100Y206020D01*
X1342380Y203560D01*
X1342840Y202220D01*
X1343080Y200900D01*
X1342840Y199579D01*
X1342380Y198260D01*
X1342100Y195780D01*
X1342100Y172620D01*
X1342380Y170159D01*
X1343120Y168020D01*
X1343680Y167140D01*
X1344259Y165539D01*
X1344139Y163860D01*
X1343320Y162380D01*
X1341960Y161360D01*
X1340300Y161000D01*
X1197920Y161000D01*
X1196380Y161300D01*
X1195080Y162180D01*
X1185820Y171439D01*
X1183380Y173440D01*
X1180780Y174840D01*
X1177940Y175700D01*
X1174800Y176000D01*
X1155340Y176000D01*
X1153900Y176260D01*
X1152660Y177040D01*
X1151780Y178180D01*
X1151360Y179579D01*
X1151480Y181040D01*
X1151740Y182060D01*
X1152080Y185900D01*
X1151740Y189740D01*
X1150760Y193440D01*
X1148940Y197300D01*
X1148560Y198860D01*
X1148820Y200440D01*
X1149680Y201780D01*
X1151000Y202680D01*
X1152560Y203000D01*
X1164880Y203000D01*
X1167360Y203280D01*
X1168680Y203760D01*
X1170000Y203980D01*
X1171320Y203760D01*
X1172640Y203280D01*
X1175120Y203000D01*
X1198280Y203000D01*
X1200760Y203280D01*
X1202880Y204040D01*
X1204800Y205240D01*
X1206380Y206820D01*
X1207700Y208939D01*
X1208600Y209940D01*
X1209780Y210580D01*
X1211100Y210799D01*
X1219620Y210799D01*
X1220940Y210580D01*
X1222120Y209940D01*
X1223320Y208440D01*
X1224920Y206840D01*
X1226820Y205640D01*
X1228960Y204899D01*
X1231420Y204620D01*
X1280180Y204620D01*
X1282640Y204899D01*
X1284780Y205640D01*
X1286680Y206840D01*
X1288280Y208440D01*
X1289480Y210360D01*
X1290220Y212480D01*
X1290500Y214940D01*
X1290500Y242060D01*
X1290220Y244520D01*
X1289480Y246660D01*
X1288280Y248560D01*
X1286680Y250159D01*
X1284780Y251360D01*
X1282640Y252100D01*
X1280180Y252380D01*
X1231420Y252380D01*
X1228960Y252100D01*
X1226820Y251360D01*
X1224920Y250159D01*
X1223320Y248560D01*
X1222120Y246660D01*
X1220940Y243140D01*
X1220060Y242000D01*
X1218820Y241260D01*
X1217400Y241000D01*
X1211100Y241000D01*
X1209780Y241220D01*
X1208600Y241880D01*
X1207700Y242880D01*
X1206380Y244980D01*
X1204800Y246580D01*
X1202880Y247780D01*
X1200760Y248520D01*
X1198280Y248800D01*
X1175120Y248800D01*
X1172640Y248520D01*
X1171320Y248060D01*
X1170000Y247840D01*
X1168680Y248060D01*
X1167360Y248520D01*
X1164880Y248800D01*
X1160120Y248800D01*
X1158580Y249100D01*
X1157280Y249960D01*
X1105820Y301440D01*
X1103380Y303440D01*
X1100780Y304840D01*
X1097940Y305700D01*
X1094800Y306000D01*
X812920Y306000D01*
X811380Y306300D01*
X810080Y307180D01*
X797140Y320120D01*
X796260Y321420D01*
X795960Y322960D01*
X796260Y324480D01*
X797140Y325780D01*
X798420Y326640D01*
X799960Y326960D01*
X834980Y326960D01*
X837440Y327239D01*
X839180Y327840D01*
X840500Y328060D01*
X841820Y327840D01*
X843560Y327239D01*
X846020Y326960D01*
X884980Y326960D01*
X887440Y327239D01*
X889180Y327840D01*
X890500Y328060D01*
X891820Y327840D01*
X893560Y327239D01*
X896020Y326960D01*
X934980Y326960D01*
X937440Y327239D01*
X939180Y327840D01*
X940500Y328060D01*
X941820Y327840D01*
X943560Y327239D01*
X946020Y326960D01*
X984980Y326960D01*
X987440Y327239D01*
X989580Y327980D01*
X991480Y329180D01*
X993080Y330780D01*
X994280Y332680D01*
X995020Y334820D01*
X995300Y337280D01*
X995300Y395920D01*
X995020Y398400D01*
X994280Y400520D01*
X993080Y402440D01*
X991480Y404020D01*
X989580Y405220D01*
X987440Y405980D01*
X984980Y406260D01*
X946020Y406260D01*
X943560Y405980D01*
X941820Y405360D01*
X940500Y405140D01*
X939180Y405360D01*
X937440Y405980D01*
X934980Y406260D01*
X896020Y406260D01*
X893560Y405980D01*
X891820Y405360D01*
X890500Y405140D01*
X889180Y405360D01*
X887440Y405980D01*
X884980Y406260D01*
X846020Y406260D01*
X843560Y405980D01*
X841820Y405360D01*
X840500Y405140D01*
X839180Y405360D01*
X837440Y405980D01*
X834980Y406260D01*
X796020Y406260D01*
X793560Y405980D01*
X791820Y405360D01*
X790500Y405140D01*
X789180Y405360D01*
X787440Y405980D01*
X784980Y406260D01*
X746020Y406260D01*
X743560Y405980D01*
X741820Y405360D01*
X740500Y405140D01*
X739180Y405360D01*
X737440Y405980D01*
X734980Y406260D01*
X696020Y406260D01*
X693560Y405980D01*
X691820Y405360D01*
X690500Y405140D01*
X689180Y405360D01*
X687440Y405980D01*
X684980Y406260D01*
X646020Y406260D01*
X643560Y405980D01*
X641820Y405360D01*
X640500Y405140D01*
X639180Y405360D01*
X637440Y405980D01*
X634980Y406260D01*
X596020Y406260D01*
X593560Y405980D01*
X591820Y405360D01*
X590500Y405140D01*
X589180Y405360D01*
X587440Y405980D01*
X584980Y406260D01*
X546020Y406260D01*
X543560Y405980D01*
X541820Y405360D01*
X540500Y405140D01*
X539180Y405360D01*
X537440Y405980D01*
X534980Y406260D01*
X496019Y406260D01*
X493560Y405980D01*
X491820Y405360D01*
X490500Y405140D01*
X489180Y405360D01*
X487440Y405980D01*
X484980Y406260D01*
X446019Y406260D01*
X443560Y405980D01*
X441820Y405360D01*
X440500Y405140D01*
X439180Y405360D01*
X437440Y405980D01*
X434980Y406260D01*
X396019Y406260D01*
X393560Y405980D01*
X391820Y405360D01*
X390500Y405140D01*
X389180Y405360D01*
X387440Y405980D01*
X384980Y406260D01*
X346019Y406260D01*
X343560Y405980D01*
X341820Y405360D01*
X340500Y405140D01*
X339180Y405360D01*
X337440Y405980D01*
X334980Y406260D01*
X327860Y406260D01*
X327860Y383880D01*
X331700Y383880D01*
X333240Y383579D01*
X334520Y382700D01*
X335400Y381400D01*
X335700Y379880D01*
X335700Y353320D01*
X335400Y351800D01*
X334520Y350500D01*
X333240Y349640D01*
X331700Y349320D01*
X327860Y349320D01*
X327860Y326960D01*
X334980Y326960D01*
X337440Y327239D01*
X339180Y327840D01*
X340500Y328060D01*
X341820Y327840D01*
X343560Y327239D01*
X346400Y326960D01*
X347939Y326640D01*
X349219Y325780D01*
X350100Y324480D01*
X350400Y322960D01*
X350400Y-99400D01*
X350700Y-102540D01*
X351560Y-105380D01*
X352960Y-107980D01*
X354960Y-110420D01*
X519180Y-274640D01*
X521620Y-276640D01*
X524219Y-278020D01*
X527060Y-278880D01*
X530200Y-279200D01*
X602320Y-279200D01*
X603860Y-279500D01*
X605160Y-280360D01*
X605800Y-281020D01*
X608960Y-283220D01*
X612440Y-284860D01*
X616160Y-285840D01*
X620000Y-286180D01*
X623840Y-285840D01*
X627560Y-284860D01*
X631040Y-283220D01*
X634200Y-281020D01*
X636920Y-278300D01*
X639120Y-275140D01*
X640759Y-271660D01*
X641740Y-267940D01*
X642080Y-264100D01*
X641740Y-260260D01*
X640759Y-256540D01*
X639120Y-253060D01*
X636920Y-249899D01*
X634200Y-247180D01*
X631040Y-244980D01*
X627560Y-243340D01*
X623840Y-242360D01*
X620000Y-242020D01*
X616160Y-242360D01*
X612440Y-243340D01*
X608960Y-244980D01*
X605800Y-247180D01*
X605160Y-247820D01*
X603860Y-248700D01*
X602340Y-249000D01*
X537920Y-249000D01*
X536380Y-248700D01*
X535080Y-247820D01*
X381780Y-94520D01*
X380900Y-93219D01*
X380600Y-91679D01*
X380600Y322960D01*
X380900Y324480D01*
X381780Y325780D01*
X383060Y326640D01*
X384980Y326960D01*
X387440Y327239D01*
X389180Y327840D01*
X390500Y328060D01*
X391820Y327840D01*
X393560Y327239D01*
X396019Y326960D01*
X405940Y326960D01*
X407460Y326640D01*
X408760Y325780D01*
X502180Y232360D01*
X504620Y230360D01*
X507220Y228960D01*
X510060Y228100D01*
X513200Y227800D01*
X632180Y227800D01*
X633720Y227500D01*
X635020Y226620D01*
X736020Y125640D01*
X736880Y124340D01*
X737180Y122800D01*
X736880Y121280D01*
X736020Y119980D01*
X734720Y119100D01*
X733180Y118800D01*
X681060Y118800D01*
X681060Y52160D01*
X747700Y52160D01*
X747700Y104280D01*
X748000Y105820D01*
X748880Y107120D01*
X750160Y107980D01*
X751700Y108280D01*
X753240Y107980D01*
X754520Y107120D01*
X897620Y-35980D01*
X898500Y-37280D01*
X898800Y-38820D01*
X898800Y-54740D01*
X898500Y-56260D01*
X897620Y-57560D01*
X896979Y-58200D01*
X894780Y-61360D01*
X893139Y-64840D01*
X892159Y-68560D01*
X891820Y-72400D01*
X892159Y-76240D01*
X893139Y-79960D01*
X894780Y-83440D01*
X896979Y-86600D01*
X899700Y-89320D01*
X902860Y-91519D01*
X906340Y-93160D01*
X910060Y-94140D01*
X913900Y-94480D01*
X917740Y-94140D01*
X921460Y-93160D01*
X924940Y-91519D01*
X928100Y-89320D01*
X930819Y-86600D01*
X933020Y-83440D01*
X934240Y-82300D01*
X935840Y-81760D01*
X937500Y-81920D01*
X938960Y-82760D01*
X939940Y-84100D01*
X940300Y-85740D01*
X940300Y-264400D01*
X940600Y-267540D01*
X941460Y-270380D01*
X942860Y-272980D01*
X944860Y-275420D01*
X984360Y-314920D01*
X985240Y-316220D01*
X985540Y-317740D01*
X985240Y-319280D01*
X984360Y-320580D01*
X983060Y-321440D01*
X981540Y-321740D01*
X946020Y-321740D01*
X943560Y-322020D01*
X941820Y-322640D01*
X940500Y-322860D01*
X939180Y-322640D01*
X937440Y-322020D01*
X934980Y-321740D01*
X896020Y-321740D01*
X893560Y-322020D01*
X891820Y-322640D01*
X890500Y-322860D01*
X889180Y-322640D01*
X887440Y-322020D01*
X884980Y-321740D01*
X846020Y-321740D01*
X843560Y-322020D01*
X841820Y-322640D01*
X840500Y-322860D01*
X839180Y-322640D01*
X837440Y-322020D01*
X834980Y-321740D01*
X796020Y-321740D01*
X793560Y-322020D01*
X791820Y-322640D01*
X790500Y-322860D01*
X789180Y-322640D01*
X787440Y-322020D01*
X784980Y-321740D01*
X746020Y-321740D01*
X743560Y-322020D01*
X741820Y-322640D01*
X740500Y-322860D01*
X739180Y-322640D01*
X737440Y-322020D01*
X734980Y-321740D01*
X696020Y-321740D01*
X693560Y-322020D01*
X691820Y-322640D01*
X690500Y-322860D01*
X689180Y-322640D01*
X687440Y-322020D01*
X684980Y-321740D01*
X646020Y-321740D01*
X643560Y-322020D01*
X641820Y-322640D01*
X640500Y-322860D01*
X639180Y-322640D01*
X637440Y-322020D01*
X634980Y-321740D01*
X596020Y-321740D01*
X593560Y-322020D01*
X591820Y-322640D01*
X590500Y-322860D01*
X589180Y-322640D01*
X587440Y-322020D01*
X584980Y-321740D01*
X546020Y-321740D01*
X543560Y-322020D01*
X541820Y-322640D01*
X540500Y-322860D01*
X539180Y-322640D01*
X537440Y-322020D01*
X534980Y-321740D01*
X496019Y-321740D01*
X493560Y-322020D01*
X491820Y-322640D01*
X490500Y-322860D01*
X489180Y-322640D01*
X487440Y-322020D01*
X484980Y-321740D01*
X446019Y-321740D01*
X443560Y-322020D01*
X441820Y-322640D01*
X440500Y-322860D01*
X439180Y-322640D01*
X437440Y-322020D01*
X434980Y-321740D01*
X396019Y-321740D01*
X393560Y-322020D01*
X391820Y-322640D01*
X390500Y-322860D01*
X389180Y-322640D01*
X387440Y-322020D01*
X384980Y-321740D01*
X346019Y-321740D01*
X343560Y-322020D01*
X341820Y-322640D01*
X340500Y-322860D01*
X339180Y-322640D01*
X337440Y-322020D01*
X334980Y-321740D01*
X327860Y-321740D01*
X327860Y-344120D01*
X331700Y-344120D01*
X333240Y-344420D01*
X334520Y-345300D01*
X335400Y-346599D01*
X335700Y-348120D01*
X335700Y-374680D01*
X335400Y-376200D01*
X334520Y-377500D01*
X333240Y-378360D01*
X331700Y-378680D01*
X327860Y-378680D01*
X327860Y-401040D01*
X334980Y-401040D01*
X337440Y-400760D01*
X339180Y-400160D01*
X340500Y-399940D01*
X341820Y-400160D01*
X343560Y-400760D01*
X346019Y-401040D01*
X384980Y-401040D01*
X387440Y-400760D01*
X389180Y-400160D01*
X390500Y-399940D01*
X391820Y-400160D01*
X393560Y-400760D01*
X396019Y-401040D01*
X434980Y-401040D01*
X437440Y-400760D01*
X439180Y-400160D01*
X440500Y-399940D01*
X441820Y-400160D01*
X443560Y-400760D01*
X446019Y-401040D01*
X484980Y-401040D01*
X487440Y-400760D01*
X489180Y-400160D01*
X490500Y-399940D01*
X491820Y-400160D01*
X493560Y-400760D01*
X496019Y-401040D01*
X534980Y-401040D01*
X537440Y-400760D01*
X539180Y-400160D01*
X540500Y-399940D01*
X541820Y-400160D01*
X543560Y-400760D01*
X546020Y-401040D01*
X584980Y-401040D01*
X587440Y-400760D01*
X589180Y-400160D01*
X590500Y-399940D01*
X591820Y-400160D01*
X593560Y-400760D01*
X596020Y-401040D01*
X634980Y-401040D01*
X637440Y-400760D01*
X639180Y-400160D01*
X640500Y-399940D01*
X641820Y-400160D01*
X643560Y-400760D01*
X646020Y-401040D01*
X684980Y-401040D01*
X687440Y-400760D01*
X689180Y-400160D01*
X690500Y-399940D01*
X691820Y-400160D01*
X693560Y-400760D01*
X696020Y-401040D01*
X734980Y-401040D01*
X737440Y-400760D01*
X739180Y-400160D01*
X740500Y-399940D01*
X741820Y-400160D01*
X743560Y-400760D01*
X746020Y-401040D01*
X784980Y-401040D01*
X787440Y-400760D01*
X789180Y-400160D01*
X790500Y-399940D01*
X791820Y-400160D01*
X793560Y-400760D01*
X796020Y-401040D01*
X834980Y-401040D01*
X837440Y-400760D01*
X839180Y-400160D01*
X840500Y-399940D01*
X841820Y-400160D01*
X843560Y-400760D01*
X846020Y-401040D01*
X884980Y-401040D01*
X887440Y-400760D01*
X889180Y-400160D01*
X890500Y-399940D01*
X891820Y-400160D01*
X893560Y-400760D01*
X896020Y-401040D01*
X934980Y-401040D01*
X937440Y-400760D01*
X939180Y-400160D01*
X940500Y-399940D01*
X941820Y-400160D01*
X943560Y-400760D01*
X946320Y-401079D01*
X947600Y-401440D01*
X948700Y-402220D01*
X950800Y-404320D01*
X953960Y-406520D01*
X957440Y-408160D01*
X961160Y-409140D01*
X965000Y-409480D01*
X968840Y-409140D01*
X972560Y-408160D01*
X976040Y-406520D01*
X979200Y-404320D01*
X981300Y-402220D01*
X982600Y-401360D01*
X984120Y-401040D01*
X984980Y-401040D01*
X987440Y-400760D01*
X989580Y-400020D01*
X991480Y-398820D01*
X993080Y-397220D01*
X994280Y-395319D01*
X995020Y-393180D01*
X995300Y-390720D01*
X995300Y-335520D01*
X995600Y-333980D01*
X996480Y-332680D01*
X997760Y-331820D01*
X999300Y-331520D01*
X1000840Y-331820D01*
X1002120Y-332680D01*
X1092180Y-422720D01*
X1092780Y-423500D01*
X1093460Y-425379D01*
X1093860Y-426120D01*
X1094320Y-427680D01*
X1094120Y-429320D01*
X1093280Y-430720D01*
X1091940Y-431659D01*
X1090340Y-432000D01*
G37*

%LPC*%
G36*
X296020Y-401040D02*
G01*
X303160Y-401040D01*
X303160Y-378680D01*
X285700Y-378680D01*
X285700Y-390720D01*
X285980Y-393180D01*
X286720Y-395319D01*
X287920Y-397220D01*
X289520Y-398820D01*
X291420Y-400020D01*
X293560Y-400760D01*
G37*
G36*
X285700Y-344120D02*
G01*
X303160Y-344120D01*
X303160Y-321740D01*
X296020Y-321740D01*
X293560Y-322020D01*
X291420Y-322780D01*
X289520Y-323980D01*
X287920Y-325560D01*
X286720Y-327480D01*
X285980Y-329600D01*
X285700Y-332080D01*
G37*
G36*
X501620Y-137600D02*
G01*
X557960Y-137600D01*
X557960Y-70940D01*
X491300Y-70940D01*
X491300Y-127280D01*
X491580Y-129740D01*
X492320Y-131860D01*
X493519Y-133780D01*
X495120Y-135380D01*
X497020Y-136580D01*
X499159Y-137320D01*
G37*
G36*
X681060Y-137600D02*
G01*
X737380Y-137600D01*
X739840Y-137320D01*
X741979Y-136580D01*
X743880Y-135380D01*
X745480Y-133780D01*
X746680Y-131860D01*
X747420Y-129740D01*
X747700Y-127280D01*
X747700Y-70940D01*
X681060Y-70940D01*
G37*
G36*
X491300Y52160D02*
G01*
X557960Y52160D01*
X557960Y118800D01*
X501620Y118800D01*
X499159Y118520D01*
X497020Y117780D01*
X495120Y116580D01*
X493519Y114980D01*
X492320Y113080D01*
X491580Y110940D01*
X491300Y108480D01*
G37*
G36*
X1231420Y279420D02*
G01*
X1280180Y279420D01*
X1282640Y279700D01*
X1284780Y280440D01*
X1286680Y281640D01*
X1288280Y283240D01*
X1289480Y285160D01*
X1290220Y287280D01*
X1290500Y289740D01*
X1290500Y315000D01*
X1290820Y316520D01*
X1291680Y317820D01*
X1306080Y332220D01*
X1307380Y333100D01*
X1308899Y333400D01*
X1347180Y333400D01*
X1349640Y333680D01*
X1351780Y334420D01*
X1353680Y335620D01*
X1355280Y337220D01*
X1356480Y339120D01*
X1357220Y341260D01*
X1357500Y343720D01*
X1357500Y418080D01*
X1357220Y420540D01*
X1356480Y422680D01*
X1355280Y424580D01*
X1353680Y426180D01*
X1351780Y427380D01*
X1349640Y428120D01*
X1347180Y428400D01*
X1272820Y428400D01*
X1270360Y428120D01*
X1268220Y427380D01*
X1266320Y426180D01*
X1264720Y424580D01*
X1263520Y422680D01*
X1262780Y420540D01*
X1262500Y418080D01*
X1262500Y343720D01*
X1262780Y341260D01*
X1263520Y339120D01*
X1264420Y337680D01*
X1264940Y336440D01*
X1265020Y335100D01*
X1264640Y333820D01*
X1263880Y332720D01*
X1259500Y328360D01*
X1258200Y327480D01*
X1256680Y327180D01*
X1231420Y327180D01*
X1228960Y326900D01*
X1226820Y326160D01*
X1224920Y324960D01*
X1223320Y323360D01*
X1222120Y321460D01*
X1221380Y319320D01*
X1221100Y316860D01*
X1221100Y289740D01*
X1221380Y287280D01*
X1222120Y285160D01*
X1223320Y283240D01*
X1224920Y281640D01*
X1226820Y280440D01*
X1228960Y279700D01*
G37*
G36*
X296020Y326960D02*
G01*
X303160Y326960D01*
X303160Y349320D01*
X285700Y349320D01*
X285700Y337280D01*
X285980Y334820D01*
X286720Y332680D01*
X287920Y330780D01*
X289520Y329180D01*
X291420Y327980D01*
X293560Y327239D01*
G37*
G36*
X1431200Y338400D02*
G01*
X1436240Y341300D01*
X1440900Y344840D01*
X1445100Y348900D01*
X1448760Y353459D01*
X1451840Y358440D01*
X1452420Y359700D01*
X1431200Y359700D01*
G37*
G36*
X1388800Y338500D02*
G01*
X1388800Y359700D01*
X1367580Y359700D01*
X1369620Y355900D01*
X1373000Y351120D01*
X1376940Y346800D01*
X1381380Y343000D01*
X1386260Y339760D01*
G37*
G36*
X1496759Y352340D02*
G01*
X1510760Y352340D01*
X1510760Y376680D01*
X1486440Y376680D01*
X1486440Y362660D01*
X1486720Y360200D01*
X1487460Y358060D01*
X1488660Y356160D01*
X1490260Y354560D01*
X1492160Y353360D01*
X1494300Y352620D01*
G37*
G36*
X285700Y383880D02*
G01*
X303160Y383880D01*
X303160Y406260D01*
X296020Y406260D01*
X293560Y405980D01*
X291420Y405220D01*
X289520Y404020D01*
X287920Y402440D01*
X286720Y400520D01*
X285980Y398400D01*
X285700Y395920D01*
G37*
G36*
X1367580Y402100D02*
G01*
X1388800Y402100D01*
X1388800Y423300D01*
X1386260Y422040D01*
X1381380Y418800D01*
X1376940Y415000D01*
X1373000Y410680D01*
X1369620Y405900D01*
G37*
G36*
X1431200Y402100D02*
G01*
X1452420Y402100D01*
X1451840Y403360D01*
X1448760Y408340D01*
X1445100Y412900D01*
X1440900Y416960D01*
X1436240Y420500D01*
X1431200Y423400D01*
G37*

%LPD*%
D10*
X1130000Y135907D02*
G01*
X1130000Y140907D01*
X1150000Y160907D01*
X1175000Y160907D01*
X1190000Y145907D01*
X1445000Y145907D01*
X1696698Y397607D01*
X1720000Y397607D01*
X1720000Y237607D02*
G01*
X1591698Y237607D01*
X1460000Y105907D01*
X1145000Y105907D01*
X1720000Y77607D02*
G01*
X1691999Y77607D01*
X1641999Y27607D01*
X1641999Y-232392D01*
X1616000Y-258393D01*
X1546000Y-258393D01*
X1480000Y-324394D01*
X1470000Y-324394D01*
D11*
X1610000Y395907D02*
G01*
X1610000Y382607D01*
X1410000Y182607D01*
D10*
X1470000Y-290693D02*
G01*
X1436598Y-324092D01*
X1430000Y-324092D01*
X1596698Y-87392D02*
G01*
X1555000Y-87392D01*
X1510000Y-42392D01*
X1596698Y-7392D02*
G01*
X1596698Y-87392D01*
X1596698Y-207392D02*
G01*
X1605000Y-207392D01*
X1620000Y-192392D01*
X1620000Y-150693D01*
X1596698Y-127392D01*
X1596698Y-127392D02*
G01*
X1571698Y-152392D01*
X1123301Y-152392D01*
X1205000Y-87392D02*
G01*
X1140000Y-87392D01*
X1095000Y-132392D01*
X1095000Y-182392D01*
X1110000Y-197392D01*
X1515000Y-197392D01*
X1435000Y52607D02*
G01*
X1408999Y26606D01*
X1034499Y26606D01*
X1400000Y52607D02*
G01*
X1085000Y52607D01*
X1061000Y76606D01*
X1034499Y76606D01*
X1596698Y72607D02*
G01*
X1596698Y79209D01*
X1563301Y112607D01*
X1350000Y-324092D02*
G01*
X1270000Y-324092D01*
X1390000Y-351392D02*
G01*
X1310000Y-351392D01*
X1720000Y-82392D02*
G01*
X1690000Y-82392D01*
X1665000Y-107392D01*
X1665000Y-267392D01*
X1650000Y-282392D01*
X1555000Y-282392D01*
X1463000Y-374394D01*
X1455000Y-374394D01*
X620000Y-264092D02*
G01*
X530000Y-264092D01*
X365500Y-99594D01*
X365500Y366606D01*
X1720000Y317607D02*
G01*
X1646698Y317607D01*
X1455000Y125907D01*
X1175000Y125907D01*
X1165000Y135907D01*
X1596499Y-167592D02*
G01*
X1579799Y-167592D01*
X1560000Y-187392D01*
X1560000Y-207392D01*
X1545000Y-222392D01*
X1380000Y-222392D01*
X1310000Y-292392D01*
X1720000Y-322392D02*
G01*
X1556000Y-322392D01*
X1479299Y-399092D01*
X1125100Y-399092D01*
X976598Y-250590D01*
X976598Y-13993D01*
X651201Y311509D01*
X616000Y311509D01*
X1107399Y-416592D02*
G01*
X955399Y-264594D01*
X955399Y-30092D01*
X640500Y284809D01*
X593701Y284809D01*
X565901Y312607D01*
X1641298Y-389492D02*
G01*
X1614198Y-416592D01*
X1255801Y303305D02*
G01*
X1310000Y357509D01*
X1310000Y380907D01*
X1365000Y217607D02*
G01*
X1354198Y228407D01*
X1354198Y265907D01*
X1365000Y184209D02*
G01*
X1408401Y184209D01*
X1410000Y182607D01*
X1255801Y228506D02*
G01*
X1253200Y225907D01*
X1186698Y225907D01*
X1153301Y225907D02*
G01*
X1153301Y232607D01*
X1095000Y290907D01*
X805000Y290907D01*
X765500Y330405D01*
X765500Y366606D01*
X1720000Y157607D02*
G01*
X1720000Y180907D01*
X1565000Y180907D01*
X1465000Y80907D01*
X1135000Y80907D01*
X1105000Y110907D01*
X1105000Y155907D01*
X1130000Y180907D01*
X1130000Y185907D01*
X1614198Y-419594D02*
G01*
X1107399Y-419594D01*
D11*
X-883301Y-122094D02*
G01*
X-1218301Y212905D01*
X-1218301Y247905D01*
D10*
X-55000Y152905D02*
G01*
X-391698Y152905D01*
X-530700Y291903D01*
X-845236Y291903D01*
X-347600Y-367094D02*
G01*
X-255500Y-367094D01*
X-199399Y-310996D01*
D11*
X-570000Y-267094D02*
G01*
X-500000Y-197094D01*
X-500000Y127905D01*
X-570000Y197905D01*
X-1080000Y192905D01*
X-1107500Y217905D01*
D10*
X-880000Y166206D02*
G01*
X-955000Y91206D01*
X-955000Y-7094D01*
X-930000Y-32094D01*
X-830801Y102905D02*
G01*
X-830000Y103706D01*
X-830000Y167905D01*
X-575000Y79603D02*
G01*
X-724098Y-69497D01*
X-840801Y-69497D01*
D11*
X-895000Y-177094D02*
G01*
X-960000Y-177094D01*
X-1218301Y247905D02*
G01*
X-1372560Y247905D01*
X-1392560Y227905D01*
X-640000Y-337094D02*
G01*
X-570000Y-267094D01*
X-200000Y-267094D01*
D10*
X-929198Y65502D02*
G01*
X-772399Y65502D01*
X-730000Y107905D01*
X-550000Y107905D01*
X-530000Y87905D01*
X-530000Y67905D01*
X-545000Y47905D01*
X-575000Y46206D01*
D11*
X-640000Y-337094D02*
G01*
X-720000Y-257094D01*
X-770000Y-257094D01*
X-1107500Y217905D02*
G01*
X-1137500Y247905D01*
X-1218301Y247905D01*
D10*
X-55000Y-167094D02*
G01*
X-105000Y-167094D01*
X-525000Y252905D01*
X-830000Y252905D01*
X-55000Y-247094D02*
G01*
X-70000Y-247094D01*
X-110000Y-207094D01*
X-110000Y-192094D01*
X-530000Y227905D01*
X-880000Y227905D01*
X-1183000Y138906D02*
G01*
X-1206999Y162905D01*
X-1395399Y162905D01*
X-1395600Y162705D01*
X-1435600Y162705D01*
X-1345100Y-60092D02*
G01*
X-1345100Y87006D01*
X-1396999Y138906D01*
X-55000Y232905D02*
G01*
X-435000Y236206D01*
X-520000Y321206D01*
X-805000Y321206D01*
X-805000Y321206D02*
G01*
X-1410000Y321206D01*
X-1465000Y376206D01*
X-845236Y291903D02*
G01*
X-1540700Y291903D01*
X-1575000Y326206D01*
X-1575000Y372905D01*
X-770000Y-162094D02*
G01*
X-808301Y-162094D01*
X-898301Y-252094D01*
X-1386000Y-252094D01*
X-770000Y-127094D02*
G01*
X-740000Y-157094D01*
X-740000Y-173793D01*
X-760000Y-193793D01*
X-810000Y-193793D01*
X-895600Y-279394D01*
X-1363301Y-279394D01*
X-1386000Y-302094D01*
X-133701Y-394194D02*
G01*
X-824700Y-394194D01*
X-912500Y-306396D01*
X-1354899Y-306396D01*
X-1375801Y-327294D01*
X-1395399Y-327294D01*
X-1414899Y-307793D01*
X-1414899Y-167294D01*
X-1378500Y-130893D01*
X-1378500Y-60092D01*
X-1396999Y138906D02*
G01*
X-1396999Y89203D01*
X-1416980Y69223D01*
X-1453034Y69223D01*
X-1453034Y37744D02*
G01*
X-1453034Y69223D01*
X-1453000Y6303D02*
G01*
X-1480100Y6303D01*
X-1505000Y31206D01*
X-1505000Y211903D01*
X-1487600Y229306D01*
X-1453000Y-56694D02*
G01*
X-1378500Y-56694D01*
X-1378500Y-60092D01*
X-1557035Y-56723D02*
G01*
X-1602070Y-56723D01*
X-1640000Y-18793D01*
X-1640000Y291206D01*
X-1575000Y356206D01*
X-1575000Y372905D01*
X-1556999Y-25196D02*
G01*
X-1598600Y-25196D01*
X-1620000Y-3793D01*
X-1620000Y268002D01*
X-1590299Y297705D01*
D11*
X-1106999Y-226095D02*
G01*
X-1256999Y-76095D01*
X-1256999Y138904D01*
D10*
X913899Y-72392D02*
G01*
X913899Y-30893D01*
X640100Y242905D01*
X513000Y242905D01*
X415500Y340405D01*
X415500Y366606D01*
G36*
X1174889Y213117D02*
G01*
X1198509Y213117D01*
X1198509Y238697D01*
X1174889Y238697D01*
G37*
G36*
X1141490Y213117D02*
G01*
X1165110Y213117D01*
X1165110Y238697D01*
X1141490Y238697D01*
G37*
G36*
X1352209Y196017D02*
G01*
X1352209Y172397D01*
X1377790Y172397D01*
X1377790Y196017D01*
G37*
G36*
X1352209Y229416D02*
G01*
X1352209Y205797D01*
X1377790Y205797D01*
X1377790Y229416D01*
G37*
G36*
X1329593Y279686D02*
G01*
X1329593Y252127D01*
X1378806Y252127D01*
X1378806Y279686D01*
G37*
G36*
X1231193Y317087D02*
G01*
X1231193Y289527D01*
X1280406Y289527D01*
X1280406Y317087D01*
G37*
G36*
X1231193Y242287D02*
G01*
X1231193Y214727D01*
X1280406Y214727D01*
X1280406Y242287D01*
G37*
G36*
X445799Y396157D02*
G01*
X445799Y337056D01*
X485200Y337056D01*
X485200Y396157D01*
G37*
G36*
X495799Y396157D02*
G01*
X495799Y337056D01*
X535200Y337056D01*
X535200Y396157D01*
G37*
G36*
X545799Y396157D02*
G01*
X545799Y337056D01*
X585200Y337056D01*
X585200Y396157D01*
G37*
G36*
X595799Y396157D02*
G01*
X595799Y337056D01*
X635200Y337056D01*
X635200Y396157D01*
G37*
G36*
X645799Y396157D02*
G01*
X645799Y337056D01*
X685200Y337056D01*
X685200Y396157D01*
G37*
G36*
X695799Y396157D02*
G01*
X695799Y337056D01*
X735200Y337056D01*
X735200Y396157D01*
G37*
G36*
X745799Y396157D02*
G01*
X745799Y337056D01*
X785200Y337056D01*
X785200Y396157D01*
G37*
G36*
X795799Y396157D02*
G01*
X795799Y337056D01*
X835200Y337056D01*
X835200Y396157D01*
G37*
G36*
X1064049Y-203692D02*
G01*
X1004949Y-203692D01*
X1004949Y-243092D01*
X1064049Y-243092D01*
G37*
G36*
X945799Y-331842D02*
G01*
X945799Y-390942D01*
X985200Y-390942D01*
X985200Y-331842D01*
G37*
G36*
X895799Y-331842D02*
G01*
X895799Y-390942D01*
X935200Y-390942D01*
X935200Y-331842D01*
G37*
G36*
X845799Y-331842D02*
G01*
X845799Y-390942D01*
X885200Y-390942D01*
X885200Y-331842D01*
G37*
G36*
X795799Y-331842D02*
G01*
X795799Y-390942D01*
X835200Y-390942D01*
X835200Y-331842D01*
G37*
G36*
X745799Y-331842D02*
G01*
X745799Y-390942D01*
X785200Y-390942D01*
X785200Y-331842D01*
G37*
G36*
X695799Y-331842D02*
G01*
X695799Y-390942D01*
X735200Y-390942D01*
X735200Y-331842D01*
G37*
G36*
X645799Y-331842D02*
G01*
X645799Y-390942D01*
X685200Y-390942D01*
X685200Y-331842D01*
G37*
G36*
X1064049Y146307D02*
G01*
X1004949Y146307D01*
X1004949Y106907D01*
X1064049Y106907D01*
G37*
G36*
X845799Y396157D02*
G01*
X845799Y337056D01*
X885200Y337056D01*
X885200Y396157D01*
G37*
G36*
X895799Y396157D02*
G01*
X895799Y337056D01*
X935200Y337056D01*
X935200Y396157D01*
G37*
G36*
X945799Y396157D02*
G01*
X945799Y337056D01*
X985200Y337056D01*
X985200Y396157D01*
G37*
G36*
X1064049Y246307D02*
G01*
X1004949Y246307D01*
X1004949Y206907D01*
X1064049Y206907D01*
G37*
G36*
X1064049Y196307D02*
G01*
X1004949Y196307D01*
X1004949Y156907D01*
X1064049Y156907D01*
G37*
G36*
X395799Y396157D02*
G01*
X395799Y337056D01*
X435200Y337056D01*
X435200Y396157D01*
G37*
G36*
X345799Y396157D02*
G01*
X345799Y337056D01*
X385200Y337056D01*
X385200Y396157D01*
G37*
G36*
X295799Y396157D02*
G01*
X295799Y337056D01*
X335200Y337056D01*
X335200Y396157D01*
G37*
G36*
X1064049Y96307D02*
G01*
X1004949Y96307D01*
X1004949Y56907D01*
X1064049Y56907D01*
G37*
G36*
X1064049Y46307D02*
G01*
X1004949Y46307D01*
X1004949Y6907D01*
X1064049Y6907D01*
G37*
G36*
X1064049Y-3692D02*
G01*
X1004949Y-3692D01*
X1004949Y-43092D01*
X1064049Y-43092D01*
G37*
G36*
X1064049Y-153692D02*
G01*
X1004949Y-153692D01*
X1004949Y-193092D01*
X1064049Y-193092D01*
G37*
G36*
X1064049Y-103692D02*
G01*
X1004949Y-103692D01*
X1004949Y-143092D01*
X1064049Y-143092D01*
G37*
G36*
X1064049Y-53692D02*
G01*
X1004949Y-53692D01*
X1004949Y-93092D01*
X1064049Y-93092D01*
G37*
G36*
X595799Y-331842D02*
G01*
X595799Y-390942D01*
X635200Y-390942D01*
X635200Y-331842D01*
G37*
G36*
X545799Y-331842D02*
G01*
X545799Y-390942D01*
X585200Y-390942D01*
X585200Y-331842D01*
G37*
G36*
X495799Y-331842D02*
G01*
X495799Y-390942D01*
X535200Y-390942D01*
X535200Y-331842D01*
G37*
G36*
X445799Y-331842D02*
G01*
X445799Y-390942D01*
X485200Y-390942D01*
X485200Y-331842D01*
G37*
G36*
X395799Y-331842D02*
G01*
X395799Y-390942D01*
X435200Y-390942D01*
X435200Y-331842D01*
G37*
G36*
X345799Y-331842D02*
G01*
X345799Y-390942D01*
X385200Y-390942D01*
X385200Y-331842D01*
G37*
G36*
X295799Y-331842D02*
G01*
X295799Y-390942D01*
X335200Y-390942D01*
X335200Y-331842D01*
G37*
G36*
X501400Y108706D02*
G01*
X501400Y-127492D01*
X737600Y-127492D01*
X737600Y108706D01*
G37*
G36*
X-1366689Y-47305D02*
G01*
X-1390309Y-47305D01*
X-1390309Y-72885D01*
X-1366689Y-72885D01*
G37*
G36*
X-1333289Y-47305D02*
G01*
X-1356909Y-47305D01*
X-1356909Y-72885D01*
X-1333289Y-72885D01*
G37*
D45*
G01*
X-1557039Y-88224D03*
G01*
X-1557039Y-56725D03*
G01*
X-1557039Y-25234D03*
G01*
X-1557039Y6264D03*
G01*
X-1557039Y37744D03*
G01*
X-1557039Y69225D03*
G01*
X-1557039Y100705D03*
G01*
X-1453040Y-88224D03*
G01*
X-1453040Y-56725D03*
G01*
X-1453040Y-25234D03*
G01*
X-1453040Y6264D03*
G01*
X-1453040Y37744D03*
G01*
X-1453040Y69225D03*
G01*
X-1453040Y100705D03*
G36*
X1272597Y418306D02*
G01*
X1347400Y418306D01*
X1347400Y343504D01*
X1272597Y343504D01*
G37*
D39*
G01*
X1410000Y380905D03*
D40*
G01*
X-1353999Y373205D03*
G36*
X1686535Y-48928D02*
G01*
X1753464Y-48928D01*
X1753464Y-115857D01*
X1686535Y-115857D01*
G37*
G36*
X1686535Y111071D02*
G01*
X1753464Y111071D01*
X1753464Y44142D01*
X1686535Y44142D01*
G37*
G36*
X1686535Y31071D02*
G01*
X1753464Y31071D01*
X1753464Y-35857D01*
X1686535Y-35857D01*
G37*
G01*
X-1685000Y372905D03*
G01*
X-1465000Y372905D03*
G01*
X-1575000Y372905D03*
D38*
G01*
X-1285000Y-382094D03*
D39*
G01*
X-1385000Y-382094D03*
D41*
G01*
X-1556009Y-157195D03*
G01*
X-1556009Y-347795D03*
D40*
G01*
X1720000Y-162395D03*
G01*
X1720000Y-322395D03*
G01*
X1720000Y-242395D03*
G01*
X1720000Y-82395D03*
G01*
X1720000Y-2395D03*
G01*
X1720000Y77604D03*
G01*
X1720000Y157604D03*
G36*
X1686535Y271071D02*
G01*
X1753464Y271071D01*
X1753464Y204142D01*
X1686535Y204142D01*
G37*
G36*
X1686535Y351071D02*
G01*
X1753464Y351071D01*
X1753464Y284142D01*
X1686535Y284142D01*
G37*
G36*
X1686535Y431071D02*
G01*
X1753464Y431071D01*
X1753464Y364142D01*
X1686535Y364142D01*
G37*
G36*
X1576535Y429371D02*
G01*
X1643464Y429371D01*
X1643464Y362442D01*
X1576535Y362442D01*
G37*
G36*
X1496535Y429371D02*
G01*
X1563464Y429371D01*
X1563464Y362442D01*
X1496535Y362442D01*
G37*
G01*
X-55000Y-327094D03*
G01*
X-55000Y-247094D03*
G01*
X-55000Y-167094D03*
G01*
X-55000Y-87094D03*
G01*
X-55000Y-7094D03*
G01*
X-55000Y72905D03*
G36*
X-88464Y266370D02*
G01*
X-21535Y266370D01*
X-21535Y199439D01*
X-88464Y199439D01*
G37*
G36*
X-88464Y346370D02*
G01*
X-21535Y346370D01*
X-21535Y279439D01*
X-88464Y279439D01*
G37*
G36*
X-88464Y426370D02*
G01*
X-21535Y426370D01*
X-21535Y359439D01*
X-88464Y359439D01*
G37*
G36*
X-198464Y424670D02*
G01*
X-131535Y424670D01*
X-131535Y357739D01*
X-198464Y357739D01*
G37*
G36*
X-278464Y424670D02*
G01*
X-211535Y424670D01*
X-211535Y357739D01*
X-278464Y357739D01*
G37*
G01*
X-55000Y152905D03*
G01*
X-133699Y-394194D03*
G01*
X1641300Y-389494D03*
D15*
G01*
X885000Y165905D03*
G01*
X870000Y190905D03*
G01*
X905000Y190905D03*
G01*
X616000Y312404D03*
G01*
X565900Y312604D03*
G01*
X-1590299Y297705D03*
G01*
X-1487600Y229265D03*
G01*
X-1396999Y138904D03*
G01*
X615200Y368805D03*
G01*
X566300Y368704D03*
G01*
X-883299Y-122094D03*
G01*
X-1392560Y227905D03*
G01*
X-1218299Y247905D03*
G01*
X-1107550Y217905D03*
G01*
X-640000Y-337094D03*
G01*
X-770000Y-257094D03*
G01*
X-200000Y-267094D03*
G01*
X415500Y-361394D03*
G01*
X565500Y-361394D03*
G01*
X365000Y367604D03*
G01*
X1563299Y112604D03*
G01*
X1596700Y72604D03*
G01*
X465500Y366604D03*
G01*
X1400000Y52604D03*
G01*
X1435000Y52604D03*
G01*
X1515000Y-197395D03*
G01*
X1205000Y-87395D03*
G01*
X1123299Y-152395D03*
G01*
X1596700Y-127395D03*
G01*
X1596700Y-207395D03*
G01*
X1596499Y-167595D03*
G01*
X1596700Y-7395D03*
G01*
X1510000Y-42395D03*
G01*
X1596700Y-87395D03*
G01*
X-1256999Y138904D03*
G01*
X-1435600Y162705D03*
G01*
X-1183000Y138904D03*
G01*
X-770000Y-162094D03*
G01*
X-770000Y-127094D03*
G01*
X-1385979Y-302094D03*
G01*
X-1385979Y-252094D03*
G01*
X-840799Y-69494D03*
G01*
X-575000Y79605D03*
G01*
X-575000Y46204D03*
G01*
X-929200Y65505D03*
G01*
X-895000Y-177094D03*
G01*
X-960000Y-177094D03*
G01*
X1470000Y-290695D03*
G01*
X1430000Y-324094D03*
G01*
X1310000Y-290394D03*
G01*
X1270000Y-324094D03*
G01*
X1350000Y-324094D03*
G01*
X1310000Y-351394D03*
G01*
X1390000Y-351394D03*
G01*
X-830799Y102905D03*
G01*
X-830000Y252905D03*
G01*
X-830000Y167905D03*
G01*
X-880000Y227905D03*
G01*
X-880000Y166204D03*
G01*
X-930000Y-32094D03*
G01*
X-595000Y197905D03*
G01*
X1410000Y182604D03*
G01*
X965000Y-387395D03*
G01*
X1455000Y-374394D03*
G01*
X1470000Y-324394D03*
G01*
X1130000Y185905D03*
G01*
X1145000Y105905D03*
G01*
X1165000Y135905D03*
G01*
X1130000Y135905D03*
G01*
X913900Y-72395D03*
G01*
X515500Y-361394D03*
G01*
X465000Y-359094D03*
G01*
X620000Y-264094D03*
G01*
X-668000Y-190794D03*
G01*
X-340000Y-218795D03*
G01*
X1350000Y-67395D03*
G01*
X1260000Y905D03*
G01*
X1105000Y905D03*
G01*
X1095000Y-89094D03*
G01*
X1290000Y184304D03*
G01*
X1660000Y105905D03*
G01*
X-870299Y-398445D03*
G01*
X-870780Y-299654D03*
G01*
X-1169700Y-401824D03*
G01*
X-865000Y-158795D03*
G01*
X-1694880Y-314915D03*
G01*
X-1694239Y-185834D03*
G01*
X-1620000Y-248795D03*
G01*
X-1708500Y-7094D03*
G01*
X-1708500Y92905D03*
G01*
X1163500Y392604D03*
G01*
X-620000Y-142094D03*
G01*
X-571999Y-190794D03*
G01*
X-571999Y-94794D03*
G01*
X-668000Y-94794D03*
G01*
X520000Y-109094D03*
G01*
X520000Y-59094D03*
G01*
X518999Y-9094D03*
G01*
X518999Y40905D03*
G01*
X518999Y90905D03*
G01*
X568999Y90905D03*
G01*
X568999Y40905D03*
G01*
X568999Y-9094D03*
G01*
X570000Y-59094D03*
G01*
X570000Y-109094D03*
G01*
X621999Y-58094D03*
G01*
X621999Y-8094D03*
G01*
X621999Y41905D03*
G01*
X621999Y91905D03*
G01*
X668999Y-9094D03*
G01*
X668999Y40905D03*
G01*
X668999Y90905D03*
G01*
X718999Y90905D03*
G01*
X718999Y40905D03*
G01*
X475000Y-109094D03*
G01*
X475000Y-59094D03*
G01*
X475000Y-9094D03*
G01*
X475000Y40905D03*
G01*
X475000Y90905D03*
G01*
X670000Y145905D03*
G01*
X625000Y145905D03*
G01*
X570000Y145905D03*
G01*
X520000Y145905D03*
G01*
X475000Y145905D03*
G01*
X-1385979Y-202094D03*
G01*
X-347600Y-367094D03*
G01*
X-199399Y-310994D03*
G01*
X-171599Y41105D03*
G01*
X-298500Y101305D03*
G01*
X-805000Y321204D03*
G01*
X-820000Y291204D03*
G01*
X-698999Y363205D03*
G01*
X-1106999Y-226095D03*
G01*
X515500Y366604D03*
G01*
X315500Y366604D03*
G01*
X865000Y-207094D03*
G01*
X865000Y-172094D03*
G01*
X825000Y-277094D03*
G01*
X825000Y-242094D03*
G01*
X825000Y-172094D03*
G01*
X865000Y-242094D03*
G01*
X825000Y-207094D03*
G01*
X865000Y-277094D03*
D41*
X-1644593Y-394594D02*
G01*
X-1680025Y-394594D01*
X-1644593Y-109594D02*
G01*
X-1680025Y-109594D01*
M02*
