G04 Layer: BottomPasteMaskLayer*
G04 EasyEDA v6.5.5, 2022-06-25 23:47:44*
G04 621e16e28f884fd4bf2062cce9099d3c,e579ade59e434e5c9d4a708449f7d829,10*
G04 Gerber Generator version 0.2*
G04 Scale: 100 percent, Rotated: No, Reflected: No *
G04 Dimensions in inches *
G04 leading zeros omitted , absolute positions ,3 integer and 6 decimal *
%FSLAX36Y36*%
%MOIN*%

%ADD45R,0.0400X0.0138*%

%LPD*%
G36*
X1174889Y213117D02*
G01*
X1198509Y213117D01*
X1198509Y238697D01*
X1174889Y238697D01*
G37*
G36*
X1141490Y213117D02*
G01*
X1165110Y213117D01*
X1165110Y238697D01*
X1141490Y238697D01*
G37*
G36*
X1352209Y196017D02*
G01*
X1352209Y172397D01*
X1377790Y172397D01*
X1377790Y196017D01*
G37*
G36*
X1352209Y229416D02*
G01*
X1352209Y205797D01*
X1377790Y205797D01*
X1377790Y229416D01*
G37*
G36*
X1329593Y279687D02*
G01*
X1329593Y252126D01*
X1378806Y252126D01*
X1378806Y279687D01*
G37*
G36*
X1231193Y317087D02*
G01*
X1231193Y289527D01*
X1280406Y289527D01*
X1280406Y317087D01*
G37*
G36*
X1231193Y242287D02*
G01*
X1231193Y214727D01*
X1280406Y214727D01*
X1280406Y242287D01*
G37*
G36*
X445799Y396157D02*
G01*
X445799Y337057D01*
X485200Y337057D01*
X485200Y396157D01*
G37*
G36*
X495799Y396157D02*
G01*
X495799Y337057D01*
X535200Y337057D01*
X535200Y396157D01*
G37*
G36*
X545799Y396157D02*
G01*
X545799Y337057D01*
X585200Y337057D01*
X585200Y396157D01*
G37*
G36*
X595799Y396157D02*
G01*
X595799Y337057D01*
X635200Y337057D01*
X635200Y396157D01*
G37*
G36*
X645799Y396157D02*
G01*
X645799Y337057D01*
X685200Y337057D01*
X685200Y396157D01*
G37*
G36*
X695799Y396157D02*
G01*
X695799Y337057D01*
X735200Y337057D01*
X735200Y396157D01*
G37*
G36*
X745799Y396157D02*
G01*
X745799Y337057D01*
X785200Y337057D01*
X785200Y396157D01*
G37*
G36*
X795799Y396157D02*
G01*
X795799Y337057D01*
X835200Y337057D01*
X835200Y396157D01*
G37*
G36*
X1064049Y-203692D02*
G01*
X1004949Y-203692D01*
X1004949Y-243092D01*
X1064049Y-243092D01*
G37*
G36*
X945799Y-331842D02*
G01*
X945799Y-390942D01*
X985200Y-390942D01*
X985200Y-331842D01*
G37*
G36*
X895799Y-331842D02*
G01*
X895799Y-390942D01*
X935200Y-390942D01*
X935200Y-331842D01*
G37*
G36*
X845799Y-331842D02*
G01*
X845799Y-390942D01*
X885200Y-390942D01*
X885200Y-331842D01*
G37*
G36*
X795799Y-331842D02*
G01*
X795799Y-390942D01*
X835200Y-390942D01*
X835200Y-331842D01*
G37*
G36*
X745799Y-331842D02*
G01*
X745799Y-390942D01*
X785200Y-390942D01*
X785200Y-331842D01*
G37*
G36*
X695799Y-331842D02*
G01*
X695799Y-390942D01*
X735200Y-390942D01*
X735200Y-331842D01*
G37*
G36*
X645799Y-331842D02*
G01*
X645799Y-390942D01*
X685200Y-390942D01*
X685200Y-331842D01*
G37*
G36*
X1064049Y146307D02*
G01*
X1004949Y146307D01*
X1004949Y106907D01*
X1064049Y106907D01*
G37*
G36*
X845799Y396157D02*
G01*
X845799Y337057D01*
X885200Y337057D01*
X885200Y396157D01*
G37*
G36*
X895799Y396157D02*
G01*
X895799Y337057D01*
X935200Y337057D01*
X935200Y396157D01*
G37*
G36*
X945799Y396157D02*
G01*
X945799Y337057D01*
X985200Y337057D01*
X985200Y396157D01*
G37*
G36*
X1064049Y246307D02*
G01*
X1004949Y246307D01*
X1004949Y206907D01*
X1064049Y206907D01*
G37*
G36*
X1064049Y196307D02*
G01*
X1004949Y196307D01*
X1004949Y156907D01*
X1064049Y156907D01*
G37*
G36*
X395799Y396157D02*
G01*
X395799Y337057D01*
X435200Y337057D01*
X435200Y396157D01*
G37*
G36*
X345799Y396157D02*
G01*
X345799Y337057D01*
X385200Y337057D01*
X385200Y396157D01*
G37*
G36*
X295799Y396157D02*
G01*
X295799Y337057D01*
X335200Y337057D01*
X335200Y396157D01*
G37*
G36*
X1064049Y96307D02*
G01*
X1004949Y96307D01*
X1004949Y56907D01*
X1064049Y56907D01*
G37*
G36*
X1064049Y46307D02*
G01*
X1004949Y46307D01*
X1004949Y6907D01*
X1064049Y6907D01*
G37*
G36*
X1064049Y-3692D02*
G01*
X1004949Y-3692D01*
X1004949Y-43092D01*
X1064049Y-43092D01*
G37*
G36*
X1064049Y-153692D02*
G01*
X1004949Y-153692D01*
X1004949Y-193092D01*
X1064049Y-193092D01*
G37*
G36*
X1064049Y-103692D02*
G01*
X1004949Y-103692D01*
X1004949Y-143092D01*
X1064049Y-143092D01*
G37*
G36*
X1064049Y-53692D02*
G01*
X1004949Y-53692D01*
X1004949Y-93092D01*
X1064049Y-93092D01*
G37*
G36*
X595799Y-331842D02*
G01*
X595799Y-390942D01*
X635200Y-390942D01*
X635200Y-331842D01*
G37*
G36*
X545799Y-331842D02*
G01*
X545799Y-390942D01*
X585200Y-390942D01*
X585200Y-331842D01*
G37*
G36*
X495799Y-331842D02*
G01*
X495799Y-390942D01*
X535200Y-390942D01*
X535200Y-331842D01*
G37*
G36*
X445799Y-331842D02*
G01*
X445799Y-390942D01*
X485200Y-390942D01*
X485200Y-331842D01*
G37*
G36*
X395799Y-331842D02*
G01*
X395799Y-390942D01*
X435200Y-390942D01*
X435200Y-331842D01*
G37*
G36*
X345799Y-331842D02*
G01*
X345799Y-390942D01*
X385200Y-390942D01*
X385200Y-331842D01*
G37*
G36*
X295799Y-331842D02*
G01*
X295799Y-390942D01*
X335200Y-390942D01*
X335200Y-331842D01*
G37*
G36*
X501400Y108706D02*
G01*
X501400Y-127492D01*
X737600Y-127492D01*
X737600Y108706D01*
G37*
G36*
X-1366689Y-47305D02*
G01*
X-1390309Y-47305D01*
X-1390309Y-72885D01*
X-1366689Y-72885D01*
G37*
G36*
X-1333289Y-47305D02*
G01*
X-1356909Y-47305D01*
X-1356909Y-72885D01*
X-1333289Y-72885D01*
G37*
D45*
G01*
X-1557039Y-88224D03*
G01*
X-1557039Y-56725D03*
G01*
X-1557039Y-25234D03*
G01*
X-1557039Y6264D03*
G01*
X-1557039Y37744D03*
G01*
X-1557039Y69225D03*
G01*
X-1557039Y100705D03*
G01*
X-1453040Y-88224D03*
G01*
X-1453040Y-56725D03*
G01*
X-1453040Y-25234D03*
G01*
X-1453040Y6264D03*
G01*
X-1453040Y37744D03*
G01*
X-1453040Y69225D03*
G01*
X-1453040Y100705D03*
M02*
