G04 Layer: BottomSilkscreenLayer*
G04 EasyEDA v6.5.5, 2022-06-25 23:47:44*
G04 621e16e28f884fd4bf2062cce9099d3c,e579ade59e434e5c9d4a708449f7d829,10*
G04 Gerber Generator version 0.2*
G04 Scale: 100 percent, Rotated: No, Reflected: No *
G04 Dimensions in inches *
G04 leading zeros omitted , absolute positions ,3 integer and 6 decimal *
%FSLAX36Y36*%
%MOIN*%

%ADD10C,0.0100*%
%ADD46C,0.0060*%
%ADD49C,0.0079*%

%LPD*%
D46*
X-1336499Y304405D02*
G01*
X-1334899Y307505D01*
X-1331700Y310705D01*
X-1328500Y312305D01*
X-1322100Y312305D01*
X-1318999Y310705D01*
X-1315799Y307505D01*
X-1314200Y304405D01*
X-1312600Y299605D01*
X-1312600Y291604D01*
X-1314200Y286905D01*
X-1315799Y283704D01*
X-1318999Y280505D01*
X-1322100Y278904D01*
X-1328500Y278904D01*
X-1331700Y280505D01*
X-1334899Y283704D01*
X-1336499Y286905D01*
X-1336499Y291604D01*
X-1328500Y291604D02*
G01*
X-1336499Y291604D01*
X-1346999Y312305D02*
G01*
X-1346999Y278904D01*
X-1346999Y312305D02*
G01*
X-1369200Y278904D01*
X-1369200Y312305D02*
G01*
X-1369200Y278904D01*
X-1379700Y312305D02*
G01*
X-1379700Y278904D01*
X-1379700Y312305D02*
G01*
X-1390900Y312305D01*
X-1395600Y310705D01*
X-1398800Y307505D01*
X-1400399Y304405D01*
X-1401999Y299605D01*
X-1401999Y291604D01*
X-1400399Y286905D01*
X-1398800Y283704D01*
X-1395600Y280505D01*
X-1390900Y278904D01*
X-1379700Y278904D01*
X-1647181Y310996D02*
G01*
X-1664681Y310996D01*
X-1655135Y298269D01*
X-1659907Y298269D01*
X-1663090Y296678D01*
X-1664681Y295086D01*
X-1666271Y290314D01*
X-1666271Y287132D01*
X-1664681Y282360D01*
X-1661499Y279178D01*
X-1656725Y277586D01*
X-1651953Y277586D01*
X-1647181Y279178D01*
X-1645590Y280769D01*
X-1643999Y283951D01*
X-1676772Y310996D02*
G01*
X-1689498Y277586D01*
X-1702226Y310996D02*
G01*
X-1689498Y277586D01*
X-1715907Y310996D02*
G01*
X-1733407Y310996D01*
X-1723863Y298269D01*
X-1728635Y298269D01*
X-1731817Y296678D01*
X-1733407Y295086D01*
X-1734998Y290314D01*
X-1734998Y287132D01*
X-1733407Y282360D01*
X-1730226Y279178D01*
X-1725453Y277586D01*
X-1720681Y277586D01*
X-1715907Y279178D01*
X-1714317Y280769D01*
X-1712726Y283951D01*
X-1441271Y306223D02*
G01*
X-1438090Y309405D01*
X-1433316Y310996D01*
X-1426953Y310996D01*
X-1422181Y309405D01*
X-1418999Y306223D01*
X-1418999Y303042D01*
X-1420590Y299860D01*
X-1422181Y298269D01*
X-1425362Y296678D01*
X-1434907Y293496D01*
X-1438090Y291905D01*
X-1439681Y290314D01*
X-1441271Y287132D01*
X-1441271Y282360D01*
X-1438090Y279178D01*
X-1433316Y277586D01*
X-1426953Y277586D01*
X-1422181Y279178D01*
X-1418999Y282360D01*
X-1451772Y310996D02*
G01*
X-1451772Y277586D01*
X-1451772Y310996D02*
G01*
X-1462907Y310996D01*
X-1467681Y309405D01*
X-1470862Y306223D01*
X-1472453Y303042D01*
X-1474044Y298269D01*
X-1474044Y290314D01*
X-1472453Y285542D01*
X-1470862Y282360D01*
X-1467681Y279178D01*
X-1462907Y277586D01*
X-1451772Y277586D01*
X-1497272Y310996D02*
G01*
X-1484543Y277586D01*
X-1497272Y310996D02*
G01*
X-1509998Y277586D01*
X-1489317Y288723D02*
G01*
X-1505226Y288723D01*
X-1556046Y306223D02*
G01*
X-1552865Y309405D01*
X-1548091Y310996D01*
X-1541728Y310996D01*
X-1536956Y309405D01*
X-1533774Y306223D01*
X-1533774Y303042D01*
X-1535365Y299860D01*
X-1536956Y298269D01*
X-1540137Y296678D01*
X-1549683Y293496D01*
X-1552865Y291905D01*
X-1554456Y290314D01*
X-1556046Y287132D01*
X-1556046Y282360D01*
X-1552865Y279178D01*
X-1548091Y277586D01*
X-1541728Y277586D01*
X-1536956Y279178D01*
X-1533774Y282360D01*
X-1590410Y303042D02*
G01*
X-1588819Y306223D01*
X-1585637Y309405D01*
X-1582456Y310996D01*
X-1576091Y310996D01*
X-1572910Y309405D01*
X-1569728Y306223D01*
X-1568137Y303042D01*
X-1566547Y298269D01*
X-1566547Y290314D01*
X-1568137Y285542D01*
X-1569728Y282360D01*
X-1572910Y279178D01*
X-1576091Y277586D01*
X-1582456Y277586D01*
X-1585637Y279178D01*
X-1588819Y282360D01*
X-1590410Y285542D01*
X-1600910Y310996D02*
G01*
X-1600910Y277586D01*
X-1600910Y277586D02*
G01*
X-1620001Y277586D01*
X1162700Y208906D02*
G01*
X1137700Y208906D01*
X1137700Y242907D01*
X1158699Y242907D01*
X1162700Y242907D01*
X1177700Y242907D02*
G01*
X1201700Y242907D01*
X1201700Y208906D01*
X1180699Y208906D01*
X1177700Y208906D01*
X1348000Y208207D02*
G01*
X1348000Y233207D01*
X1381999Y233207D01*
X1381999Y212206D01*
X1381999Y208207D01*
X1381999Y193207D02*
G01*
X1381999Y169207D01*
X1348000Y169207D01*
X1348000Y190207D01*
X1348000Y193207D01*
D10*
X1330590Y297407D02*
G01*
X1330590Y323387D01*
X1330590Y297407D01*
X1330590Y323387D01*
X1298500Y323387D01*
X1298500Y208427D02*
G01*
X1330590Y208427D01*
X1330590Y234407D01*
D49*
X1269570Y254097D02*
G01*
X1269570Y277717D01*
D10*
X20500Y356606D02*
G01*
X20500Y-351392D01*
X1024499Y-351392D01*
X1024499Y356606D01*
X20500Y356606D01*
X291499Y302607D02*
G01*
X291499Y-297392D01*
D46*
X-1354499Y-43094D02*
G01*
X-1329499Y-43094D01*
X-1329499Y-77094D01*
X-1350500Y-77094D01*
X-1354499Y-77094D01*
X-1369499Y-77094D02*
G01*
X-1393500Y-77094D01*
X-1393500Y-43094D01*
X-1372500Y-43094D01*
X-1369499Y-43094D01*
D10*
X-1586035Y-103292D02*
G01*
X-1586035Y115706D01*
X-1424035Y115706D01*
X-1424035Y-103292D01*
X-1586035Y-103292D01*
M02*
